<svg width="744.09449" height="800" xmlns="http://www.w3.org/2000/svg" xmlns:xlink="http://www.w3.org/1999/xlink">
 <metadata id="metadata3342">image/svg+xml</metadata>
 <defs>
  <clipPath id="clipPath3350" clipPathUnits="userSpaceOnUse">
   <path id="path3352" d="m14.172781,805.061912l566.93,0l0,-566.93l-566.93,0l0,566.93z"/>
  </clipPath>
  <clipPath id="clipPath3424" clipPathUnits="userSpaceOnUse">
   <path id="path3426" d="m14.172781,805.061912l566.93,0l0,-566.93l-566.93,0l0,566.93z"/>
  </clipPath>
  <linearGradient id="linearGradient3392" spreadMethod="pad" gradientTransform="matrix(0.0213928,0.0194092,0.0194092,-0.0213928,196.68213,318.64551)" gradientUnits="userSpaceOnUse" y2="0" x2="1" y1="0" x1="0">
   <stop stop-color="#0065bd" id="stop3394" offset="0"/>
   <stop stop-color="#23718f" id="stop3396" offset="1"/>
  </linearGradient>
  <linearGradient y2="1.991269" x2="0.66921" y1="-0.786026" x1="0.380078" spreadMethod="pad" id="linearGradient4392" xlink:href="#linearGradient3392"/>
 </defs>
 <g>
  <title>background</title>
  <rect fill="none" id="canvas_background" height="802" width="746.09449" y="-1" x="-1"/>
 </g>
 <g>
  <title>Layer 1</title>
  <g display="inline" transform="matrix(1.25,0,0,-1.25,0,1052.3622) " id="g3344">
   <g fill="#ffffff" id="g3346">
    <g fill="#ffffff" clip-path="url(#clipPath3350)" id="g3348">
     <g fill="#ffffff" id="g3354">
      <path fill="#ffffff" fill-rule="nonzero" id="path3356" d="m130.999884,325.495209c-3.369,-0.412 -6.794,-0.621 -10.179,-0.621c-3.39,0 -6.813,0.209 -10.175,0.621c-3.31,0.408 -6.304,1.07 -8.9,1.966c-2.49,0.858 -4.52,1.974 -6.032,3.319c-1.302,1.155 -1.934,2.516 -1.934,4.155c0,3.108 0.28,5.59 0.837,7.384c0.465,1.506 1.464,2.632 3.052,3.445c1.803,0.923 4.529,1.549 8.099,1.857c3.752,0.326 8.816,0.489 15.053,0.489l27.043,0l0,-13.175c0,-1.639 -0.632,-2.998 -1.936,-4.155c-1.51,-1.345 -3.541,-2.461 -6.034,-3.319c-2.599,-0.896 -5.59,-1.558 -8.894,-1.966m-10.179,67.013c-10.843,0 -19.885,-2.799 -26.88,-8.316l-1.426,-1.124l8.318,-10.639l1.436,1.109c4.65,3.595 10.893,5.418 18.552,5.418c7.57,0 13.627,-1.684 17.999,-5.004c3.814,-2.903 6.456,-7.03 7.869,-12.289l-30.82,0c-4.756,0 -9.279,-0.243 -13.439,-0.721c-4.321,-0.498 -8.139,-1.641 -11.349,-3.395c-3.318,-1.814 -5.99,-4.558 -7.943,-8.159c-1.93,-3.555 -2.91,-8.418 -2.91,-14.453c0,-1.804 0.395,-3.99 1.209,-6.68c0.853,-2.824 2.779,-5.542 5.723,-8.073c2.861,-2.46 7.001,-4.579 12.299,-6.293c5.249,-1.703 12.435,-2.568 21.362,-2.568c8.925,0 16.112,0.865 21.361,2.568c5.303,1.716 9.442,3.833 12.302,6.293c2.937,2.527 4.864,5.242 5.722,8.071c0.813,2.694 1.208,4.88 1.208,6.682l0,16.98c0,12.607 -3.605,22.634 -10.717,29.799c-7.114,7.162 -17.168,10.794 -29.876,10.794"/>
     </g>
     <path fill="#ffffff" fill-rule="nonzero" id="path3358" d="m183.095781,408.952912l13.55,0l0,16.948l-13.55,0l0,-16.948z"/>
     <path fill="#ffffff" fill-rule="nonzero" id="path3360" d="m183.095781,312.028912l13.55,0l0,78.923l-13.55,0l0,-78.923z"/>
     <path fill="#ffffff" fill-rule="nonzero" id="path3362" d="m221.860781,312.028912l13.554,0l0,113.872l-13.554,0l0,-113.872z"/>
     <g fill="#ffffff" id="g3364">
      <path fill="#ffffff" fill-rule="nonzero" id="path3366" d="m291.748495,334.060616l-25.134,56.892l-14.743,0l32.646,-73.704l-16.092,-36.349l14.741,0l48.588,110.053l-14.734,0l-25.272,-56.892z"/>
     </g>
     <g fill="#ffffff" id="g3368">
      <path fill="#ffffff" fill-rule="nonzero" id="path3370" d="m374.783194,425.901413l-13.55,0l0,-34.384l-20.66,0l0,-13.552l20.66,0l0,-65.936l13.55,0l0,65.936l20.803,0l0,13.552l-20.803,0l0,34.384z"/>
     </g>
     <path fill="#ffffff" fill-rule="nonzero" id="path3372" d="m413.729781,408.952912l13.55,0l0,16.948l-13.55,0l0,-16.948z"/>
     <path fill="#ffffff" fill-rule="nonzero" id="path3374" d="m413.729781,312.028912l13.55,0l0,78.923l-13.55,0l0,-78.923z"/>
     <g fill="#ffffff" id="g3376">
      <path fill="#ffffff" fill-rule="nonzero" id="path3378" d="m505.592673,332.841911l-1.314,-1.263c-4.627,-4.45 -11.344,-6.705 -19.961,-6.705c-8.89,0 -15.694,2.294 -20.22,6.822c-4.526,4.525 -6.821,11.328 -6.821,20.219c0,8.797 2.298,15.578 6.829,20.154c4.526,4.57 11.322,6.887 20.212,6.887c7.478,0 13.533,-1.729 17.993,-5.143l1.461,-1.118l8.139,10.848l-1.448,1.096c-6.896,5.221 -15.694,7.869 -26.145,7.869c-12.708,0 -22.762,-3.632 -29.876,-10.797c-7.115,-7.162 -10.719,-17.188 -10.719,-29.796c0,-12.706 3.609,-22.758 10.724,-29.872c7.113,-7.114 17.163,-10.722 29.871,-10.722c6.025,0 11.582,0.868 16.514,2.578c5,1.734 9.346,4.372 12.913,7.845l1.303,1.262l-9.455,9.836z"/>
     </g>
    </g>
   </g>
   <g id="g3380">
    <g id="g3382">
     <g id="g3388">
      <g id="g3390">
       <path fill="url(#linearGradient4392)" id="path3398" d="m210.900781,556.782912c-0.027,0.002 -0.05,0.002 -0.074,0.007l0,0c0.024,-0.005 0.047,-0.007 0.074,-0.007"/>
      </g>
     </g>
    </g>
   </g>
   <g fill="#ffffff" id="g3400">
    <g fill="#ffffff" id="g3402">
     <g fill="#ffffff" id="g3408">
      <g fill="#ffffff" id="g3410">
       <path fill="#ffffff" id="path3418" d="m166.346781,531.431912l-2.368,-5.735l-4.33,-10.488c0,0 -0.005,-0.013 -0.005,-0.015l0,0l-1.052,-2.537c-0.656,-1.731 -1.47,-4.16 -1.977,-6.706l0,0c-1.913,-11.563 -4.16,-46.233 36.914,-49.262l0,0c10.742,-0.573 22.133,3.798 23.818,4.473l0,0c6.191,2.643 13.753,6.512 20.646,11.829l0,0l43.436,32.46c0.011,0.008 3.149,2.607 7.374,5.764l0,0c0,0 -21.14964,29.83397 -59.134,41.982l0,0c-2.284,0.663 -3.56488,2.61603 -5.81788,3.11403l-5.94068,0.93327l-6.12394,0.40124c-1.563,0.112 -2.58952,0.33053 -4.11652,0.33053l-2.15373,0c-16.731,0.86149 -31.57174,-6.18809 -39.16925,-26.54407"/>
      </g>
     </g>
    </g>
   </g>
   <g fill="#ffffff" id="g3420">
    <g fill="#ffffff" clip-path="url(#clipPath3424)" id="g3422">
     <g fill="#ffffff" id="g3428">
      <path fill="#ffffff" fill-rule="evenodd" id="path3430" d="m387.997976,510.006912l-0.037,0.031c-0.153,-0.142 -0.269,-0.314 -0.438,-0.446c-0.031,-0.025 -0.069,-0.042 -0.107,-0.067c-0.345,-0.257 -0.72,-0.479 -1.126,-0.682c-8.894,-4.945 -20.08,3.864 -20.08,3.864c-6.972,5.211 -15.608,11.661 -23.528,17.586c-51.271,42.077 -86.353,59.184 -109.823,64.862l42.758,103.551c0.203,0.496 0.394,0.988 0.571,1.482c6.39,17.566 13.913,22.668 17.744,24.154l0,0.004c0,0 3.306,1.642 7.416,-0.008c0.351,-0.138 0.743,-0.314 1.149,-0.517c0.04,-0.019 0.069,-0.027 0.101,-0.046c4.067,-2.069 10.733,-7.769 16.487,-23.587c0.184,-0.494 0.375,-0.986 0.573,-1.482l69.934,-169.36c0,0 1.057,-2.411 1.639,-5.682l0.008,0c0,-0.018 0,-0.037 0.009,-0.056c0.006,-0.074 0.015,-0.147 0.037,-0.22c1.832,-9.636 -3.287,-13.381 -3.287,-13.381m50.666,-4.056c-0.515,2.546 -1.325,4.975 -1.984,6.706l-1.043,2.538c0,0.001 -0.009,0.014 -0.009,0.014l-81.624,197.677c-14.319,39.398 -38.583,47.376 -50.028,48.886l0.007,0.002c-5.571,1.106 -11.803,0.105 -11.803,0.105l-0.005,-0.004c-11.023,-1.215 -36.198,-8.536 -50.908,-48.989l-51.216,-124.043l-0.005,0l-23.699,-57.411c32.79,72.211 155.088,-31.657 155.088,-31.657c0,0 -0.022,0.027 -0.045,0.042l0,-0.008l35.893,-26.818c6.897,-5.317 14.45,-9.186 20.65,-11.829c1.676,-0.676 13.076,-5.046 23.818,-4.473c41.064,3.029 38.82,37.699 36.913,49.262"/>
     </g>
    </g>
   </g>
  </g>
 </g>
</svg>
