<?xml version="1.0" encoding="UTF-8" standalone="no"?>
<!-- Created with Inkscape (http://www.inkscape.org/) -->

<svg
   xmlns:osb="http://www.openswatchbook.org/uri/2009/osb"
   xmlns:dc="http://purl.org/dc/elements/1.1/"
   xmlns:cc="http://creativecommons.org/ns#"
   xmlns:rdf="http://www.w3.org/1999/02/22-rdf-syntax-ns#"
   xmlns:svg="http://www.w3.org/2000/svg"
   xmlns="http://www.w3.org/2000/svg"
   xmlns:xlink="http://www.w3.org/1999/xlink"
   xmlns:sodipodi="http://sodipodi.sourceforge.net/DTD/sodipodi-0.dtd"
   xmlns:inkscape="http://www.inkscape.org/namespaces/inkscape"
   id="svg3336"
   version="1.1"
   inkscape:version="0.92.1 r15371"
   xml:space="preserve"
   width="210mm"
   height="297mm"
   viewBox="0 0 744.09449 1052.3622"
   sodipodi:docname="AilyticWhiteLogoOnly.svg"
   inkscape:export-filename="C:\Users\James\Google Drive\04 Ailytic - Marketing\04 - Branding\Logo\New\AilyticWhitefix.png"
   inkscape:export-xdpi="90"
   inkscape:export-ydpi="90"><metadata
     id="metadata3342"><rdf:RDF><cc:Work
         rdf:about=""><dc:format>image/svg+xml</dc:format><dc:type
           rdf:resource="http://purl.org/dc/dcmitype/StillImage" /><dc:title></dc:title></cc:Work></rdf:RDF></metadata><defs
     id="defs3340"><linearGradient
       id="linearGradient4378"
       osb:paint="solid"><stop
         style="stop-color:#0065bd;stop-opacity:1;"
         offset="0"
         id="stop4380" /></linearGradient><linearGradient
       x1="0"
       y1="0"
       x2="1"
       y2="0"
       gradientUnits="userSpaceOnUse"
       gradientTransform="matrix(0.0213928,0.0194092,0.0194092,-0.0213928,196.68213,318.64551)"
       spreadMethod="pad"
       id="linearGradient3392"><stop
         style="stop-color:#0065bd;stop-opacity:1;"
         offset="0"
         id="stop3394" /><stop
         style="stop-opacity:1;stop-color:#23718f"
         offset="1"
         id="stop3396" /></linearGradient><clipPath
       clipPathUnits="userSpaceOnUse"
       id="clipPath3424"><path
         d="m 0,566.93 566.93,0 L 566.93,0 0,0 0,566.93 Z"
         id="path3426"
         inkscape:connector-curvature="0" /></clipPath><linearGradient
       inkscape:collect="always"
       xlink:href="#linearGradient3392"
       id="linearGradient4392"
       gradientUnits="userSpaceOnUse"
       gradientTransform="matrix(0.0213928,0.0194092,0.0194092,-0.0213928,196.68213,318.64551)"
       spreadMethod="pad"
       x1="0"
       y1="0"
       x2="1"
       y2="0" /></defs><sodipodi:namedview
     pagecolor="#ffffff"
     bordercolor="#666666"
     borderopacity="1"
     objecttolerance="10"
     gridtolerance="10"
     guidetolerance="10"
     inkscape:pageopacity="0"
     inkscape:pageshadow="2"
     inkscape:window-width="2736"
     inkscape:window-height="1714"
     id="namedview3338"
     showgrid="false"
     inkscape:snap-bbox="true"
     inkscape:snap-global="false"
     inkscape:zoom="0.69646771"
     inkscape:cx="117.82976"
     inkscape:cy="356.46917"
     inkscape:window-x="-12"
     inkscape:window-y="-12"
     inkscape:window-maximized="1"
     inkscape:current-layer="g3344"
     units="mm"
     showborder="true" /><g
     id="g3344"
     inkscape:groupmode="layer"
     inkscape:label="AilyticOriginal"
     transform="matrix(1.25,0,0,-1.25,0,1052.3622)"
     style="display:inline;opacity:1"><g
       id="g3380"
       inkscape:export-xdpi="600"
       inkscape:export-ydpi="600"
       transform="matrix(1.8577289,0,0,1.8577289,-229.13685,-250.95326)"><g
         id="g3382"><g
           id="g3388"><g
             id="g3390"><path
               d="m 196.728,318.651 c -0.027,0.002 -0.05,0.002 -0.074,0.007 v 0 c 0.024,-0.005 0.047,-0.007 0.074,-0.007"
               style="fill:url(#linearGradient4392);stroke:none"
               id="path3398"
               inkscape:connector-curvature="0" /></g></g></g></g><g
       id="g3400"
       style="fill:#ffffff;fill-opacity:1"
       inkscape:export-xdpi="600"
       inkscape:export-ydpi="600"
       transform="matrix(1.8577289,0,0,1.8577289,-229.13685,-250.95326)"><g
         id="g3402"
         style="fill:#ffffff;fill-opacity:1"><g
           id="g3408"
           style="fill:#ffffff;fill-opacity:1"><g
             id="g3410"
             style="fill:#ffffff;fill-opacity:1"><path
               d="m 152.174,293.3 -2.368,-5.735 -4.33,-10.488 c 0,0 -0.005,-0.013 -0.005,-0.015 v 0 l -1.052,-2.537 c -0.656,-1.731 -1.47,-4.16 -1.977,-6.706 v 0 c -1.913,-11.563 -4.16,-46.233 36.914,-49.262 v 0 c 10.742,-0.573 22.133,3.798 23.818,4.473 v 0 c 6.191,2.643 13.753,6.512 20.646,11.829 v 0 l 43.436,32.46 c 0.011,0.008 3.149,2.607 7.374,5.764 v 0 c 0,0 -21.14964,29.83397 -59.134,41.982 v 0 c -2.284,0.663 -3.56488,2.61603 -5.81788,3.11403 l -5.94068,0.93327 -6.12394,0.40124 c -1.563,0.112 -2.58952,0.33053 -4.11652,0.33053 h -2.15373 C 174.61225,320.70556 159.77151,313.65598 152.174,293.3"
               style="fill:#ffffff;fill-opacity:1;stroke:none"
               id="path3418"
               inkscape:connector-curvature="0"
               sodipodi:nodetypes="ccccccccccccccccccccccccc"
               inkscape:export-xdpi="90"
               inkscape:export-ydpi="90" /></g></g></g></g><g
       id="g3420"
       style="fill:#ffffff;fill-opacity:1"
       inkscape:export-xdpi="600"
       inkscape:export-ydpi="600"
       transform="matrix(1.8577289,0,0,1.8577289,-229.13685,-250.95326)"><g
         id="g3422"
         clip-path="url(#clipPath3424)"
         style="opacity:1;fill:#ffffff;fill-opacity:1;stroke:none"><g
           id="g3428"
           transform="translate(373.8252,271.875)"
           style="fill:#ffffff;fill-opacity:1;stroke:none"><path
             d="M 0,0 -0.037,0.031 C -0.19,-0.111 -0.306,-0.283 -0.475,-0.415 -0.506,-0.44 -0.544,-0.457 -0.582,-0.482 -0.927,-0.739 -1.302,-0.961 -1.708,-1.164 -10.602,-6.109 -21.788,2.7 -21.788,2.7 -28.76,7.911 -37.396,14.361 -45.316,20.286 -96.587,62.363 -131.669,79.47 -155.139,85.148 l 42.758,103.551 c 0.203,0.496 0.394,0.988 0.571,1.482 6.39,17.566 13.913,22.668 17.744,24.154 v 0.004 c 0,0 3.306,1.642 7.416,-0.008 0.351,-0.138 0.743,-0.314 1.149,-0.517 0.04,-0.019 0.069,-0.027 0.101,-0.046 4.067,-2.069 10.733,-7.769 16.487,-23.587 0.184,-0.494 0.375,-0.986 0.573,-1.482 L 1.594,19.339 c 0,0 1.057,-2.411 1.639,-5.682 h 0.008 c 0,-0.018 0,-0.037 0.009,-0.056 0.006,-0.074 0.015,-0.147 0.037,-0.22 C 5.119,3.745 0,0 0,0 M 50.666,-4.056 C 50.151,-1.51 49.341,0.919 48.682,2.65 l -1.043,2.538 c 0,0.001 -0.009,0.014 -0.009,0.014 l -81.624,197.677 c -14.319,39.398 -38.583,47.376 -50.028,48.886 l 0.007,0.002 c -5.571,1.106 -11.803,0.105 -11.803,0.105 l -0.005,-0.004 c -11.023,-1.215 -36.198,-8.536 -50.908,-48.989 L -197.947,78.836 h -0.005 l -23.699,-57.411 c 32.79,72.211 155.088,-31.657 155.088,-31.657 0,0 -0.022,0.027 -0.045,0.042 v -0.008 l 35.893,-26.818 c 6.897,-5.317 14.45,-9.186 20.65,-11.829 1.676,-0.676 13.076,-5.046 23.818,-4.473 41.064,3.029 38.82,37.699 36.913,49.262"
             style="fill:#ffffff;fill-opacity:1;fill-rule:evenodd;stroke:none"
             id="path3430"
             inkscape:connector-curvature="0" /></g></g></g></g></svg>