<?xml version="1.0" encoding="iso-8859-1"?>
<!-- Generator: Adobe Illustrator 19.0.0, SVG Export Plug-In . SVG Version: 6.00 Build 0)  -->
<svg xmlns="http://www.w3.org/2000/svg" xmlns:xlink="http://www.w3.org/1999/xlink" version="1.1" id="Capa_1" x="0px" y="0px" viewBox="0 0 512 512" style="enable-background:new 0 0 512 512;" xml:space="preserve">
<path style="fill:#BFDEFF;" d="M353.398,502V350.927c-5.388-6.333-13.411-10.357-22.38-10.357h-225.24  c-16.23,0-29.38,13.16-29.38,29.38V502H353.398z"/>
<polygon style="fill:#676767;" points="362.558,298.261 426.442,298.261 394.5,248.868 "/>
<polygon style="fill:#C69F7F;" points="435.602,502 435.602,314.004 413.119,339.477 375.881,339.477 353.398,314.004 353.398,502   "/>
<polygon style="fill:#FDB845;" points="426.442,298.261 362.558,298.261 353.398,312.426 353.398,314.004 375.881,339.477   413.119,339.477 435.602,314.004 435.602,312.426 "/>
<path d="M394.5,392.29c-0.65,0-1.31-0.07-1.95-0.2s-1.27-0.32-1.87-0.57c-0.61-0.25-1.189-0.56-1.729-0.92  c-0.551-0.359-1.061-0.78-1.521-1.24s-0.88-0.97-1.24-1.52c-0.359-0.54-0.67-1.13-0.92-1.73s-0.45-1.229-0.58-1.869  c-0.13-0.641-0.19-1.301-0.19-1.95c0-0.65,0.06-1.311,0.19-1.96c0.13-0.641,0.33-1.271,0.58-1.87c0.25-0.601,0.55-1.18,0.91-1.73  c0.37-0.54,0.79-1.05,1.25-1.51c0.46-0.47,0.97-0.88,1.521-1.25c0.54-0.36,1.119-0.67,1.729-0.92c0.601-0.25,1.23-0.44,1.87-0.57  c1.29-0.26,2.61-0.26,3.9,0c0.64,0.13,1.27,0.32,1.869,0.57c0.61,0.25,1.19,0.56,1.73,0.92c0.55,0.37,1.06,0.78,1.52,1.25  c0.461,0.46,0.881,0.97,1.24,1.51c0.37,0.551,0.67,1.13,0.92,1.73s0.45,1.23,0.58,1.87c0.13,0.649,0.19,1.309,0.19,1.96  c0,0.65-0.06,1.31-0.19,1.95s-0.33,1.27-0.58,1.869c-0.25,0.601-0.56,1.19-0.92,1.73c-0.359,0.55-0.779,1.06-1.24,1.52  c-0.46,0.46-0.97,0.881-1.52,1.24c-0.54,0.36-1.12,0.67-1.73,0.92c-0.6,0.25-1.229,0.44-1.869,0.57S395.149,392.29,394.5,392.29z"/>
<path style="fill:#FDB845;" d="M328.898,122h-221v-13.575c0-41.559,33.691-75.25,75.25-75.25h70.5  c41.559,0,75.25,33.691,75.25,75.25V122z"/>
<path style="fill:#C69F7F;" d="M104.398,182.175v40c0,51.85,34.618,85.608,82,99.44v18.955h64v-18.955  c47.382-13.832,82-47.59,82-99.44v-40L104.398,182.175L104.398,182.175z"/>
<rect x="188.9" y="10" style="fill:#4184B2;" width="59" height="112"/>
<rect x="88.08" y="122" style="fill:#FDB845;" width="260.64" height="60.17"/>
<path d="M311.83,162.09c-0.65,0-1.311-0.07-1.95-0.2c-0.64-0.13-1.271-0.32-1.87-0.57c-0.61-0.25-1.19-0.56-1.729-0.92  c-0.551-0.359-1.061-0.779-1.521-1.239c-1.86-1.87-2.93-4.441-2.93-7.07c0-0.65,0.069-1.309,0.2-1.96  c0.119-0.63,0.319-1.26,0.569-1.87c0.25-0.6,0.561-1.18,0.92-1.72c0.36-0.55,0.78-1.06,1.24-1.52s0.97-0.88,1.521-1.25  c0.539-0.359,1.119-0.67,1.729-0.92c0.6-0.25,1.23-0.439,1.87-0.569c1.29-0.261,2.62-0.261,3.9,0c0.64,0.13,1.27,0.319,1.88,0.569  c0.6,0.25,1.18,0.561,1.72,0.92c0.55,0.37,1.06,0.79,1.52,1.25s0.881,0.971,1.25,1.52c0.36,0.54,0.66,1.12,0.91,1.72  c0.25,0.61,0.45,1.24,0.58,1.87c0.13,0.65,0.191,1.31,0.191,1.96c0,2.63-1.07,5.2-2.931,7.07c-0.46,0.46-0.97,0.88-1.52,1.239  c-0.54,0.36-1.12,0.67-1.72,0.92c-0.61,0.25-1.24,0.44-1.88,0.57C313.14,162.02,312.479,162.09,311.83,162.09z"/>
<path d="M148.916,234.178c-3.975,0-7.734-2.387-9.294-6.305c-2.043-5.131,0.462-10.947,5.593-12.989l14.951-5.951  c2.376-0.946,5.023-0.944,7.396,0l14.95,5.951c5.132,2.043,7.636,7.858,5.593,12.989c-2.042,5.131-7.859,7.634-12.989,5.593  l-11.252-4.48l-11.253,4.48C151.398,233.948,150.146,234.178,148.916,234.178z"/>
<path d="M257.984,234.178c-3.975,0-7.734-2.387-9.294-6.305c-2.043-5.131,0.462-10.947,5.593-12.989l14.951-5.951  c2.376-0.946,5.022-0.944,7.396,0l14.95,5.951c5.132,2.043,7.636,7.858,5.593,12.989s-7.858,7.634-12.989,5.593l-11.252-4.48  l-11.253,4.48C260.467,233.948,259.215,234.178,257.984,234.178z"/>
<polygon style="fill:#076893;" points="314.618,395.67 314.618,502 122.178,502 122.178,395.67 131.238,395.67 131.238,340.57   182.908,340.57 182.908,395.67 253.888,395.67 253.888,340.57 305.558,340.57 305.558,395.67 "/>
<path d="M153.06,461.67c-0.649,0-1.3-0.07-1.95-0.2c-0.64-0.13-1.27-0.32-1.869-0.57c-0.601-0.25-1.181-0.56-1.73-0.92  c-0.54-0.359-1.06-0.779-1.52-1.239c-0.46-0.46-0.881-0.971-1.24-1.521c-0.36-0.54-0.67-1.12-0.92-1.729  c-0.25-0.601-0.44-1.23-0.57-1.87c-0.13-0.641-0.2-1.301-0.2-1.95c0-0.65,0.07-1.31,0.2-1.96c0.13-0.641,0.32-1.27,0.57-1.87  s0.56-1.18,0.92-1.73c0.359-0.54,0.78-1.05,1.24-1.51c0.46-0.47,0.979-0.88,1.52-1.25c0.55-0.359,1.13-0.67,1.73-0.92  c0.6-0.25,1.229-0.439,1.869-0.57c1.29-0.26,2.62-0.26,3.91,0c0.641,0.131,1.27,0.32,1.87,0.57c0.601,0.25,1.18,0.561,1.73,0.92  c0.54,0.37,1.05,0.78,1.52,1.25c0.46,0.46,0.88,0.97,1.24,1.51c0.36,0.551,0.67,1.131,0.92,1.73c0.25,0.6,0.44,1.229,0.57,1.87  c0.13,0.649,0.199,1.31,0.199,1.96c0,0.649-0.069,1.31-0.199,1.95s-0.32,1.27-0.57,1.87c-0.25,0.609-0.56,1.189-0.92,1.729  c-0.37,0.55-0.78,1.061-1.24,1.521c-0.47,0.46-0.979,0.88-1.52,1.239c-0.551,0.36-1.13,0.67-1.73,0.92  c-0.6,0.25-1.229,0.44-1.87,0.57C154.37,461.6,153.72,461.67,153.06,461.67z"/>
<path d="M445.603,312.426c0-1.927-0.557-3.813-1.603-5.431l-9.16-14.164l-31.942-49.394c-1.843-2.849-5.005-4.569-8.397-4.569  s-6.555,1.721-8.397,4.569l-31.942,49.394L345,306.995c-1.046,1.618-1.603,3.504-1.603,5.431v1.578c0,0.007,0.001,0.014,0.001,0.021  v18.545c-3.948-1.308-8.121-2-12.38-2h-25.461h-45.159v-1.636c23.022-7.878,42.376-20.301,56.292-36.195  c17.059-19.483,25.708-43.226,25.708-70.564v-30h6.321c5.522,0,10-4.478,10-10V122c0-5.522-4.478-10-10-10h-9.821v-3.575  c0-45.581-35.96-82.92-81-85.142V10c0-5.523-4.478-10-10-10h-59c-5.522,0-10,4.477-10,10v13.283c-45.04,2.222-81,39.561-81,85.142  V112h-9.822c-5.522,0-10,4.478-10,10v60.175c0,5.522,4.478,10,10,10h6.322v30c0,27.339,8.649,51.081,25.708,70.564  c13.916,15.895,33.27,28.317,56.292,36.195v1.636h-45.16h-25.46c-21.715,0-39.381,17.666-39.381,39.38V502c0,5.522,4.478,10,10,10  h45.78h192.44h38.779l0,0h0.001H435.6c5.522,0,10-4.478,10-10V314.025c0-0.007,0.001-0.014,0.001-0.021v-1.578H445.603z   M408.607,329.478h-28.215l-15.071-17.076l2.677-4.14H421l2.677,4.14L408.607,329.478z M394.5,267.283l13.566,20.978h-27.133  L394.5,267.283z M343.397,355.048v86.619h-18.779V395.67c0-5.206-3.979-9.482-9.061-9.956V350.57h15.461  C335.578,350.57,339.941,352.173,343.397,355.048z M192.908,350.57h50.979v35.1h-50.979V350.57z M98.076,172.175v-10.087h178.166  c5.522,0,10-4.478,10-10c0-5.523-4.478-10-10-10H98.076V132h9.822h81h59h81h9.821v40.175h-6.321h-228H98.076z M318.898,108.425V112  h-61V43.328C291.902,45.527,318.898,73.876,318.898,108.425z M198.898,20h39v92h-39V20z M117.898,108.425  c0-34.549,26.997-62.897,61-65.096V112h-61C117.898,112,117.898,108.425,117.898,108.425z M114.398,222.175v-30h208v30  c0,43.218-27.265,75.964-74.803,89.841c-4.265,1.245-7.197,5.156-7.197,9.6v8.955h-44v-8.955c0-4.443-2.933-8.354-7.197-9.6  C141.663,298.139,114.398,265.393,114.398,222.175z M105.778,350.57h15.46v35.144c-5.082,0.474-9.061,4.75-9.061,9.956v45.997  h-25.78V369.95C86.397,359.264,95.092,350.57,105.778,350.57z M86.397,461.667h25.78V492h-25.78V461.667z M132.178,492v-86.374  c5.082-0.474,9.061-4.75,9.061-9.956v-45.1h31.67v45.1c0,5.523,4.477,10,10,10h70.979c5.522,0,10-4.477,10-10v-45.1h31.67v45.1  c0,5.206,3.979,9.482,9.061,9.956v36.041H188.654c-5.522,0-10,4.478-10,10c0,5.523,4.478,10,10,10h115.964V492H132.178z   M324.618,492v-30.333h18.779V492H324.618z M404.5,492v-74.124c0-5.523-4.478-10-10-10s-10,4.477-10,10V492h-21.102V340.446  l0.203,0.23l4.782,5.418c1.898,2.15,4.629,3.383,7.498,3.383h37.238c2.869,0,5.6-1.232,7.498-3.383l4.782-5.418l0.203-0.23V492  H404.5z"/>
<g>
</g>
<g>
</g>
<g>
</g>
<g>
</g>
<g>
</g>
<g>
</g>
<g>
</g>
<g>
</g>
<g>
</g>
<g>
</g>
<g>
</g>
<g>
</g>
<g>
</g>
<g>
</g>
<g>
</g>
</svg>
