<?xml version="1.0" encoding="iso-8859-1"?>
<!-- Generator: Adobe Illustrator 19.0.0, SVG Export Plug-In . SVG Version: 6.00 Build 0)  -->
<svg xmlns="http://www.w3.org/2000/svg" xmlns:xlink="http://www.w3.org/1999/xlink" version="1.1" id="Capa_1" x="0px" y="0px" viewBox="0 0 512 512" style="enable-background:new 0 0 512 512;" xml:space="preserve">
<path style="fill:#BFDEFF;" d="M399.668,502c2.542-6.134,3.952-12.857,3.952-19.911c0-28.748-23.305-52.053-52.053-52.053  c-28.748,0-52.053,23.305-52.053,52.053c0,7.054,1.41,13.776,3.952,19.911H399.668z"/>
<path style="fill:#939393;" d="M436.357,460.819c-2.108-8.431-5.44-16.377-9.798-23.638l16.711-23.07l-23.723-23.723l-23.07,16.711  c-7.261-4.358-15.206-7.689-23.638-9.798l-4.495-28.123h-33.55l-4.495,28.123c-8.431,2.108-16.377,5.44-23.638,9.798l-23.07-16.711  l-23.723,23.723l16.711,23.07c-4.358,7.261-7.689,15.206-9.798,23.638l-28.123,4.495v33.549L258.275,502h45.192  c-2.542-6.134-3.952-12.857-3.952-19.911c0-28.748,23.305-52.053,52.053-52.053c28.748,0,52.053,23.305,52.053,52.053  c0,7.054-1.41,13.776-3.952,19.911h45.192l19.618-3.136v-33.549L436.357,460.819z"/>
<path style="fill:#BFDEFF;" d="M238.657,465.315l28.123-4.495c2.109-8.431,5.44-16.377,9.798-23.638l-16.711-23.07l23.723-23.723  l23.07,16.711c7.261-4.358,15.207-7.689,23.638-9.798l1.226-7.672v-19.68c0-16.22-13.15-29.38-29.38-29.38H76.904  c-16.23,0-29.38,13.16-29.38,29.38V502h210.752l-19.618-3.136L238.657,465.315L238.657,465.315z"/>
<path style="fill:#076893;" d="M238.657,465.315l28.123-4.495c2.109-8.431,5.44-16.377,9.798-23.638l-16.711-23.07l18.441-18.441  h-1.623v-55.1h-51.67v55.1h-70.98v-55.1h-51.67v55.1h-9.06V502h164.972l-19.618-3.136v-33.549H238.657z"/>
<path style="fill:#C69F7F;" d="M75.524,182.175v40c0,51.85,34.618,85.608,82,99.44v18.955h64v-18.955  c47.382-13.832,82-47.59,82-99.44v-40L75.524,182.175L75.524,182.175z"/>
<rect x="160.021" y="10" style="fill:#4184B2;" width="59" height="112"/>
<g>
	<path style="fill:#FDB845;" d="M154.274,33.175c-41.56,0-75.25,33.691-75.25,75.25V122h81V33.175H154.274z"/>
	<path style="fill:#FDB845;" d="M224.774,33.175h-5.75V122h81v-13.575C300.025,66.866,266.333,33.175,224.774,33.175z"/>
	<rect x="59.201" y="122" style="fill:#FDB845;" width="260.64" height="60.17"/>
</g>
<path d="M282.961,162.09c-2.64,0-5.21-1.07-7.08-2.93c-0.46-0.46-0.87-0.971-1.24-1.521c-0.36-0.54-0.67-1.12-0.92-1.729  c-0.25-0.601-0.44-1.23-0.57-1.87c-0.13-0.641-0.19-1.3-0.19-1.95s0.06-1.309,0.19-1.96c0.13-0.63,0.32-1.26,0.57-1.87  c0.25-0.6,0.56-1.18,0.92-1.72c0.37-0.55,0.78-1.06,1.24-1.52c0.47-0.46,0.98-0.88,1.52-1.25c0.55-0.359,1.13-0.67,1.73-0.92  s1.23-0.439,1.87-0.569c1.29-0.261,2.62-0.261,3.91,0c0.64,0.13,1.27,0.319,1.87,0.569s1.19,0.561,1.73,0.92  c0.55,0.37,1.06,0.79,1.52,1.25s0.88,0.971,1.24,1.52c0.36,0.54,0.67,1.12,0.92,1.72c0.25,0.61,0.44,1.24,0.57,1.87  c0.13,0.65,0.2,1.31,0.2,1.96c0,0.65-0.07,1.31-0.2,1.95s-0.32,1.27-0.57,1.87c-0.25,0.609-0.56,1.189-0.92,1.729  c-0.36,0.55-0.78,1.061-1.24,1.521c-0.46,0.46-0.97,0.88-1.52,1.239c-0.54,0.36-1.13,0.67-1.73,0.92s-1.23,0.44-1.87,0.57  C284.271,162.02,283.611,162.09,282.961,162.09z"/>
<path d="M149.938,234.178c-1.231,0-2.482-0.229-3.695-0.712l-11.253-4.48l-11.253,4.48c-5.13,2.041-10.947-0.462-12.989-5.593  c-2.043-5.131,0.461-10.946,5.593-12.989l14.951-5.951c2.375-0.945,5.021-0.945,7.396,0l14.951,5.951  c5.131,2.042,7.635,7.858,5.593,12.989C157.672,231.791,153.912,234.178,149.938,234.178z"/>
<path d="M229.11,234.178c-3.975,0-7.734-2.387-9.294-6.305c-2.042-5.131,0.462-10.947,5.593-12.989l14.951-5.951  c2.375-0.945,5.021-0.945,7.396,0l14.951,5.951c5.131,2.043,7.635,7.858,5.593,12.989c-2.043,5.132-7.858,7.639-12.989,5.593  l-11.253-4.48l-11.253,4.48C231.593,233.948,230.341,234.178,229.11,234.178z"/>
<path d="M124.191,461.67c-0.65,0-1.31-0.07-1.96-0.2c-0.63-0.13-1.26-0.32-1.87-0.57c-0.6-0.25-1.18-0.56-1.72-0.92  c-0.55-0.359-1.06-0.779-1.52-1.239c-1.86-1.86-2.93-4.44-2.93-7.07c0-2.64,1.07-5.21,2.93-7.07c0.46-0.46,0.97-0.88,1.52-1.25  c0.54-0.359,1.12-0.67,1.72-0.92c0.61-0.25,1.24-0.439,1.87-0.57c1.3-0.26,2.62-0.26,3.91,0c0.64,0.131,1.27,0.32,1.87,0.57  c0.61,0.25,1.19,0.561,1.73,0.92c0.55,0.37,1.06,0.79,1.52,1.25c1.86,1.86,2.93,4.431,2.93,7.07c0,2.63-1.07,5.21-2.93,7.07  c-0.46,0.46-0.97,0.88-1.52,1.239c-0.54,0.36-1.12,0.67-1.73,0.92c-0.6,0.25-1.23,0.44-1.87,0.57  C125.501,461.6,124.841,461.67,124.191,461.67z"/>
<path d="M466.056,455.44l-21.851-3.492c-1.569-4.826-3.515-9.52-5.822-14.045l12.984-17.925c2.882-3.98,2.447-9.463-1.027-12.938  l-23.723-23.724c-3.475-3.474-8.957-3.909-12.938-1.027l-17.925,12.984c-4.525-2.308-9.219-4.253-14.045-5.821l-3.493-21.852  c-0.775-4.853-4.961-8.422-9.875-8.422h-28.329c-4.698-16.492-19.891-28.608-37.87-28.608h-25.46h-45.16v-1.636  c23.022-7.878,42.376-20.301,56.292-36.195c17.059-19.483,25.708-43.226,25.708-70.564v-30h6.322c5.523,0,10-4.478,10-10V122  c0-5.522-4.477-10-10-10h-9.822v-3.575c0-45.581-35.96-82.92-81-85.142V10c0-5.523-4.477-10-10-10h-59c-5.523,0-10,4.477-10,10  v13.283c-45.04,2.222-81,39.561-81,85.142V112H59.2c-5.523,0-10,4.478-10,10v60.175c0,5.522,4.477,10,10,10h6.322v30  c0,27.339,8.649,51.081,25.708,70.564c13.916,15.895,33.27,28.317,56.292,36.195v1.636h-45.16h-25.46  c-21.714,0-39.38,17.666-39.38,39.38V502c0,5.522,4.477,10,10,10h45.78h164.972h45.192h96.201h45.192  c0.529,0,1.056-0.042,1.578-0.125l19.618-3.136c4.852-0.776,8.422-4.962,8.422-9.875v-33.55  C474.478,460.401,470.909,456.215,466.056,455.44z M321.525,369.95v18.886l-0.099,0.616c-4.826,1.568-9.52,3.514-14.044,5.821  l-17.925-12.984c-0.864-0.626-1.802-1.086-2.772-1.401V350.57h15.46C312.831,350.57,321.525,359.264,321.525,369.95z   M164.034,350.57h50.98v35.1h-50.98V350.57z M69.202,172.175v-10.087h178.166c5.523,0,10-4.478,10-10c0-5.523-4.477-10-10-10H69.202  V132h9.822h81h59h81h9.822v40.175h-6.322h-228H69.202z M290.025,108.425V112h-61V43.312  C263.03,45.508,290.025,73.873,290.025,108.425z M170.024,20h39v13.175V112h-39V33.175V20z M89.024,108.425  c0-34.552,26.994-62.917,61-65.113V112h-61C89.024,112,89.024,108.425,89.024,108.425z M85.524,222.175v-30h208v30  c0,43.218-27.264,75.964-74.802,89.841c-4.266,1.245-7.198,5.156-7.198,9.6v8.955h-44v-8.955c0-4.443-2.932-8.354-7.198-9.6  C112.788,298.139,85.524,265.393,85.524,222.175z M76.904,350.57h15.46v35.144c-5.082,0.474-9.06,4.75-9.06,9.956v45.997h-25.78  V369.95C57.524,359.264,66.218,350.57,76.904,350.57z M57.524,461.667h25.78V492h-25.78C57.524,492,57.524,461.667,57.524,461.667z   M103.304,405.626c5.082-0.474,9.06-4.75,9.06-9.956v-45.1h31.67v45.1c0,5.523,4.477,10,10,10h70.98c5.523,0,10-4.477,10-10v-45.1  h31.67v42.581l-13.889,13.889c-3.474,3.475-3.91,8.958-1.027,12.938l12.984,17.925c-0.633,1.241-1.233,2.498-1.811,3.765H159.78  c-5.523,0-10,4.478-10,10c0,5.523,4.477,10,10,10h69.57c-0.339,0.863-0.566,1.781-0.652,2.735c-0.027,0.301-0.041,0.605-0.041,0.912  V492H103.304V405.626z M393.552,484.413c-0.013,0.244-0.036,0.487-0.053,0.731c-0.038,0.531-0.083,1.061-0.141,1.589  c-0.031,0.279-0.066,0.556-0.102,0.834c-0.065,0.502-0.14,1.003-0.224,1.502c-0.045,0.27-0.089,0.539-0.14,0.808  c-0.103,0.548-0.22,1.093-0.345,1.636c-0.037,0.163-0.07,0.326-0.11,0.489h-81.74c-0.039-0.162-0.072-0.326-0.11-0.489  c-0.125-0.543-0.242-1.088-0.345-1.636c-0.05-0.269-0.095-0.538-0.14-0.808c-0.083-0.499-0.158-0.999-0.224-1.501  c-0.036-0.278-0.072-0.557-0.102-0.836c-0.058-0.526-0.102-1.056-0.141-1.585c-0.017-0.244-0.04-0.488-0.053-0.733  c-0.042-0.772-0.068-1.546-0.068-2.324c0-23.188,18.865-42.053,42.052-42.053c23.188,0,42.053,18.865,42.053,42.053  C393.62,482.867,393.594,483.641,393.552,484.413z M454.478,490.336L444.066,492h-31.234c0.024-0.148,0.04-0.298,0.063-0.446  c0.049-0.32,0.091-0.641,0.135-0.962c0.085-0.616,0.161-1.234,0.227-1.853c0.036-0.335,0.07-0.671,0.1-1.007  c0.058-0.644,0.104-1.29,0.142-1.938c0.017-0.295,0.04-0.589,0.053-0.885c0.042-0.937,0.068-1.877,0.068-2.82  c0-34.216-27.837-62.053-62.053-62.053s-62.052,27.837-62.052,62.053c0,0.943,0.026,1.883,0.068,2.82  c0.013,0.296,0.035,0.59,0.053,0.885c0.038,0.647,0.084,1.294,0.142,1.938c0.03,0.336,0.065,0.672,0.1,1.007  c0.066,0.62,0.143,1.237,0.227,1.853c0.044,0.321,0.086,0.642,0.135,0.962c0.023,0.148,0.039,0.298,0.063,0.446h-31.232  l-10.414-1.664v-16.493l19.701-3.148c3.955-0.633,7.151-3.563,8.123-7.449c1.84-7.36,4.758-14.397,8.67-20.918  c2.061-3.434,1.874-7.767-0.476-11.012l-11.708-16.164l7.934-7.934l3.728-3.728l16.163,11.708c3.243,2.35,7.577,2.537,11.012,0.476  c6.518-3.912,13.557-6.829,20.918-8.67c3.886-0.972,6.817-4.168,7.449-8.123l3.149-19.701h16.493l3.149,19.701  c0.632,3.955,3.563,7.151,7.448,8.123c7.361,1.841,14.4,4.758,20.918,8.67c3.436,2.063,7.77,1.873,11.012-0.476l16.164-11.708  l11.662,11.662l-11.708,16.164c-2.35,3.244-2.537,7.577-0.476,11.012c3.913,6.522,6.831,13.559,8.671,20.918  c0.972,3.886,4.168,6.816,8.123,7.449l19.701,3.148v16.493H454.478z"/>
<g>
</g>
<g>
</g>
<g>
</g>
<g>
</g>
<g>
</g>
<g>
</g>
<g>
</g>
<g>
</g>
<g>
</g>
<g>
</g>
<g>
</g>
<g>
</g>
<g>
</g>
<g>
</g>
<g>
</g>
</svg>
