<?xml version="1.0" encoding="iso-8859-1"?>
<!-- Generator: Adobe Illustrator 19.0.0, SVG Export Plug-In . SVG Version: 6.00 Build 0)  -->
<svg xmlns="http://www.w3.org/2000/svg" xmlns:xlink="http://www.w3.org/1999/xlink" version="1.1" id="Capa_1" x="0px" y="0px" viewBox="0 0 512.001 512.001" style="enable-background:new 0 0 512.001 512.001;" xml:space="preserve">
<path style="fill:#C69F7F;" d="M257.542,151.734v34.948c0,45.301,30.245,74.795,71.642,86.879v16.561H385.1v-16.561  c41.397-12.085,71.642-41.579,71.642-86.879v-34.948L257.542,151.734L257.542,151.734z"/>
<rect x="331.37" y="17.283" style="fill:#4184B2;" width="51.55" height="91.86"/>
<g>
	<path style="fill:#FDB845;" d="M260.6,106.79v2.355h70.769V31.684C291.897,34.004,260.6,66.736,260.6,106.79z"/>
	<path style="fill:#FDB845;" d="M382.916,31.684v77.461h70.769v-2.355C453.685,66.736,422.388,34.004,382.916,31.684z"/>
	<rect x="243.28" y="109.14" style="fill:#FDB845;" width="227.72" height="42.589"/>
</g>
<path d="M296.437,198.431c-3.975,0-7.734-2.387-9.294-6.305c-2.043-5.132,0.461-10.947,5.593-12.989l13.063-5.199  c2.375-0.945,5.021-0.945,7.396,0l13.062,5.199c5.131,2.042,7.635,7.858,5.593,12.989c-2.043,5.132-7.858,7.639-12.989,5.593  l-9.364-3.728l-9.364,3.728C298.919,198.202,297.668,198.431,296.437,198.431z"/>
<path d="M417.848,198.431c-1.231,0-2.482-0.229-3.695-0.712l-9.364-3.728l-9.364,3.728c-5.132,2.042-10.947-0.462-12.989-5.593  c-2.043-5.132,0.461-10.947,5.593-12.989l13.063-5.199c2.375-0.945,5.021-0.945,7.396,0l13.063,5.199  c5.131,2.042,7.635,7.857,5.593,12.989C425.582,196.044,421.822,198.43,417.848,198.431z"/>
<rect x="171.96" y="290.12" style="fill:#C69F7F;" width="179.22" height="114.63"/>
<path style="fill:#BFDEFF;" d="M455.537,290.122H351.185v114.627h105.831c8.908,0,17.203,2.584,24.19,7.05V315.79  C481.206,301.619,469.717,290.122,455.537,290.122z"/>
<polygon style="fill:#076893;" points="433.293,338.262 433.293,290.122 388.149,290.122 388.149,338.262 351.185,338.262   351.185,404.748 441.208,404.748 441.208,338.262 "/>
<path d="M10.37,333.411c-0.65,0-1.31-0.061-1.95-0.191s-1.27-0.32-1.88-0.58c-0.6-0.25-1.18-0.56-1.72-0.92  c-0.55-0.36-1.06-0.78-1.52-1.24c-0.46-0.46-0.88-0.97-1.24-1.52c-0.36-0.54-0.671-1.12-0.921-1.73c-0.25-0.6-0.45-1.229-0.57-1.87  c-0.13-0.64-0.2-1.3-0.2-1.949c0-0.65,0.07-1.311,0.2-1.95c0.12-0.641,0.32-1.27,0.57-1.87c0.25-0.61,0.56-1.19,0.921-1.73  c0.36-0.55,0.78-1.06,1.24-1.52c0.46-0.46,0.97-0.88,1.52-1.24c0.54-0.37,1.12-0.67,1.72-0.92c0.61-0.25,1.24-0.45,1.88-0.57  c1.29-0.26,2.61-0.26,3.9,0c0.64,0.12,1.27,0.32,1.87,0.57c0.61,0.25,1.19,0.55,1.73,0.92c0.55,0.36,1.06,0.78,1.52,1.24  c0.46,0.46,0.88,0.97,1.24,1.52c0.36,0.54,0.67,1.12,0.92,1.73c0.25,0.6,0.44,1.229,0.57,1.87c0.13,0.64,0.2,1.3,0.2,1.95  c0,0.649-0.07,1.309-0.2,1.949c-0.13,0.641-0.32,1.271-0.57,1.87c-0.25,0.61-0.56,1.19-0.92,1.73c-0.36,0.55-0.78,1.06-1.24,1.52  c-0.46,0.46-0.97,0.88-1.52,1.24c-0.54,0.36-1.12,0.67-1.73,0.92c-0.6,0.26-1.23,0.45-1.87,0.58  C11.68,333.35,11.021,333.411,10.37,333.411z"/>
<path d="M70.811,372.19c-0.66,0-1.31-0.069-1.961-0.199c-0.64-0.12-1.27-0.32-1.87-0.57c-0.6-0.25-1.19-0.56-1.73-0.92  s-1.06-0.78-1.52-1.24c-0.46-0.46-0.88-0.97-1.24-1.52c-0.36-0.54-0.67-1.12-0.92-1.73c-0.25-0.6-0.44-1.229-0.57-1.87  c-0.13-0.64-0.19-1.3-0.19-1.95s0.059-1.31,0.19-1.96c0.13-0.63,0.32-1.26,0.57-1.87c0.25-0.6,0.56-1.18,0.92-1.72  c0.36-0.55,0.78-1.06,1.24-1.52c0.46-0.46,0.98-0.88,1.52-1.25c0.54-0.351,1.13-0.66,1.73-0.91c0.6-0.25,1.23-0.45,1.87-0.57  c1.29-0.26,2.62-0.26,3.91,0c0.64,0.12,1.27,0.32,1.87,0.57s1.18,0.56,1.73,0.91c0.54,0.37,1.06,0.79,1.52,1.25  c0.46,0.46,0.87,0.97,1.24,1.52c0.36,0.54,0.67,1.12,0.92,1.72c0.25,0.61,0.44,1.24,0.57,1.87c0.13,0.65,0.2,1.311,0.2,1.96  c0,0.65-0.07,1.31-0.2,1.95c-0.13,0.641-0.32,1.271-0.57,1.87c-0.25,0.61-0.56,1.19-0.92,1.73c-0.37,0.55-0.78,1.06-1.24,1.52  c-0.46,0.46-0.98,0.88-1.52,1.24c-0.55,0.359-1.13,0.67-1.73,0.92s-1.23,0.45-1.87,0.57C72.11,372.121,71.461,372.19,70.811,372.19z  "/>
<path style="fill:#676767;" d="M457.016,494.718H54.985C30.14,494.718,10,474.578,10,449.733l0,0  c0-24.844,20.14-44.985,44.985-44.985h402.031c24.844,0,44.985,20.14,44.985,44.985l0,0  C502.001,474.578,481.861,494.718,457.016,494.718z"/>
<path d="M491.206,406.718V315.79c0-19.668-16.001-35.669-35.669-35.669h-22.244h-36.182c19.062-6.987,35.139-17.572,46.858-30.957  c14.898-17.017,22.773-38.623,22.773-62.483v-24.947h4.26c5.523,0,10-4.477,10-10v-42.589c0-5.522-4.477-10-10-10h-7.673  c-3.438-38.451-32.532-69.862-70.414-76.346v-5.516c0-5.522-4.477-10-10-10h-51.547c-5.523,0-10,4.478-10,10v5.516  c-37.882,6.484-66.977,37.895-70.414,76.346h-7.672c-5.523,0-10,4.478-10,10v42.589c0,5.523,4.477,10,10,10h4.26v24.947  c0,23.86,7.875,45.467,22.773,62.483c11.719,13.385,27.796,23.97,46.858,30.957h-145.21c-5.523,0-10,4.478-10,10v23.289H45.906  c-5.523,0-10,4.477-10,10c0,5.522,4.477,10,10,10h116.057v18.779h-55.622c-5.523,0-10,4.477-10,10c0,5.522,4.477,10,10,10h55.622  v22.559H54.985C24.666,394.749,0,419.415,0,449.733c0,30.319,24.666,54.985,54.985,54.985h402.031  c30.319,0,54.985-24.666,54.985-54.985C512.001,432.33,503.864,416.8,491.206,406.718z M471.206,315.79v80.811  c-0.127-0.034-0.255-0.062-0.383-0.095c-0.082-0.021-0.164-0.04-0.246-0.061c-0.753-0.191-1.511-0.367-2.273-0.526  c-0.108-0.023-0.216-0.048-0.325-0.07c-0.795-0.161-1.593-0.303-2.396-0.429c-0.177-0.028-0.354-0.052-0.531-0.078  c-0.719-0.106-1.44-0.199-2.163-0.276c-0.117-0.013-0.232-0.028-0.349-0.04c-0.807-0.081-1.617-0.14-2.429-0.185  c-0.195-0.011-0.39-0.02-0.586-0.029c-0.834-0.038-1.67-0.064-2.509-0.064h-5.808v-56.487c0-4.808-3.393-8.823-7.915-9.782v-28.357  h12.244C464.177,300.122,471.206,307.151,471.206,315.79z M423.293,300.122v38.14c0,4.808,3.393,8.823,7.915,9.782v46.705h-70.024  v-46.487h26.965c5.523,0,10-4.478,10-10v-38.14H423.293z M378.149,300.122v28.14h-16.965v-28.14H378.149z M253.282,141.734v-22.589  h7.318h70.769h51.547h70.769h7.318v22.589h-4.26H257.542H253.282z M443.239,99.145h-50.323V43.164  C419.664,49.217,440.019,71.679,443.239,99.145z M341.369,27.283h31.547v4.401v67.461h-31.547V31.684V27.283z M321.369,43.163  v55.982h-50.324C274.265,71.679,294.621,49.217,321.369,43.163z M331.986,263.961c-40.955-11.956-64.444-40.123-64.444-77.28  v-24.947h179.201v24.947c0,37.157-23.489,65.324-64.445,77.28c-4.266,1.245-7.198,5.156-7.198,9.6v6.561h-23.915h-12.001v-6.561  C339.184,269.118,336.252,265.207,331.986,263.961z M181.963,372.19h100.836c5.523,0,10-4.478,10-10c0-5.523-4.477-10-10-10H181.963  v-18.779h54.24c5.523,0,10-4.478,10-10c0-5.523-4.477-10-10-10h-54.24v-13.289h147.221h12.001v38.14v56.487H181.963V372.19z   M457.016,484.718H54.985C35.694,484.718,20,469.024,20,449.733c0-19.29,15.694-34.984,34.985-34.984h116.978h179.222h90.024h15.808  c0.748,0,1.493,0.032,2.235,0.079c0.21,0.013,0.418,0.031,0.626,0.048c0.579,0.047,1.156,0.109,1.73,0.184  c0.18,0.024,0.361,0.042,0.54,0.069c0.7,0.103,1.395,0.228,2.086,0.373c0.227,0.048,0.45,0.104,0.675,0.156  c0.475,0.11,0.947,0.229,1.417,0.359c0.284,0.079,0.568,0.156,0.849,0.242c0.481,0.146,0.957,0.306,1.431,0.472  c0.461,0.162,0.917,0.336,1.368,0.517c0.3,0.12,0.6,0.241,0.897,0.369c0.383,0.166,0.764,0.337,1.141,0.516  c0.205,0.098,0.407,0.202,0.611,0.304c0.752,0.377,1.49,0.778,2.21,1.206c0.132,0.078,0.265,0.154,0.396,0.234  c10.051,6.153,16.773,17.235,16.773,29.858C492.001,469.024,476.307,484.718,457.016,484.718z"/>
<path d="M110.185,459.733H58.718c-5.523,0-10-4.477-10-10c0-5.522,4.477-10,10-10h51.466c5.523,0,10,4.478,10,10  C120.185,455.255,115.708,459.733,110.185,459.733z"/>
<path d="M145.72,459.73c-0.65,0-1.31-0.06-1.95-0.189c-0.64-0.13-1.27-0.32-1.87-0.57c-0.61-0.25-1.19-0.559-1.73-0.92  c-0.55-0.37-1.06-0.79-1.52-1.25c-0.46-0.46-0.88-0.97-1.24-1.52c-0.36-0.54-0.67-1.12-0.92-1.721c-0.25-0.609-0.44-1.24-0.57-1.87  c-0.13-0.65-0.2-1.3-0.2-1.96c0-0.649,0.07-1.31,0.2-1.949c0.12-0.641,0.32-1.271,0.57-1.87c0.25-0.61,0.56-1.191,0.92-1.73  c0.36-0.55,0.78-1.06,1.24-1.52c0.46-0.46,0.97-0.88,1.52-1.24c0.54-0.36,1.12-0.67,1.73-0.92c0.6-0.25,1.23-0.44,1.87-0.57  c1.29-0.26,2.61-0.26,3.9,0c0.64,0.13,1.27,0.32,1.88,0.57c0.6,0.25,1.18,0.56,1.72,0.92c0.55,0.36,1.06,0.78,1.52,1.24  c0.46,0.46,0.88,0.97,1.24,1.52c0.37,0.54,0.67,1.12,0.92,1.73c0.26,0.6,0.45,1.229,0.58,1.87c0.13,0.64,0.19,1.3,0.19,1.949  c0,0.66-0.06,1.311-0.19,1.96c-0.13,0.63-0.32,1.261-0.58,1.87c-0.25,0.601-0.55,1.181-0.92,1.721c-0.36,0.55-0.78,1.06-1.24,1.52  c-0.46,0.46-0.97,0.88-1.52,1.25c-0.54,0.36-1.12,0.67-1.72,0.92c-0.61,0.25-1.24,0.441-1.88,0.57  C147.03,459.67,146.37,459.73,145.72,459.73z"/>
<path d="M263.966,459.733h-51.467c-5.523,0-10-4.477-10-10c0-5.522,4.477-10,10-10h51.467c5.523,0,10,4.478,10,10  C273.966,455.255,269.489,459.733,263.966,459.733z"/>
<path d="M299.501,459.73c-0.65,0-1.31-0.06-1.95-0.189c-0.64-0.13-1.27-0.32-1.87-0.57c-0.61-0.25-1.19-0.559-1.73-0.92  c-0.55-0.37-1.06-0.79-1.52-1.25c-0.46-0.46-0.88-0.97-1.24-1.52c-0.36-0.54-0.67-1.12-0.92-1.721c-0.25-0.609-0.44-1.24-0.57-1.87  c-0.13-0.65-0.2-1.3-0.2-1.96c0-0.649,0.07-1.31,0.2-1.949c0.13-0.641,0.32-1.271,0.57-1.87c0.25-0.61,0.56-1.191,0.92-1.73  c0.36-0.55,0.78-1.06,1.24-1.52c0.46-0.46,0.97-0.88,1.52-1.24c0.54-0.36,1.12-0.67,1.73-0.92c0.6-0.25,1.23-0.44,1.87-0.57  c1.29-0.26,2.62-0.26,3.91,0c0.63,0.13,1.26,0.32,1.87,0.57c0.6,0.25,1.18,0.56,1.72,0.92c0.55,0.36,1.06,0.78,1.52,1.24  c0.46,0.46,0.88,0.97,1.25,1.52c0.36,0.54,0.67,1.12,0.92,1.73c0.25,0.6,0.44,1.229,0.57,1.87c0.13,0.64,0.19,1.3,0.19,1.949  c0,0.66-0.06,1.311-0.19,1.96c-0.13,0.63-0.32,1.261-0.58,1.87c-0.25,0.601-0.55,1.181-0.92,1.721c-0.36,0.55-0.78,1.06-1.24,1.52  c-0.46,0.46-0.97,0.88-1.52,1.25c-0.54,0.36-1.12,0.67-1.72,0.92c-0.61,0.25-1.24,0.441-1.87,0.57  C300.811,459.67,300.15,459.73,299.501,459.73z"/>
<path d="M417.747,459.733H366.28c-5.523,0-10-4.477-10-10c0-5.522,4.477-10,10-10h51.467c5.523,0,10,4.478,10,10  C427.747,455.255,423.27,459.733,417.747,459.733z"/>
<path d="M453.28,459.73c-2.63,0-5.21-1.069-7.07-2.93c-0.46-0.46-0.88-0.97-1.24-1.52c-0.36-0.54-0.67-1.12-0.92-1.721  c-0.25-0.609-0.44-1.24-0.57-1.87c-0.13-0.65-0.2-1.3-0.2-1.96c0-0.649,0.07-1.31,0.2-1.949c0.13-0.641,0.32-1.271,0.57-1.87  c0.25-0.61,0.56-1.191,0.92-1.73c0.36-0.55,0.78-1.06,1.24-1.52c0.46-0.46,0.97-0.88,1.52-1.24c0.54-0.36,1.12-0.67,1.73-0.92  c0.6-0.25,1.23-0.44,1.87-0.57c3.25-0.66,6.7,0.41,9.02,2.73c0.46,0.46,0.88,0.97,1.25,1.52c0.36,0.54,0.67,1.12,0.92,1.73  c0.25,0.6,0.44,1.229,0.57,1.87c0.13,0.64,0.19,1.3,0.19,1.949c0,0.66-0.06,1.311-0.19,1.96c-0.13,0.63-0.32,1.261-0.57,1.87  c-0.25,0.601-0.56,1.181-0.92,1.721c-0.37,0.55-0.79,1.06-1.25,1.52C458.49,458.661,455.92,459.73,453.28,459.73z"/>
<g>
</g>
<g>
</g>
<g>
</g>
<g>
</g>
<g>
</g>
<g>
</g>
<g>
</g>
<g>
</g>
<g>
</g>
<g>
</g>
<g>
</g>
<g>
</g>
<g>
</g>
<g>
</g>
<g>
</g>
</svg>
