<?xml version="1.0" encoding="iso-8859-1"?>
<!-- Generator: Adobe Illustrator 19.0.0, SVG Export Plug-In . SVG Version: 6.00 Build 0)  -->
<svg xmlns="http://www.w3.org/2000/svg" xmlns:xlink="http://www.w3.org/1999/xlink" version="1.1" id="Capa_1" x="0px" y="0px" viewBox="0 0 512 512" style="enable-background:new 0 0 512 512;" xml:space="preserve">
<rect x="282.05" y="364.56" style="fill:#C69F7F;" width="177.07" height="137.44"/>
<path style="fill:#BFDEFF;" d="M336.384,364.561c-2.532-13.647-14.491-23.991-28.878-23.991H82.266  c-16.23,0-29.38,13.16-29.38,29.38V502h229.16V364.561H336.384z"/>
<polygon style="fill:#076893;" points="282.046,364.561 282.046,340.57 230.376,340.57 230.376,395.67 159.396,395.67   159.396,340.57 107.726,340.57 107.726,395.67 98.666,395.67 98.666,502 282.046,502 282.046,395.67 "/>
<polygon style="fill:#FDB845;" points="405.702,364.561 405.702,442.604 370.571,414.771 335.44,442.604 335.44,364.561 "/>
<path style="fill:#C69F7F;" d="M80.886,182.175v40c0,51.85,34.618,85.608,82,99.44v18.955h64v-18.955  c47.382-13.832,82-47.59,82-99.44v-40L80.886,182.175L80.886,182.175z"/>
<rect x="165.39" y="10" style="fill:#4184B2;" width="59" height="112"/>
<g>
	<path style="fill:#FDB845;" d="M159.636,33.175c-41.56,0-75.25,33.691-75.25,75.25V122h81V33.175H159.636z"/>
	<path style="fill:#FDB845;" d="M230.136,33.175h-5.75V122h81v-13.575C305.386,66.866,271.695,33.175,230.136,33.175z"/>
	<rect x="64.56" y="122" style="fill:#FDB845;" width="260.64" height="60.17"/>
</g>
<path d="M288.319,162.09c-0.649,0-1.309-0.07-1.949-0.2c-0.641-0.13-1.271-0.32-1.88-0.57c-0.601-0.25-1.181-0.56-1.721-0.92  c-0.55-0.359-1.059-0.779-1.519-1.239c-0.46-0.46-0.88-0.971-1.25-1.521c-0.36-0.54-0.67-1.12-0.91-1.729  c-0.26-0.601-0.45-1.23-0.58-1.87c-0.13-0.641-0.191-1.3-0.191-1.95s0.061-1.309,0.191-1.96c0.13-0.63,0.32-1.26,0.57-1.87  c0.25-0.6,0.56-1.18,0.92-1.72c0.37-0.55,0.79-1.06,1.25-1.52s0.97-0.88,1.519-1.25c0.54-0.359,1.12-0.67,1.721-0.92  c0.609-0.25,1.239-0.439,1.88-0.569c1.279-0.261,2.609-0.261,3.899,0c0.641,0.13,1.271,0.319,1.87,0.569  c0.61,0.25,1.19,0.561,1.73,0.92c0.55,0.37,1.06,0.79,1.52,1.25s0.88,0.971,1.24,1.52c0.36,0.54,0.67,1.12,0.92,1.72  c0.25,0.61,0.45,1.24,0.57,1.87c0.13,0.65,0.199,1.31,0.199,1.96c0,0.65-0.069,1.31-0.199,1.95s-0.32,1.27-0.57,1.87  c-0.25,0.609-0.56,1.189-0.92,1.729c-0.36,0.55-0.78,1.061-1.24,1.521c-0.46,0.46-0.97,0.88-1.52,1.239  c-0.54,0.36-1.12,0.67-1.73,0.92c-0.6,0.25-1.229,0.44-1.87,0.57C289.63,162.02,288.97,162.09,288.319,162.09z"/>
<path d="M155.299,234.178c-1.231,0-2.482-0.229-3.695-0.712l-11.252-4.48l-11.253,4.48c-5.13,2.041-10.947-0.462-12.989-5.593  s0.461-10.946,5.593-12.989l14.951-5.951c2.375-0.945,5.021-0.945,7.396,0l14.95,5.951c5.131,2.043,7.635,7.858,5.593,12.989  C163.034,231.791,159.274,234.178,155.299,234.178z"/>
<path d="M264.368,234.178c-1.23,0-2.483-0.229-3.695-0.712l-11.253-4.48l-11.252,4.48c-5.132,2.041-10.947-0.462-12.989-5.593  c-2.043-5.131,0.461-10.946,5.593-12.989l14.951-5.951c2.375-0.945,5.021-0.945,7.396,0l14.951,5.951  c5.131,2.042,7.635,7.858,5.593,12.989C272.102,231.791,268.343,234.178,264.368,234.178z"/>
<path d="M129.55,461.67c-0.65,0-1.31-0.07-1.95-0.2s-1.27-0.32-1.87-0.57c-0.61-0.25-1.19-0.56-1.73-0.92  c-0.55-0.359-1.06-0.779-1.52-1.239c-0.46-0.46-0.88-0.971-1.24-1.521c-0.36-0.54-0.67-1.13-0.92-1.729  c-0.25-0.601-0.44-1.23-0.57-1.87c-0.13-0.641-0.2-1.301-0.2-1.95c0-2.64,1.07-5.21,2.93-7.07c0.46-0.46,0.97-0.88,1.52-1.25  c0.54-0.359,1.12-0.67,1.73-0.92c0.6-0.25,1.23-0.439,1.87-0.57c1.29-0.26,2.62-0.26,3.91,0c0.63,0.131,1.26,0.32,1.87,0.57  c0.6,0.25,1.18,0.561,1.72,0.92c0.55,0.37,1.06,0.79,1.52,1.25c1.86,1.86,2.93,4.431,2.93,7.07c0,2.63-1.07,5.21-2.93,7.07  c-0.46,0.46-0.97,0.88-1.52,1.239c-0.54,0.36-1.12,0.67-1.72,0.92c-0.61,0.25-1.24,0.44-1.87,0.57  C130.86,461.6,130.21,461.67,129.55,461.67z"/>
<path d="M459.114,354.56h-53.412h-61.945c-6.054-14.289-20.186-23.99-36.251-23.99h-25.46h-45.16v-1.636  c23.022-7.878,42.376-20.301,56.292-36.195c17.059-19.483,25.708-43.226,25.708-70.564v-30h6.322c5.522,0,10-4.478,10-10V122  c0-5.522-4.478-10-10-10h-9.822v-3.575c0-45.581-35.96-82.92-81-85.142V10c0-5.523-4.477-10-10-10h-59c-5.523,0-10,4.477-10,10  v13.283c-45.04,2.222-81,39.561-81,85.142V112h-9.822c-5.523,0-10,4.478-10,10v60.175c0,5.522,4.477,10,10,10h6.322v30  c0,27.339,8.649,51.081,25.708,70.564c13.916,15.895,33.27,28.317,56.292,36.195v1.636h-45.16h-25.46  c-21.714,0-39.38,17.666-39.38,39.38V502c0,5.522,4.477,10,10,10h45.78h183.38h177.068c5.522,0,10-4.478,10-10V364.56  C469.114,359.038,464.637,354.56,459.114,354.56z M345.44,374.56h50.263v47.363l-18.922-14.99c-1.819-1.441-4.015-2.162-6.21-2.162  c-2.195,0-4.391,0.721-6.21,2.162l-18.921,14.99L345.44,374.56L345.44,374.56z M319.289,354.56h-27.243v-3.99h15.46  C311.9,350.57,316.002,352.044,319.289,354.56z M169.396,350.57h50.98v35.1h-50.98V350.57z M74.564,172.175v-10.087h178.165  c5.523,0,10-4.478,10-10c0-5.523-4.477-10-10-10H74.564V132h9.822h81h59h81h9.822v40.175h-6.322h-228H74.564z M295.386,108.425V112  h-61V43.312C268.392,45.508,295.386,73.873,295.386,108.425z M175.386,20h39v13.175V112h-39V33.175V20z M94.386,108.425  c0-34.552,26.994-62.917,61-65.113V112h-61V108.425z M90.886,222.175v-30h208v30c0,43.218-27.265,75.964-74.802,89.841  c-4.266,1.245-7.198,5.156-7.198,9.6v8.955h-44v-8.955c0-4.443-2.932-8.354-7.198-9.6C118.15,298.139,90.886,265.393,90.886,222.175  z M82.266,350.57h15.46v35.144c-5.082,0.474-9.06,4.75-9.06,9.956v45.997h-25.78V369.95C62.886,359.264,71.58,350.57,82.266,350.57z   M62.886,461.667h25.78V492h-25.78V461.667z M108.666,405.626c5.082-0.474,9.06-4.75,9.06-9.956v-45.1h31.67v45.1  c0,5.523,4.477,10,10,10h70.98c5.523,0,10-4.477,10-10v-45.1h31.67v13.99v77.107H165.142c-5.523,0-10,4.478-10,10  c0,5.523,4.477,10,10,10h106.904V492h-163.38L108.666,405.626L108.666,405.626z M449.114,492H292.046V374.56h33.394v68.044  c0,3.836,2.193,7.333,5.646,9.003c1.384,0.669,2.872,0.997,4.353,0.997c2.213,0,4.409-0.734,6.211-2.162l28.921-22.913  l28.922,22.913c3.005,2.382,7.109,2.835,10.563,1.165c3.453-1.67,5.646-5.167,5.646-9.003V374.56h33.412L449.114,492L449.114,492z"/>
<g>
</g>
<g>
</g>
<g>
</g>
<g>
</g>
<g>
</g>
<g>
</g>
<g>
</g>
<g>
</g>
<g>
</g>
<g>
</g>
<g>
</g>
<g>
</g>
<g>
</g>
<g>
</g>
<g>
</g>
</svg>
