<?xml version="1.0" encoding="iso-8859-1"?>
<!-- Generator: Adobe Illustrator 19.0.0, SVG Export Plug-In . SVG Version: 6.00 Build 0)  -->
<svg xmlns="http://www.w3.org/2000/svg" xmlns:xlink="http://www.w3.org/1999/xlink" version="1.1" id="Capa_1" x="0px" y="0px" viewBox="0 0 512 512" style="enable-background:new 0 0 512 512;" xml:space="preserve">
<rect x="10" y="201.521" style="fill:#BFBFBF;" width="492" height="277.97"/>
<polygon style="fill:#676767;" points="296.048,99.523 306,165.902 206,165.902 215.952,99.523 10,99.523 10,201.523 502,201.523   502,99.523 "/>
<path d="M427.337,315.324H294.228c-5.522,0-10-4.478-10-10s4.478-10,10-10h133.109c5.522,0,10,4.478,10,10  C437.337,310.847,432.859,315.324,427.337,315.324z"/>
<path d="M462.93,315.32c-0.66,0-1.31-0.06-1.96-0.189c-0.64-0.13-1.26-0.32-1.87-0.57c-0.6-0.25-1.18-0.56-1.72-0.92  c-0.55-0.37-1.061-0.79-1.521-1.25c-0.47-0.46-0.88-0.97-1.25-1.52c-0.359-0.54-0.67-1.12-0.92-1.721  c-0.25-0.609-0.44-1.23-0.569-1.869c-0.13-0.65-0.19-1.301-0.19-1.961c0-0.649,0.061-1.31,0.19-1.949  c0.13-0.641,0.319-1.27,0.569-1.87c0.25-0.61,0.56-1.19,0.92-1.73c0.37-0.55,0.78-1.06,1.25-1.52c0.46-0.46,0.971-0.88,1.521-1.24  c0.54-0.36,1.12-0.67,1.72-0.92c0.61-0.25,1.23-0.44,1.87-0.57c1.29-0.26,2.62-0.26,3.91,0c0.64,0.13,1.27,0.32,1.87,0.57  s1.19,0.56,1.729,0.92c0.54,0.36,1.061,0.78,1.521,1.24s0.88,0.97,1.24,1.52c0.359,0.54,0.67,1.12,0.92,1.73  c0.25,0.6,0.439,1.229,0.569,1.87c0.13,0.64,0.2,1.3,0.2,1.949c0,0.66-0.07,1.311-0.2,1.961c-0.13,0.64-0.319,1.26-0.569,1.869  c-0.25,0.601-0.561,1.181-0.92,1.721c-0.36,0.55-0.78,1.06-1.24,1.52s-0.98,0.88-1.521,1.25c-0.54,0.36-1.13,0.67-1.729,0.92  c-0.601,0.25-1.23,0.44-1.87,0.57C464.229,315.261,463.58,315.32,462.93,315.32z"/>
<path d="M427.337,415.508H294.228c-5.522,0-10-4.478-10-10s4.478-10,10-10h133.109c5.522,0,10,4.478,10,10  C437.337,411.03,432.859,415.508,427.337,415.508z"/>
<path d="M462.93,415.511c-0.66,0-1.31-0.07-1.96-0.2c-0.64-0.13-1.27-0.319-1.87-0.569s-1.18-0.561-1.72-0.921  c-0.55-0.359-1.061-0.779-1.521-1.239c-0.46-0.46-0.88-0.971-1.25-1.521c-0.359-0.54-0.67-1.12-0.92-1.729  c-0.25-0.601-0.44-1.23-0.569-1.87c-0.13-0.641-0.19-1.3-0.19-1.95s0.061-1.31,0.19-1.96c0.13-0.63,0.319-1.26,0.569-1.87  c0.25-0.6,0.56-1.18,0.92-1.72c0.37-0.55,0.79-1.061,1.25-1.52c0.46-0.47,0.971-0.88,1.521-1.25c0.54-0.359,1.12-0.67,1.72-0.92  c0.601-0.25,1.23-0.439,1.87-0.569c1.29-0.261,2.62-0.261,3.91,0c0.64,0.13,1.27,0.319,1.87,0.569c0.609,0.25,1.19,0.561,1.729,0.92  c0.54,0.37,1.061,0.78,1.521,1.25c0.46,0.46,0.88,0.971,1.24,1.52c0.359,0.54,0.67,1.12,0.92,1.72c0.25,0.61,0.439,1.24,0.569,1.87  c0.13,0.65,0.2,1.31,0.2,1.96s-0.07,1.31-0.2,1.95s-0.319,1.27-0.569,1.87c-0.25,0.609-0.561,1.189-0.92,1.729  c-0.36,0.55-0.78,1.06-1.24,1.521c-0.46,0.46-0.98,0.88-1.521,1.239c-0.54,0.36-1.12,0.671-1.729,0.921  c-0.601,0.25-1.23,0.439-1.87,0.569C464.24,415.441,463.58,415.511,462.93,415.511z"/>
<path d="M462.927,365.416h-133.11c-5.523,0-10-4.478-10-10s4.477-10,10-10h133.109c5.522,0,10,4.478,10,10  C472.927,360.939,468.449,365.416,462.927,365.416z"/>
<path d="M294.229,365.411c-0.649,0-1.31-0.061-1.96-0.19c-0.63-0.13-1.26-0.32-1.87-0.57c-0.6-0.25-1.18-0.56-1.72-0.92  c-0.55-0.359-1.06-0.779-1.52-1.239c-0.471-0.461-0.88-0.98-1.25-1.521c-0.36-0.55-0.67-1.13-0.92-1.729  c-0.25-0.601-0.44-1.23-0.57-1.87c-0.13-0.65-0.19-1.301-0.19-1.96c0-0.65,0.061-1.301,0.19-1.95c0.13-0.641,0.32-1.27,0.57-1.87  s0.56-1.19,0.92-1.73c0.37-0.55,0.779-1.06,1.25-1.52c0.46-0.46,0.97-0.88,1.52-1.24c0.54-0.359,1.12-0.67,1.72-0.92  c0.61-0.25,1.24-0.439,1.87-0.57c3.25-0.649,6.71,0.41,9.03,2.73c0.46,0.46,0.88,0.97,1.24,1.52c0.359,0.54,0.67,1.131,0.92,1.73  c0.25,0.6,0.439,1.229,0.57,1.87c0.13,0.649,0.199,1.3,0.199,1.95c0,0.659-0.069,1.31-0.199,1.96c-0.131,0.64-0.32,1.27-0.57,1.87  s-0.561,1.18-0.92,1.729c-0.36,0.54-0.78,1.06-1.24,1.521C299.44,364.351,296.859,365.411,294.229,365.411z"/>
<polygon style="fill:#076893;" points="306,165.902 206,165.902 226,32.508 286,32.508 "/>
<polygon style="fill:#BFBFBF;" points="302.159,140.283 306,165.902 206,165.902 209.841,140.283 143,140.283 143,201.523   369,201.523 369,140.283 "/>
<path style="fill:#FDB845;" d="M207.603,333.527v-6.926c0-29.647-19.794-52.577-46.886-60.486v-7.304h-36.594v7.304  c-27.092,7.909-46.886,30.839-46.886,60.486v6.926H207.603z"/>
<path style="fill:#C69F7F;" d="M142.419,418.552L142.419,418.552c-32.96,0-59.679-26.719-59.679-59.679v-25.346h119.358v25.346  C202.099,391.833,175.379,418.552,142.419,418.552z"/>
<path style="fill:#BFDEFF;" d="M212.647,409.397H174.17c-9.197,5.792-20.078,9.155-31.75,9.155l0,0  c-11.672,0-22.553-3.363-31.75-9.155H72.192c-10.12,0-18.32,8.199-18.32,18.32v51.777h177.094v-51.777  C230.967,417.596,222.767,409.397,212.647,409.397z"/>
<path style="fill:#076893;" d="M142.419,418.552L142.419,418.552c-11.672,0-22.553-3.363-31.75-9.155H96.32v70.097h92.199v-70.097  h-14.35C164.972,415.189,154.092,418.552,142.419,418.552z"/>
<path d="M502,89.522H304.66l-8.771-58.497c-0.734-4.896-4.939-8.518-9.89-8.518h-60c-4.95,0-9.155,3.622-9.89,8.518l-8.771,58.497  H10c-5.523,0-10,4.478-10,10v102v277.972c0,5.522,4.477,10,10,10h43.872H96.32h92.198h42.448H502c5.522,0,10-4.478,10-10V201.521  v-102C512,94,507.522,89.522,502,89.522z M234.612,42.508h42.775l17.001,113.395h-76.777L234.612,42.508z M306,175.902  c0.728,0,1.447-0.079,2.145-0.233c2.095-0.46,4.008-1.587,5.432-3.241c1.662-1.93,2.517-4.41,2.415-6.929  c-0.015-0.36-0.049-0.72-0.103-1.08l-2.119-14.138H359v41.239H153v-41.239h45.23l-2.119,14.138c-0.054,0.36-0.088,0.72-0.103,1.08  c-0.101,2.518,0.753,4.998,2.415,6.929c1.424,1.654,3.337,2.781,5.432,3.241c0.699,0.153,1.417,0.233,2.145,0.233H306z M20,109.522  h184.341l-3.113,20.761H143c-5.523,0-10,4.478-10,10v51.239H20V109.522z M86.32,469.494H63.872v-41.777  c0-4.588,3.732-8.32,8.32-8.32H86.32V469.494z M178.519,469.494H106.32v-50.098h1.583c0.412,0.235,0.829,0.458,1.245,0.685  c0.048,0.026,0.096,0.053,0.144,0.079c0.959,0.52,1.927,1.018,2.907,1.491c0.05,0.024,0.1,0.046,0.15,0.07  c0.871,0.418,1.752,0.814,2.638,1.195c0.189,0.081,0.377,0.164,0.567,0.243c0.911,0.382,1.829,0.746,2.755,1.088  c0.214,0.079,0.431,0.152,0.646,0.229c0.735,0.263,1.473,0.513,2.216,0.751c0.297,0.095,0.592,0.192,0.891,0.283  c0.885,0.27,1.774,0.525,2.669,0.76c0.31,0.081,0.623,0.155,0.934,0.232c0.693,0.172,1.389,0.333,2.088,0.483  c0.32,0.069,0.638,0.141,0.96,0.206c0.914,0.183,1.833,0.347,2.755,0.493c0.309,0.049,0.621,0.092,0.931,0.137  c0.801,0.116,1.605,0.219,2.412,0.307c0.223,0.024,0.445,0.054,0.669,0.076c0.999,0.1,2.001,0.173,3.006,0.229  c0.256,0.014,0.512,0.026,0.769,0.037c1.052,0.048,2.106,0.08,3.163,0.08h0.001l0,0c0.001,0,0.001,0,0.002,0  c1.056,0,2.108-0.033,3.159-0.08c0.259-0.012,0.517-0.023,0.775-0.038c1.002-0.057,2.003-0.13,2.999-0.229  c0.229-0.023,0.456-0.053,0.684-0.078c0.8-0.088,1.598-0.19,2.393-0.305c0.315-0.046,0.631-0.089,0.945-0.139  c0.919-0.146,1.834-0.309,2.745-0.491c0.327-0.066,0.65-0.139,0.976-0.209c0.691-0.149,1.38-0.308,2.066-0.478  c0.317-0.078,0.635-0.153,0.951-0.236c0.891-0.234,1.777-0.487,2.658-0.757c0.303-0.093,0.604-0.191,0.905-0.288  c0.736-0.236,1.467-0.484,2.195-0.744c0.221-0.079,0.443-0.154,0.663-0.235c0.923-0.341,1.837-0.704,2.745-1.084  c0.194-0.082,0.387-0.166,0.58-0.249c0.88-0.378,1.754-0.771,2.62-1.186c0.055-0.026,0.111-0.051,0.165-0.077  c0.977-0.471,1.942-0.969,2.898-1.487c0.052-0.028,0.103-0.057,0.155-0.086c0.413-0.225,0.828-0.447,1.238-0.681h1.583  L178.519,469.494L178.519,469.494z M192.099,358.873c0,17.926-9.545,33.662-23.818,42.4c-0.088,0.054-0.177,0.108-0.266,0.161  c-0.603,0.364-1.215,0.717-1.834,1.056c-0.046,0.025-0.092,0.052-0.138,0.077c-0.662,0.359-1.334,0.703-2.014,1.033  c-0.109,0.052-0.219,0.102-0.328,0.154c-0.545,0.26-1.097,0.508-1.653,0.749c-0.185,0.08-0.37,0.16-0.556,0.237  c-0.605,0.253-1.215,0.495-1.832,0.724c-0.113,0.042-0.227,0.084-0.34,0.125c-0.602,0.219-1.211,0.423-1.823,0.618  c-0.254,0.081-0.508,0.158-0.763,0.235c-0.462,0.139-0.927,0.271-1.394,0.397c-0.242,0.065-0.483,0.134-0.726,0.196  c-0.647,0.164-1.299,0.314-1.956,0.453c-0.253,0.053-0.508,0.099-0.761,0.149c-0.479,0.093-0.96,0.18-1.444,0.258  c-0.258,0.042-0.515,0.085-0.774,0.123c-0.689,0.101-1.381,0.192-2.078,0.265c-0.157,0.016-0.315,0.027-0.472,0.042  c-0.6,0.057-1.203,0.103-1.808,0.138c-0.216,0.013-0.431,0.025-0.647,0.034c-0.747,0.034-1.496,0.057-2.251,0.057  c-0.001,0-0.002,0-0.003,0c-0.756,0-1.507-0.024-2.255-0.057c-0.215-0.01-0.429-0.021-0.644-0.034  c-0.609-0.035-1.214-0.081-1.817-0.139c-0.154-0.015-0.309-0.025-0.463-0.041c-0.7-0.073-1.394-0.164-2.085-0.266  c-0.255-0.038-0.509-0.08-0.763-0.122c-0.489-0.08-0.975-0.167-1.46-0.261c-0.249-0.048-0.499-0.094-0.748-0.146  c-0.66-0.139-1.315-0.29-1.965-0.454c-0.238-0.06-0.474-0.128-0.712-0.192c-0.473-0.127-0.943-0.26-1.41-0.401  c-0.251-0.076-0.503-0.152-0.753-0.231c-0.619-0.197-1.234-0.404-1.842-0.625c-0.104-0.038-0.208-0.076-0.312-0.115  c-0.622-0.231-1.237-0.475-1.847-0.73c-0.184-0.077-0.367-0.156-0.55-0.235c-0.558-0.241-1.111-0.491-1.659-0.751  c-0.108-0.051-0.217-0.1-0.325-0.152c-0.68-0.33-1.352-0.674-2.015-1.033c-0.046-0.025-0.092-0.052-0.138-0.077  c-0.62-0.339-1.231-0.692-1.834-1.056c-0.089-0.053-0.177-0.107-0.266-0.161c-14.273-8.738-23.818-24.474-23.818-42.4v-15.346  h99.358v15.344H192.099z M87.323,323.527c1.275-22.504,16.533-41.078,39.601-47.812c3.375-0.985,5.915-3.639,6.829-6.904h17.333  c0.914,3.266,3.454,5.919,6.829,6.904c23.067,6.733,38.325,25.308,39.601,47.812H87.323z M220.967,469.494h-22.448v-50.098h14.128  c4.588,0,8.32,3.732,8.32,8.32L220.967,469.494L220.967,469.494z M492,469.494H240.967v-41.777c0-15.616-12.704-28.32-28.32-28.32  H199.05c8.201-11.428,13.049-25.416,13.049-40.523v-15.346h9.771c5.522,0,10-4.478,10-10s-4.478-10-10-10h-4.333  c-1.177-29.161-19.067-53.64-46.82-64.554v-0.162c0-5.522-4.477-10-10-10h-36.595c-5.522,0-10,4.478-10,10v0.162  c-27.753,10.913-45.643,35.393-46.82,64.554h-4.333c-5.522,0-10,4.478-10,10s4.478,10,10,10h9.771v15.346  c0,15.108,4.848,29.096,13.049,40.523H72.192c-15.616,0-28.32,12.704-28.32,28.32v41.777H20V211.521h123h226h123V469.494z   M492,191.521H379v-51.239c0-5.522-4.478-10-10-10h-58.228l-3.112-20.761H492V191.521z"/>
<g>
</g>
<g>
</g>
<g>
</g>
<g>
</g>
<g>
</g>
<g>
</g>
<g>
</g>
<g>
</g>
<g>
</g>
<g>
</g>
<g>
</g>
<g>
</g>
<g>
</g>
<g>
</g>
<g>
</g>
</svg>
