<?xml version="1.0" encoding="iso-8859-1"?>
<!-- Generator: Adobe Illustrator 19.0.0, SVG Export Plug-In . SVG Version: 6.00 Build 0)  -->
<svg xmlns="http://www.w3.org/2000/svg" xmlns:xlink="http://www.w3.org/1999/xlink" version="1.1" id="Capa_1" x="0px" y="0px" viewBox="0 0 512 512" style="enable-background:new 0 0 512 512;" xml:space="preserve">
<path style="fill:#C69F7F;" d="M142,182.175v40c0,51.85,34.618,85.608,82,99.44v18.955h64v-18.955c47.382-13.832,82-47.59,82-99.44  v-40L142,182.175L142,182.175z"/>
<rect x="226.5" y="10" style="fill:#4184B2;" width="59" height="112"/>
<g>
	<path style="fill:#FDB845;" d="M220.75,33.175c-41.559,0-75.25,33.691-75.25,75.25V122h81V33.175H220.75z"/>
	<path style="fill:#FDB845;" d="M291.25,33.175h-5.75V122h81v-13.575C366.5,66.866,332.809,33.175,291.25,33.175z"/>
	<rect x="125.68" y="122" style="fill:#FDB845;" width="260.64" height="60.17"/>
</g>
<path d="M349.43,162.09c-2.63,0-5.21-1.07-7.07-2.93c-0.46-0.46-0.88-0.971-1.24-1.521c-0.36-0.54-0.67-1.12-0.92-1.729  c-0.25-0.601-0.44-1.23-0.57-1.87c-0.13-0.641-0.2-1.3-0.2-1.95s0.07-1.309,0.2-1.96c0.13-0.63,0.32-1.26,0.57-1.87  c0.25-0.6,0.56-1.18,0.92-1.72c0.36-0.55,0.78-1.06,1.24-1.52s0.97-0.88,1.52-1.25c0.54-0.359,1.12-0.67,1.73-0.92  c0.6-0.25,1.23-0.439,1.87-0.569c1.29-0.261,2.62-0.261,3.91,0c0.64,0.13,1.26,0.319,1.87,0.569c0.6,0.25,1.18,0.561,1.72,0.92  c0.55,0.37,1.06,0.79,1.52,1.25c0.47,0.46,0.88,0.971,1.25,1.52c0.36,0.54,0.67,1.12,0.92,1.72c0.25,0.61,0.44,1.24,0.57,1.87  c0.13,0.65,0.2,1.31,0.2,1.96c0,0.65-0.07,1.31-0.2,1.95s-0.32,1.27-0.57,1.87c-0.25,0.609-0.56,1.189-0.92,1.729  c-0.37,0.55-0.78,1.061-1.25,1.521c-0.46,0.46-0.97,0.88-1.52,1.239c-0.54,0.36-1.12,0.67-1.72,0.92s-1.23,0.44-1.87,0.57  C350.74,162.02,350.08,162.09,349.43,162.09z"/>
<path d="M216.414,234.178c-1.231,0-2.482-0.229-3.695-0.712l-11.253-4.48l-11.252,4.48c-5.132,2.041-10.947-0.462-12.989-5.593  c-2.043-5.131,0.461-10.946,5.593-12.989l14.951-5.951c2.375-0.945,5.021-0.945,7.396,0l14.951,5.951  c5.131,2.043,7.635,7.858,5.593,12.989C224.148,231.791,220.388,234.178,216.414,234.178z"/>
<path d="M325.482,234.178c-1.231,0-2.482-0.229-3.695-0.712l-11.252-4.48l-11.253,4.48c-5.131,2.041-10.947-0.462-12.989-5.593  c-2.043-5.131,0.461-10.946,5.593-12.989l14.951-5.951c2.375-0.945,5.021-0.945,7.396,0l14.951,5.951  c5.131,2.043,7.635,7.858,5.593,12.989C333.216,231.791,329.457,234.178,325.482,234.178z"/>
<path style="fill:#BFDEFF;" d="M398,369.95V502H114V369.95c0-16.22,13.15-29.38,29.38-29.38h225.24  C384.85,340.57,398,353.73,398,369.95z"/>
<polygon style="fill:#076893;" points="352.22,395.67 352.22,502 159.78,502 159.78,395.67 168.84,395.67 168.84,340.57   220.51,340.57 220.51,395.67 291.49,395.67 291.49,340.57 343.16,340.57 343.16,395.67 "/>
<path d="M190.67,461.67c-0.65,0-1.31-0.07-1.96-0.2c-0.63-0.13-1.26-0.32-1.87-0.57c-0.6-0.25-1.18-0.56-1.72-0.92  c-0.55-0.359-1.059-0.779-1.53-1.239c-0.46-0.46-0.87-0.971-1.24-1.521c-0.36-0.54-0.67-1.13-0.92-1.729  c-0.25-0.601-0.44-1.23-0.57-1.87c-0.13-0.641-0.19-1.301-0.19-1.95c0-2.64,1.06-5.21,2.92-7.07c0.47-0.46,0.98-0.88,1.53-1.25  c0.54-0.359,1.12-0.67,1.72-0.92s1.23-0.439,1.87-0.57c3.25-0.649,6.71,0.41,9.03,2.74c0.46,0.46,0.88,0.97,1.24,1.52  c0.36,0.54,0.67,1.12,0.92,1.72s0.44,1.229,0.57,1.87c0.13,0.649,0.2,1.31,0.2,1.96c0,2.63-1.07,5.21-2.93,7.07  c-0.46,0.46-0.97,0.88-1.52,1.239c-0.54,0.36-1.12,0.67-1.73,0.92c-0.6,0.25-1.23,0.44-1.87,0.57  C191.98,461.6,191.32,461.67,190.67,461.67z"/>
<path d="M368.62,330.57h-25.46H298v-1.636c23.022-7.878,42.376-20.301,56.292-36.195C371.351,273.256,380,249.514,380,222.175v-30  h6.322c5.523,0,10-4.478,10-10V122c0-5.522-4.477-10-10-10H376.5v-3.575c0-45.581-35.96-82.92-81-85.142V10c0-5.523-4.477-10-10-10  h-59c-5.523,0-10,4.477-10,10v13.283c-45.04,2.222-81,39.561-81,85.142V112h-9.822c-5.523,0-10,4.478-10,10v60.175  c0,5.522,4.477,10,10,10H132v30c0,27.339,8.649,51.081,25.708,70.564c13.916,15.895,33.27,28.317,56.292,36.195v1.636h-45.16h-25.46  c-21.714,0-39.38,17.666-39.38,39.38V502c0,5.522,4.477,10,10,10h45.78h192.44H398c5.523,0,10-4.478,10-10V369.95  C408,348.236,390.335,330.57,368.62,330.57z M388,369.95v71.717h-25.78V395.67c0-5.206-3.978-9.482-9.06-9.956V350.57h15.46  C379.306,350.57,388,359.264,388,369.95z M230.51,350.57h50.98v35.1h-50.98V350.57z M135.678,172.175v-10.087h178.165  c5.523,0,10-4.478,10-10c0-5.523-4.477-10-10-10H135.678V132h9.822h81h59h81h9.822v40.175H370H142H135.678z M356.5,108.425V112h-61  V43.312C329.506,45.508,356.5,73.873,356.5,108.425z M236.5,20h39v13.175V112h-39V33.175V20z M155.5,108.425  c0-34.552,26.994-62.917,61-65.113V112h-61V108.425z M152,222.175v-30h208v30c0,43.218-27.264,75.964-74.802,89.841  c-4.266,1.245-7.198,5.156-7.198,9.6v8.955h-44v-8.955c0-4.443-2.932-8.354-7.198-9.6C179.264,298.139,152,265.393,152,222.175z   M143.38,350.57h15.46v35.144c-5.082,0.474-9.06,4.75-9.06,9.956v45.997H124V369.95C124,359.264,132.694,350.57,143.38,350.57z   M124,461.667h25.78V492H124V461.667z M169.78,492v-86.374c5.082-0.474,9.06-4.75,9.06-9.956v-45.1h31.67v45.1  c0,5.523,4.477,10,10,10h70.98c5.523,0,10-4.477,10-10v-45.1h31.67v45.1c0,5.206,3.978,9.482,9.06,9.956v36.041H226.256  c-5.523,0-10,4.478-10,10c0,5.523,4.477,10,10,10H342.22V492H169.78z M362.22,492v-30.333H388V492H362.22z"/>
<g>
</g>
<g>
</g>
<g>
</g>
<g>
</g>
<g>
</g>
<g>
</g>
<g>
</g>
<g>
</g>
<g>
</g>
<g>
</g>
<g>
</g>
<g>
</g>
<g>
</g>
<g>
</g>
<g>
</g>
</svg>
