<?xml version="1.0" encoding="iso-8859-1"?>
<!-- Generator: Adobe Illustrator 19.0.0, SVG Export Plug-In . SVG Version: 6.00 Build 0)  -->
<svg xmlns="http://www.w3.org/2000/svg" xmlns:xlink="http://www.w3.org/1999/xlink" version="1.1" id="Capa_1" x="0px" y="0px" viewBox="0 0 512 512" style="enable-background:new 0 0 512 512;" xml:space="preserve">
<path style="fill:#BFDEFF;" d="M368.62,340.57h-12.87c-12.979,9.861-29.179,15.724-46.736,15.724H202.986  c-17.558,0-33.759-5.862-46.738-15.724H143.38c-16.23,0-29.38,13.16-29.38,29.38V502h284V369.95  C398,353.73,384.85,340.57,368.62,340.57z"/>
<path style="fill:#076893;" d="M343.16,348.348c-10.299,5.08-21.886,7.946-34.146,7.946H291.49v39.376h-70.98v-39.376h-17.524  c-12.26,0-23.847-2.866-34.146-7.946v47.322h-9.06V502h192.44V395.67h-9.06L343.16,348.348L343.16,348.348z"/>
<rect x="125.68" y="122" style="fill:#FDB845;" width="260.64" height="59.746"/>
<path d="M349.43,162.09c-0.65,0-1.31-0.07-1.95-0.2c-0.64-0.13-1.27-0.32-1.87-0.57s-1.19-0.56-1.73-0.92  c-0.55-0.359-1.06-0.779-1.52-1.239c-0.46-0.46-0.88-0.971-1.24-1.521c-0.36-0.54-0.67-1.12-0.92-1.729  c-0.25-0.601-0.44-1.23-0.57-1.87c-0.13-0.641-0.2-1.3-0.2-1.95s0.07-1.309,0.2-1.96c0.13-0.64,0.32-1.26,0.57-1.87  c0.25-0.6,0.56-1.18,0.92-1.72c0.36-0.55,0.78-1.06,1.24-1.52s0.97-0.88,1.52-1.25c0.54-0.359,1.13-0.67,1.73-0.92  s1.23-0.439,1.87-0.569c1.29-0.261,2.62-0.261,3.91,0c0.64,0.13,1.26,0.319,1.87,0.569c0.6,0.25,1.18,0.561,1.72,0.92  c0.55,0.37,1.06,0.79,1.53,1.25c0.46,0.46,0.87,0.971,1.24,1.52c0.36,0.54,0.67,1.12,0.92,1.72c0.25,0.61,0.44,1.23,0.57,1.87  c0.13,0.65,0.2,1.31,0.2,1.96c0,0.65-0.07,1.31-0.2,1.95s-0.32,1.27-0.57,1.87c-0.25,0.609-0.56,1.189-0.92,1.729  c-0.37,0.55-0.79,1.061-1.25,1.521c-0.46,0.46-0.97,0.88-1.52,1.239c-0.54,0.36-1.12,0.67-1.72,0.92c-0.61,0.25-1.23,0.44-1.87,0.57  C350.74,162.02,350.09,162.09,349.43,162.09z"/>
<path d="M190.669,461.67c-0.65,0-1.31-0.07-1.96-0.2c-0.63-0.13-1.26-0.32-1.87-0.57c-0.6-0.25-1.18-0.56-1.72-0.92  c-0.55-0.359-1.059-0.779-1.52-1.239c-0.46-0.46-0.88-0.971-1.25-1.521c-0.36-0.54-0.67-1.13-0.92-1.729  c-0.25-0.601-0.44-1.23-0.57-1.87c-0.13-0.641-0.19-1.301-0.19-1.95c0-0.65,0.06-1.31,0.19-1.96c0.13-0.641,0.32-1.27,0.57-1.87  s0.56-1.18,0.92-1.73c0.37-0.54,0.79-1.05,1.25-1.51c0.461-0.47,0.97-0.88,1.52-1.25c0.54-0.359,1.12-0.67,1.72-0.92  c0.61-0.25,1.24-0.439,1.87-0.57c1.29-0.26,2.62-0.26,3.91,0c0.64,0.131,1.27,0.32,1.87,0.57c0.6,0.25,1.19,0.561,1.73,0.92  c0.55,0.37,1.06,0.78,1.52,1.25c0.46,0.46,0.88,0.97,1.24,1.51c0.36,0.551,0.67,1.131,0.92,1.73c0.25,0.6,0.44,1.229,0.57,1.87  c0.13,0.649,0.2,1.31,0.2,1.96c0,0.649-0.07,1.31-0.2,1.95c-0.13,0.64-0.32,1.27-0.57,1.87s-0.56,1.189-0.92,1.729  c-0.36,0.55-0.78,1.061-1.24,1.521c-0.46,0.46-0.97,0.88-1.52,1.239c-0.54,0.36-1.13,0.67-1.73,0.92c-0.6,0.25-1.23,0.44-1.87,0.57  C191.979,461.6,191.32,461.67,190.669,461.67z"/>
<path style="fill:#939393;" d="M309.014,356.294H202.986c-42.696,0-77.308-34.612-77.308-77.308v-97.24h260.644v97.24  C386.322,321.682,351.71,356.294,309.014,356.294z"/>
<rect x="169.479" y="205.27" style="fill:#C69F7F;" width="173.04" height="58.25"/>
<path d="M342.519,195.273H169.48c-5.523,0-10,4.478-10,10v58.246c0,5.522,4.477,10,10,10h173.037c5.523,0,10-4.478,10-10v-58.246  C352.519,199.751,348.042,195.273,342.519,195.273z M179.48,253.52v-12.24c2.74,2.709,6.922,3.702,10.732,2.187l11.252-4.479  l11.253,4.479c1.213,0.483,2.464,0.712,3.695,0.712c3.975,0,7.734-2.387,9.294-6.305c2.042-5.131-0.461-10.946-5.593-12.989  l-14.951-5.951c-2.375-0.945-5.021-0.945-7.396,0l-14.951,5.951c-1.287,0.513-2.409,1.263-3.335,2.18v-11.791h153.037v11.791  c-0.926-0.917-2.048-1.668-3.336-2.18l-14.951-5.951c-2.375-0.945-5.021-0.945-7.396,0l-14.951,5.951  c-5.131,2.043-7.635,7.858-5.593,12.989c2.042,5.131,7.858,7.635,12.989,5.593l11.253-4.479l11.252,4.479  c1.213,0.483,2.464,0.712,3.695,0.712c2.639,0,5.168-1.071,7.037-2.925v12.267H179.48V253.52z"/>
<rect x="226.5" y="10" style="fill:#4184B2;" width="59" height="112"/>
<g>
	<path style="fill:#FDB845;" d="M220.75,33.175c-41.559,0-75.25,33.691-75.25,75.25V122h81V33.175H220.75z"/>
	<path style="fill:#FDB845;" d="M291.25,33.175h-5.75V122h81v-13.575C366.5,66.866,332.809,33.175,291.25,33.175z"/>
</g>
<g>
	<rect x="386.32" y="181.75" style="fill:#939393;" width="31.345" height="42.587"/>
	<rect x="94.33" y="181.75" style="fill:#939393;" width="31.345" height="42.587"/>
</g>
<path d="M417.667,171.746h-21.345V122c0-5.522-4.477-10-10-10H376.5v-3.575c0-45.581-35.96-82.92-81-85.142V10  c0-5.523-4.477-10-10-10h-59c-5.523,0-10,4.477-10,10v13.283c-45.04,2.222-81,39.561-81,85.142V112h-9.822c-5.523,0-10,4.478-10,10  v49.746H94.334c-5.523,0-10,4.478-10,10v42.587c0,5.523,4.477,10,10,10h21.345v44.653c0,19.841,6.657,38.154,17.849,52.832  C116.565,336.204,104,351.637,104,369.95V502c0,5.522,4.477,10,10,10h45.78h192.44H398c5.523,0,10-4.478,10-10V369.95  c0-18.313-12.565-33.746-29.527-38.132c11.192-14.678,17.849-32.991,17.849-52.832v-44.653h21.345c5.523,0,10-4.477,10-10v-42.587  C427.667,176.224,423.19,171.746,417.667,171.746z M376.322,224.333v54.653c0,26.621-15.536,49.679-38.017,60.59  c-0.462,0.224-0.931,0.428-1.397,0.641c-1.283,0.587-2.586,1.137-3.91,1.644c-0.31,0.119-0.616,0.249-0.927,0.363  c-0.734,0.269-1.481,0.512-2.227,0.755c-0.365,0.119-0.727,0.244-1.094,0.357c-0.743,0.228-1.494,0.437-2.247,0.64  c-0.381,0.103-0.761,0.205-1.144,0.301c-0.741,0.186-1.488,0.357-2.239,0.518c-0.418,0.089-0.837,0.173-1.257,0.254  c-0.719,0.14-1.441,0.272-2.169,0.388c-0.494,0.079-0.991,0.145-1.487,0.213c-0.662,0.091-1.324,0.182-1.992,0.254  c-0.652,0.069-1.309,0.117-1.965,0.167c-0.41,0.032-0.818,0.069-1.229,0.094c-0.181,0.01-0.361,0.023-0.543,0.033  c-1.15,0.058-2.304,0.097-3.466,0.097H291.49h-70.98h-17.524c-1.161,0-2.316-0.039-3.466-0.097c-0.181-0.009-0.36-0.022-0.541-0.033  c-0.412-0.024-0.82-0.062-1.231-0.094c-0.656-0.05-1.312-0.098-1.964-0.167c-0.668-0.072-1.33-0.163-1.993-0.254  c-0.496-0.068-0.993-0.134-1.487-0.213c-0.727-0.116-1.449-0.249-2.168-0.388c-0.42-0.081-0.839-0.165-1.257-0.254  c-0.751-0.161-1.497-0.332-2.239-0.518c-0.382-0.096-0.763-0.199-1.144-0.301c-0.753-0.203-1.505-0.411-2.247-0.64  c-0.366-0.113-0.729-0.238-1.093-0.357c-0.746-0.243-1.493-0.486-2.227-0.755c-0.311-0.114-0.617-0.244-0.927-0.363  c-1.325-0.507-2.627-1.057-3.91-1.644c-0.466-0.213-0.934-0.416-1.397-0.641c-22.48-10.912-38.017-33.969-38.017-60.59v-54.653  v-32.587h240.644L376.322,224.333L376.322,224.333z M230.509,366.294h50.98v19.376h-50.98V366.294z M135.677,162.088h178.165  c5.523,0,10-4.478,10-10c0-5.523-4.477-10-10-10H135.677V132h9.822h81h59h81h9.822v39.746H135.677V162.088z M356.5,108.425V112h-61  V43.312C329.506,45.508,356.5,73.873,356.5,108.425z M236.5,20h39v13.175V112h-39V33.175V20z M155.5,108.425  c0-34.552,26.994-62.917,61-65.113V112h-61V108.425z M104.334,214.333v-22.587h11.345v22.587H104.334z M143.38,350.57h9.611  c1.908,1.337,3.86,2.587,5.849,3.758v31.385c-5.082,0.474-9.06,4.75-9.06,9.956v45.997H124V369.95  C124,359.264,132.694,350.57,143.38,350.57z M124,461.667h25.78V492H124V461.667z M169.78,492v-86.374  c5.082-0.474,9.06-4.75,9.06-9.956v-32.753c0.917,0.263,1.839,0.509,2.765,0.741c0.103,0.026,0.207,0.052,0.31,0.078  c0.804,0.198,1.611,0.385,2.421,0.561c0.285,0.062,0.571,0.122,0.856,0.181c0.676,0.139,1.353,0.273,2.033,0.396  c0.426,0.078,0.854,0.149,1.281,0.221c0.576,0.095,1.152,0.19,1.731,0.274c0.473,0.069,0.947,0.13,1.422,0.191  c0.14,0.018,0.279,0.036,0.419,0.054c0.421,0.052,0.842,0.106,1.264,0.152c0.448,0.049,0.897,0.09,1.346,0.132  c0.252,0.024,0.505,0.046,0.758,0.068c0.357,0.03,0.713,0.065,1.071,0.091c0.344,0.025,0.689,0.043,1.034,0.064  c0.534,0.033,1.069,0.062,1.606,0.085c0.194,0.008,0.386,0.021,0.58,0.028c0.173,0.006,0.348,0.009,0.521,0.014  c0.906,0.028,1.814,0.047,2.726,0.047h7.524v29.376c0,5.523,4.477,10,10,10h70.98c5.523,0,10-4.477,10-10v-29.376h7.524  c0.912,0,1.82-0.019,2.726-0.047c0.174-0.005,0.349-0.008,0.523-0.014c0.192-0.007,0.383-0.019,0.575-0.028  c0.538-0.023,1.074-0.052,1.61-0.085c0.345-0.021,0.691-0.039,1.035-0.064c0.355-0.026,0.707-0.06,1.061-0.09  c0.256-0.022,0.512-0.044,0.767-0.068c0.45-0.042,0.901-0.083,1.35-0.132c0.418-0.046,0.835-0.099,1.252-0.151  c0.143-0.018,0.285-0.036,0.427-0.055c0.477-0.062,0.954-0.123,1.43-0.193c0.57-0.083,1.138-0.176,1.706-0.27  c0.438-0.073,0.876-0.146,1.312-0.226c0.668-0.121,1.334-0.252,1.998-0.389c0.301-0.062,0.601-0.126,0.901-0.191  c0.794-0.172,1.585-0.355,2.373-0.55c0.123-0.03,0.245-0.062,0.368-0.093c0.915-0.23,1.827-0.473,2.733-0.733v32.754  c0,5.206,3.978,9.482,9.06,9.956v36.041H226.255c-5.523,0-10,4.478-10,10c0,5.523,4.477,10,10,10H342.22V492H169.78z M362.22,492  v-30.333H388V492H362.22z M388,369.95v71.717h-25.78V395.67c0-5.206-3.978-9.482-9.06-9.956v-31.386  c1.989-1.171,3.94-2.421,5.848-3.758h9.612C379.306,350.57,388,359.264,388,369.95z M407.667,214.333h-11.345v-22.587h11.345  V214.333z"/>
<g>
</g>
<g>
</g>
<g>
</g>
<g>
</g>
<g>
</g>
<g>
</g>
<g>
</g>
<g>
</g>
<g>
</g>
<g>
</g>
<g>
</g>
<g>
</g>
<g>
</g>
<g>
</g>
<g>
</g>
</svg>
