<?xml version="1.0" encoding="iso-8859-1"?>
<!-- Generator: Adobe Illustrator 19.0.0, SVG Export Plug-In . SVG Version: 6.00 Build 0)  -->
<svg xmlns="http://www.w3.org/2000/svg" xmlns:xlink="http://www.w3.org/1999/xlink" version="1.1" id="Capa_1" x="0px" y="0px" viewBox="0 0 512 512" style="enable-background:new 0 0 512 512;" xml:space="preserve">
<path style="fill:#076893;" d="M378.484,103.16c19.934,0,36.093,16.159,36.093,36.093V466.52c0,19.59-15.88,35.48-35.48,35.48  h-208.02c-19.595,0-35.48-15.885-35.48-35.48V139.253c0-19.934,16.159-36.093,36.093-36.093H378.484z"/>
<path style="fill:#FDB845;" d="M369.008,405.465V502h-187.83v-96.535c0-25.761,20.884-46.645,46.645-46.645h94.54  C348.124,358.82,369.008,379.704,369.008,405.465z"/>
<rect x="181.589" y="146" style="fill:#BFDEFF;" width="187" height="75.984"/>
<rect x="180.758" y="290.33" style="fill:#676767;" width="74.833" height="35.33"/>
<path d="M255.59,335.667h-74.833c-5.523,0-10-4.477-10-10v-35.334c0-5.523,4.477-10,10-10h74.833c5.522,0,10,4.477,10,10v35.334  C265.59,331.19,261.113,335.667,255.59,335.667z M190.757,315.667h54.833v-15.334h-54.833V315.667z"/>
<rect x="294.589" y="290.33" style="fill:#676767;" width="74.833" height="35.33"/>
<path d="M369.423,335.667H294.59c-5.522,0-10-4.477-10-10v-35.334c0-5.523,4.478-10,10-10h74.834c5.523,0,10,4.477,10,10v35.334  C379.423,331.19,374.947,335.667,369.423,335.667z M304.59,315.667h54.834v-15.334H304.59V315.667z"/>
<path d="M311.757,406.667h-73.334c-5.523,0-10-4.477-10-10c0-5.522,4.477-10,10-10h73.334c5.522,0,10,4.478,10,10  C321.757,402.19,317.28,406.667,311.757,406.667z"/>
<path d="M311.757,476.667h-73.334c-5.523,0-10-4.477-10-10c0-5.522,4.477-10,10-10h73.334c5.522,0,10,4.478,10,10  C321.757,472.19,317.28,476.667,311.757,476.667z"/>
<path d="M331.757,441.667H218.424c-5.523,0-10-4.477-10-10c0-5.522,4.477-10,10-10h113.334c5.522,0,10,4.478,10,10  C341.757,437.19,337.28,441.667,331.757,441.667z"/>
<path d="M335.409,193.48c-0.65,0-1.311-0.069-1.95-0.199c-0.641-0.12-1.271-0.32-1.87-0.57c-0.61-0.25-1.19-0.561-1.73-0.92  c-0.55-0.36-1.06-0.78-1.52-1.24s-0.88-0.97-1.24-1.52c-0.359-0.54-0.67-1.12-0.92-1.73c-0.25-0.6-0.44-1.23-0.57-1.87  s-0.199-1.3-0.199-1.95c0-0.649,0.069-1.31,0.199-1.96c0.131-0.63,0.32-1.26,0.57-1.87c0.25-0.6,0.56-1.18,0.92-1.72  c0.36-0.55,0.78-1.06,1.24-1.52s0.97-0.88,1.52-1.25c0.54-0.351,1.12-0.66,1.73-0.91c0.6-0.25,1.229-0.45,1.87-0.57  c1.29-0.26,2.62-0.26,3.91,0c0.64,0.12,1.27,0.32,1.87,0.57s1.18,0.56,1.72,0.91c0.55,0.37,1.059,0.79,1.52,1.25  c0.471,0.46,0.88,0.97,1.25,1.52c0.36,0.54,0.67,1.12,0.92,1.72c0.25,0.61,0.44,1.24,0.57,1.87c0.13,0.65,0.19,1.311,0.19,1.96  c0,0.65-0.061,1.31-0.19,1.95c-0.13,0.64-0.32,1.27-0.57,1.87c-0.25,0.61-0.56,1.19-0.92,1.73c-0.37,0.55-0.779,1.059-1.25,1.52  c-0.46,0.46-0.97,0.88-1.52,1.24c-0.54,0.359-1.12,0.67-1.72,0.92c-0.601,0.25-1.23,0.45-1.87,0.57  C336.719,193.41,336.069,193.48,335.409,193.48z"/>
<path d="M182.758,264c-0.65,0-1.31-0.06-1.96-0.19c-0.63-0.13-1.26-0.33-1.87-0.58c-0.6-0.25-1.18-0.55-1.72-0.92  c-0.55-0.359-1.06-0.779-1.52-1.24c-0.46-0.46-0.88-0.97-1.25-1.52c-0.36-0.54-0.67-1.12-0.92-1.73c-0.25-0.6-0.44-1.229-0.57-1.869  c-0.13-0.641-0.19-1.301-0.19-1.95c0-0.65,0.06-1.311,0.19-1.95c0.13-0.64,0.32-1.27,0.57-1.88c0.25-0.601,0.56-1.18,0.92-1.72  c0.37-0.551,0.79-1.061,1.25-1.52c0.46-0.46,0.97-0.88,1.52-1.24c0.54-0.359,1.12-0.67,1.72-0.92c0.61-0.25,1.24-0.45,1.87-0.569  c1.29-0.261,2.62-0.261,3.91,0c0.64,0.119,1.27,0.319,1.87,0.569c0.61,0.25,1.19,0.561,1.73,0.92c0.55,0.36,1.06,0.78,1.52,1.24  s0.88,0.97,1.24,1.52c0.36,0.54,0.67,1.119,0.92,1.72c0.25,0.61,0.44,1.24,0.57,1.88s0.2,1.3,0.2,1.95c0,0.649-0.07,1.31-0.2,1.95  c-0.13,0.64-0.32,1.27-0.57,1.869c-0.25,0.61-0.56,1.19-0.92,1.73c-0.36,0.55-0.78,1.06-1.24,1.52c-0.46,0.461-0.97,0.881-1.52,1.24  c-0.54,0.37-1.12,0.67-1.73,0.92c-0.6,0.25-1.23,0.45-1.87,0.58C184.069,263.94,183.409,264,182.758,264z"/>
<rect x="97.419" y="247.15" style="fill:#BFBFBF;" width="38.16" height="61.33"/>
<rect x="97.419" y="185.49" style="fill:#939393;" width="38.16" height="61.66"/>
<path d="M378.59,221.983V146c0-5.523-4.478-10-10-10h-187c-5.523,0-10,4.477-10,10v75.983c0,5.523,4.477,10,10,10h187  C374.113,231.983,378.59,227.506,378.59,221.983z M358.59,211.983h-167V193.48h108.233c5.522,0,10-4.478,10-10  c0-5.523-4.478-10-10-10H191.59V156h167V211.983z"/>
<path d="M414.577,0c-5.522,0-10,4.477-10,10v91.284c-7.425-5.118-16.413-8.124-26.093-8.124H171.691  c-25.416,0-46.093,20.677-46.093,46.093v36.232H97.421c-5.523,0-10,4.478-10,10v61.666v61.33c0,5.522,4.477,10,10,10h28.177V466.52  c0,25.078,20.402,45.48,45.481,45.48h10.1h187.831h10.09c25.077,0,45.48-20.402,45.48-45.48V177v-37.747V10  C424.577,4.477,420.1,0,414.577,0z M107.421,195.485h18.16v41.666h-18.16V195.485z M125.581,298.481h-18.16v-41.33h18.16V298.481z   M191.176,492v-86.535c0-20.206,16.439-36.645,36.645-36.645h94.54c20.206,0,36.646,16.438,36.646,36.645V492H191.176z M379.098,492  h-0.09v-86.535c0-31.234-25.411-56.645-56.646-56.645h-94.54c-31.234,0-56.645,25.41-56.645,56.645V492h-0.1  c-14.05,0-25.48-11.431-25.48-25.48V139.253c0-14.388,11.706-26.093,26.093-26.093h206.794c14.388,0,26.093,11.705,26.093,26.093  V177v67H218.346c-5.523,0-10,4.477-10,10c0,5.522,4.477,10,10,10h186.231v202.52C404.577,480.569,393.147,492,379.098,492z"/>
<g>
</g>
<g>
</g>
<g>
</g>
<g>
</g>
<g>
</g>
<g>
</g>
<g>
</g>
<g>
</g>
<g>
</g>
<g>
</g>
<g>
</g>
<g>
</g>
<g>
</g>
<g>
</g>
<g>
</g>
</svg>
