<?xml version="1.0" encoding="iso-8859-1"?>
<!-- Generator: Adobe Illustrator 19.0.0, SVG Export Plug-In . SVG Version: 6.00 Build 0)  -->
<svg xmlns="http://www.w3.org/2000/svg" xmlns:xlink="http://www.w3.org/1999/xlink" version="1.1" id="Capa_1" x="0px" y="0px" viewBox="0 0 511.999 511.999" style="enable-background:new 0 0 511.999 511.999;" xml:space="preserve">
<polygon style="fill:#BFBFBF;" points="305.711,272.244 263.151,124.827 159.265,93.979 55.378,124.827 12.818,272.244 "/>
<path d="M82.779,165.529c-0.65,0-1.311-0.06-1.961-0.189c-0.64-0.13-1.26-0.32-1.869-0.57c-0.601-0.25-1.181-0.559-1.721-0.92  c-0.55-0.37-1.06-0.79-1.529-1.25c-0.46-0.46-0.87-0.97-1.24-1.52c-0.36-0.54-0.67-1.12-0.92-1.721  c-0.25-0.609-0.44-1.239-0.57-1.869c-0.13-0.65-0.2-1.311-0.2-1.961c0-0.649,0.07-1.31,0.2-1.949c0.13-0.641,0.32-1.271,0.57-1.87  c0.25-0.61,0.56-1.191,0.92-1.73c0.37-0.55,0.78-1.06,1.24-1.52c1.869-1.86,4.449-2.931,7.08-2.931c2.63,0,5.199,1.07,7.069,2.931  c0.46,0.46,0.88,0.97,1.24,1.52c0.36,0.54,0.67,1.12,0.92,1.73c0.25,0.6,0.44,1.229,0.57,1.87c0.13,0.64,0.189,1.3,0.189,1.949  c0,0.65-0.06,1.311-0.189,1.961c-0.13,0.63-0.32,1.26-0.57,1.869c-0.25,0.601-0.56,1.181-0.92,1.721  c-0.36,0.55-0.78,1.059-1.24,1.52c-0.46,0.46-0.979,0.88-1.52,1.25c-0.55,0.36-1.13,0.67-1.73,0.92c-0.6,0.25-1.229,0.441-1.87,0.57  C84.089,165.469,83.429,165.529,82.779,165.529z"/>
<path d="M72.489,196.379c-0.65,0-1.311-0.061-1.95-0.19c-0.641-0.13-1.271-0.319-1.87-0.569c-0.61-0.25-1.19-0.561-1.73-0.92  c-0.55-0.37-1.06-0.79-1.52-1.25c-1.86-1.86-2.93-4.44-2.93-7.07c0-0.65,0.069-1.311,0.199-1.95c0.13-0.64,0.32-1.27,0.57-1.88  c0.25-0.6,0.559-1.18,0.92-1.72c0.36-0.551,0.78-1.061,1.24-1.521c0.46-0.46,0.97-0.88,1.52-1.24c0.54-0.359,1.12-0.67,1.73-0.92  c0.6-0.25,1.229-0.449,1.87-0.569c1.29-0.261,2.62-0.261,3.91,0c0.64,0.12,1.27,0.319,1.869,0.569c0.601,0.25,1.181,0.561,1.73,0.92  c0.54,0.36,1.05,0.78,1.51,1.24c0.471,0.46,0.88,0.97,1.25,1.521c0.36,0.54,0.67,1.12,0.92,1.72c0.25,0.61,0.44,1.24,0.57,1.88  s0.2,1.3,0.2,1.95c0,2.63-1.07,5.21-2.94,7.07c-0.46,0.46-0.97,0.88-1.51,1.25c-0.55,0.359-1.13,0.67-1.73,0.92  s-1.229,0.439-1.869,0.569C73.799,196.319,73.148,196.379,72.489,196.379z"/>
<path d="M243.54,238.64c-0.65,0-1.3-0.07-1.95-0.2c-0.64-0.13-1.27-0.319-1.87-0.569c-0.6-0.25-1.18-0.561-1.729-0.92  c-0.54-0.36-1.051-0.78-1.521-1.24c-0.46-0.46-0.87-0.97-1.24-1.521c-0.359-0.54-0.67-1.12-0.92-1.729  c-0.25-0.601-0.439-1.23-0.569-1.87c-0.131-0.64-0.2-1.3-0.2-1.95c0-0.649,0.069-1.309,0.2-1.96c0.13-0.63,0.319-1.26,0.569-1.87  c0.25-0.6,0.561-1.18,0.92-1.72c0.37-0.55,0.78-1.061,1.24-1.52c0.47-0.46,0.98-0.88,1.521-1.239c0.55-0.37,1.13-0.67,1.729-0.92  c0.6-0.25,1.23-0.45,1.87-0.57c1.29-0.26,2.62-0.26,3.91,0c0.64,0.12,1.27,0.32,1.87,0.57s1.18,0.55,1.729,0.92  c0.54,0.359,1.05,0.779,1.521,1.239c0.46,0.46,0.87,0.971,1.239,1.52c0.36,0.54,0.671,1.12,0.921,1.72  c0.25,0.61,0.439,1.24,0.569,1.87c0.13,0.65,0.19,1.311,0.19,1.96c0,0.65-0.061,1.311-0.19,1.95c-0.13,0.64-0.319,1.27-0.569,1.87  c-0.25,0.609-0.561,1.189-0.921,1.729c-0.369,0.551-0.779,1.061-1.239,1.521c-0.471,0.46-0.98,0.88-1.521,1.24  c-0.55,0.359-1.13,0.67-1.729,0.92c-0.601,0.25-1.23,0.439-1.87,0.569C244.85,238.57,244.2,238.64,243.54,238.64z"/>
<path d="M113.629,155.249c-0.66,0-1.311-0.07-1.96-0.2c-0.64-0.12-1.271-0.32-1.87-0.57c-0.599-0.25-1.18-0.56-1.73-0.92  c-0.55-0.359-1.06-0.78-1.52-1.24c-0.46-0.46-0.88-0.97-1.24-1.52c-0.359-0.54-0.67-1.12-0.92-1.73c-0.25-0.6-0.439-1.23-0.57-1.869  c-0.13-0.641-0.199-1.301-0.199-1.95c0-0.65,0.069-1.311,0.199-1.96c0.131-0.63,0.32-1.261,0.57-1.87  c0.25-0.601,0.561-1.18,0.92-1.72c0.36-0.551,0.78-1.061,1.24-1.52c0.46-0.46,0.97-0.88,1.52-1.24c0.551-0.359,1.131-0.67,1.73-0.92  c0.599-0.25,1.23-0.45,1.87-0.58c1.29-0.25,2.62-0.25,3.91,0c0.64,0.13,1.27,0.33,1.87,0.58c0.6,0.25,1.18,0.561,1.729,0.92  c0.54,0.36,1.05,0.78,1.521,1.24c0.46,0.46,0.88,0.97,1.239,1.52c0.36,0.54,0.67,1.119,0.92,1.72c0.25,0.609,0.44,1.24,0.57,1.87  c0.13,0.649,0.2,1.31,0.2,1.96c0,0.649-0.07,1.31-0.2,1.95c-0.13,0.64-0.32,1.27-0.57,1.869c-0.25,0.61-0.56,1.19-0.92,1.73  c-0.37,0.55-0.779,1.06-1.239,1.52c-0.471,0.46-0.98,0.881-1.521,1.24c-0.55,0.36-1.13,0.67-1.729,0.92  c-0.601,0.25-1.23,0.45-1.87,0.57C114.929,155.179,114.279,155.249,113.629,155.249z"/>
<path d="M147.039,145.999c-0.65,0-1.311-0.07-1.95-0.2c-0.64-0.13-1.27-0.32-1.87-0.57c-0.61-0.25-1.189-0.56-1.729-0.92  c-0.551-0.37-1.061-0.78-1.521-1.24c-0.46-0.46-0.88-0.98-1.24-1.52c-0.359-0.55-0.67-1.13-0.92-1.73  c-0.25-0.6-0.439-1.23-0.569-1.869c-0.131-0.65-0.2-1.301-0.2-1.96c0-0.65,0.069-1.311,0.2-1.95c0.13-0.641,0.319-1.271,0.569-1.87  c0.25-0.601,0.561-1.19,0.92-1.73c0.36-0.54,0.78-1.06,1.24-1.52c0.46-0.46,0.97-0.88,1.521-1.24c0.54-0.36,1.119-0.67,1.729-0.92  c0.6-0.25,1.23-0.44,1.87-0.57c1.29-0.26,2.62-0.26,3.91,0c0.64,0.13,1.27,0.32,1.87,0.57c0.6,0.25,1.18,0.56,1.72,0.92  c0.55,0.36,1.06,0.78,1.52,1.24c0.471,0.46,0.881,0.979,1.25,1.52c0.36,0.54,0.671,1.13,0.921,1.73c0.25,0.6,0.439,1.229,0.569,1.87  c0.13,0.64,0.19,1.3,0.19,1.95c0,0.659-0.061,1.31-0.19,1.96c-0.13,0.64-0.319,1.27-0.569,1.869c-0.25,0.601-0.561,1.181-0.921,1.73  c-0.369,0.54-0.779,1.06-1.25,1.52c-0.46,0.46-0.97,0.87-1.52,1.24c-0.54,0.36-1.12,0.67-1.72,0.92c-0.601,0.25-1.23,0.44-1.87,0.57  C148.349,145.929,147.689,145.999,147.039,145.999z"/>
<circle style="fill:#676767;" cx="392.023" cy="371.863" r="46.16"/>
<path style="fill:#076893;" d="M451.462,233.599H308.687v138.51h37.183c0-0.083-0.006-0.165-0.006-0.248  c0-25.493,20.667-46.16,46.16-46.16c25.494,0,46.16,20.667,46.16,46.16c0,0.083-0.006,0.165-0.006,0.248h63.822V265.348  L451.462,233.599z"/>
<circle style="fill:#676767;" cx="140.781" cy="371.863" r="46.16"/>
<path style="fill:#FDB845;" d="M10,272.244v99.864h84.623c0-0.083-0.006-0.164-0.006-0.247c0-25.493,20.667-46.16,46.16-46.16  s46.16,20.667,46.16,46.16c0,0.083-0.006,0.165-0.006,0.247h121.757v-99.864H10z"/>
<rect x="308.692" y="101.561" style="fill:#076893;" width="37.17" height="132.041"/>
<path style="fill:#BFDEFF;" d="M389.922,101.563h-44.058V233.6h105.599l-28.61-106.769  C418.858,111.927,405.352,101.563,389.922,101.563z"/>
<path d="M507.319,256.88l-47.213-29.66l-27.593-102.977c-5.156-19.241-22.67-32.68-42.59-32.68h-44.058h-37.172  c-5.522,0-10,4.478-10,10v110.316l-25.933-89.825c-0.945-3.275-3.493-5.843-6.761-6.813L162.111,84.394  c-1.857-0.553-3.836-0.553-5.693,0L52.531,115.241c-3.268,0.97-5.815,3.537-6.761,6.813L4.888,263.661  C1.964,265.407,0,268.593,0,272.244v99.864c0,5.523,4.477,10,10,10h75.57c4.832,26.087,27.74,45.912,55.206,45.912  s50.374-19.825,55.206-45.912h112.704h28.131c4.832,26.087,27.74,45.912,55.206,45.912c27.465,0,50.373-19.825,55.205-45.912h54.769  c5.522,0,10-4.477,10-10V265.347C512,261.908,510.232,258.71,507.319,256.88z M492,315.7H318.688v-43.456v-28.645h27.177h102.718  L492,270.874V315.7z M413.193,129.419l25.236,94.18h-82.566V111.563h34.058C400.807,111.563,410.376,118.906,413.193,129.419z   M335.864,111.563v112.036h-17.172V111.563H335.864z M63.468,132.857l95.797-28.445l95.797,28.445l12.565,43.522H112.375  c-5.522,0-10,4.478-10,10s4.478,10,10,10H273.4l19.015,65.864H26.114l6.815-23.604h170.733c5.522,0,10-4.478,10-10  c0-5.523-4.478-10-10-10H38.703L63.468,132.857z M20,282.244h278.687V315.7H74.147c-5.522,0-10,4.478-10,10c0,5.522,4.478,10,10,10  h23.698c-0.084,0.1-0.169,0.2-0.253,0.301c-0.219,0.263-0.428,0.533-0.641,0.799c-0.321,0.401-0.642,0.801-0.952,1.211  c-0.222,0.293-0.436,0.591-0.652,0.889c-0.288,0.396-0.574,0.794-0.852,1.198c-0.214,0.311-0.422,0.625-0.63,0.94  c-0.266,0.404-0.527,0.81-0.783,1.22c-0.201,0.323-0.399,0.647-0.593,0.973c-0.249,0.418-0.49,0.841-0.729,1.266  c-0.183,0.327-0.366,0.653-0.543,0.984c-0.238,0.446-0.466,0.898-0.693,1.351c-0.159,0.318-0.322,0.634-0.475,0.956  c-0.24,0.504-0.466,1.016-0.692,1.528c-0.123,0.279-0.253,0.555-0.371,0.836c-0.333,0.792-0.651,1.592-0.949,2.402  c-0.033,0.091-0.061,0.185-0.094,0.276c-0.263,0.727-0.513,1.461-0.746,2.201c-0.092,0.292-0.172,0.59-0.259,0.884  c-0.162,0.546-0.323,1.092-0.468,1.645c-0.09,0.34-0.169,0.684-0.253,1.027c-0.126,0.516-0.248,1.034-0.36,1.555  c-0.077,0.36-0.146,0.723-0.216,1.086c-0.057,0.294-0.123,0.585-0.175,0.88H20V282.244z M195.923,361.277  c-0.074-0.389-0.149-0.778-0.232-1.164c-0.105-0.489-0.22-0.974-0.337-1.458c-0.09-0.373-0.177-0.748-0.275-1.119  c-0.134-0.508-0.283-1.01-0.43-1.512c-0.1-0.338-0.192-0.678-0.298-1.013c-0.201-0.637-0.419-1.265-0.642-1.892  c-0.11-0.309-0.219-0.617-0.334-0.923c-0.255-0.679-0.518-1.355-0.799-2.021c-0.137-0.327-0.287-0.647-0.431-0.971  c-0.207-0.466-0.412-0.933-0.631-1.392c-0.166-0.35-0.343-0.694-0.517-1.04c-0.213-0.424-0.426-0.847-0.648-1.264  c-0.188-0.353-0.383-0.7-0.579-1.048c-0.226-0.402-0.455-0.802-0.69-1.199c-0.205-0.346-0.415-0.688-0.627-1.029  c-0.243-0.39-0.491-0.776-0.744-1.159c-0.22-0.334-0.441-0.667-0.667-0.996c-0.263-0.381-0.533-0.757-0.805-1.131  c-0.231-0.318-0.46-0.637-0.698-0.95c-0.29-0.383-0.59-0.757-0.89-1.132c-0.233-0.292-0.462-0.587-0.701-0.874  c-0.08-0.096-0.16-0.192-0.241-0.287h114.979v26.407H196.089C196.04,361.829,195.977,361.555,195.923,361.277z M140.776,408.021  c-19.87,0-36.044-16.111-36.155-35.955c0-0.083-0.002-0.166-0.004-0.25c0-0.337,0.016-0.671,0.025-1.006  c0.008-0.287,0.01-0.575,0.025-0.86c0.017-0.33,0.049-0.656,0.075-0.984c0.022-0.282,0.038-0.566,0.067-0.846  c0.034-0.327,0.081-0.65,0.124-0.974c0.036-0.277,0.066-0.557,0.109-0.832c0.049-0.316,0.111-0.628,0.168-0.941  c0.051-0.279,0.095-0.56,0.152-0.836c0.063-0.306,0.14-0.607,0.21-0.91c0.065-0.279,0.124-0.56,0.196-0.837  c0.078-0.301,0.169-0.596,0.255-0.894c0.078-0.273,0.15-0.547,0.235-0.817c0.093-0.297,0.198-0.588,0.299-0.881  c0.091-0.265,0.176-0.534,0.272-0.796c0.106-0.289,0.225-0.573,0.339-0.859c0.104-0.26,0.201-0.523,0.31-0.78  c0.12-0.283,0.252-0.559,0.38-0.838c0.116-0.253,0.225-0.51,0.346-0.76c0.133-0.274,0.277-0.542,0.417-0.813  c0.128-0.248,0.25-0.499,0.384-0.744c0.148-0.271,0.307-0.534,0.461-0.801c0.137-0.237,0.269-0.477,0.411-0.71  c0.162-0.265,0.334-0.523,0.503-0.784c0.147-0.227,0.288-0.458,0.44-0.682c0.174-0.256,0.358-0.505,0.538-0.756  c0.157-0.219,0.309-0.443,0.471-0.659c0.184-0.246,0.379-0.483,0.569-0.724c0.169-0.213,0.332-0.431,0.506-0.641  c0.196-0.237,0.402-0.465,0.603-0.696c0.178-0.204,0.351-0.413,0.533-0.613c0.209-0.23,0.427-0.45,0.642-0.673  c0.186-0.194,0.366-0.392,0.556-0.582c0.217-0.217,0.443-0.424,0.666-0.635c0.197-0.187,0.389-0.379,0.59-0.561  c0.227-0.206,0.463-0.402,0.695-0.602c0.206-0.178,0.408-0.36,0.617-0.534c0.239-0.197,0.486-0.383,0.73-0.574  c0.212-0.166,0.42-0.337,0.636-0.498c0.248-0.185,0.504-0.36,0.757-0.539c0.221-0.156,0.437-0.318,0.661-0.469  c0.267-0.18,0.541-0.348,0.813-0.521c0.218-0.139,0.431-0.283,0.652-0.417c0.277-0.169,0.563-0.325,0.845-0.486  c0.224-0.128,0.443-0.262,0.67-0.385c0.282-0.153,0.571-0.294,0.858-0.44c0.233-0.119,0.463-0.244,0.7-0.358  c0.296-0.143,0.599-0.273,0.9-0.408c0.234-0.105,0.464-0.216,0.7-0.316c0.305-0.129,0.617-0.245,0.926-0.366  c0.238-0.093,0.473-0.193,0.714-0.281c0.311-0.114,0.628-0.214,0.943-0.32c0.245-0.082,0.487-0.172,0.735-0.249  c0.306-0.095,0.618-0.176,0.927-0.264c0.263-0.074,0.522-0.155,0.787-0.224c0.322-0.083,0.65-0.151,0.975-0.226  c0.257-0.059,0.511-0.125,0.77-0.178c0.342-0.07,0.69-0.125,1.035-0.186c0.248-0.043,0.493-0.095,0.742-0.133  c0.396-0.061,0.796-0.105,1.196-0.152c0.203-0.024,0.405-0.057,0.609-0.077c0.425-0.043,0.855-0.07,1.284-0.098  c0.184-0.012,0.365-0.033,0.549-0.042c0.615-0.031,1.233-0.047,1.856-0.047c0.623,0,1.242,0.016,1.857,0.047  c0.207,0.01,0.411,0.033,0.617,0.047c0.406,0.028,0.813,0.052,1.216,0.093c0.232,0.023,0.459,0.06,0.689,0.088  c0.373,0.045,0.747,0.086,1.116,0.142c0.294,0.045,0.584,0.105,0.876,0.157c0.301,0.054,0.603,0.1,0.901,0.161  c0.363,0.074,0.719,0.164,1.078,0.249c0.222,0.053,0.447,0.098,0.667,0.154c0.343,0.088,0.68,0.192,1.019,0.29  c0.232,0.067,0.466,0.126,0.696,0.198c0.346,0.108,0.687,0.23,1.029,0.348c0.215,0.074,0.434,0.141,0.648,0.219  c0.374,0.137,0.741,0.289,1.109,0.438c0.176,0.071,0.355,0.136,0.53,0.209c0.391,0.165,0.773,0.345,1.157,0.523  c0.146,0.068,0.297,0.13,0.442,0.2c0.398,0.192,0.788,0.397,1.178,0.603c0.125,0.066,0.254,0.127,0.379,0.195  c0.392,0.213,0.775,0.439,1.158,0.665c0.117,0.07,0.239,0.133,0.355,0.204c0.398,0.242,0.788,0.497,1.176,0.753  c0.096,0.063,0.194,0.122,0.289,0.186c0.398,0.268,0.786,0.549,1.172,0.833c0.081,0.059,0.164,0.114,0.244,0.174  c0.396,0.296,0.783,0.604,1.167,0.916c0.065,0.053,0.133,0.103,0.198,0.156c0.397,0.327,0.784,0.666,1.167,1.01  c0.047,0.042,0.097,0.082,0.144,0.125c0.388,0.353,0.767,0.716,1.14,1.085c0.038,0.038,0.078,0.073,0.116,0.111  c0.379,0.379,0.749,0.767,1.111,1.163c0.028,0.031,0.058,0.06,0.086,0.091c0.37,0.407,0.73,0.823,1.082,1.246  c0.018,0.021,0.037,0.042,0.055,0.063c0.34,0.411,0.668,0.831,0.99,1.256c0.028,0.037,0.058,0.072,0.086,0.109  c0.324,0.432,0.637,0.874,0.942,1.32c0.022,0.032,0.045,0.062,0.067,0.094c0.298,0.44,0.584,0.888,0.863,1.34  c0.026,0.042,0.054,0.083,0.08,0.125c0.281,0.461,0.551,0.931,0.812,1.405c0.02,0.035,0.041,0.069,0.061,0.105  c0.26,0.477,0.508,0.962,0.747,1.451c0.017,0.035,0.037,0.069,0.054,0.105c0.233,0.48,0.452,0.968,0.664,1.46  c0.02,0.047,0.043,0.092,0.063,0.14c0.205,0.481,0.396,0.969,0.58,1.461c0.023,0.06,0.048,0.118,0.071,0.179  c0.176,0.478,0.338,0.964,0.495,1.451c0.024,0.076,0.053,0.15,0.077,0.226c0.153,0.487,0.29,0.98,0.423,1.475  c0.021,0.079,0.047,0.157,0.067,0.237c0.124,0.477,0.233,0.961,0.338,1.445c0.022,0.101,0.049,0.201,0.07,0.302  c0.097,0.47,0.179,0.945,0.258,1.422c0.02,0.119,0.045,0.237,0.064,0.356c0.071,0.458,0.126,0.921,0.179,1.385  c0.016,0.141,0.039,0.281,0.054,0.423c0.047,0.456,0.078,0.917,0.108,1.379c0.01,0.151,0.027,0.301,0.035,0.453  c0.023,0.445,0.03,0.893,0.037,1.342c0.003,0.173,0.013,0.344,0.013,0.517l-0.004,0.189c0,0.014,0.002,0.027,0.002,0.041  C176.84,391.892,160.658,408.021,140.776,408.021z M318.688,335.701h30.405c-0.085,0.101-0.169,0.201-0.253,0.302  c-0.218,0.262-0.426,0.531-0.639,0.797c-0.322,0.401-0.643,0.803-0.954,1.213c-0.222,0.293-0.436,0.591-0.652,0.889  c-0.288,0.396-0.574,0.794-0.852,1.198c-0.213,0.31-0.421,0.624-0.629,0.938c-0.267,0.404-0.529,0.812-0.785,1.224  c-0.2,0.321-0.397,0.644-0.591,0.969c-0.25,0.419-0.492,0.843-0.731,1.269c-0.183,0.326-0.366,0.652-0.542,0.982  c-0.238,0.446-0.466,0.898-0.693,1.351c-0.159,0.318-0.322,0.634-0.475,0.956c-0.24,0.504-0.466,1.016-0.692,1.528  c-0.123,0.279-0.253,0.555-0.371,0.836c-0.333,0.792-0.651,1.592-0.949,2.402c-0.033,0.091-0.061,0.185-0.094,0.276  c-0.263,0.727-0.513,1.461-0.746,2.201c-0.092,0.292-0.172,0.59-0.259,0.884c-0.162,0.546-0.323,1.092-0.468,1.645  c-0.09,0.34-0.169,0.684-0.253,1.027c-0.126,0.516-0.249,1.034-0.36,1.555c-0.077,0.36-0.146,0.723-0.216,1.086  c-0.057,0.294-0.123,0.585-0.175,0.88H318.69v-26.408H318.688z M392.024,408.021c-19.87,0-36.044-16.111-36.155-35.955  c0-0.083-0.002-0.166-0.004-0.25c0-0.337,0.016-0.671,0.025-1.006c0.008-0.287,0.01-0.576,0.025-0.861  c0.017-0.329,0.049-0.654,0.075-0.981c0.023-0.283,0.038-0.568,0.067-0.849c0.033-0.324,0.081-0.644,0.123-0.966  c0.037-0.28,0.067-0.563,0.11-0.841c0.049-0.314,0.111-0.624,0.168-0.936c0.051-0.281,0.096-0.563,0.153-0.841  c0.063-0.304,0.139-0.603,0.209-0.904c0.066-0.281,0.125-0.565,0.198-0.843c0.077-0.299,0.168-0.593,0.253-0.889  c0.079-0.274,0.151-0.55,0.236-0.821c0.092-0.295,0.197-0.585,0.297-0.877c0.091-0.267,0.177-0.537,0.274-0.801  c0.105-0.285,0.222-0.564,0.334-0.845c0.105-0.264,0.204-0.532,0.316-0.794c0.119-0.279,0.249-0.552,0.375-0.828  c0.117-0.257,0.228-0.517,0.351-0.771c0.132-0.274,0.276-0.54,0.415-0.81c0.128-0.249,0.251-0.501,0.385-0.746  c0.148-0.271,0.306-0.534,0.461-0.8c0.137-0.237,0.269-0.478,0.411-0.712c0.162-0.265,0.334-0.523,0.503-0.783  c0.147-0.227,0.288-0.458,0.439-0.682c0.177-0.26,0.364-0.513,0.547-0.768c0.154-0.216,0.303-0.435,0.462-0.647  c0.19-0.253,0.39-0.498,0.587-0.746c0.163-0.206,0.321-0.416,0.488-0.619c0.202-0.244,0.413-0.478,0.621-0.717  c0.172-0.198,0.34-0.4,0.516-0.594c0.217-0.239,0.445-0.468,0.669-0.701c0.177-0.184,0.348-0.373,0.529-0.553  c0.232-0.232,0.475-0.454,0.713-0.68c0.181-0.172,0.358-0.348,0.543-0.516c0.246-0.224,0.502-0.437,0.755-0.654  c0.186-0.16,0.367-0.325,0.557-0.481c0.269-0.222,0.547-0.433,0.823-0.647c0.181-0.141,0.358-0.287,0.542-0.425  c0.287-0.215,0.583-0.418,0.877-0.624c0.181-0.127,0.357-0.26,0.54-0.383c0.308-0.208,0.625-0.404,0.94-0.603  c0.176-0.111,0.347-0.228,0.525-0.336c0.331-0.201,0.671-0.39,1.008-0.58c0.169-0.095,0.334-0.197,0.505-0.29  c0.347-0.188,0.701-0.363,1.055-0.541c0.168-0.085,0.333-0.176,0.503-0.258c0.375-0.181,0.757-0.348,1.139-0.516  c0.154-0.068,0.305-0.142,0.46-0.208c0.388-0.165,0.784-0.315,1.179-0.466c0.155-0.059,0.306-0.125,0.461-0.182  c0.415-0.152,0.837-0.29,1.259-0.427c0.14-0.046,0.278-0.098,0.419-0.142c0.413-0.128,0.832-0.242,1.251-0.356  c0.156-0.042,0.308-0.092,0.464-0.132c0.435-0.112,0.876-0.209,1.317-0.305c0.144-0.031,0.285-0.07,0.43-0.099  c0.474-0.097,0.953-0.178,1.434-0.257c0.115-0.019,0.228-0.044,0.344-0.062c0.576-0.088,1.158-0.161,1.742-0.222  c0.021-0.002,0.042-0.006,0.063-0.008c0.56-0.057,1.125-0.098,1.692-0.129c0.048-0.003,0.095-0.008,0.142-0.011  c0.615-0.031,1.234-0.047,1.857-0.047c0.173,0,0.344,0.011,0.517,0.013c0.447,0.006,0.895,0.011,1.338,0.034  c0.321,0.016,0.638,0.048,0.957,0.073c0.292,0.023,0.586,0.037,0.876,0.067c0.338,0.034,0.671,0.084,1.007,0.128  c0.266,0.035,0.534,0.061,0.798,0.102c0.384,0.059,0.763,0.133,1.143,0.204c0.21,0.039,0.423,0.07,0.632,0.113  c0.393,0.08,0.78,0.176,1.167,0.27c0.192,0.046,0.388,0.085,0.579,0.134c0.348,0.09,0.69,0.194,1.034,0.294  c0.227,0.065,0.456,0.124,0.68,0.194c0.326,0.101,0.645,0.217,0.967,0.327c0.237,0.081,0.476,0.155,0.711,0.241  c0.32,0.117,0.634,0.248,0.95,0.374c0.23,0.092,0.463,0.177,0.69,0.273c0.3,0.127,0.593,0.267,0.889,0.402  c0.237,0.108,0.477,0.209,0.711,0.322c0.284,0.137,0.56,0.286,0.84,0.43c0.239,0.123,0.482,0.24,0.718,0.368  c0.27,0.147,0.532,0.305,0.797,0.458c0.239,0.138,0.481,0.27,0.717,0.412c0.26,0.159,0.513,0.328,0.77,0.493  c0.232,0.149,0.468,0.293,0.696,0.447c0.247,0.167,0.486,0.344,0.728,0.517c0.23,0.164,0.465,0.322,0.691,0.491  s0.444,0.348,0.666,0.522c0.234,0.184,0.472,0.362,0.701,0.551c0.217,0.179,0.425,0.367,0.638,0.551  c0.225,0.194,0.454,0.384,0.674,0.584c0.206,0.187,0.403,0.383,0.605,0.575c0.218,0.207,0.44,0.41,0.652,0.622  c0.189,0.189,0.37,0.387,0.555,0.58c0.215,0.225,0.434,0.445,0.644,0.675c0.177,0.195,0.346,0.398,0.519,0.597  c0.207,0.237,0.418,0.471,0.618,0.713c0.166,0.2,0.322,0.408,0.483,0.612c0.198,0.25,0.4,0.497,0.592,0.753  c0.152,0.202,0.293,0.412,0.441,0.617c0.19,0.266,0.385,0.528,0.569,0.799c0.141,0.208,0.272,0.424,0.409,0.635  c0.179,0.276,0.361,0.549,0.533,0.83c0.132,0.216,0.253,0.439,0.38,0.657c0.165,0.284,0.335,0.566,0.492,0.855  c0.121,0.223,0.233,0.452,0.35,0.678c0.151,0.292,0.307,0.582,0.45,0.878c0.111,0.229,0.211,0.463,0.317,0.695  c0.138,0.301,0.28,0.599,0.409,0.904c0.1,0.235,0.188,0.475,0.283,0.712c0.123,0.308,0.251,0.614,0.366,0.927  c0.089,0.242,0.167,0.489,0.251,0.733c0.108,0.314,0.22,0.626,0.32,0.943c0.078,0.25,0.145,0.506,0.218,0.759  c0.091,0.317,0.188,0.632,0.271,0.953c0.067,0.258,0.122,0.521,0.183,0.782c0.076,0.321,0.156,0.64,0.223,0.964  c0.054,0.261,0.096,0.526,0.144,0.789c0.06,0.329,0.126,0.657,0.177,0.989c0.041,0.264,0.069,0.532,0.104,0.798  c0.044,0.335,0.093,0.668,0.128,1.006c0.029,0.276,0.044,0.555,0.066,0.832c0.027,0.332,0.059,0.663,0.076,0.998  c0.015,0.282,0.016,0.567,0.025,0.851c0.01,0.338,0.025,0.674,0.026,1.015c-0.002,0.083-0.004,0.167-0.004,0.251  C428.068,391.91,411.895,408.021,392.024,408.021z M447.337,362.109c-0.052-0.296-0.119-0.586-0.175-0.88  c-0.07-0.363-0.139-0.725-0.216-1.086c-0.111-0.521-0.234-1.039-0.36-1.555c-0.083-0.342-0.163-0.686-0.253-1.027  c-0.146-0.553-0.306-1.099-0.468-1.645c-0.087-0.294-0.168-0.592-0.259-0.884c-0.233-0.741-0.484-1.474-0.746-2.201  c-0.033-0.091-0.061-0.185-0.094-0.276c-0.297-0.81-0.615-1.609-0.948-2.401c-0.119-0.284-0.25-0.561-0.374-0.842  c-0.225-0.51-0.45-1.021-0.69-1.523c-0.153-0.322-0.316-0.638-0.475-0.956c-0.227-0.453-0.454-0.905-0.693-1.351  c-0.176-0.33-0.359-0.656-0.542-0.982c-0.238-0.425-0.48-0.848-0.729-1.267c-0.195-0.327-0.393-0.652-0.594-0.975  c-0.255-0.409-0.516-0.814-0.781-1.217c-0.208-0.316-0.418-0.632-0.632-0.943c-0.277-0.403-0.562-0.799-0.849-1.194  c-0.217-0.299-0.432-0.598-0.655-0.892c-0.309-0.408-0.628-0.807-0.948-1.206c-0.215-0.268-0.425-0.54-0.645-0.804  c-0.084-0.101-0.168-0.201-0.252-0.3h57.044v26.407L447.337,362.109L447.337,362.109z"/>
<path d="M38.258,335.701c-0.65,0-1.31-0.061-1.95-0.19c-0.64-0.13-1.27-0.33-1.88-0.58c-0.6-0.25-1.18-0.56-1.72-0.92  c-0.55-0.36-1.061-0.78-1.521-1.24s-0.88-0.97-1.25-1.52c-0.359-0.54-0.67-1.12-0.92-1.73c-0.239-0.6-0.439-1.229-0.559-1.87  c-0.13-0.64-0.2-1.3-0.2-1.949c0-2.631,1.07-5.21,2.93-7.07c0.46-0.46,0.971-0.88,1.521-1.24c0.54-0.36,1.12-0.67,1.72-0.92  c0.61-0.25,1.24-0.45,1.88-0.58c1.28-0.26,2.61-0.26,3.9,0c0.64,0.13,1.27,0.33,1.87,0.58c0.609,0.25,1.189,0.56,1.729,0.92  c0.55,0.36,1.061,0.78,1.521,1.24c1.859,1.86,2.93,4.439,2.93,7.07c0,0.649-0.07,1.31-0.2,1.949c-0.12,0.641-0.319,1.27-0.569,1.87  c-0.25,0.61-0.561,1.19-0.921,1.73c-0.359,0.55-0.779,1.06-1.239,1.52c-0.46,0.46-0.971,0.88-1.521,1.24  c-0.54,0.36-1.12,0.67-1.729,0.92c-0.601,0.25-1.23,0.45-1.87,0.58C39.567,335.641,38.908,335.701,38.258,335.701z"/>
<g>
</g>
<g>
</g>
<g>
</g>
<g>
</g>
<g>
</g>
<g>
</g>
<g>
</g>
<g>
</g>
<g>
</g>
<g>
</g>
<g>
</g>
<g>
</g>
<g>
</g>
<g>
</g>
<g>
</g>
</svg>
