<?xml version="1.0" encoding="iso-8859-1"?>
<!-- Generator: Adobe Illustrator 19.0.0, SVG Export Plug-In . SVG Version: 6.00 Build 0)  -->
<svg xmlns="http://www.w3.org/2000/svg" xmlns:xlink="http://www.w3.org/1999/xlink" version="1.1" id="Capa_1" x="0px" y="0px" viewBox="0 0 512 512" style="enable-background:new 0 0 512 512;" xml:space="preserve">
<path style="fill:#C69F7F;" d="M415.099,284.116c-0.616-11.749-10.017-21.485-21.892-21.819  c-12.177-0.334-22.257,8.974-23.123,20.848h-0.156c-0.407-5.551-2.828-10.539-6.532-14.253c-4.09-4.08-9.725-6.605-15.954-6.605  c-11.895,0-21.631,9.193-22.486,20.859h-0.156c-0.856-11.666-10.591-20.859-22.476-20.859c-11.896,0-21.631,9.193-22.487,20.859  h-0.157c-0.01-0.208-0.052-0.407-0.073-0.616v-97.688c0-0.407-0.01-0.803-0.031-1.21c-0.605-11.749-10.007-21.474-21.881-21.808  c-12.469-0.355-22.737,9.422-23.175,21.683c-0.011,0.042-0.011,0.083-0.011,0.125v4.602l0.011-1.544l0.115,154.181h-33.884  c-19.68,0-35.634,15.955-35.634,35.634c0,5.259,2.129,10.038,5.583,13.481c3.443,3.444,8.212,5.583,13.471,5.583h21.286  c14.953,0,29.05,6.929,38.18,14.772l19.828,25.733h122.526l19.393-25.649c6.323-4.368,9.746-14.563,9.746-25.05V285.326  C415.13,284.919,415.12,284.512,415.099,284.116z"/>
<path style="fill:#BFBFBF;" d="M395.839,161.15c-3.386-13.551-8.767-26.704-16.142-38.996l27.557-38.043l-39.129-39.129  L330.082,72.54c-12.292-7.375-25.445-12.756-38.996-16.142L283.669,10h-55.337l-7.417,46.398  c-13.551,3.386-26.703,8.767-38.996,16.142l-38.043-27.557l-39.129,39.129l27.557,38.043c-7.374,12.292-12.756,25.445-16.142,38.996  l-46.398,7.416v55.337l46.398,7.417c3.386,13.551,8.767,26.703,16.142,38.996l-27.557,38.043l39.129,39.129l38.043-27.557  c12.292,7.374,25.445,12.756,38.996,16.142l0.767,4.796h12.95l-0.054-72.272c-31.71-9.261-54.884-38.533-54.884-73.236  c0-42.143,34.163-76.306,76.306-76.306s76.306,34.163,76.306,76.306c0,33.902-22.116,62.624-52.702,72.566v14.602  c0.021,0.209,0.063,0.407,0.073,0.616h0.157c0.856-11.666,10.591-20.859,22.487-20.859c11.885,0,21.62,9.193,22.476,20.859h0.156  c0.856-11.666,10.591-20.859,22.486-20.859c6.23,0,11.864,2.525,15.954,6.605c3.704,3.714,6.125,8.702,6.532,14.253h0.156  c0.607-8.317,5.737-15.377,12.939-18.744c5.678-10.569,9.965-21.672,12.816-33.08l46.398-7.417v-55.337L395.839,161.15z"/>
<path d="M178.061,281.58c-2.578,0-5.154-0.988-7.111-2.96c-3.88-3.909-3.888-10.241,0.006-14.137  c1.876-1.876,4.42-2.929,7.071-2.929c0.019,0,0.037,0,0.056,0c2.671,0.015,5.226,1.099,7.094,3.008  c3.852,3.939,3.821,10.279-0.103,14.146C183.13,280.624,180.594,281.58,178.061,281.58z M178.049,271.575l7.051,7.051  L178.049,271.575z"/>
<path style="fill:#076893;" d="M234.579,268.597l-0.061-81.909l-0.011,1.544v-4.602c0-0.042,0-0.083,0.011-0.125  c0.438-12.261,10.706-22.038,23.175-21.683c11.875,0.334,21.276,10.059,21.881,21.808c0.021,0.407,0.031,0.803,0.031,1.21v83.086  c30.586-9.943,52.702-38.665,52.702-72.567c0-42.143-34.164-76.306-76.306-76.306s-76.306,34.163-76.306,76.306  C179.695,230.064,202.868,259.336,234.579,268.597z"/>
<path style="fill:#C69F7F;" d="M279.606,184.841v0.511c0,0.407-0.01,0.814-0.031,1.21c-0.605,11.749-10.007,21.485-21.881,21.819  c-12.469,0.344-22.737-9.422-23.175-21.693c-0.01-0.042-0.01-0.083-0.01-0.125l0.01-3.057c0.438-12.261,10.706-22.038,23.175-21.683  c11.875,0.334,21.276,10.059,21.881,21.809C279.595,184.038,279.606,184.434,279.606,184.841z"/>
<rect x="253.76" y="436.07" style="fill:#076893;" width="148.36" height="65.928"/>
<path d="M289.501,479.04c-0.65,0-1.311-0.07-1.96-0.2c-0.63-0.13-1.26-0.32-1.87-0.57c-0.601-0.25-1.18-0.56-1.72-0.92  c-0.551-0.359-1.061-0.78-1.521-1.24s-0.88-0.97-1.25-1.52c-0.36-0.55-0.66-1.13-0.91-1.73s-0.45-1.229-0.58-1.869  c-0.13-0.65-0.189-1.301-0.189-1.95c0-0.66,0.06-1.311,0.189-1.96c0.13-0.641,0.33-1.271,0.57-1.87  c0.25-0.601,0.559-1.181,0.92-1.73c0.37-0.54,0.79-1.06,1.25-1.52s0.97-0.88,1.521-1.24c0.54-0.36,1.119-0.67,1.72-0.92  c0.61-0.25,1.24-0.44,1.87-0.57c1.29-0.26,2.62-0.26,3.91,0c0.64,0.13,1.27,0.32,1.869,0.57c0.61,0.25,1.191,0.56,1.73,0.92  c0.55,0.37,1.06,0.78,1.52,1.24c0.461,0.46,0.881,0.98,1.24,1.52c0.36,0.55,0.67,1.13,0.92,1.73s0.45,1.23,0.57,1.87  c0.13,0.649,0.2,1.3,0.2,1.96c0,0.65-0.07,1.3-0.2,1.95c-0.12,0.64-0.32,1.27-0.57,1.869c-0.25,0.601-0.56,1.181-0.92,1.73  c-0.359,0.55-0.779,1.06-1.24,1.52c-0.46,0.46-0.97,0.881-1.52,1.24c-0.54,0.36-1.12,0.67-1.73,0.92  c-0.6,0.25-1.229,0.44-1.869,0.57C290.811,478.97,290.15,479.04,289.501,479.04z"/>
<path d="M443.815,158.692l-40.03-6.398c-3.035-10.24-7.123-20.117-12.207-29.493l23.775-32.823  c2.883-3.979,2.447-9.463-1.027-12.938l-39.129-39.129c-3.474-3.474-8.958-3.909-12.938-1.027L329.437,60.66  c-9.376-5.084-19.253-9.172-29.493-12.208l-6.399-40.03C292.77,3.569,288.583,0,283.67,0h-55.337c-4.913,0-9.099,3.569-9.874,8.422  l-6.399,40.03c-10.24,3.035-20.117,7.123-29.493,12.207l-32.822-23.775c-3.979-2.881-9.462-2.447-12.937,1.027L97.677,77.04  c-3.475,3.475-3.91,8.958-1.028,12.938l23.776,32.823c-5.084,9.376-9.173,19.254-12.207,29.493l-40.031,6.398  c-4.852,0.776-8.421,4.962-8.421,9.875v55.336c0,4.913,3.569,9.099,8.421,9.875l40.031,6.398  c3.035,10.239,7.123,20.117,12.207,29.493l-23.776,32.823c-2.882,3.979-2.447,9.463,1.028,12.938l39.129,39.129  c1.936,1.936,4.497,2.929,7.074,2.929c2.046,0,4.102-0.626,5.863-1.901l32.822-23.775c1.028,0.557,2.064,1.097,3.104,1.63  c-17.772,6.243-30.552,23.183-30.552,43.061c0,7.782,3.027,15.085,8.511,20.553c5.489,5.489,12.784,8.512,20.542,8.512h11.311  c0.007,0,0.013,0.001,0.019,0.001h9.989c12.282,0.011,23.847,5.949,30.885,11.73l9.616,12.48c-1.395,1.719-2.233,3.908-2.233,6.293  V502c0,5.522,4.477,10,10,10h148.364c5.522,0,10-4.478,10-10v-65.929c0-4.294-2.713-7.946-6.514-9.363l6.915-9.147  c7.927-6.404,12.607-18.267,12.607-32.189V285.326c0-0.583-0.015-1.167-0.045-1.734c-0.789-15.051-11.671-27.509-25.767-30.575  c1.676-4.22,3.173-8.502,4.463-12.839l40.033-6.399c4.853-0.776,8.422-4.962,8.422-9.875v-55.336  C452.236,163.654,448.667,159.469,443.815,158.692z M222.377,252.478c-0.643-0.381-1.279-0.772-1.907-1.174  c-0.224-0.143-0.444-0.292-0.666-0.438c-0.47-0.309-0.937-0.621-1.399-0.941c-0.247-0.171-0.491-0.345-0.735-0.519  c-0.436-0.312-0.869-0.628-1.297-0.95c-0.238-0.179-0.477-0.358-0.712-0.54c-0.448-0.346-0.889-0.699-1.327-1.056  c-0.2-0.163-0.402-0.323-0.6-0.488c-0.602-0.502-1.196-1.013-1.78-1.535c-0.026-0.023-0.052-0.045-0.078-0.068  c-0.609-0.547-1.206-1.107-1.794-1.675c-0.18-0.174-0.355-0.352-0.532-0.528c-0.405-0.401-0.807-0.804-1.202-1.215  c-0.206-0.215-0.41-0.433-0.613-0.65c-0.36-0.385-0.716-0.774-1.067-1.167c-0.204-0.228-0.406-0.457-0.607-0.688  c-0.355-0.408-0.703-0.823-1.048-1.239c-0.178-0.215-0.358-0.428-0.533-0.645c-0.42-0.52-0.83-1.049-1.234-1.581  c-0.088-0.116-0.18-0.23-0.268-0.347c-0.488-0.652-0.962-1.314-1.426-1.983c-0.13-0.187-0.254-0.379-0.382-0.568  c-0.33-0.487-0.656-0.976-0.973-1.471c-0.16-0.249-0.314-0.501-0.471-0.752c-0.279-0.448-0.553-0.899-0.822-1.355  c-0.156-0.265-0.31-0.53-0.463-0.797c-0.265-0.463-0.523-0.931-0.776-1.401c-0.137-0.255-0.277-0.508-0.411-0.764  c-0.284-0.543-0.558-1.091-0.827-1.642c-0.09-0.185-0.185-0.367-0.274-0.553c-0.351-0.736-0.69-1.478-1.014-2.228  c-0.077-0.177-0.147-0.357-0.222-0.535c-0.244-0.577-0.483-1.156-0.711-1.741c-0.105-0.27-0.205-0.543-0.307-0.814  c-0.188-0.503-0.372-1.007-0.549-1.514c-0.102-0.294-0.202-0.589-0.3-0.884c-0.167-0.503-0.326-1.008-0.481-1.515  c-0.088-0.289-0.177-0.577-0.262-0.867c-0.163-0.56-0.315-1.124-0.463-1.689c-0.062-0.236-0.128-0.47-0.188-0.707  c-0.2-0.8-0.387-1.604-0.557-2.414c-0.027-0.126-0.048-0.253-0.074-0.38c-0.14-0.686-0.271-1.374-0.389-2.067  c-0.048-0.278-0.088-0.558-0.132-0.837c-0.086-0.548-0.168-1.096-0.241-1.647c-0.041-0.312-0.078-0.624-0.115-0.937  c-0.062-0.533-0.118-1.068-0.167-1.604c-0.029-0.311-0.058-0.622-0.082-0.934c-0.044-0.573-0.078-1.147-0.108-1.723  c-0.014-0.27-0.032-0.539-0.043-0.81c-0.033-0.844-0.053-1.69-0.053-2.54c0-36.562,29.745-66.306,66.306-66.306  s66.307,29.744,66.307,66.306c0,0.833-0.019,1.663-0.05,2.49c-0.01,0.264-0.027,0.526-0.039,0.79  c-0.028,0.567-0.06,1.132-0.102,1.696c-0.022,0.302-0.049,0.602-0.075,0.903c-0.047,0.534-0.1,1.066-0.16,1.596  c-0.033,0.296-0.066,0.592-0.103,0.888c-0.071,0.566-0.152,1.129-0.237,1.691c-0.038,0.246-0.071,0.493-0.111,0.739  c-0.131,0.802-0.273,1.6-0.433,2.393c-0.011,0.055-0.025,0.109-0.036,0.164c-0.151,0.739-0.314,1.473-0.489,2.204  c-0.06,0.249-0.126,0.497-0.188,0.745c-0.136,0.538-0.275,1.074-0.424,1.607c-0.078,0.279-0.159,0.557-0.24,0.835  c-0.149,0.51-0.305,1.018-0.467,1.524c-0.086,0.269-0.171,0.538-0.26,0.805c-0.184,0.551-0.377,1.098-0.574,1.643  c-0.075,0.208-0.147,0.417-0.225,0.624c-0.282,0.753-0.575,1.5-0.883,2.24c-0.027,0.065-0.057,0.129-0.085,0.195  c-0.281,0.669-0.574,1.332-0.876,1.991c-0.103,0.225-0.212,0.447-0.318,0.671c-0.237,0.501-0.478,0.998-0.727,1.492  c-0.125,0.248-0.253,0.495-0.381,0.742c-0.248,0.477-0.502,0.949-0.762,1.419c-0.129,0.234-0.257,0.468-0.389,0.7  c-0.297,0.523-0.603,1.041-0.914,1.555c-0.1,0.165-0.196,0.332-0.297,0.495c-0.421,0.683-0.853,1.36-1.299,2.027  c-0.049,0.074-0.101,0.145-0.151,0.219c-0.394,0.584-0.796,1.162-1.208,1.733c-0.141,0.195-0.286,0.387-0.429,0.581  c-0.332,0.449-0.668,0.895-1.011,1.337c-0.165,0.212-0.332,0.423-0.5,0.634c-0.342,0.428-0.689,0.852-1.042,1.272  c-0.164,0.196-0.327,0.392-0.493,0.586c-0.407,0.474-0.823,0.941-1.244,1.404c-0.114,0.125-0.225,0.253-0.34,0.378  c-0.547,0.592-1.105,1.176-1.675,1.749c-0.075,0.075-0.153,0.148-0.228,0.223c-0.488,0.487-0.984,0.966-1.488,1.438  c-0.176,0.165-0.356,0.326-0.533,0.489c-0.415,0.38-0.835,0.756-1.26,1.125c-0.202,0.175-0.405,0.35-0.609,0.523  c-0.425,0.361-0.856,0.715-1.291,1.065c-0.196,0.158-0.39,0.317-0.588,0.472c-0.511,0.402-1.03,0.795-1.553,1.183  c-0.122,0.09-0.241,0.183-0.363,0.273c-0.659,0.48-1.327,0.949-2.005,1.406c-0.113,0.076-0.229,0.148-0.342,0.224  c-0.557,0.371-1.12,0.734-1.69,1.089c-0.214,0.133-0.431,0.262-0.646,0.393c-0.288,0.175-0.58,0.343-0.871,0.514v-67.178v-0.512  c0-0.576-0.015-1.137-0.045-1.725c-0.879-17.072-14.754-30.816-31.583-31.29c-3.312-0.099-6.529,0.309-9.575,1.153  c-7.703,2.13-14.299,7.041-18.6,13.598c-0.003,0.004-0.005,0.008-0.007,0.012c-0.278,0.425-0.547,0.856-0.806,1.294  c-0.031,0.053-0.06,0.107-0.09,0.16c-0.228,0.392-0.451,0.787-0.663,1.189c-0.05,0.095-0.096,0.192-0.145,0.287  c-0.187,0.363-0.372,0.729-0.545,1.1c-0.063,0.135-0.121,0.274-0.183,0.41c-0.152,0.337-0.303,0.674-0.443,1.016  c-0.07,0.17-0.133,0.343-0.2,0.514c-0.123,0.315-0.247,0.63-0.36,0.95c-0.07,0.198-0.133,0.399-0.199,0.598  c-0.1,0.299-0.2,0.598-0.291,0.901c-0.066,0.22-0.124,0.444-0.186,0.666c-0.08,0.288-0.161,0.575-0.233,0.866  c-0.059,0.239-0.11,0.482-0.163,0.723c-0.062,0.279-0.127,0.558-0.182,0.84c-0.049,0.254-0.09,0.511-0.134,0.767  c-0.047,0.275-0.096,0.549-0.135,0.826c-0.038,0.265-0.067,0.532-0.098,0.798c-0.032,0.274-0.067,0.547-0.092,0.823  c-0.025,0.271-0.041,0.544-0.059,0.816c-0.004,0.061-0.009,0.123-0.013,0.184c-0.01,0.156-0.026,0.309-0.034,0.465  c-0.008,0.102-0.007,0.208-0.012,0.311c-0.001,0.018-0.003,0.036-0.003,0.055c-0.001,0.023-0.001,0.046-0.001,0.069  c-0.005,0.138-0.016,0.274-0.016,0.414v4.602c0,0.167,0.004,0.334,0.012,0.5v0.078l0.048,64.906  c-0.67-0.363-1.336-0.732-1.991-1.117C222.508,252.561,222.443,252.518,222.377,252.478z M244.512,186.331  c-0.001-0.027-0.002-0.054-0.003-0.081l0.009-2.451c0.009-0.235,0.038-0.465,0.06-0.697c0.018-0.186,0.027-0.374,0.054-0.557  c0.032-0.224,0.082-0.442,0.126-0.663c0.036-0.183,0.064-0.37,0.109-0.55c0.045-0.184,0.107-0.36,0.16-0.541  c0.063-0.211,0.117-0.426,0.191-0.632c0.015-0.043,0.036-0.084,0.052-0.127c1.617-4.394,5.643-7.622,10.428-8.141  c0.057-0.006,0.112-0.015,0.169-0.02c0.281-0.027,0.568-0.034,0.854-0.042c0.231-0.005,0.459-0.02,0.693-0.011  c2.025,0.057,3.94,0.625,5.626,1.584c3.709,2.11,6.311,6.113,6.549,10.732c0.012,0.237,0.019,0.469,0.019,0.706v0.512  c0,0.233-0.006,0.466-0.018,0.695c-0.348,6.736-5.695,12.155-12.171,12.337c-0.117,0.003-0.234,0.005-0.352,0.005  C250.349,198.39,244.751,193.051,244.512,186.331z M263.759,492v-45.928h122.232c0.006,0,0.011-0.001,0.017-0.001h6.113v12.965  h-64.029c-5.522,0-10,4.478-10,10s4.478,10,10,10h64.029V492H263.759z M405.112,284.639c0,0,0.001,0.012,0.001,0.018  c0.012,0.22,0.017,0.444,0.017,0.67v100.047c0,8.49-2.798,15.004-5.43,16.822c-0.877,0.605-1.65,1.347-2.293,2.196l-16.391,21.68  H268.384l-15.798-20.503h76.276c5.523,0,10-4.478,10-10s-4.477-10-10-10H205.495c-0.013,0-0.025-0.001-0.038-0.001h-21.287  c-2.415,0-4.688-0.942-6.411-2.665c-1.704-1.699-2.643-3.972-2.643-6.399c0-14.135,11.499-25.634,25.634-25.634h20.931h12.95  c2.653,0,5.198-1.055,7.074-2.932s2.928-4.422,2.926-7.076l-0.093-124.996c3.869,1.623,8.103,2.524,12.527,2.524  c0.302,0,0.603-0.004,0.907-0.013c4.102-0.115,8.026-1.024,11.632-2.572v52.122v0.001v14.602c0,0.013,0.002,0.027,0.002,0.04v20.603  c0,5.522,4.478,10,10,10s10-4.478,10-10V285.22c0.093-0.439,0.168-0.884,0.201-1.343c0.477-6.499,5.973-11.59,12.513-11.59  c6.485,0,11.938,5.017,12.485,11.446v19.525c0,5.522,4.478,10,10,10s10-4.478,10-10v-18.4c0.056-0.322,0.097-0.648,0.121-0.98  c0.477-6.5,5.974-11.591,12.513-11.591c3.352,0,6.51,1.309,8.874,3.666c2.129,2.136,3.422,4.95,3.64,7.924  c0.011,0.143,0.035,0.283,0.052,0.424v18.871c0,5.522,4.478,10,10,10s10-4.478,10-10v-18.874c0.017-0.142,0.041-0.282,0.052-0.426  c0.027-0.366,0.076-0.725,0.133-1.08c0.018-0.108,0.036-0.215,0.057-0.321c0.052-0.278,0.115-0.552,0.185-0.823  c0.026-0.101,0.05-0.202,0.079-0.302c0.083-0.29,0.179-0.574,0.282-0.854c0.053-0.144,0.11-0.286,0.168-0.427  c0.075-0.183,0.156-0.364,0.239-0.543c0.063-0.135,0.123-0.273,0.192-0.406c0.138-0.268,0.286-0.53,0.442-0.787  c0.077-0.127,0.159-0.25,0.241-0.374c0.115-0.175,0.234-0.347,0.357-0.516c0.077-0.106,0.154-0.213,0.234-0.316  c0.201-0.257,0.41-0.508,0.631-0.749c0.05-0.055,0.104-0.106,0.155-0.161c0.2-0.21,0.406-0.414,0.619-0.61  c0.06-0.055,0.119-0.109,0.18-0.163c0.546-0.482,1.133-0.919,1.757-1.301c0.03-0.019,0.062-0.036,0.092-0.055  c0.317-0.19,0.642-0.37,0.976-0.532l0.002-0.001c1.767-0.859,3.759-1.316,5.848-1.258  C399.406,272.476,404.759,277.898,405.112,284.639z M432.236,215.375l-37.976,6.07c-3.956,0.633-7.152,3.564-8.123,7.45  c-2.425,9.699-5.972,19.158-10.557,28.157c-2.016,1.233-3.893,2.672-5.591,4.302c-0.098-0.094-0.202-0.182-0.301-0.275  c-0.285-0.267-0.57-0.534-0.863-0.79c-0.047-0.041-0.097-0.079-0.144-0.12c-0.351-0.302-0.704-0.6-1.066-0.885  c-0.002-0.002-0.004-0.003-0.007-0.005c-2.54-2.01-5.338-3.606-8.309-4.767c11.747-20.516,17.175-44.275,15.382-68.12  c-2.131-28.355-14.392-55.059-34.523-75.191c-46.405-46.403-121.912-46.404-168.319,0c-17.336,17.337-28.755,39.218-33.023,63.278  c-4.169,23.504-1.277,47.419,8.363,69.16c2.238,5.049,8.146,7.325,13.195,5.088c5.049-2.238,7.327-8.146,5.088-13.195  c-16.476-37.158-8.23-81.439,20.519-110.188c38.608-38.608,101.426-38.608,140.034,0c34.594,34.594,38.921,88.415,10.287,127.976  c-0.241,0.334-0.484,0.666-0.73,0.997c-0.076,0.103-0.139,0.211-0.211,0.316c-3.919,1.58-7.478,3.899-10.485,6.794  c-0.49-0.472-1-0.923-1.519-1.363c-0.13-0.111-0.261-0.22-0.393-0.329c-0.525-0.433-1.059-0.855-1.611-1.255  c-0.002-0.001-0.004-0.003-0.006-0.004c-0.55-0.398-1.117-0.774-1.692-1.138c-0.145-0.092-0.29-0.182-0.437-0.272  c-0.582-0.356-1.17-0.701-1.775-1.02c-0.001-0.001-0.002-0.001-0.004-0.002c0.151-0.152,0.291-0.314,0.44-0.467  c0.708-0.726,1.404-1.463,2.085-2.213c0.288-0.317,0.569-0.64,0.852-0.962c0.57-0.647,1.13-1.302,1.68-1.966  c0.283-0.341,0.565-0.683,0.843-1.029c0.575-0.716,1.135-1.443,1.687-2.178c0.214-0.285,0.434-0.565,0.644-0.852  c0.746-1.019,1.472-2.052,2.172-3.103c0.125-0.188,0.242-0.381,0.365-0.57c0.571-0.872,1.129-1.753,1.668-2.645  c0.221-0.365,0.433-0.735,0.648-1.103c0.435-0.744,0.86-1.494,1.272-2.252c0.214-0.394,0.427-0.788,0.636-1.185  c0.419-0.799,0.823-1.607,1.217-2.42c0.165-0.34,0.336-0.676,0.497-1.019c0.538-1.147,1.055-2.306,1.543-3.479  c0.068-0.163,0.127-0.329,0.194-0.492c0.416-1.017,0.813-2.044,1.191-3.079c0.145-0.397,0.28-0.799,0.419-1.199  c0.288-0.826,0.564-1.657,0.827-2.493c0.136-0.433,0.27-0.867,0.399-1.303c0.257-0.866,0.497-1.737,0.727-2.613  c0.1-0.382,0.207-0.761,0.302-1.145c0.31-1.25,0.599-2.508,0.854-3.776c0.02-0.1,0.035-0.202,0.055-0.303  c0.231-1.172,0.436-2.352,0.619-3.538c0.064-0.414,0.117-0.831,0.175-1.247c0.125-0.893,0.238-1.789,0.335-2.69  c0.05-0.461,0.096-0.923,0.139-1.386c0.083-0.912,0.149-1.827,0.205-2.746c0.025-0.416,0.056-0.829,0.075-1.246  c0.06-1.323,0.099-2.651,0.099-3.986c0-47.589-38.717-86.306-86.307-86.306c-47.589,0-86.306,38.717-86.306,86.306  c0,1.19,0.024,2.377,0.071,3.559c0.71,17.732,6.732,34.487,17.524,48.659c0.043,0.056,0.089,0.11,0.132,0.167  c0.607,0.794,1.229,1.576,1.864,2.347c0.238,0.289,0.484,0.571,0.726,0.857c0.453,0.536,0.909,1.07,1.375,1.595  c0.285,0.32,0.575,0.635,0.864,0.95c0.441,0.481,0.885,0.959,1.336,1.43c0.305,0.318,0.612,0.633,0.921,0.947  c0.457,0.463,0.92,0.919,1.387,1.371c0.309,0.299,0.618,0.599,0.931,0.893c0.502,0.472,1.013,0.934,1.526,1.393  c0.287,0.257,0.571,0.519,0.862,0.773c0.662,0.578,1.335,1.142,2.015,1.699c0.149,0.123,0.294,0.25,0.445,0.372  c0.827,0.67,1.668,1.322,2.518,1.961c0.273,0.205,0.553,0.402,0.829,0.603c0.589,0.432,1.181,0.861,1.781,1.278  c0.341,0.237,0.687,0.467,1.031,0.699c0.549,0.37,1.101,0.736,1.658,1.094c0.365,0.234,0.732,0.464,1.1,0.693  c0.555,0.344,1.113,0.682,1.675,1.013c0.369,0.218,0.738,0.435,1.11,0.647c0.589,0.336,1.184,0.662,1.781,0.984  c0.349,0.188,0.696,0.38,1.047,0.564c0.716,0.374,1.439,0.733,2.165,1.087c0.236,0.115,0.469,0.237,0.706,0.35  c0.962,0.458,1.931,0.897,2.909,1.319c0.27,0.116,0.545,0.223,0.816,0.337c0.593,0.249,1.185,0.501,1.784,0.736l0.038,51.048  c-0.414-0.165-0.841-0.304-1.281-0.413c-12.792-3.197-24.997-8.249-36.277-15.016c-3.433-2.061-7.766-1.872-11.01,0.477  l-31.136,22.554l-27.068-27.068l22.554-31.136c2.35-3.243,2.537-7.576,0.477-11.011c-6.768-11.281-11.82-23.486-15.015-36.275  c-0.971-3.887-4.167-6.818-8.123-7.451l-37.977-6.07v-38.279l37.977-6.07c3.956-0.633,7.152-3.564,8.123-7.451  c3.195-12.789,8.247-24.994,15.015-36.275c2.061-3.434,1.873-7.767-0.477-11.011l-22.554-31.136l27.068-27.068l31.136,22.554  c3.243,2.348,7.575,2.537,11.01,0.477c11.281-6.767,23.486-11.818,36.277-15.016c3.886-0.971,6.817-4.167,7.45-8.123L236.861,20  h38.281l6.069,37.976c0.633,3.956,3.564,7.152,7.45,8.123c12.792,3.197,24.997,8.25,36.276,15.017  c3.435,2.061,7.769,1.872,11.011-0.476l31.137-22.555l27.067,27.068l-22.554,31.136c-2.35,3.243-2.537,7.576-0.477,11.011  c6.767,11.28,11.818,23.485,15.016,36.276c0.971,3.886,4.167,6.817,8.123,7.45l37.976,6.07V215.375z"/>
<path d="M367.451,405.569c-0.65,0-1.311-0.069-1.95-0.199c-0.641-0.13-1.27-0.32-1.87-0.57c-0.61-0.25-1.19-0.56-1.73-0.92  c-0.55-0.36-1.06-0.78-1.52-1.24s-0.88-0.97-1.24-1.52c-0.359-0.54-0.67-1.12-0.92-1.73c-0.25-0.6-0.439-1.229-0.57-1.87  c-0.13-0.64-0.199-1.3-0.199-1.95c0-0.649,0.069-1.31,0.199-1.96c0.131-0.63,0.32-1.26,0.57-1.869  c0.25-0.601,0.561-1.181,0.92-1.721c0.36-0.55,0.78-1.06,1.24-1.52s0.97-0.88,1.52-1.25c0.54-0.36,1.12-0.67,1.73-0.92  c0.6-0.25,1.229-0.441,1.87-0.57c1.29-0.26,2.62-0.26,3.91,0c0.64,0.13,1.26,0.32,1.87,0.57c0.6,0.25,1.18,0.559,1.72,0.92  c0.55,0.37,1.06,0.79,1.52,1.25s0.88,0.97,1.25,1.52c0.36,0.54,0.67,1.12,0.92,1.721c0.25,0.609,0.44,1.239,0.57,1.869  c0.13,0.65,0.19,1.31,0.19,1.96c0,2.631-1.061,5.21-2.931,7.07c-0.46,0.46-0.97,0.88-1.52,1.24c-0.54,0.36-1.12,0.67-1.72,0.92  c-0.61,0.25-1.23,0.44-1.87,0.57C368.761,405.5,368.101,405.569,367.451,405.569z"/>
<g>
</g>
<g>
</g>
<g>
</g>
<g>
</g>
<g>
</g>
<g>
</g>
<g>
</g>
<g>
</g>
<g>
</g>
<g>
</g>
<g>
</g>
<g>
</g>
<g>
</g>
<g>
</g>
<g>
</g>
</svg>
