<?xml version="1.0" encoding="iso-8859-1"?>
<!-- Generator: Adobe Illustrator 19.0.0, SVG Export Plug-In . SVG Version: 6.00 Build 0)  -->
<svg xmlns="http://www.w3.org/2000/svg" xmlns:xlink="http://www.w3.org/1999/xlink" version="1.1" id="Capa_1" x="0px" y="0px" viewBox="0 0 512 512" style="enable-background:new 0 0 512 512;" xml:space="preserve">
<polygon style="fill:#FDB845;" points="502,400 400,502 352.933,455.011 455.011,352.933 "/>
<polygon style="fill:#076893;" points="445.404,362.54 393.392,310.528 337.958,255.093 255.093,337.958 362.54,445.404 "/>
<rect x="56.872" y="176.802" transform="matrix(-0.7071 -0.7071 0.7071 -0.7071 197.2569 476.2147)" style="fill:#BFDEFF;" width="280.767" height="40.904"/>
<polygon style="fill:#4184B2;" points="109.488,86.491 99.389,24.582 10,10 24.582,99.388 86.491,109.488 "/>
<g>
	<path style="fill:#676767;" d="M246.035,317.318l21.18-21.181l-51.353-51.353l-21.18,21.18l-19.171,19.171   c-0.238,0.238-0.462,0.485-0.692,0.728c-42.211-20.836-94.735-13.688-129.87,21.447c-29.702,29.702-39.396,71.83-29.097,109.649   c0.574,2.108,3.654,4.538,6.76,1.433c0,0,43.563-43.229,58.029-57.694c5.761-5.761,15.122-3.959,15.122-3.959   s44.231,4.055,49.837,9.661c5.819,5.819,9.815,50.58,9.815,50.58s1.662,8.632-5.49,15.784   c-15.057,15.057-56.298,56.607-56.298,56.607c-3.618,3.617-0.563,6.242,1.612,6.829c37.769,10.212,79.802,0.5,109.452-29.15   c35.135-35.135,42.283-87.658,21.447-129.87c0.243-0.23,0.49-0.454,0.729-0.693L246.035,317.318z"/>
	<path style="fill:#676767;" d="M496.149,95.039c-0.574-2.108-3.655-4.538-6.76-1.433c0,0-43.563,43.229-58.029,57.695   c-5.761,5.761-15.122,3.959-15.122,3.959s-44.231-4.055-49.837-9.661c-5.819-5.819-9.815-50.58-9.815-50.58   s-1.662-8.632,5.49-15.784c15.057-15.057,56.298-56.607,56.298-56.607c3.617-3.617,0.564-6.242-1.611-6.829   c-37.769-10.212-79.802-0.5-109.452,29.15c-35.135,35.135-42.283,87.658-21.447,129.87c-0.244,0.23-0.49,0.454-0.728,0.693   l-19.171,19.171l-21.18,21.18l51.353,51.353l21.181-21.18l19.171-19.171c0.238-0.238,0.462-0.485,0.692-0.728   c42.211,20.836,94.735,13.688,129.87-21.447C496.754,174.986,506.447,132.858,496.149,95.039z"/>
</g>
<path d="M400.149,465.469c-0.649,0-1.31-0.07-1.949-0.2c-0.641-0.12-1.271-0.32-1.87-0.57c-0.61-0.25-1.19-0.56-1.73-0.92  c-0.55-0.36-1.06-0.78-1.52-1.24c-1.86-1.86-2.931-4.44-2.931-7.07s1.07-5.21,2.931-7.07c0.46-0.46,0.97-0.88,1.52-1.24  c0.54-0.37,1.12-0.67,1.73-0.92c0.6-0.25,1.23-0.45,1.87-0.58c1.29-0.26,2.619-0.26,3.909,0c0.631,0.13,1.261,0.33,1.87,0.58  c0.601,0.25,1.181,0.55,1.721,0.92c0.55,0.36,1.06,0.78,1.52,1.24s0.88,0.97,1.25,1.52c0.36,0.54,0.67,1.12,0.91,1.73  c0.25,0.6,0.45,1.23,0.57,1.87c0.13,0.64,0.199,1.3,0.199,1.95s-0.069,1.31-0.199,1.95c-0.12,0.64-0.32,1.27-0.57,1.87  c-0.24,0.61-0.55,1.19-0.91,1.73c-0.37,0.55-0.79,1.06-1.25,1.52s-0.97,0.88-1.52,1.24c-0.54,0.36-1.12,0.67-1.721,0.92  c-0.609,0.25-1.239,0.45-1.87,0.57C401.46,465.4,400.8,465.469,400.149,465.469z"/>
<path d="M341.2,180.8c-0.65,0-1.311-0.07-1.95-0.2c-0.641-0.13-1.271-0.32-1.87-0.57c-0.61-0.25-1.19-0.56-1.73-0.92  c-0.55-0.36-1.06-0.78-1.52-1.24s-0.88-0.97-1.24-1.52c-0.359-0.539-0.67-1.12-0.92-1.73c-0.25-0.6-0.45-1.23-0.57-1.87  c-0.13-0.64-0.199-1.3-0.199-1.95s0.069-1.31,0.199-1.96c0.12-0.63,0.32-1.26,0.57-1.87c0.25-0.6,0.561-1.18,0.92-1.72  c0.36-0.55,0.78-1.06,1.24-1.52s0.97-0.88,1.52-1.25c0.54-0.36,1.12-0.67,1.73-0.92c0.6-0.25,1.229-0.441,1.87-0.56  c3.24-0.66,6.7,0.41,9.02,2.73c1.87,1.86,2.931,4.44,2.931,7.07c0,0.65-0.061,1.31-0.19,1.95c-0.13,0.64-0.32,1.27-0.57,1.87  c-0.25,0.61-0.56,1.191-0.92,1.73c-0.37,0.55-0.79,1.06-1.25,1.52C346.41,179.73,343.83,180.8,341.2,180.8z"/>
<path d="M272.584,249.416c-2.56,0-5.118-0.976-7.071-2.929c-3.905-3.905-3.905-10.237,0-14.142l15.297-15.297  c3.906-3.905,10.236-3.906,14.142,0c3.905,3.905,3.905,10.237,0,14.142l-15.297,15.297  C277.702,248.44,275.143,249.416,272.584,249.416z"/>
<path d="M509.077,392.935l-46.988-47.067c-1.875-1.879-4.419-2.934-7.073-2.935c-0.001,0-0.003,0-0.004,0  c-2.652,0-5.195,1.054-7.071,2.929l-2.536,2.536L345.029,248.021c-1.876-1.875-4.419-2.929-7.071-2.929s-5.195,1.054-7.071,2.929  l-19.9,19.9l-0.707-0.707l29.087-29.087c15.401,6.508,31.635,9.682,47.765,9.681c31.901-0.002,63.366-12.425,86.991-36.049  c31.112-31.112,43.249-76.844,31.675-119.344c-1.283-4.72-5.166-8.581-9.894-9.838c-4.835-1.285-9.787,0.158-13.559,3.931  c-0.436,0.432-43.742,43.408-58.057,57.722c-1.403,1.402-4.798,1.412-6.213,1.198c-0.368-0.079-0.526-0.09-0.924-0.126  c-16.865-1.546-37.372-4.624-43.5-7.008c-2.457-6.174-5.572-27.019-7.105-44.164c-0.029-0.336-0.077-0.67-0.141-1.001  c-0.006-0.035-0.405-3.675,2.742-6.823c14.898-14.898,55.911-56.218,56.297-56.607c3.917-3.916,5.436-8.889,4.169-13.642  c-1.514-5.676-6.283-8.842-10.24-9.912C376.931-5.33,331.288,6.83,300.24,37.877c-35.569,35.57-45.748,88.894-26.369,134.755  l-29.086,29.087L119.522,76.457c-0.537-0.537-1.134-0.998-1.767-1.395l-8.498-52.09c-0.691-4.242-4.017-7.568-8.259-8.26L11.61,0.13  C8.432-0.386,5.204,0.654,2.929,2.928C0.654,5.204-0.388,8.434,0.131,11.61l14.582,89.389c0.691,4.242,4.017,7.568,8.259,8.26  l52.091,8.498c0.397,0.633,0.857,1.229,1.394,1.766L201.72,244.785l-29.087,29.087c-45.861-19.379-99.185-9.2-134.756,26.369  C6.765,331.352-5.372,377.084,6.202,419.585c1.283,4.719,5.167,8.581,9.894,9.837c4.837,1.288,9.786-0.157,13.559-3.93  c0.435-0.432,43.742-43.408,58.057-57.722c1.401-1.402,4.796-1.413,6.213-1.198c0.368,0.079,0.526,0.09,0.924,0.126  c16.865,1.546,37.372,4.624,43.5,7.008c2.457,6.175,5.572,27.019,7.105,44.164c0.042,0.478,0.018,0.494,0.11,0.881  c0.073,0.783,0.176,4.055-2.712,6.942c-14.898,14.898-55.911,56.218-56.297,56.606c-3.917,3.916-5.437,8.889-4.169,13.642  c1.514,5.676,6.283,8.842,10.24,9.912c10.568,2.857,21.329,4.249,32.02,4.249c32.241-0.001,63.798-12.665,87.114-35.981  c35.569-35.57,45.748-88.894,26.369-134.755l14.977-14.978l0,0l14.109-14.109l0.707,0.707l-19.9,19.9  c-1.875,1.876-2.929,4.419-2.929,7.071s1.054,5.196,2.929,7.071l100.376,100.375l-2.536,2.536c-1.876,1.876-2.93,4.422-2.929,7.076  c0.001,2.653,1.057,5.198,2.935,7.073l47.067,46.988c1.952,1.949,4.509,2.923,7.065,2.923c2.56,0,5.119-0.977,7.071-2.929l102-102  C512.974,403.168,512.977,396.841,509.077,392.935z M292.207,182.582c0.086-0.087,0.177-0.168,0.266-0.251l0.263-0.247  c3.188-3.015,4.038-7.757,2.096-11.691c-19.534-39.573-11.677-87.144,19.552-118.372c23.467-23.466,56.897-34.046,89.328-28.816  c-12.645,12.734-37.755,38.009-48.705,48.96c-9.605,9.606-8.791,20.964-8.351,24.062c4.317,48.085,10.605,54.374,12.676,56.444  c2.014,2.014,8.13,8.131,55.626,12.514c3.075,0.476,14.999,1.664,23.475-6.811c10.604-10.604,37.177-36.995,50.364-50.087  c5.235,32.431-5.338,65.854-28.815,89.332c-31.228,31.228-78.8,39.085-118.372,19.551c-3.929-1.939-8.661-1.097-11.678,2.081  l-0.275,0.293c-0.078,0.083-0.155,0.168-0.237,0.25l-33.28,33.28l-11.534-11.534l36.56-36.56c3.905-3.905,3.905-10.237,0-14.143  c-3.906-3.905-10.236-3.905-14.143,0l-36.56,36.56l-11.535-11.535L292.207,182.582z M22.107,22.107l68.57,11.186l8.116,49.75  l-15.75,15.75l-49.751-8.116L22.107,22.107z M219.793,329.418c-0.086,0.087-0.177,0.168-0.266,0.251l-0.263,0.247  c-3.188,3.015-4.038,7.757-2.096,11.691c19.534,39.573,11.677,87.144-19.552,118.372c-23.466,23.467-56.895,34.047-89.328,28.816  c12.646-12.734,37.755-38.009,48.705-48.96c9.605-9.606,8.791-20.964,8.351-24.062c-4.317-48.085-10.605-54.374-12.676-56.444  c-2.014-2.014-8.13-8.131-55.626-12.514c-3.077-0.478-14.999-1.664-23.475,6.811c-10.604,10.603-37.178,36.996-50.364,50.087  c-5.235-32.431,5.338-65.854,28.815-89.332c31.228-31.229,78.8-39.086,118.372-19.551c3.927,1.938,8.661,1.096,11.678-2.081  l0.275-0.293c0.078-0.083,0.155-0.168,0.237-0.25l33.28-33.28l11.534,11.534l-36.56,36.56c-3.905,3.905-3.905,10.237,0,14.142  c1.953,1.953,4.512,2.929,7.071,2.929s5.118-0.977,7.071-2.929l36.56-36.56l11.534,11.534L219.793,329.418z M97.671,112.451  l14.78-14.781l184.393,184.393l-14.78,14.781L97.671,112.451z M269.235,337.958l19.899-19.899c0.001,0,0.001-0.001,0.001-0.001  l5.303-5.304l43.519-43.519l93.304,93.305l-21.507,21.508l-47.215,47.215L269.235,337.958z M399.994,487.864l-32.913-32.858  l87.925-87.925l9.688,9.704l-45.663,45.664c-3.905,3.905-3.905,10.237,0,14.143c1.953,1.953,4.512,2.929,7.071,2.929  c2.56,0,5.118-0.976,7.071-2.929l45.652-45.652l9.04,9.055L399.994,487.864z"/>
<path d="M170.8,351.199c-0.65,0-1.31-0.06-1.96-0.19c-0.64-0.13-1.27-0.32-1.87-0.57c-0.6-0.25-1.18-0.56-1.72-0.92  c-0.55-0.37-1.061-0.79-1.52-1.25c-0.46-0.46-0.88-0.97-1.25-1.52c-0.359-0.54-0.67-1.12-0.92-1.72  c-0.25-0.61-0.439-1.24-0.569-1.87c-0.131-0.65-0.19-1.31-0.19-1.96s0.06-1.31,0.19-1.95s0.319-1.27,0.569-1.87  c0.25-0.61,0.561-1.19,0.92-1.73c0.37-0.55,0.79-1.06,1.25-1.52s0.971-0.88,1.52-1.24c0.54-0.36,1.12-0.67,1.72-0.92  c0.61-0.25,1.23-0.44,1.87-0.57c1.29-0.26,2.62-0.26,3.91,0c0.64,0.13,1.27,0.32,1.87,0.57c0.609,0.25,1.189,0.56,1.73,0.92  c0.55,0.36,1.061,0.78,1.52,1.24c0.46,0.46,0.88,0.97,1.239,1.52c0.36,0.54,0.671,1.12,0.921,1.73c0.25,0.6,0.439,1.23,0.569,1.87  c0.13,0.64,0.2,1.3,0.2,1.95s-0.07,1.31-0.2,1.96c-0.13,0.63-0.319,1.26-0.569,1.87c-0.25,0.6-0.561,1.18-0.921,1.72  c-0.359,0.55-0.779,1.06-1.239,1.52c-0.46,0.46-0.971,0.88-1.52,1.25c-0.54,0.36-1.12,0.67-1.73,0.92  c-0.601,0.25-1.23,0.44-1.87,0.57C172.109,351.139,171.45,351.199,170.8,351.199z"/>
<g>
</g>
<g>
</g>
<g>
</g>
<g>
</g>
<g>
</g>
<g>
</g>
<g>
</g>
<g>
</g>
<g>
</g>
<g>
</g>
<g>
</g>
<g>
</g>
<g>
</g>
<g>
</g>
<g>
</g>
</svg>
