<?xml version="1.0" encoding="iso-8859-1"?>
<!-- Generator: Adobe Illustrator 19.0.0, SVG Export Plug-In . SVG Version: 6.00 Build 0)  -->
<svg xmlns="http://www.w3.org/2000/svg" xmlns:xlink="http://www.w3.org/1999/xlink" version="1.1" id="Capa_1" x="0px" y="0px" viewBox="0 0 512 512" style="enable-background:new 0 0 512 512;" xml:space="preserve">
<g>
	<rect x="132.47" y="94.89" style="fill:#676767;" width="88" height="77.11"/>
	<path style="fill:#676767;" d="M225.471,491.665v-53.067h61.059v53.067c22.916-11.283,38.691-34.859,38.691-62.128   c0-38.229-30.991-69.22-69.22-69.22s-69.22,30.991-69.22,69.22C186.78,456.807,202.554,480.383,225.471,491.665z"/>
</g>
<path style="fill:#BFBFBF;" d="M256,360.316c12.991,0,25.142,3.576,35.529,9.802V20.333H220.47v349.785  C230.858,363.893,243.008,360.316,256,360.316z"/>
<path d="M274.353,419.746h-36.707c-5.523,0-10-4.477-10-10s4.477-10,10-10h36.707c5.523,0,10,4.477,10,10  S279.876,419.746,274.353,419.746z"/>
<path d="M256,113.22c-0.65,0-1.311-0.07-1.95-0.2c-0.64-0.13-1.27-0.32-1.88-0.57c-0.601-0.25-1.18-0.56-1.72-0.92  c-0.551-0.36-1.061-0.78-1.52-1.24c-0.46-0.46-0.88-0.97-1.25-1.52c-0.36-0.54-0.67-1.12-0.92-1.73c-0.25-0.6-0.44-1.23-0.57-1.87  s-0.189-1.3-0.189-1.95s0.06-1.31,0.189-1.96c0.13-0.63,0.32-1.26,0.57-1.87c0.25-0.6,0.56-1.18,0.92-1.72  c0.37-0.55,0.79-1.06,1.25-1.52s0.97-0.88,1.52-1.25c0.54-0.36,1.119-0.67,1.72-0.92c0.61-0.25,1.24-0.44,1.88-0.57  c3.24-0.65,6.7,0.41,9.02,2.74c0.461,0.46,0.881,0.97,1.24,1.52c0.36,0.54,0.67,1.12,0.92,1.72c0.25,0.61,0.44,1.24,0.57,1.87  c0.13,0.65,0.2,1.31,0.2,1.96s-0.07,1.31-0.2,1.95s-0.32,1.27-0.57,1.87c-0.25,0.61-0.56,1.19-0.92,1.73  c-0.359,0.55-0.779,1.06-1.24,1.52c-0.46,0.46-0.97,0.88-1.52,1.24c-0.54,0.36-1.12,0.67-1.73,0.92c-0.6,0.25-1.229,0.44-1.869,0.57  C257.31,113.15,256.649,113.22,256,113.22z"/>
<rect x="73.08" y="216.089" style="fill:#BFDEFF;" width="41.08" height="154.19"/>
<polygon style="fill:#4184B2;" points="109.954,370.28 77.291,370.28 40.498,421.417 93.622,495.253 146.746,421.417 "/>
<polyline style="fill:#076893;" points="54.775,137.358 54.775,63.486 132.469,63.486 132.469,216.093 54.775,216.093   54.775,137.358 "/>
<polygon style="fill:#676767;" points="54.775,137.358 54.775,94.886 10,94.886 10,171.995 54.775,171.995 "/>
<rect x="41.13" y="16.747" style="fill:#FDB845;" width="104.98" height="46.739"/>
<path d="M93.62,188.389c-2.63,0-5.21-1.059-7.07-2.92c-1.86-1.87-2.93-4.44-2.93-7.07c0-0.66,0.069-1.31,0.199-1.96  c0.12-0.64,0.32-1.27,0.57-1.87c0.25-0.6,0.561-1.18,0.92-1.73c0.36-0.54,0.78-1.05,1.24-1.52c0.46-0.46,0.97-0.88,1.52-1.24  c0.54-0.36,1.12-0.67,1.73-0.92c0.6-0.25,1.23-0.44,1.87-0.57c1.29-0.26,2.62-0.26,3.91,0c0.63,0.13,1.26,0.32,1.87,0.57  c0.6,0.25,1.18,0.56,1.72,0.92c0.55,0.36,1.06,0.78,1.52,1.24c0.46,0.47,0.88,0.98,1.25,1.52c0.36,0.55,0.67,1.13,0.92,1.73  c0.25,0.6,0.44,1.23,0.57,1.87c0.13,0.65,0.19,1.3,0.19,1.96c0,2.63-1.07,5.2-2.931,7.07c-0.46,0.46-0.97,0.87-1.52,1.24  c-0.54,0.36-1.12,0.67-1.72,0.92c-0.61,0.25-1.24,0.44-1.87,0.57C94.93,188.329,94.27,188.389,93.62,188.389z"/>
<rect x="396.51" y="216.089" style="fill:#BFDEFF;" width="41.08" height="154.19"/>
<path style="fill:#4184B2;" d="M433.382,370.28h-32.663l-8.378,11.644c-16.975,23.593-16.975,55.393,0,78.986l24.709,34.343  l24.71-34.343c16.975-23.593,16.975-55.393,0-78.986L433.382,370.28z"/>
<polyline style="fill:#076893;" points="378.203,137.358 378.203,16.747 455.897,16.747 455.897,216.093 378.203,216.093   378.203,137.358 "/>
<g>
	<polygon style="fill:#676767;" points="378.203,137.358 378.203,94.886 291.529,94.886 291.529,171.995 378.203,171.995  "/>
	<rect x="455.9" y="94.89" style="fill:#676767;" width="46.1" height="77.11"/>
</g>
<path d="M502,84.886h-36.103V16.747c0-5.523-4.478-10-10-10h-77.694c-5.522,0-10,4.477-10,10v68.139h-66.674V20.333  c0-5.523-4.478-10-10-10H220.47c-5.523,0-10,4.477-10,10v64.551h-68v-11.4h3.645c5.522,0,10-4.477,10-10V16.747  c0-5.523-4.478-10-10-10H41.13c-5.523,0-10,4.477-10,10v46.739c0,5.523,4.477,10,10,10h3.645v11.4H10c-5.523,0-10,4.477-10,10v77.11  c0,5.523,4.477,10,10,10h34.775v34.098c0,5.523,4.478,10,10,10h8.307V370.28c0,0.778,0.098,1.531,0.265,2.258l-30.966,43.039  c-2.511,3.489-2.511,8.192,0,11.681l53.124,73.836c1.879,2.612,4.899,4.16,8.117,4.16c3.218,0,6.238-1.548,8.117-4.16l53.124-73.836  c2.511-3.489,2.511-8.192,0-11.681l-30.967-43.039c0.168-0.727,0.265-1.48,0.265-2.258V226.093h8.308c5.523,0,10-4.477,10-10  v-34.098h68.001v182.771c-20.356,14.352-33.69,38.026-33.69,64.77c0,30.41,16.965,57.654,44.273,71.1  c3.1,1.525,6.768,1.344,9.7-0.481c2.934-1.825,4.717-5.035,4.717-8.49v-43.067h41.059v43.067c0,3.455,1.783,6.665,4.717,8.49  c1.611,1.003,3.444,1.51,5.284,1.51c1.508,0,3.02-0.341,4.416-1.028c27.309-13.446,44.273-40.689,44.273-71.1  c0-26.744-13.335-50.418-33.69-64.77V181.995h66.674v34.098c0,5.523,4.478,10,10,10h8.307V370.28c0,0.777,0.098,1.531,0.265,2.257  l-2.551,3.546c-19.509,27.115-19.509,63.552,0,90.667l24.709,34.343c1.879,2.612,4.899,4.16,8.117,4.16s6.238-1.548,8.117-4.16  l24.71-34.343c19.509-27.115,19.51-63.551,0-90.666l-2.552-3.547c0.168-0.726,0.265-1.479,0.265-2.257V226.093h8.308  c5.522,0,10-4.477,10-10v-34.098H502c5.522,0,10-4.477,10-10v-77.11C512,89.363,507.522,84.886,502,84.886z M388.203,26.747h18.847  v116.058c0,5.523,4.478,10,10,10s10-4.477,10-10V26.747h18.848v68.139v77.11v34.098h-8.308h-41.08h-8.307v-34.098v-77.11  L388.203,26.747L388.203,26.747z M136.114,53.486h-3.645h-28.848V26.747h32.492v26.739H136.114z M51.13,26.747h32.492v26.739H54.775  H51.13V26.747z M83.622,73.486v69.319c0,5.523,4.478,10,10,10s10-4.477,10-10V73.486h18.848v21.38c0,0.007-0.001,0.013-0.001,0.02  l0.001,77.11v34.098h-8.308h-41.08h-8.307v-34.098v-77.11v-21.4H83.622z M20,161.995v-57.11h24.775v57.11H20z M93.622,478.13  l-40.805-56.713l29.598-41.137h22.414l29.598,41.137L93.622,478.13z M104.162,360.28h-21.08V226.093h21.08V360.28z M142.47,161.995  v-57.11h68.001v57.11H142.47z M315.22,429.538c0,16.754-6.891,32.225-18.69,43.228v-34.167c0-5.523-4.478-10-10-10h-61.059  c-5.523,0-10,4.477-10,10v34.167c-11.8-11.003-18.69-26.474-18.69-43.228c0-27.461,18.79-50.611,44.187-57.281  c0.168-0.044,0.336-0.088,0.505-0.13c0.85-0.215,1.705-0.417,2.569-0.594c0.029-0.006,0.058-0.012,0.087-0.018  c0.824-0.168,1.657-0.313,2.493-0.446c0.254-0.041,0.508-0.079,0.763-0.117c0.783-0.115,1.569-0.217,2.361-0.301  c0.092-0.01,0.183-0.022,0.274-0.031c0.857-0.086,1.722-0.148,2.59-0.198c0.234-0.013,0.467-0.025,0.701-0.035  c0.892-0.04,1.787-0.068,2.689-0.068c0.902,0,1.797,0.028,2.689,0.068c0.234,0.011,0.467,0.022,0.7,0.035  c0.87,0.049,1.736,0.111,2.595,0.198c0.088,0.009,0.176,0.021,0.264,0.03c0.795,0.084,1.585,0.187,2.37,0.302  c0.252,0.037,0.504,0.075,0.756,0.116c0.842,0.134,1.68,0.28,2.509,0.449c0.021,0.004,0.041,0.008,0.061,0.012  c0.87,0.179,1.732,0.382,2.588,0.599c0.165,0.042,0.329,0.084,0.493,0.127C296.427,378.923,315.22,402.074,315.22,429.538z   M279.155,353.778c-0.876-0.267-1.757-0.515-2.642-0.752c-0.319-0.085-0.634-0.178-0.954-0.26c-1.147-0.292-2.301-0.561-3.461-0.801  c-0.36-0.075-0.725-0.133-1.086-0.203c-0.823-0.158-1.647-0.311-2.476-0.443c-0.493-0.079-0.989-0.145-1.484-0.215  c-0.366-0.051-0.73-0.112-1.097-0.158c0.024-0.285,0.043-0.571,0.043-0.862V138.807c0-5.523-4.478-10-10-10c-5.523,0-10,4.477-10,10  v211.277c0,0.291,0.019,0.577,0.044,0.862c-0.367,0.046-0.731,0.107-1.097,0.158c-0.495,0.07-0.991,0.136-1.484,0.214  c-0.828,0.132-1.652,0.285-2.474,0.443c-0.362,0.07-0.728,0.128-1.089,0.203c-1.159,0.24-2.312,0.509-3.458,0.8  c-0.323,0.082-0.641,0.176-0.962,0.262c-0.882,0.236-1.761,0.483-2.633,0.749c-0.314,0.096-0.625,0.197-0.937,0.297  c-0.479,0.153-0.962,0.294-1.438,0.456V171.995v-77.11V30.333h51.059v64.551v77.11V354.53c-0.477-0.162-0.96-0.304-1.44-0.457  C279.778,353.974,279.468,353.874,279.155,353.778z M301.529,161.995v-57.11h66.674v57.11H301.529z M433.643,455.069L417.05,478.13  l-16.592-23.061c-14.482-20.129-14.482-47.177,0-67.306l5.385-7.484h22.415l5.385,7.484  C448.125,407.893,448.125,434.941,433.643,455.069z M427.59,360.28h-21.08V226.093h21.08V360.28z M492,161.995h-26.103v-57.11H492  V161.995z"/>
<path d="M417.05,188.389c-0.65,0-1.31-0.059-1.95-0.19c-0.64-0.13-1.27-0.32-1.87-0.57c-0.609-0.25-1.189-0.56-1.729-0.92  c-0.55-0.37-1.06-0.78-1.521-1.24c-0.46-0.47-0.88-0.98-1.239-1.52c-0.36-0.55-0.671-1.13-0.921-1.73  c-0.25-0.6-0.449-1.23-0.569-1.87c-0.13-0.65-0.2-1.3-0.2-1.96c0-0.65,0.07-1.3,0.2-1.95c0.12-0.64,0.319-1.27,0.569-1.87  c0.25-0.6,0.561-1.18,0.921-1.73c0.359-0.54,0.779-1.06,1.239-1.52c0.46-0.46,0.971-0.88,1.521-1.24c0.54-0.36,1.12-0.67,1.729-0.92  c0.601-0.25,1.23-0.44,1.87-0.57c1.29-0.26,2.61-0.26,3.9,0c0.64,0.13,1.27,0.32,1.87,0.57c0.609,0.25,1.19,0.56,1.73,0.92  c0.55,0.36,1.061,0.78,1.52,1.24c0.46,0.46,0.88,0.98,1.239,1.52c0.36,0.55,0.671,1.13,0.921,1.73c0.25,0.6,0.449,1.23,0.569,1.87  c0.13,0.65,0.2,1.3,0.2,1.95c0,0.66-0.07,1.31-0.2,1.96c-0.12,0.64-0.319,1.27-0.569,1.87c-0.25,0.6-0.561,1.18-0.921,1.73  c-0.359,0.54-0.779,1.05-1.239,1.52c-0.46,0.46-0.971,0.87-1.52,1.24c-0.54,0.36-1.12,0.67-1.73,0.92  c-0.601,0.25-1.23,0.44-1.87,0.57C418.359,188.329,417.7,188.389,417.05,188.389z"/>
<g>
</g>
<g>
</g>
<g>
</g>
<g>
</g>
<g>
</g>
<g>
</g>
<g>
</g>
<g>
</g>
<g>
</g>
<g>
</g>
<g>
</g>
<g>
</g>
<g>
</g>
<g>
</g>
<g>
</g>
</svg>
