<?xml version="1.0" encoding="iso-8859-1"?>
<!-- Generator: Adobe Illustrator 19.0.0, SVG Export Plug-In . SVG Version: 6.00 Build 0)  -->
<svg xmlns="http://www.w3.org/2000/svg" xmlns:xlink="http://www.w3.org/1999/xlink" version="1.1" id="Capa_1" x="0px" y="0px" viewBox="0 0 512 512" style="enable-background:new 0 0 512 512;" xml:space="preserve">
<path style="fill:#FDB845;" d="M396.652,332.698c4.204-12.642,6.486-26.161,6.486-40.215c0-70.343-57.025-127.368-127.368-127.368  s-127.368,57.025-127.368,127.368c0,14.054,2.282,27.573,6.486,40.215H396.652z"/>
<polygon style="fill:#676767;" points="69.141,420.158 69.141,343.666 10,381.911 "/>
<polygon style="fill:#076893;" points="429.352,332.698 87.99,332.698 118.49,359.619 118.49,404.205 87.99,431.125   429.352,431.125 "/>
<polygon style="fill:#FDB845;" points="118.49,359.619 87.99,332.698 86.1,332.698 69.141,343.666 69.141,420.156 86.1,431.125   87.99,431.125 118.49,404.205 "/>
<path style="fill:#4184B2;" d="M247.159,332.698h57.222c12.557-8.95,20.754-23.62,20.754-40.215  c0-27.263-22.101-49.364-49.365-49.364c-27.263,0-49.364,22.101-49.364,49.364C226.406,309.078,234.602,323.748,247.159,332.698z"/>
<rect x="429.35" y="332.701" style="fill:#FDB845;" width="72.65" height="98.43"/>
<path style="fill:#939393;" d="M116.961,332.698h24.659h13.273c-0.985-2.961-1.869-5.968-2.637-9.022  c-0.04-0.156-0.076-0.314-0.115-0.471c-0.224-0.906-0.44-1.814-0.645-2.727c-0.057-0.253-0.11-0.508-0.166-0.762  c-0.178-0.82-0.351-1.642-0.514-2.467c-0.063-0.317-0.122-0.634-0.182-0.952c-0.145-0.765-0.283-1.533-0.414-2.303  c-0.062-0.362-0.122-0.726-0.18-1.089c-0.118-0.732-0.229-1.465-0.335-2.201c-0.056-0.393-0.112-0.787-0.165-1.181  c-0.095-0.712-0.182-1.427-0.266-2.143c-0.048-0.414-0.098-0.829-0.142-1.244c-0.075-0.706-0.141-1.415-0.205-2.125  c-0.038-0.423-0.079-0.844-0.113-1.268c-0.057-0.719-0.104-1.441-0.149-2.164c-0.026-0.415-0.057-0.828-0.079-1.244  c-0.041-0.775-0.069-1.553-0.096-2.331c-0.013-0.364-0.032-0.726-0.041-1.09c-0.03-1.141-0.047-2.284-0.047-3.432  c0-17.586,3.564-34.339,10.009-49.577c0.806-1.904,1.656-3.786,2.551-5.642c0.894-1.856,1.832-3.687,2.813-5.492  c1.471-2.707,3.037-5.355,4.693-7.939c2.209-3.446,4.579-6.778,7.1-9.985c1.26-1.604,2.559-3.177,3.893-4.718  c1.335-1.541,2.705-3.049,4.111-4.523c0.703-0.737,1.415-1.466,2.135-2.187c23.049-23.049,54.891-37.305,90.063-37.305  s67.014,14.256,90.063,37.305c0.72,0.72,1.432,1.449,2.135,2.187c1.406,1.474,2.777,2.983,4.111,4.523  c1.335,1.541,2.633,3.114,3.893,4.718c2.521,3.208,4.891,6.54,7.1,9.985c3.866,6.029,7.237,12.406,10.057,19.072  c6.445,15.238,10.009,31.992,10.009,49.577c0,1.148-0.017,2.292-0.047,3.432c-0.01,0.365-0.029,0.727-0.042,1.09  c-0.027,0.778-0.055,1.556-0.096,2.331c-0.022,0.416-0.053,0.829-0.079,1.244c-0.045,0.722-0.092,1.445-0.149,2.164  c-0.034,0.424-0.075,0.846-0.113,1.268c-0.064,0.71-0.129,1.419-0.205,2.125c-0.044,0.416-0.094,0.83-0.142,1.244  c-0.083,0.716-0.171,1.431-0.266,2.143c-0.053,0.395-0.109,0.788-0.165,1.181c-0.105,0.736-0.217,1.47-0.335,2.202  c-0.059,0.362-0.118,0.724-0.18,1.085c-0.131,0.772-0.27,1.541-0.415,2.309c-0.06,0.316-0.119,0.633-0.182,0.948  c-0.163,0.827-0.335,1.65-0.514,2.471c-0.055,0.252-0.108,0.505-0.164,0.756c-0.205,0.915-0.422,1.825-0.646,2.732  c-0.039,0.155-0.075,0.312-0.114,0.467c-0.769,3.054-1.653,6.061-2.638,9.022h32.706h5.227c0.03-0.118,0.063-0.235,0.093-0.353  l52.705-8.425v-62.876l-52.705-8.425c-3.952-15.801-10.195-30.692-18.362-44.3l31.319-43.236l-44.46-44.46l-43.236,31.319  c-13.608-8.167-28.499-14.41-44.3-18.362l-8.425-52.705h-62.876l-8.425,52.705c-15.801,3.951-30.692,10.195-44.3,18.362  l-43.236-31.319l-44.46,44.46l31.319,43.236c-8.166,13.608-14.41,28.499-18.362,44.3l-52.705,8.425v62.876l52.705,8.425  C116.898,332.464,116.931,332.581,116.961,332.698z"/>
<path d="M154.62,391.911c-0.65,0-1.31-0.07-1.95-0.2c-0.64-0.12-1.27-0.32-1.88-0.57c-0.6-0.25-1.18-0.559-1.72-0.92  c-0.55-0.36-1.06-0.78-1.52-1.24c-0.46-0.46-0.88-0.97-1.24-1.52c-0.36-0.54-0.671-1.12-0.921-1.72  c-0.25-0.61-0.45-1.24-0.579-1.881c-0.13-0.64-0.19-1.3-0.19-1.949c0-0.65,0.06-1.311,0.19-1.95c0.13-0.641,0.32-1.27,0.57-1.87  c0.26-0.61,0.56-1.19,0.93-1.73c0.36-0.55,0.78-1.06,1.24-1.52c0.46-0.46,0.97-0.88,1.52-1.24c0.54-0.359,1.12-0.67,1.72-0.92  c0.61-0.25,1.24-0.45,1.88-0.57c1.29-0.26,2.61-0.26,3.9,0c0.64,0.12,1.27,0.32,1.87,0.57c0.61,0.25,1.19,0.561,1.73,0.92  c0.55,0.36,1.06,0.78,1.52,1.24c0.46,0.46,0.88,0.97,1.24,1.52c0.36,0.54,0.67,1.12,0.92,1.73c0.25,0.6,0.44,1.229,0.57,1.87  c0.13,0.64,0.2,1.3,0.2,1.95c0,0.649-0.07,1.31-0.2,1.949c-0.13,0.641-0.32,1.271-0.57,1.881c-0.25,0.6-0.56,1.18-0.92,1.72  c-0.36,0.55-0.78,1.06-1.24,1.52c-0.46,0.46-0.97,0.88-1.52,1.24c-0.54,0.36-1.12,0.67-1.73,0.92c-0.6,0.25-1.23,0.45-1.87,0.57  C155.93,391.841,155.27,391.911,154.62,391.911z"/>
<path d="M363.71,298.99c-0.65,0-1.31-0.07-1.95-0.2c-0.64-0.12-1.27-0.32-1.87-0.57c-0.61-0.25-1.19-0.56-1.73-0.92  c-0.55-0.36-1.06-0.78-1.52-1.24c-0.46-0.46-0.88-0.97-1.24-1.52c-0.36-0.54-0.67-1.12-0.92-1.73c-0.25-0.6-0.45-1.229-0.57-1.87  c-0.13-0.64-0.2-1.3-0.2-1.949c0-0.65,0.07-1.311,0.2-1.961c0.12-0.63,0.32-1.26,0.57-1.869c0.25-0.601,0.56-1.181,0.92-1.721  c0.36-0.55,0.78-1.06,1.24-1.52c0.46-0.46,0.97-0.88,1.52-1.24c0.54-0.37,1.12-0.67,1.73-0.92c0.6-0.25,1.23-0.45,1.87-0.57  c1.29-0.26,2.61-0.26,3.91,0c0.63,0.12,1.26,0.32,1.87,0.57c0.6,0.25,1.18,0.55,1.72,0.92c0.55,0.36,1.06,0.78,1.52,1.24  c0.46,0.46,0.88,0.97,1.24,1.52c0.36,0.54,0.67,1.12,0.92,1.721c0.25,0.609,0.45,1.239,0.57,1.869c0.13,0.65,0.2,1.311,0.2,1.961  c0,0.649-0.07,1.31-0.2,1.949c-0.12,0.641-0.32,1.27-0.57,1.87c-0.25,0.61-0.56,1.19-0.92,1.73c-0.36,0.55-0.78,1.06-1.24,1.52  c-0.46,0.46-0.97,0.88-1.52,1.24c-0.54,0.36-1.12,0.67-1.72,0.92c-0.61,0.25-1.24,0.45-1.87,0.57  C365.02,298.921,364.36,298.99,363.71,298.99z"/>
<path d="M502,322.698h-4.624v-61.652c0-4.913-3.57-9.099-8.421-9.875l-46.322-7.404c-3.524-12.094-8.36-23.758-14.432-34.815  l27.526-38c2.882-3.979,2.447-9.463-1.028-12.938l-44.46-44.46c-3.475-3.474-8.959-3.909-12.938-1.027l-38,27.526  c-11.058-6.072-22.722-10.908-34.816-14.433l-7.405-46.321c-0.775-4.853-4.961-8.422-9.875-8.422H244.33  c-4.914,0-9.099,3.569-9.875,8.422l-7.405,46.321c-12.093,3.524-23.758,8.36-34.815,14.433l-38-27.526  c-3.979-2.881-9.463-2.447-12.938,1.027l-44.459,44.46c-3.474,3.475-3.91,8.958-1.027,12.938l27.525,38  c-6.072,11.059-10.907,22.723-14.431,34.815l-46.323,7.404c-4.852,0.776-8.421,4.962-8.421,9.875v62.875  c0,4.913,3.57,9.099,8.421,9.875l2.728,0.436l-1.603,1.037c-0.001,0.001-0.002,0.002-0.003,0.002L4.57,373.515  C1.72,375.357,0,378.52,0,381.911c0,3.394,1.721,6.555,4.57,8.397l59.137,38.243c0.001,0.001,0.002,0.002,0.003,0.002l16.96,10.968  c1.618,1.046,3.503,1.602,5.43,1.602h1.89h341.361H502c5.523,0,10-4.477,10-10v-98.427C512,327.175,507.523,322.698,502,322.698z   M74.163,269.573l44.284-7.078c3.955-0.633,7.151-3.563,8.122-7.449c3.658-14.63,9.457-28.619,17.235-41.58  c2.061-3.435,1.874-7.768-0.476-11.012l-26.315-36.329l32.398-32.399l36.33,26.316c3.244,2.351,7.576,2.536,11.012,0.476  c12.96-7.778,26.95-13.577,41.58-17.235c3.886-0.972,6.817-4.168,7.449-8.123l7.079-44.283h45.819l7.079,44.283  c0.632,3.955,3.563,7.151,7.449,8.123c14.631,3.658,28.62,9.457,41.58,17.235c3.436,2.062,7.769,1.874,11.012-0.476l36.33-26.316  l32.399,32.398l-26.316,36.33c-2.35,3.244-2.537,7.577-0.475,11.012c7.778,12.96,13.577,26.949,17.235,41.58  c0.972,3.886,4.168,6.816,8.123,7.449l44.284,7.078v45.818l-44.284,7.078c-0.357,0.058-0.707,0.134-1.051,0.228h-2.69h-19.557  c0.003-0.013,0.006-0.025,0.009-0.038l0.177-0.814c0.192-0.885,0.378-1.771,0.552-2.653l0.198-1.033  c0.157-0.827,0.307-1.657,0.448-2.488l0.194-1.169c0.127-0.789,0.247-1.583,0.36-2.372c0.061-0.428,0.123-0.855,0.179-1.281  c0.103-0.77,0.198-1.542,0.287-2.309l0.029-0.25c0.043-0.363,0.085-0.727,0.125-1.095c0.081-0.762,0.152-1.526,0.22-2.286  l0.032-0.344c0.031-0.343,0.063-0.685,0.09-1.03c0.061-0.773,0.112-1.551,0.161-2.333l0.026-0.402  c0.021-0.311,0.042-0.623,0.058-0.935c0.044-0.834,0.075-1.672,0.104-2.512l0.015-0.372c0.011-0.267,0.022-0.531,0.029-0.802  c0.033-1.229,0.05-2.46,0.05-3.697c0-18.539-3.633-36.53-10.799-53.473c-3.013-7.124-6.663-14.047-10.848-20.575  c-2.37-3.695-4.945-7.317-7.655-10.766c-1.357-1.727-2.77-3.438-4.197-5.085c-1.426-1.646-2.917-3.288-4.434-4.879  c-0.759-0.796-1.527-1.584-2.301-2.356c-25.945-25.945-60.441-40.234-97.134-40.234s-71.189,14.289-97.132,40.232  c-0.777,0.776-1.544,1.564-2.304,2.359c-1.516,1.59-3.007,3.231-4.431,4.875c-1.434,1.655-2.847,3.368-4.197,5.087  c-2.714,3.452-5.291,7.075-7.657,10.767c-1.781,2.778-3.484,5.659-5.062,8.563c-1.056,1.943-2.077,3.938-3.033,5.923  c-0.959,1.989-1.885,4.038-2.753,6.089c-7.166,16.941-10.799,34.933-10.799,53.473c0,1.237,0.018,2.468,0.051,3.688  c0.007,0.283,0.019,0.566,0.03,0.848l0.014,0.332c0.029,0.84,0.06,1.68,0.104,2.525c0.017,0.319,0.038,0.637,0.059,0.955  l0.025,0.378c0.049,0.778,0.099,1.559,0.161,2.327c0.028,0.353,0.06,0.702,0.092,1.053l0.029,0.321  c0.069,0.767,0.14,1.531,0.221,2.289c0.041,0.384,0.085,0.766,0.13,1.146l0.023,0.193c0.09,0.773,0.184,1.543,0.287,2.307  c0.055,0.412,0.113,0.821,0.178,1.28c0.114,0.793,0.233,1.584,0.361,2.374c0.064,0.395,0.129,0.789,0.195,1.173  c0.141,0.829,0.29,1.656,0.45,2.5l0.194,1.012c0.175,0.889,0.361,1.775,0.557,2.675l0.177,0.809c0.002,0.01,0.004,0.021,0.006,0.03  h-22.244c-0.345-0.094-0.696-0.17-1.054-0.228l-44.284-7.078v-45.818H74.163z M326.839,322.698c5.35-9.04,8.295-19.458,8.295-30.215  c0-32.733-26.631-59.364-59.364-59.364s-59.364,26.631-59.364,59.364c0,10.756,2.945,21.175,8.294,30.215h-20.144  c-4.146-9.624-6.252-19.852-6.252-30.452c0-42.661,34.707-77.368,77.368-77.368c29.612,0,57.028,17.313,69.846,44.105  c2.385,4.982,8.356,7.089,13.336,4.705c4.982-2.383,7.089-8.355,4.706-13.336c-16.122-33.699-50.62-55.475-87.888-55.475  c-53.689,0-97.368,43.679-97.368,97.368c0,10.483,1.643,20.68,4.877,30.452h-20.828c-0.131-0.491-0.278-0.986-0.401-1.476  l-0.103-0.42c-0.207-0.834-0.406-1.672-0.594-2.509l-0.153-0.702c-0.165-0.755-0.323-1.513-0.473-2.272l-0.168-0.875  c-0.133-0.707-0.261-1.415-0.383-2.136l-0.165-0.994c-0.109-0.675-0.211-1.351-0.313-2.063l-0.147-1.053  c-0.087-0.656-0.168-1.314-0.245-1.977l-0.132-1.15c-0.069-0.65-0.129-1.304-0.189-1.957l-0.104-1.17  c-0.053-0.662-0.095-1.328-0.137-1.998l-0.073-1.14c-0.038-0.713-0.063-1.43-0.088-2.163l-0.039-0.993  c-0.028-1.054-0.044-2.108-0.044-3.168c0-15.849,3.102-31.219,9.219-45.681c0.741-1.751,1.531-3.499,2.351-5.199  c0.817-1.696,1.688-3.398,2.59-5.058c1.348-2.48,2.803-4.941,4.325-7.316c2.022-3.154,4.224-6.25,6.545-9.204  c1.155-1.47,2.361-2.933,3.588-4.349c1.218-1.406,2.493-2.809,3.789-4.168c0.648-0.68,1.303-1.352,1.969-2.017  c22.167-22.168,51.641-34.377,82.992-34.377s60.824,12.209,82.996,34.382c0.663,0.662,1.318,1.333,1.964,2.011  c1.296,1.36,2.572,2.763,3.791,4.172c1.22,1.408,2.427,2.871,3.589,4.349c2.317,2.948,4.518,6.044,6.543,9.201  c3.575,5.577,6.692,11.489,9.265,17.572c6.117,14.464,9.219,29.833,9.219,45.682c0,1.06-0.016,2.114-0.044,3.165l-0.038,1.006  c-0.025,0.72-0.051,1.439-0.088,2.155l-0.073,1.143c-0.042,0.667-0.084,1.335-0.137,1.999l-0.104,1.17  c-0.058,0.653-0.119,1.307-0.188,1.953l-0.133,1.156c-0.076,0.658-0.156,1.313-0.244,1.972c-0.048,0.36-0.1,0.719-0.152,1.083  c-0.097,0.677-0.199,1.354-0.307,2.025l-0.167,1.005c-0.121,0.712-0.25,1.421-0.382,2.12l-0.168,0.879  c-0.15,0.763-0.31,1.521-0.472,2.266l-0.153,0.703c-0.19,0.845-0.389,1.685-0.595,2.514l-0.106,0.438  c-0.122,0.484-0.269,0.976-0.398,1.463h-62.349V322.698z M236.406,292.482c0-21.705,17.659-39.364,39.364-39.364  c21.706,0,39.364,17.659,39.364,39.364c0,11.679-5.241,22.763-14.154,30.215h-50.42  C241.646,315.245,236.406,304.161,236.406,292.482z M86.256,419.317l-7.116-4.602v-65.608l7.116-4.602l22.234,19.625v35.563  L86.256,419.317z M59.141,362.042v39.739l-30.726-19.869L59.141,362.042z M125.108,411.701c2.151-1.897,3.383-4.628,3.383-7.497  v-44.586c0-2.868-1.232-5.599-3.382-7.497l-10.677-9.424h2.529h37.933h92.265h57.222h92.265h22.706v29.214H195.024  c-5.523,0-10,4.478-10,10c0,5.522,4.477,10,10,10h224.328v29.213h-304.92L125.108,411.701z M492,421.125h-52.648v-78.427H492  V421.125z"/>
<g>
</g>
<g>
</g>
<g>
</g>
<g>
</g>
<g>
</g>
<g>
</g>
<g>
</g>
<g>
</g>
<g>
</g>
<g>
</g>
<g>
</g>
<g>
</g>
<g>
</g>
<g>
</g>
<g>
</g>
</svg>
