<?xml version="1.0" encoding="iso-8859-1"?>
<!-- Generator: Adobe Illustrator 19.0.0, SVG Export Plug-In . SVG Version: 6.00 Build 0)  -->
<svg xmlns="http://www.w3.org/2000/svg" xmlns:xlink="http://www.w3.org/1999/xlink" version="1.1" id="Capa_1" x="0px" y="0px" viewBox="0 0 512 512" style="enable-background:new 0 0 512 512;" xml:space="preserve">
<path style="fill:#BFBFBF;" d="M502,292.547v-73.095l-61.287-9.797c-4.473-17.899-11.581-35.273-21.322-51.51l36.4-50.251  l-51.686-51.686l-50.251,36.4c-16.237-9.741-33.611-16.849-51.51-21.322L292.547,10h-73.095l-9.797,61.287  c-17.899,4.473-35.273,11.581-51.51,21.322l-50.251-36.4l-51.686,51.686l36.4,50.251c-9.741,16.237-16.849,33.611-21.322,51.51  L10,219.452v73.095l61.287,9.797c4.473,17.899,11.581,35.273,21.322,51.51l-36.4,50.251l51.686,51.686l50.251-36.4  c16.237,9.741,33.611,16.849,51.51,21.322L219.453,502h73.095l9.797-61.287c17.899-4.473,35.273-11.581,51.51-21.322l50.251,36.4  l51.686-51.686l-36.4-50.251c9.741-16.237,16.849-33.611,21.322-51.51L502,292.547z M256,375.447  c-65.969,0-119.447-53.478-119.447-119.447S190.031,136.553,256,136.553S375.447,190.031,375.447,256S321.969,375.447,256,375.447z"/>
<path d="M292.548,512h-73.095c-4.913,0-9.099-3.57-9.874-8.421l-8.773-54.884c-14.65-4.183-28.743-10.016-42.042-17.402  l-45.001,32.597c-3.979,2.882-9.462,2.447-12.938-1.027l-51.686-51.686c-3.474-3.475-3.91-8.958-1.027-12.938l32.597-45.001  c-7.387-13.3-13.22-27.393-17.402-42.042l-54.883-8.773C3.57,301.647,0,297.461,0,292.547v-73.095c0-4.914,3.569-9.099,8.421-9.875  l54.884-8.773c4.183-14.65,10.016-28.743,17.402-42.042L48.11,113.761c-2.882-3.979-2.447-9.463,1.027-12.938l51.686-51.686  c3.476-3.474,8.96-3.909,12.938-1.027l45.001,32.597c13.3-7.387,27.391-13.219,42.042-17.402l8.773-54.884  C210.353,3.57,214.539,0,219.453,0h73.095c4.914,0,9.1,3.57,9.875,8.422l8.772,54.883c14.65,4.183,28.743,10.016,42.043,17.402  l45.001-32.597c3.98-2.882,9.464-2.446,12.938,1.027l51.686,51.685c3.475,3.475,3.91,8.959,1.027,12.938l-32.598,45.001  c7.388,13.3,13.221,27.392,17.403,42.043l54.883,8.773c4.853,0.775,8.422,4.961,8.422,9.875v73.095c0,4.914-3.569,9.099-8.422,9.875  l-54.884,8.773c-4.182,14.649-10.015,28.742-17.401,42.042l32.597,45.001c2.883,3.979,2.447,9.463-1.027,12.937l-51.686,51.686  c-3.475,3.474-8.958,3.91-12.938,1.027l-45.001-32.597c-13.3,7.387-27.393,13.22-42.043,17.402l-8.772,54.883  C301.647,508.43,297.462,512,292.548,512z M227.981,492h56.038l8.449-52.865c0.633-3.956,3.564-7.152,7.451-8.124  c17.202-4.298,33.617-11.093,48.79-20.195c3.435-2.06,7.768-1.872,11.011,0.477l43.344,31.397l39.625-39.625l-31.397-43.344  c-2.35-3.244-2.537-7.576-0.477-11.01c9.102-15.174,15.896-31.589,20.194-48.79c0.972-3.886,4.168-6.818,8.124-7.45L492,284.019  v-56.038l-52.865-8.451c-3.956-0.632-7.152-3.564-8.124-7.45c-4.298-17.202-11.093-33.617-20.195-48.79  c-2.06-3.434-1.873-7.767,0.477-11.011l31.398-43.345l-39.625-39.625l-43.344,31.397c-3.244,2.35-7.577,2.537-11.011,0.477  c-15.173-9.102-31.588-15.897-48.79-20.195c-3.887-0.971-6.818-4.168-7.451-8.124L284.019,20h-56.038l-8.451,52.866  c-0.632,3.956-3.564,7.152-7.45,8.123c-17.203,4.299-33.618,11.094-48.79,20.195c-3.436,2.061-7.768,1.873-11.01-0.477  L108.936,69.31L69.31,108.936l31.397,43.344c2.35,3.244,2.537,7.576,0.477,11.01c-9.102,15.173-15.897,31.589-20.195,48.79  c-0.971,3.886-4.167,6.818-8.123,7.45L20,227.981v56.038l52.865,8.451c3.956,0.632,7.152,3.564,8.123,7.45  c4.298,17.201,11.093,33.617,20.195,48.79c2.061,3.434,1.873,7.767-0.477,11.01L69.31,403.065l39.625,39.625l43.344-31.397  c3.243-2.35,7.576-2.537,11.01-0.477c15.173,9.102,31.589,15.897,48.79,20.195c3.886,0.971,6.818,4.168,7.45,8.123L227.981,492z   M502,292.547h0.01H502z M256,385.447c-71.377,0-129.447-58.07-129.447-129.447S184.623,126.553,256,126.553  c71.378,0,129.447,58.07,129.447,129.447S327.378,385.447,256,385.447z M256,146.553c-60.35,0-109.447,49.098-109.447,109.447  S195.65,365.447,256,365.447S365.447,316.35,365.447,256S316.35,146.553,256,146.553z"/>
<circle style="fill:#4184B2;" cx="256" cy="256" r="119.45"/>
<path d="M367.527,377.527c-2.56,0-5.118-0.976-7.071-2.929c-3.905-3.905-3.905-10.237,0-14.142  c57.598-57.598,57.598-151.315,0-208.913c-57.597-57.597-151.316-57.598-208.912,0c-45.879,45.879-56.377,117.731-25.528,174.731  c2.629,4.857,0.822,10.926-4.035,13.554s-10.926,0.822-13.554-4.035c-16.84-31.116-23.433-67.654-18.563-102.882  c5.035-36.42,21.473-69.447,47.537-95.511c65.395-65.395,171.801-65.395,237.197,0c31.679,31.679,49.125,73.798,49.125,118.599  s-17.446,86.92-49.125,118.599C372.646,376.551,370.087,377.527,367.527,377.527z"/>
<path d="M143.238,376.277c-0.548,0-1.102-0.045-1.656-0.138c-4.27-0.715-7.637-4.141-8.279-8.422  c-0.643-4.288,1.551-8.502,5.433-10.435c3.88-1.932,8.566-1.143,11.6,1.954c3.03,3.093,3.767,7.827,1.765,11.666  C150.358,374.242,146.916,376.277,143.238,376.277z M134.375,361.639l8.804,4.608L134.375,361.639z"/>
<path style="fill:#FDB845;" d="M286.139,188.717v52.388h-60.278v-52.388c-22.623,11.138-38.196,34.413-38.196,61.333  c0,37.74,30.594,68.335,68.335,68.335c37.74,0,68.335-30.595,68.335-68.335C324.335,223.13,308.762,199.855,286.139,188.717z"/>
<path style="fill:#076893;" d="M256,318.385c-10.82,0-21.046-2.512-30.139-6.988v60.213c9.628,2.503,19.727,3.838,30.139,3.838  c10.411,0,20.511-1.335,30.139-3.838v-60.213C277.046,315.873,266.82,318.385,256,318.385z"/>
<path d="M385.447,256c0-71.377-58.069-129.447-129.447-129.447c-71.377,0-129.447,58.07-129.447,129.447  c0,59.941,40.955,110.49,96.349,125.152c0.147,0.046,0.293,0.096,0.443,0.135c1.826,0.475,3.666,0.894,5.512,1.288  c0.551,0.118,1.102,0.236,1.656,0.347c0.595,0.119,1.19,0.233,1.787,0.343c0.7,0.13,1.402,0.252,2.105,0.371  c0.493,0.083,0.986,0.169,1.481,0.246c1.131,0.177,2.267,0.341,3.407,0.489c0.08,0.01,0.16,0.024,0.241,0.034  c1.242,0.158,2.491,0.294,3.743,0.417c0.365,0.036,0.73,0.065,1.095,0.098c0.906,0.081,1.814,0.154,2.725,0.216  c0.417,0.028,0.834,0.055,1.251,0.079c0.902,0.053,1.807,0.095,2.714,0.129c0.378,0.014,0.756,0.032,1.134,0.043  c1.264,0.037,2.532,0.06,3.805,0.06c1.273,0,2.54-0.024,3.805-0.06c0.378-0.011,0.756-0.029,1.134-0.043  c0.907-0.034,1.812-0.076,2.714-0.129c0.417-0.024,0.834-0.051,1.251-0.079c0.912-0.062,1.82-0.135,2.727-0.216  c0.364-0.032,0.729-0.062,1.092-0.097c1.253-0.123,2.503-0.259,3.746-0.417c0.075-0.009,0.15-0.022,0.226-0.032  c1.146-0.148,2.286-0.313,3.423-0.491c0.492-0.077,0.982-0.162,1.473-0.245c0.707-0.119,1.412-0.242,2.114-0.373  c0.594-0.11,1.187-0.224,1.779-0.342c0.558-0.112,1.114-0.23,1.669-0.349c1.843-0.394,3.68-0.812,5.503-1.286  c0.15-0.039,0.294-0.089,0.441-0.135C344.492,366.491,385.447,315.941,385.447,256z M225.861,251.105h60.278c5.522,0,10-4.477,10-10  V207.67c11.491,10.826,18.196,25.979,18.196,42.38c0,27.058-18.52,49.868-43.549,56.431c-0.129,0.033-0.257,0.068-0.386,0.101  c-0.784,0.2-1.576,0.381-2.372,0.549c-0.223,0.047-0.446,0.091-0.67,0.135c-0.729,0.145-1.463,0.277-2.202,0.394  c-0.331,0.052-0.664,0.096-0.996,0.142c-0.652,0.092-1.304,0.18-1.962,0.25c-0.507,0.053-1.018,0.089-1.528,0.129  c-0.506,0.04-1.01,0.089-1.52,0.116c-1.045,0.055-2.095,0.088-3.151,0.088s-2.106-0.033-3.151-0.088  c-0.51-0.027-1.015-0.076-1.522-0.116c-0.509-0.04-1.019-0.076-1.525-0.129c-0.659-0.07-1.313-0.159-1.965-0.25  c-0.331-0.046-0.663-0.089-0.992-0.141c-0.741-0.117-1.476-0.25-2.207-0.395c-0.221-0.043-0.442-0.087-0.662-0.133  c-0.799-0.168-1.593-0.35-2.38-0.551c-0.125-0.032-0.249-0.065-0.374-0.098c-25.032-6.561-43.555-29.372-43.555-56.433  c0-16.401,6.704-31.554,18.195-42.379v33.434C215.861,246.627,220.338,251.105,225.861,251.105z M251.697,328.262  c0.21,0.011,0.42,0.02,0.63,0.03c1.219,0.055,2.442,0.093,3.672,0.093c1.231,0,2.454-0.038,3.674-0.093  c0.209-0.01,0.418-0.019,0.626-0.03c5.397-0.288,10.687-1.11,15.838-2.479v37.8c-0.249,0.046-0.496,0.099-0.746,0.143  c-0.049,0.009-0.099,0.017-0.148,0.026c-0.778,0.138-1.56,0.267-2.344,0.389c-0.229,0.035-0.459,0.069-0.688,0.103  c-0.594,0.089-1.189,0.172-1.786,0.251c-0.371,0.049-0.742,0.096-1.113,0.141c-0.445,0.054-0.891,0.105-1.338,0.153  c-0.49,0.053-0.98,0.105-1.471,0.151c-0.317,0.03-0.635,0.057-0.953,0.085c-0.594,0.051-1.188,0.101-1.783,0.142  c-0.193,0.014-0.386,0.024-0.579,0.037c-0.704,0.046-1.407,0.088-2.112,0.12c-0.012,0-0.024,0.001-0.036,0.001  c-3.356,0.152-6.72,0.152-10.076,0c-0.013-0.001-0.026-0.001-0.039-0.001c-0.703-0.032-1.405-0.075-2.107-0.12  c-0.195-0.013-0.391-0.024-0.586-0.037c-0.593-0.042-1.186-0.091-1.779-0.142c-0.319-0.028-0.639-0.055-0.958-0.085  c-0.49-0.046-0.979-0.098-1.468-0.151c-0.448-0.049-0.896-0.1-1.342-0.154c-0.37-0.045-0.74-0.092-1.109-0.14  c-0.598-0.079-1.195-0.162-1.79-0.251c-0.229-0.034-0.458-0.067-0.686-0.103c-0.784-0.122-1.566-0.251-2.344-0.389  c-0.049-0.009-0.099-0.017-0.148-0.026c-0.25-0.045-0.497-0.097-0.746-0.143v-37.8C241.011,327.151,246.301,327.973,251.697,328.262  z M296.139,357.824v-40.537c22.858-13.697,38.196-38.706,38.196-67.237c0-30.07-16.775-57.01-43.779-70.305  c-3.1-1.526-6.768-1.344-9.7,0.481c-2.934,1.825-4.717,5.035-4.717,8.49v42.388h-40.278v-42.388c0-3.455-1.783-6.665-4.717-8.49  c-2.933-1.825-6.601-2.008-9.7-0.481c-27.003,13.295-43.778,40.234-43.778,70.305c0,28.531,15.338,53.54,38.196,67.237v40.537  c-40.55-16.041-69.309-55.637-69.309-101.824c0-60.35,49.098-109.447,109.447-109.447S365.447,195.65,365.447,256  C365.447,302.187,336.689,341.783,296.139,357.824z"/>
<path d="M274.118,279.589h-36.237c-5.523,0-10-4.477-10-10s4.477-10,10-10h36.237c5.522,0,10,4.477,10,10  S279.641,279.589,274.118,279.589z"/>
<g>
</g>
<g>
</g>
<g>
</g>
<g>
</g>
<g>
</g>
<g>
</g>
<g>
</g>
<g>
</g>
<g>
</g>
<g>
</g>
<g>
</g>
<g>
</g>
<g>
</g>
<g>
</g>
<g>
</g>
</svg>
