<?xml version="1.0" encoding="iso-8859-1"?>
<!-- Generator: Adobe Illustrator 19.0.0, SVG Export Plug-In . SVG Version: 6.00 Build 0)  -->
<svg xmlns="http://www.w3.org/2000/svg" xmlns:xlink="http://www.w3.org/1999/xlink" version="1.1" id="Capa_1" x="0px" y="0px" viewBox="0 0 512 512" style="enable-background:new 0 0 512 512;" xml:space="preserve">
<path style="fill:#BFBFBF;" d="M52.563,243.579c-0.593,0.79-0.985,1.681-1.192,2.606h381.521l26.546-35.387  c1.672-2.235,1.824-5.258,0.371-7.649c-1.441-2.375-4.179-3.656-6.957-3.179l-20.965,3.496c-0.82-6.16-1.953-12.25-3.386-18.188  l13.066-43.078c0.805-2.668-0.09-5.562-2.266-7.308c-2.179-1.743-5.195-1.989-7.625-0.618l-18.496,10.454  c-2.867-5.454-6.015-10.766-9.422-15.864L401.31,83.86c-0.156-2.785-1.984-5.195-4.629-6.093c-2.64-0.895-5.562-0.09-7.379,2.035  l-13.824,16.164c-4.511-4.09-9.269-7.988-14.234-11.649l-17.723-41.511c-1.097-2.567-3.656-4.364-6.429-4.145  c-2.793,0.063-5.262,1.817-6.239,4.434L323.4,63.001c-5.687-2.336-11.512-4.379-17.402-6.098l-30.817-32.91  c-1.914-2.043-4.867-2.711-7.461-1.695c-2.601,1.015-4.324,3.508-4.351,6.301l-0.195,21.273c-6.289-0.289-11.539-0.227-18.372,0.23  l-40.277-20.41c-2.48-1.25-5.496-0.882-7.594,0.961c-2.093,1.836-2.859,4.774-1.929,7.399l7.078,20.031  c-5.844,1.871-11.617,4.047-17.238,6.512l-44.762-5.391c-2.738-0.328-5.461,1.051-6.797,3.496c-1.34,2.449-1.059,5.465,0.715,7.625  l13.523,16.43c-4.859,3.754-9.531,7.762-13.937,11.976l-43.965,10.25c-2.719,0.629-4.774,2.856-5.195,5.614  c-0.426,2.757,0.871,5.496,3.277,6.914l18.308,10.801c-3.351,5.269-6.402,10.664-9.109,16.109l-37.676,24.59  c-2.332,1.523-3.507,4.316-2.961,7.054c0.547,2.739,2.704,4.868,5.45,5.372l20.859,3.882c-1.309,6.016-2.305,12.121-2.98,18.223  L52.563,243.579z"/>
<path d="M378.73,219.847c-0.65,0-1.31-0.06-1.95-0.19s-1.27-0.32-1.87-0.57c-0.61-0.25-1.19-0.56-1.73-0.92  c-0.55-0.37-1.06-0.79-1.52-1.25s-0.88-0.97-1.24-1.52c-0.36-0.54-0.67-1.12-0.92-1.72c-0.25-0.61-0.44-1.24-0.57-1.87  c-0.13-0.65-0.2-1.31-0.2-1.96s0.07-1.31,0.2-1.95s0.32-1.27,0.57-1.87c0.25-0.61,0.56-1.19,0.92-1.73  c0.36-0.55,0.78-1.06,1.24-1.52s0.97-0.88,1.52-1.24c0.54-0.36,1.12-0.67,1.73-0.92c0.6-0.25,1.23-0.44,1.87-0.57  c1.29-0.26,2.62-0.26,3.91,0c0.63,0.13,1.26,0.32,1.87,0.57c0.6,0.25,1.18,0.56,1.72,0.92c0.55,0.36,1.06,0.78,1.52,1.24  s0.88,0.97,1.25,1.52c0.36,0.54,0.66,1.12,0.91,1.73c0.25,0.6,0.45,1.23,0.58,1.87c0.13,0.64,0.19,1.3,0.19,1.95  s-0.06,1.31-0.19,1.96c-0.13,0.63-0.33,1.26-0.58,1.87c-0.25,0.6-0.55,1.18-0.91,1.72c-0.37,0.55-0.79,1.06-1.25,1.52  s-0.97,0.88-1.52,1.25c-0.54,0.36-1.12,0.67-1.72,0.92c-0.61,0.25-1.24,0.44-1.87,0.57  C380.04,219.787,379.38,219.847,378.73,219.847z"/>
<rect x="10" y="246.19" style="fill:#FDB845;" width="492" height="104.36"/>
<path style="fill:#076893;" d="M324.432,246.185c1.676-6.05,2.591-12.416,2.591-19c0-39.225-31.798-71.023-71.023-71.023  s-71.023,31.798-71.023,71.023c0,6.584,0.915,12.95,2.591,19H324.432z"/>
<path d="M450.46,308.717c-0.65,0-1.31-0.06-1.96-0.19c-0.64-0.13-1.26-0.32-1.87-0.57c-0.6-0.25-1.18-0.56-1.72-0.92  c-0.55-0.37-1.06-0.79-1.52-1.25s-0.88-0.97-1.25-1.52c-0.36-0.54-0.67-1.12-0.92-1.72c-0.25-0.61-0.44-1.24-0.57-1.87  c-0.13-0.65-0.19-1.31-0.19-1.96s0.06-1.31,0.19-1.95s0.32-1.27,0.57-1.87c0.25-0.61,0.56-1.19,0.92-1.73  c0.37-0.55,0.79-1.06,1.25-1.52s0.97-0.88,1.52-1.24c0.54-0.36,1.12-0.67,1.72-0.92c0.61-0.25,1.23-0.44,1.87-0.57  c1.29-0.26,2.62-0.26,3.91,0c0.64,0.13,1.27,0.32,1.87,0.57s1.19,0.56,1.73,0.92c0.54,0.36,1.06,0.78,1.52,1.24s0.88,0.97,1.24,1.52  c0.36,0.54,0.67,1.12,0.92,1.73c0.25,0.6,0.44,1.23,0.57,1.87c0.13,0.64,0.2,1.3,0.2,1.95c0,0.65-0.07,1.31-0.2,1.96  c-0.13,0.63-0.32,1.26-0.57,1.87c-0.25,0.6-0.56,1.18-0.92,1.72c-0.36,0.55-0.78,1.06-1.24,1.52s-0.98,0.88-1.52,1.25  c-0.54,0.36-1.13,0.67-1.73,0.92s-1.23,0.44-1.87,0.57C451.77,308.657,451.11,308.717,450.46,308.717z"/>
<rect x="46" y="350.54" style="fill:#676767;" width="420" height="139.65"/>
<path d="M463.946,499.863c-2.559,0-5.119-0.976-7.071-2.929l-34.322-34.322c-3.905-3.905-3.905-10.237,0-14.143  c3.905-3.905,10.237-3.905,14.143,0l34.322,34.322c3.905,3.905,3.905,10.237,0,14.143  C469.065,498.887,466.505,499.863,463.946,499.863z"/>
<path d="M217.72,429.187c-0.66,0-1.31-0.07-1.96-0.2c-0.64-0.13-1.27-0.32-1.87-0.57c-0.6-0.25-1.18-0.56-1.72-0.92  c-0.55-0.36-1.06-0.78-1.52-1.24c-0.47-0.46-0.88-0.97-1.25-1.52c-0.36-0.54-0.67-1.12-0.92-1.73c-0.25-0.6-0.44-1.23-0.57-1.87  c-0.13-0.64-0.19-1.3-0.19-1.95c0-0.65,0.06-1.31,0.19-1.96c0.13-0.63,0.32-1.26,0.57-1.87c0.25-0.6,0.56-1.18,0.92-1.72  c0.37-0.55,0.78-1.06,1.25-1.52c0.46-0.46,0.97-0.88,1.52-1.25c0.54-0.36,1.12-0.67,1.72-0.92s1.23-0.44,1.87-0.57  c3.25-0.65,6.7,0.41,9.03,2.74c0.46,0.46,0.88,0.97,1.24,1.52c0.36,0.54,0.67,1.12,0.92,1.72c0.25,0.61,0.44,1.24,0.57,1.87  c0.13,0.65,0.19,1.31,0.19,1.96s-0.06,1.31-0.19,1.95s-0.32,1.27-0.57,1.87c-0.25,0.61-0.56,1.19-0.92,1.73  c-0.36,0.55-0.78,1.06-1.24,1.52C222.92,428.117,220.35,429.187,217.72,429.187z"/>
<path d="M502,236.185h-49.105l14.55-19.396c4.142-5.536,4.498-12.928,0.913-18.826c-3.605-5.942-10.354-9.022-17.151-7.856  l-11.048,1.842c-0.402-2.127-0.839-4.239-1.311-6.332l12.293-40.527c1.995-6.611-0.196-13.676-5.594-18.006  c-5.395-4.316-12.769-4.912-18.792-1.514l-9.766,5.52c-1.104-1.848-2.237-3.671-3.393-5.461L411.294,83.3  c-0.387-6.894-4.861-12.783-11.403-15.004c-6.547-2.22-13.689-0.255-18.189,5.006l-7.314,8.552  c-1.647-1.339-3.315-2.652-5.001-3.933l-16.67-39.046c-2.8-6.55-9.257-10.626-16.121-10.204c-6.809,0.26-12.721,4.524-15.108,10.917  l-3.935,10.511c-2.025-0.703-4.059-1.37-6.097-1.999l-28.977-30.945c-4.737-5.057-11.962-6.693-18.393-4.174  c-6.443,2.514-10.65,8.606-10.716,15.525l-0.103,11.213c-2.056,0.036-4.148,0.114-6.365,0.235l-37.876-19.193  c-6.173-3.112-13.511-2.177-18.689,2.373c-5.205,4.565-7.074,11.731-4.764,18.249l3.739,10.58c-2.001,0.763-3.984,1.557-5.944,2.381  l-42.1-5.07c-6.762-0.808-13.497,2.659-16.757,8.625c-3.317,6.063-2.627,13.431,1.766,18.781l7.149,8.686  c-1.61,1.392-3.19,2.806-4.735,4.238l-41.325,9.635c-6.745,1.56-11.78,6.995-12.825,13.831c-1.057,6.844,2.116,13.539,8.079,17.053  l9.644,5.689c-1.063,1.892-2.088,3.792-3.072,5.697l-35.435,23.128c-5.788,3.779-8.653,10.603-7.3,17.385  c1.357,6.797,6.637,11.998,13.427,13.245l11.006,2.048c-0.34,2.121-0.645,4.249-0.913,6.378l-24.368,32.492H10  c-5.523,0-10,4.477-10,10V350.54c0,5.523,4.477,10,10,10h26v129.645c0,5.523,4.477,10,10,10h420c5.523,0,10-4.477,10-10V360.54h26  c5.523,0,10-4.477,10-10V246.185C512,240.662,507.523,236.185,502,236.185z M87.591,213.54c1.073-1.431,1.743-3.122,1.939-4.9  c0.638-5.768,1.584-11.553,2.812-17.197c0.575-2.643,0.055-5.406-1.441-7.658c-1.497-2.253-3.842-3.804-6.5-4.298l-13.076-2.434  l31.04-20.259c1.492-0.973,2.696-2.328,3.489-3.922c2.543-5.115,5.434-10.228,8.593-15.195c1.454-2.287,1.918-5.066,1.285-7.701  c-0.633-2.635-2.308-4.901-4.643-6.278l-11.485-6.776l36.25-8.451c1.744-0.407,3.348-1.274,4.642-2.513  c4.106-3.927,8.527-7.726,13.139-11.289c2.141-1.654,3.521-4.105,3.823-6.794c0.303-2.689-0.497-5.385-2.216-7.475l-8.495-10.321  l36.899,4.444c1.775,0.214,3.575-0.052,5.212-0.77c5.255-2.305,10.73-4.373,16.27-6.146c2.575-0.824,4.707-2.656,5.909-5.078  c1.202-2.422,1.372-5.228,0.471-7.777l-4.438-12.559l33.21,16.829c1.603,0.812,3.395,1.181,5.188,1.058  c6.442-0.431,11.278-0.491,17.246-0.218c2.711,0.123,5.36-0.86,7.333-2.727c1.972-1.867,3.1-4.456,3.126-7.171l0.122-13.354  l25.403,27.128c1.225,1.308,2.778,2.263,4.498,2.765c5.526,1.613,11.045,3.547,16.403,5.748c2.503,1.028,5.318,0.999,7.799-0.084  c2.481-1.082,4.418-3.124,5.367-5.659l4.673-12.482l14.609,34.218c0.7,1.64,1.827,3.063,3.262,4.122  c4.651,3.429,9.177,7.133,13.452,11.009c2.003,1.815,4.656,2.741,7.351,2.571c2.697-0.171,5.21-1.427,6.966-3.48l8.678-10.147  l2.018,37.089c0.098,1.791,0.675,3.522,1.671,5.013c3.172,4.746,6.161,9.78,8.885,14.961c1.259,2.394,3.434,4.176,6.029,4.94  c2.596,0.764,5.389,0.442,7.743-0.888l11.597-6.555l-10.766,35.497c-0.517,1.704-0.569,3.517-0.151,5.249  c1.346,5.577,2.421,11.351,3.194,17.162c0.358,2.686,1.789,5.111,3.968,6.722c2.178,1.61,4.916,2.269,7.589,1.822l13.151-2.193  l-18.79,25.048H336.51c0.335-2.989,0.513-5.993,0.513-9c0-44.676-36.347-81.023-81.023-81.023s-81.023,36.347-81.023,81.023  c0,3.007,0.178,6.011,0.513,9h-31.846c-4.801-59.885,38.433-113.744,98.64-121.421c48.245-6.161,94.967,19.072,116.252,62.769  c2.419,4.965,8.403,7.029,13.37,4.611c4.965-2.418,7.029-8.404,4.611-13.369c-25.041-51.41-80.001-81.087-136.763-73.85  c-70.299,8.964-120.925,71.446-116.161,141.26H70.608L87.591,213.54z M317.023,227.185c0,3.01-0.225,6.019-0.67,9H195.647  c-0.446-2.981-0.67-5.99-0.67-9c0-33.648,27.375-61.023,61.023-61.023S317.023,193.536,317.023,227.185z M456,409.185H329.874  c-5.523,0-10,4.477-10,10s4.477,10,10,10H456v51H71.874l17.573-17.573c3.905-3.905,3.905-10.237,0-14.143  c-3.905-3.905-10.237-3.905-14.143,0L56,467.774v-38.589h126.126c5.523,0,10-4.477,10-10s-4.477-10-10-10H56v-36.556l19.305,19.305  c1.953,1.953,4.512,2.929,7.071,2.929s5.119-0.976,7.071-2.929c3.905-3.905,3.905-10.237,0-14.143L72.196,360.54h367.607  l-17.251,17.251c-3.905,3.905-3.905,10.237,0,14.143c1.953,1.953,4.512,2.929,7.071,2.929c2.559,0,5.119-0.976,7.071-2.929  L456,372.629V409.185z M492,340.54h-26h-2.049c-0.003,0-0.007,0-0.01,0H48.059c-0.003,0-0.007,0-0.01,0H46H20v-31.82h394.867  c5.523,0,10-4.477,10-10s-4.477-10-10-10H20v-32.535h31.371h136.197h136.864h108.461H492V340.54z"/>
<path d="M294.28,429.187c-0.65,0-1.3-0.07-1.95-0.2c-0.64-0.13-1.27-0.32-1.87-0.57s-1.18-0.56-1.73-0.92  c-0.54-0.36-1.05-0.78-1.52-1.24c-0.46-0.46-0.88-0.97-1.24-1.52c-0.36-0.54-0.67-1.12-0.92-1.73c-0.25-0.6-0.44-1.23-0.57-1.87  c-0.13-0.64-0.2-1.3-0.2-1.95c0-0.65,0.07-1.31,0.2-1.96c0.13-0.63,0.32-1.26,0.57-1.87c0.25-0.6,0.56-1.18,0.92-1.72  c0.36-0.55,0.78-1.06,1.24-1.52c0.47-0.46,0.98-0.88,1.52-1.25c0.55-0.36,1.13-0.67,1.73-0.92s1.23-0.44,1.87-0.57  c3.25-0.65,6.71,0.42,9.03,2.74c0.46,0.46,0.88,0.97,1.24,1.52c0.36,0.54,0.67,1.12,0.92,1.72c0.25,0.61,0.44,1.24,0.57,1.87  c0.13,0.65,0.19,1.31,0.19,1.96s-0.06,1.31-0.19,1.95s-0.32,1.27-0.57,1.87c-0.25,0.61-0.56,1.19-0.92,1.73  c-0.36,0.55-0.78,1.06-1.24,1.52C299.49,428.117,296.92,429.187,294.28,429.187z"/>
<g>
</g>
<g>
</g>
<g>
</g>
<g>
</g>
<g>
</g>
<g>
</g>
<g>
</g>
<g>
</g>
<g>
</g>
<g>
</g>
<g>
</g>
<g>
</g>
<g>
</g>
<g>
</g>
<g>
</g>
</svg>
