<?xml version="1.0" encoding="iso-8859-1"?>
<!-- Generator: Adobe Illustrator 19.0.0, SVG Export Plug-In . SVG Version: 6.00 Build 0)  -->
<svg xmlns="http://www.w3.org/2000/svg" xmlns:xlink="http://www.w3.org/1999/xlink" version="1.1" id="Capa_1" x="0px" y="0px" viewBox="0 0 512 512" style="enable-background:new 0 0 512 512;" xml:space="preserve">
<polygon style="fill:#676767;" points="209.639,402.77 209.639,447.385 96.754,447.385 96.754,402.77 31.18,402.77 31.18,451.015   82.165,502 429.833,502 480.818,451.015 480.818,402.77 "/>
<polygon style="fill:#939393;" points="429.833,10 82.165,10 31.18,60.985 31.18,109.23 96.754,109.23 96.754,64.615   209.639,64.615 209.639,109.23 480.818,109.23 480.818,60.985 "/>
<rect x="317.799" y="109.23" style="fill:#FDB845;" width="100.83" height="100.83"/>
<polygon style="fill:#C69F7F;" points="404.453,269.201 368.209,290.839 331.966,269.201 331.966,210.058 404.453,210.058 "/>
<path d="M420.829,74.609c-0.66,0-1.311-0.06-1.96-0.189c-0.641-0.13-1.271-0.32-1.87-0.57c-0.601-0.25-1.181-0.56-1.73-0.92  c-0.54-0.37-1.05-0.78-1.51-1.24c-0.47-0.46-0.88-0.979-1.25-1.52c-0.36-0.55-0.67-1.13-0.92-1.73c-0.25-0.6-0.44-1.229-0.57-1.87  c-0.13-0.649-0.189-1.3-0.189-1.949c0-0.66,0.06-1.311,0.189-1.96c0.13-0.641,0.32-1.271,0.57-1.87c0.25-0.601,0.56-1.181,0.92-1.73  c0.37-0.54,0.78-1.05,1.25-1.51c0.46-0.47,0.97-0.88,1.51-1.25c0.55-0.36,1.13-0.67,1.73-0.92c0.6-0.25,1.23-0.44,1.87-0.57  c3.25-0.66,6.699,0.41,9.029,2.74c0.46,0.46,0.881,0.97,1.24,1.51c0.36,0.55,0.67,1.13,0.92,1.73s0.44,1.229,0.57,1.87  c0.13,0.649,0.2,1.3,0.2,1.96c0,0.649-0.07,1.3-0.2,1.949c-0.13,0.641-0.32,1.271-0.57,1.87c-0.25,0.601-0.56,1.181-0.92,1.73  c-0.359,0.54-0.78,1.06-1.24,1.52c-0.46,0.46-0.97,0.87-1.52,1.24c-0.54,0.36-1.13,0.67-1.73,0.92c-0.6,0.25-1.229,0.44-1.869,0.57  C422.14,74.55,421.479,74.609,420.829,74.609z"/>
<path d="M430.818,457.39c-0.649,0-1.31-0.07-1.96-0.2c-0.63-0.13-1.26-0.319-1.869-0.569c-0.601-0.25-1.181-0.56-1.721-0.92  c-0.55-0.36-1.059-0.78-1.52-1.24c-1.86-1.86-2.931-4.44-2.931-7.07c0-0.66,0.061-1.309,0.19-1.96c0.13-0.64,0.32-1.27,0.57-1.87  s0.56-1.18,0.92-1.729c0.37-0.54,0.79-1.051,1.25-1.511c0.46-0.47,0.97-0.88,1.52-1.25c0.54-0.359,1.12-0.67,1.721-0.92  c0.609-0.25,1.239-0.439,1.869-0.569c1.29-0.261,2.62-0.261,3.91,0c0.641,0.13,1.271,0.319,1.87,0.569  c0.61,0.25,1.19,0.561,1.73,0.92c0.55,0.37,1.06,0.78,1.52,1.25c0.46,0.46,0.88,0.971,1.24,1.511c0.36,0.55,0.67,1.13,0.92,1.729  c0.25,0.601,0.44,1.23,0.57,1.87c0.13,0.65,0.199,1.3,0.199,1.96c0,2.63-1.069,5.21-2.93,7.07c-0.46,0.46-0.97,0.88-1.52,1.24  c-0.54,0.359-1.12,0.67-1.73,0.92c-0.6,0.25-1.229,0.44-1.87,0.569C432.13,457.319,431.469,457.39,430.818,457.39z"/>
<rect x="325.209" y="324.22" style="fill:#4184B2;" width="86" height="78.55"/>
<rect x="96.749" y="64.61" style="fill:#076893;" width="112.88" height="382.77"/>
<path d="M480.818,119.23c5.522,0,10-4.478,10-10V60.985c0-2.652-1.054-5.195-2.929-7.071L436.904,2.929  C435.029,1.054,432.485,0,429.833,0H82.165c-2.652,0-5.196,1.054-7.071,2.929L24.109,53.914c-1.875,1.876-2.929,4.419-2.929,7.071  v48.245c0,5.522,4.477,10,10,10h55.575v273.54H31.18c-5.523,0-10,4.478-10,10v48.245c0,2.652,1.054,5.195,2.929,7.071l50.986,50.985  c1.875,1.875,4.419,2.929,7.071,2.929h347.668c2.652,0,5.195-1.054,7.071-2.929l50.985-50.985c1.875-1.876,2.929-4.419,2.929-7.071  V402.77c0-5.522-4.478-10-10-10h-59.61v-68.551c0-5.523-4.478-10-10-10h-33v-17.704l31.369-18.728  c3.023-1.805,4.874-5.065,4.874-8.586v-49.144h4.171h16.809c5.522,0,10-4.478,10-10s-4.478-10-10-10h-6.809V119.23H480.818z   M327.795,182.938v-52.543l26.272,26.271L327.795,182.938z M344.917,119.23h46.586l-23.293,23.293L344.917,119.23z M368.209,170.809  l29.249,29.249h-58.498L368.209,170.809z M382.352,156.666l26.272-26.271v52.543L382.352,156.666z M86.308,20h339.383l45.128,45.128  V99.23h-52.195H317.795h-98.157V74.615h165.599c5.522,0,10-4.477,10-10c0-5.522-4.478-10-10-10H209.639H96.754H51.692L86.308,20z   M199.639,109.23v293.54v34.615h-92.883V402.77V109.23V74.615h92.883V109.23z M41.18,99.23V74.615h45.575V99.23H41.18z   M86.754,412.77v24.615H41.18V412.77H86.754z M470.818,446.872L425.69,492H86.308l-34.615-34.615h45.062h112.883h185.591  c5.522,0,10-4.478,10-10s-4.478-10-10-10H219.639V412.77h105.571h86h59.609V446.872z M401.209,392.77h-66v-58.551h66V392.77z   M325.209,314.219c-5.523,0-10,4.477-10,10v68.551h-95.571V119.23h88.157v80.827h-6.81c-5.522,0-10,4.478-10,10s4.478,10,10,10  h16.81h4.17v49.144c0,3.521,1.852,6.781,4.874,8.586l31.37,18.728v17.704L325.209,314.219L325.209,314.219z M394.453,263.524  l-26.243,15.668l-26.244-15.668v-43.467h52.487V263.524z"/>
<circle style="fill:#BFBFBF;" cx="153.199" cy="124.21" r="30.383"/>
<path d="M153.197,164.594c-22.268,0-40.384-18.115-40.384-40.383s18.116-40.384,40.384-40.384s40.383,18.116,40.383,40.384  C193.58,146.479,175.464,164.594,153.197,164.594z M153.197,103.827c-11.24,0-20.384,9.145-20.384,20.384  s9.144,20.383,20.384,20.383c11.239,0,20.383-9.144,20.383-20.383C173.58,112.972,164.436,103.827,153.197,103.827z"/>
<circle style="fill:#BFBFBF;" cx="153.199" cy="387.79" r="30.383"/>
<path d="M153.197,428.173c-22.268,0-40.384-18.116-40.384-40.384s18.116-40.383,40.384-40.383s40.383,18.115,40.383,40.383  C193.58,410.057,175.464,428.173,153.197,428.173z M153.197,367.406c-11.24,0-20.384,9.143-20.384,20.383  c0,11.239,9.144,20.384,20.384,20.384c11.239,0,20.383-9.145,20.383-20.384C173.58,376.55,164.436,367.406,153.197,367.406z"/>
<path d="M153.197,322.834c-5.523,0-10-4.478-10-10V199.166c0-5.522,4.477-10,10-10s10,4.478,10,10v113.668  C163.197,318.356,158.719,322.834,153.197,322.834z"/>
<g>
</g>
<g>
</g>
<g>
</g>
<g>
</g>
<g>
</g>
<g>
</g>
<g>
</g>
<g>
</g>
<g>
</g>
<g>
</g>
<g>
</g>
<g>
</g>
<g>
</g>
<g>
</g>
<g>
</g>
</svg>
