<?xml version="1.0" encoding="iso-8859-1"?>
<!-- Generator: Adobe Illustrator 19.0.0, SVG Export Plug-In . SVG Version: 6.00 Build 0)  -->
<svg xmlns="http://www.w3.org/2000/svg" xmlns:xlink="http://www.w3.org/1999/xlink" version="1.1" id="Capa_1" x="0px" y="0px" viewBox="0 0 512 512" style="enable-background:new 0 0 512 512;" xml:space="preserve">
<g>
	<path style="fill:#076893;" d="M96.025,297.388H66c-13.807,0-25-11.193-25-25v-99c0-13.807,11.193-25,25-25h30.025V297.388z"/>
	<rect x="202.02" y="415.6" style="fill:#076893;" width="268.98" height="50.667"/>
</g>
<rect x="96.03" y="84.996" style="fill:#BFBFBF;" width="74.996" height="284.87"/>
<rect x="96.03" y="10" style="fill:#939393;" width="374.95" height="74.996"/>
<rect x="281.5" y="84.996" style="fill:#FDB845;" width="93.2" height="93.2"/>
<polygon style="fill:#C69F7F;" points="361.597,232.859 328.097,252.859 294.597,232.859 294.597,178.192 361.597,178.192 "/>
<rect x="65.02" y="369.87" style="fill:#676767;" width="137" height="132.13"/>
<path style="fill:#BFBFBF;" d="M134.774,469.87h-2.502c-18.742,0-33.935-15.193-33.935-33.935l0,0  c0-18.742,15.193-33.935,33.935-33.935h2.502c18.742,0,33.935,15.193,33.935,33.935l0,0  C168.709,454.677,153.516,469.87,134.774,469.87z"/>
<path d="M134.774,479.87h-2.502c-24.226,0-43.935-19.709-43.935-43.935S108.046,392,132.272,392h2.502  c24.226,0,43.935,19.709,43.935,43.935S159,479.87,134.774,479.87z M132.273,412c-13.197,0-23.935,10.737-23.935,23.935  s10.737,23.935,23.935,23.935h2.502c13.197,0,23.935-10.737,23.935-23.935S147.973,412,134.775,412H132.273z"/>
<rect x="273.72" y="345.32" style="fill:#4184B2;" width="109" height="70.28"/>
<path d="M423.149,55.5c-0.649,0-1.31-0.06-1.96-0.19c-0.63-0.13-1.26-0.32-1.87-0.57c-0.6-0.25-1.18-0.56-1.72-0.92  c-0.55-0.37-1.06-0.79-1.52-1.25c-0.471-0.46-0.88-0.97-1.25-1.52c-0.36-0.54-0.67-1.12-0.92-1.72c-0.25-0.61-0.44-1.24-0.57-1.87  c-0.13-0.65-0.19-1.3-0.19-1.96c0-0.65,0.061-1.31,0.19-1.95c0.13-0.64,0.32-1.27,0.57-1.87c0.25-0.61,0.56-1.19,0.92-1.73  c0.37-0.55,0.779-1.06,1.25-1.52c0.46-0.46,0.97-0.88,1.52-1.24c0.54-0.36,1.12-0.67,1.72-0.92c0.61-0.25,1.24-0.44,1.87-0.57  c1.29-0.26,2.62-0.26,3.91,0c0.641,0.13,1.27,0.32,1.87,0.57c0.61,0.25,1.19,0.56,1.73,0.92c0.55,0.36,1.06,0.78,1.52,1.24  c0.46,0.46,0.88,0.97,1.24,1.52c0.359,0.54,0.67,1.12,0.92,1.73c0.25,0.6,0.439,1.23,0.57,1.87c0.13,0.64,0.199,1.3,0.199,1.95  c0,0.66-0.069,1.31-0.199,1.96c-0.131,0.64-0.32,1.26-0.57,1.87c-0.25,0.6-0.561,1.18-0.92,1.72c-0.36,0.55-0.78,1.06-1.24,1.52  s-0.97,0.88-1.52,1.25c-0.54,0.36-1.12,0.67-1.73,0.92c-0.6,0.25-1.229,0.44-1.87,0.57C424.46,55.44,423.8,55.5,423.149,55.5z"/>
<path d="M133.12,339.36c-0.66,0-1.311-0.07-1.96-0.2c-0.641-0.13-1.271-0.32-1.87-0.57c-0.6-0.25-1.181-0.56-1.73-0.92  c-0.54-0.36-1.06-0.78-1.52-1.24s-0.88-0.97-1.24-1.52c-0.36-0.54-0.67-1.12-0.92-1.73c-0.25-0.6-0.44-1.23-0.57-1.87  c-0.13-0.64-0.2-1.3-0.2-1.95s0.07-1.31,0.2-1.96c0.13-0.63,0.32-1.26,0.57-1.87c0.25-0.6,0.56-1.18,0.92-1.72  c0.36-0.55,0.78-1.06,1.24-1.52s0.979-0.88,1.52-1.25c0.55-0.36,1.13-0.67,1.73-0.92s1.23-0.44,1.87-0.57  c1.29-0.26,2.62-0.26,3.909,0c0.641,0.13,1.261,0.32,1.87,0.57c0.6,0.25,1.181,0.56,1.721,0.92c0.55,0.37,1.059,0.79,1.52,1.25  c0.47,0.46,0.88,0.97,1.25,1.52c0.36,0.54,0.67,1.12,0.92,1.72c0.25,0.61,0.44,1.24,0.57,1.87c0.13,0.65,0.189,1.31,0.189,1.96  s-0.06,1.31-0.189,1.95c-0.13,0.64-0.32,1.27-0.57,1.87c-0.25,0.61-0.56,1.19-0.92,1.73c-0.37,0.55-0.78,1.06-1.25,1.52  c-0.46,0.46-0.97,0.88-1.52,1.24c-0.54,0.36-1.12,0.67-1.721,0.92c-0.609,0.25-1.229,0.44-1.87,0.57  C134.42,339.29,133.77,339.36,133.12,339.36z"/>
<path d="M471,405.602h-78.281v-50.279h4.5c5.522,0,10-4.477,10-10s-4.478-10-10-10h-14.5h-109h-14.5c-5.523,0-10,4.477-10,10  s4.478,10,10,10h4.5v50.279h-51.695V369.87c0-5.523-4.478-10-10-10h-21.002V94.996h90.477v73.196h-12.402c-5.523,0-10,4.477-10,10  s4.478,10,10,10h22.402h3.098v44.667c0,3.521,1.852,6.782,4.874,8.586l28.626,17.09v44.853c0,5.523,4.477,10,10,10  c5.522,0,10-4.477,10-10v-44.853l28.626-17.09c3.022-1.805,4.874-5.066,4.874-8.586v-44.667h3.099h22.401c5.522,0,10-4.477,10-10  s-4.478-10-10-10h-12.401V94.996h86.281c5.522,0,10-4.477,10-10V10c0-5.523-4.478-10-10-10H96.025c-5.522,0-10,4.477-10,10v74.996  v53.392H66c-19.299,0-35,15.701-35,35v99c0,19.299,15.701,35,35,35h20.025v52.482H65.023c-5.522,0-10,4.477-10,10V502  c0,5.523,4.478,10,10,10h137c5.522,0,10-4.477,10-10v-25.731H471c5.522,0,10-4.477,10-10v-50.667  C481,410.079,476.522,405.602,471,405.602z M283.719,355.322h89v50.279h-89V355.322z M343.569,114.672  c1.953,1.953,4.512,2.929,7.071,2.929c2.56,0,5.118-0.976,7.071-2.929l6.983-6.983v48.622l-6.983-6.983  c-3.906-3.905-10.236-3.905-14.143,0c-3.905,3.905-3.905,10.237,0,14.142l4.723,4.723h-40.39l4.723-4.723  c3.905-3.905,3.905-10.237,0-14.142c-3.906-3.905-10.236-3.905-14.143,0l-6.983,6.983v-48.622l6.983,6.983  c1.953,1.953,4.512,2.929,7.071,2.929s5.118-0.976,7.071-2.929c3.905-3.905,3.905-10.237,0-14.143l-5.533-5.533h42.011l-5.533,5.533  C339.664,104.435,339.664,110.767,343.569,114.672z M351.597,227.182l-23.5,14.03l-23.5-14.03v-38.99h47V227.182z M460.977,20  v54.996h-86.281H281.5H171.021h-64.996V55.502h281.532c5.523,0,10-4.477,10-10s-4.477-10-10-10H106.025V20H460.977z M66,287.388  c-8.271,0-15-6.729-15-15v-99c0-8.271,6.729-15,15-15h20.025v129H66z M106.025,297.388v-149V94.996h17.089v198.772  c0,5.523,4.477,10,10,10c5.522,0,10-4.477,10-10V94.996h17.907V359.87h-54.996C106.025,359.87,106.025,297.388,106.025,297.388z   M192.023,492h-117V379.87h21.002h74.996h21.002v35.732v50.667V492z M461,456.269H212.023v-30.667h61.695h109H461V456.269z"/>
<g>
</g>
<g>
</g>
<g>
</g>
<g>
</g>
<g>
</g>
<g>
</g>
<g>
</g>
<g>
</g>
<g>
</g>
<g>
</g>
<g>
</g>
<g>
</g>
<g>
</g>
<g>
</g>
<g>
</g>
</svg>
