<?xml version="1.0" encoding="iso-8859-1"?>
<!-- Generator: Adobe Illustrator 19.0.0, SVG Export Plug-In . SVG Version: 6.00 Build 0)  -->
<svg xmlns="http://www.w3.org/2000/svg" xmlns:xlink="http://www.w3.org/1999/xlink" version="1.1" id="Capa_1" x="0px" y="0px" viewBox="0 0 512 512" style="enable-background:new 0 0 512 512;" xml:space="preserve">
<rect x="153.109" y="86.17" style="fill:#FDB845;" width="88.66" height="88.27"/>
<polygon style="fill:#C69F7F;" points="229.311,226.44 197.44,245.467 165.572,226.44 165.572,174.434 229.311,174.434 "/>
<rect x="347.559" y="86.17" style="fill:#FDB845;" width="88.66" height="88.27"/>
<polygon style="fill:#C69F7F;" points="423.757,226.44 391.887,245.467 360.017,226.44 360.017,174.434 423.757,174.434 "/>
<rect x="15.937" y="86.17" style="fill:#676767;" width="76.17" height="293.85"/>
<rect x="15.937" y="10" style="fill:#939393;" width="450.88" height="76.17"/>
<path d="M418.239,56.06c-0.65,0-1.311-0.07-1.95-0.2c-0.641-0.13-1.271-0.32-1.87-0.57c-0.61-0.25-1.19-0.56-1.73-0.92  c-0.55-0.36-1.06-0.78-1.52-1.24c-0.46-0.46-0.88-0.97-1.24-1.52c-0.36-0.54-0.67-1.12-0.92-1.73c-0.25-0.6-0.44-1.23-0.57-1.87  s-0.199-1.3-0.199-1.95s0.069-1.31,0.199-1.96c0.13-0.63,0.32-1.26,0.57-1.87c0.25-0.6,0.56-1.18,0.92-1.72  c0.36-0.55,0.78-1.06,1.24-1.52s0.97-0.88,1.52-1.25c0.54-0.36,1.12-0.67,1.73-0.92c0.6-0.25,1.23-0.44,1.87-0.57  c3.25-0.65,6.7,0.41,9.02,2.74c0.46,0.46,0.88,0.97,1.25,1.52c0.36,0.54,0.67,1.12,0.92,1.72c0.25,0.61,0.44,1.24,0.57,1.87  c0.13,0.65,0.19,1.31,0.19,1.96c0,0.65-0.061,1.309-0.19,1.95c-0.13,0.64-0.32,1.27-0.57,1.87c-0.25,0.61-0.56,1.19-0.92,1.73  c-0.37,0.55-0.79,1.06-1.25,1.52C423.449,54.99,420.879,56.06,418.239,56.06z"/>
<path d="M53.608,344.35c-0.659,0-1.31-0.07-1.96-0.2c-0.64-0.13-1.269-0.32-1.869-0.57c-0.601-0.25-1.181-0.56-1.73-0.92  c-0.54-0.36-1.05-0.78-1.52-1.24c-1.86-1.86-2.921-4.44-2.921-7.07c0-2.64,1.06-5.211,2.921-7.07c0.47-0.47,0.979-0.88,1.52-1.25  c0.55-0.36,1.13-0.67,1.73-0.92s1.229-0.44,1.869-0.57c1.29-0.26,2.62-0.26,3.91,0c0.641,0.13,1.271,0.32,1.87,0.57  c0.601,0.25,1.18,0.56,1.73,0.92c0.54,0.37,1.06,0.78,1.52,1.25c1.86,1.86,2.93,4.43,2.93,7.07c0,2.63-1.069,5.21-2.93,7.07  c-0.46,0.46-0.979,0.88-1.52,1.24c-0.551,0.36-1.13,0.67-1.73,0.92s-1.229,0.44-1.87,0.57  C54.919,344.28,54.259,344.35,53.608,344.35z"/>
<path style="fill:#BFBFBF;" d="M436.008,502H15.937V380.019h420.072c33.166,0,60.052,26.886,60.052,60.052v1.876  C496.061,475.113,469.175,502,436.008,502z"/>
<circle style="fill:#076893;" cx="83.932" cy="441.01" r="32.57"/>
<path d="M83.932,483.58c-23.473,0-42.569-19.097-42.569-42.57s19.097-42.57,42.569-42.57c23.474,0,42.57,19.097,42.57,42.57  C126.502,464.482,107.405,483.58,83.932,483.58z M83.932,418.439c-12.444,0-22.569,10.125-22.569,22.57s10.125,22.57,22.569,22.57  c12.445,0,22.57-10.125,22.57-22.57S96.377,418.439,83.932,418.439z"/>
<circle style="fill:#076893;" cx="197.439" cy="441.01" r="32.57"/>
<path d="M197.44,483.58c-23.474,0-42.57-19.097-42.57-42.57s19.097-42.57,42.57-42.57s42.57,19.097,42.57,42.57  C240.011,464.482,220.914,483.58,197.44,483.58z M197.44,418.439c-12.445,0-22.57,10.125-22.57,22.57s10.125,22.57,22.57,22.57  s22.57-10.125,22.57-22.57C220.011,428.564,209.886,418.439,197.44,418.439z"/>
<circle style="fill:#076893;" cx="310.949" cy="441.01" r="32.57"/>
<path d="M310.948,483.58c-23.473,0-42.569-19.097-42.569-42.57s19.097-42.57,42.569-42.57c23.474,0,42.57,19.097,42.57,42.57  C353.519,464.482,334.422,483.58,310.948,483.58z M310.948,418.439c-12.444,0-22.569,10.125-22.569,22.57s10.125,22.57,22.569,22.57  c12.445,0,22.57-10.125,22.57-22.57C333.519,428.564,323.394,418.439,310.948,418.439z"/>
<circle style="fill:#076893;" cx="424.459" cy="441.01" r="32.57"/>
<path d="M424.457,483.58c-23.474,0-42.57-19.097-42.57-42.57s19.097-42.57,42.57-42.57s42.57,19.097,42.57,42.57  C467.027,464.482,447.931,483.58,424.457,483.58z M424.457,418.439c-12.445,0-22.57,10.125-22.57,22.57s10.125,22.57,22.57,22.57  s22.57-10.125,22.57-22.57S436.902,418.439,424.457,418.439z"/>
<path style="fill:#4184B2;" d="M227.91,380.019h-60.937v-31.171c0-16.568,13.432-30,30-30h0.937c16.568,0,30,13.431,30,30V380.019z"/>
<path style="fill:#076893;" d="M422.356,380.019h-60.937v-30.702c0-16.827,13.641-30.469,30.469-30.469l0,0  c16.827,0,30.469,13.641,30.469,30.469L422.356,380.019L422.356,380.019z"/>
<path d="M436.009,370.019h-3.653v-20.703c0-22.314-18.154-40.468-40.469-40.468c-22.314,0-40.469,18.154-40.469,40.468v20.703  H237.91v-21.171c0-22.056-17.944-40-40-40h-0.938c-22.056,0-40,17.944-40,40v21.171h-54.867V96.168h41.006v68.266h-11.313  c-5.522,0-10,4.477-10,10s4.478,10,10,10h21.313h2.46v42.006c0,3.521,1.852,6.782,4.874,8.587l26.996,16.117v42.393  c0,5.523,4.477,10,10,10c5.522,0,10-4.477,10-10v-42.393l26.996-16.117c3.023-1.805,4.874-5.066,4.874-8.587v-42.006h2.46h21.313  c5.522,0,10-4.477,10-10s-4.478-10-10-10H251.77V96.168h85.786v68.266h-11.313c-5.522,0-10,4.477-10,10s4.478,10,10,10h21.313h2.46  v42.006c0,3.521,1.852,6.782,4.874,8.587l26.996,16.117v42.393c0,5.523,4.478,10,10,10s10-4.477,10-10v-42.393l26.996-16.117  c3.023-1.805,4.874-5.066,4.874-8.587v-42.006h2.461h21.311c5.522,0,10-4.477,10-10s-4.478-10-10-10h-11.311V96.168h20.6  c5.522,0,10-4.477,10-10V10c0-5.523-4.478-10-10-10H15.938c-5.523,0-10,4.477-10,10v76.168v293.851V502c0,5.523,4.478,10,10,10  h420.071c38.627,0,70.052-31.425,70.052-70.053v-1.876C506.06,401.444,474.636,370.019,436.009,370.019z M371.418,349.316  c0-11.286,9.183-20.468,20.469-20.468s20.469,9.182,20.469,20.468v20.703h-40.938V349.316z M176.973,348.848  c0-11.028,8.972-20,20-20h0.938c11.028,0,20,8.972,20,20v21.171h-40.938V348.848z M82.104,370.019H25.937V96.168h17.668v202.033  c0,5.523,4.478,10,10,10s10-4.477,10-10V96.168h18.499C82.104,96.168,82.104,370.019,82.104,370.019z M163.11,107.885l56.549,56.549  H165.57h-2.46L163.11,107.885L163.11,107.885z M219.311,220.764l-21.87,13.057l-21.87-13.057v-36.33h43.74L219.311,220.764  L219.311,220.764z M231.77,148.26l-52.091-52.092h52.092L231.77,148.26L231.77,148.26z M357.557,109.937l54.498,54.498h-52.038  h-2.46L357.557,109.937L357.557,109.937z M413.757,220.764l-21.87,13.057l-21.87-13.057v-36.33h43.74V220.764z M426.218,150.313  l-54.145-54.145h54.145V150.313z M456.817,20v56.168h-20.6h-88.661H241.77h-88.66H92.104H25.937v-20.11h356.159  c5.522,0,10-4.477,10-10s-4.478-10-10-10H25.937V20H456.817z M486.06,441.947c0,27.599-22.453,50.053-50.052,50.053H25.937V390.019  h66.167h74.867h60.938h133.509h60.938h13.653c27.599,0,50.052,22.453,50.052,50.052v1.876H486.06z"/>
<g>
</g>
<g>
</g>
<g>
</g>
<g>
</g>
<g>
</g>
<g>
</g>
<g>
</g>
<g>
</g>
<g>
</g>
<g>
</g>
<g>
</g>
<g>
</g>
<g>
</g>
<g>
</g>
<g>
</g>
</svg>
