<?xml version="1.0" encoding="iso-8859-1"?>
<!-- Generator: Adobe Illustrator 19.0.0, SVG Export Plug-In . SVG Version: 6.00 Build 0)  -->
<svg xmlns="http://www.w3.org/2000/svg" xmlns:xlink="http://www.w3.org/1999/xlink" version="1.1" id="Capa_1" x="0px" y="0px" viewBox="0 0 512 512" style="enable-background:new 0 0 512 512;" xml:space="preserve">
<path style="fill:#939393;" d="M58.425,37.632L58.425,37.632C31.791,37.632,10,59.423,10,86.057v308.867  c0-26.634,21.792-48.426,48.426-48.426l0,0c26.634,0,48.426,21.792,48.426,48.426V86.057  C106.851,59.423,85.059,37.632,58.425,37.632z"/>
<path d="M58.427,102.218c-0.649,0-1.31-0.07-1.96-0.2c-0.63-0.13-1.26-0.32-1.87-0.57c-0.6-0.25-1.18-0.56-1.72-0.92  c-0.55-0.36-1.061-0.78-1.521-1.24s-0.88-0.98-1.25-1.52c-0.359-0.55-0.67-1.13-0.92-1.73c-0.25-0.6-0.439-1.23-0.569-1.87  s-0.19-1.3-0.19-1.95c0-0.66,0.061-1.31,0.19-1.96c0.13-0.64,0.319-1.27,0.569-1.87s0.561-1.18,0.92-1.72  c0.37-0.55,0.79-1.06,1.25-1.52c0.46-0.47,0.971-0.88,1.521-1.25c0.54-0.36,1.12-0.67,1.72-0.92c0.61-0.25,1.24-0.44,1.87-0.57  c1.29-0.26,2.62-0.26,3.91,0c0.64,0.13,1.269,0.32,1.87,0.57c0.6,0.25,1.189,0.56,1.729,0.92c0.54,0.37,1.061,0.78,1.521,1.25  c0.46,0.46,0.88,0.97,1.24,1.52c0.359,0.54,0.67,1.12,0.92,1.72c0.25,0.6,0.439,1.23,0.569,1.87c0.13,0.65,0.2,1.3,0.2,1.96  c0,0.65-0.07,1.31-0.2,1.95s-0.319,1.27-0.569,1.87c-0.25,0.6-0.561,1.18-0.92,1.73c-0.36,0.54-0.78,1.06-1.24,1.52  s-0.98,0.88-1.521,1.24c-0.54,0.36-1.13,0.67-1.729,0.92c-0.601,0.25-1.23,0.44-1.87,0.57  C59.737,102.148,59.077,102.218,58.427,102.218z"/>
<path style="fill:#939393;" d="M454.406,474.371L454.406,474.371c26.634,0,48.426-21.792,47.57-48.426V117.079  c0.856,26.634-20.935,48.426-47.57,48.426l0,0c-26.634,0-48.426-21.792-48.426-48.426v308.867  C405.98,452.579,427.772,474.371,454.406,474.371z"/>
<path style="fill:#BFBFBF;" d="M405.98,425.946V117.079c0,26.634,21.792,48.426,48.426,48.426l0,0  c25.697,0,46.88-20.287,47.57-45.635v-2.791v-0.238c0.601-27.112-22.386-49.079-49.498-49.079H103.244  c2.326,5.653,3.607,11.829,3.607,18.295v308.867c0-26.634-21.792-48.426-48.426-48.426l0,0C31.791,346.498,10,368.29,10,394.924  v0.169c0,27.141,22.007,49.148,49.158,49.148h350.432C407.263,438.588,405.98,432.411,405.98,425.946z"/>
<path d="M453.547,429.782c-0.649,0-1.31-0.06-1.949-0.19c-0.641-0.13-1.27-0.32-1.87-0.57c-0.61-0.25-1.19-0.56-1.73-0.92  c-0.55-0.37-1.06-0.78-1.52-1.25c-1.86-1.85-2.931-4.43-2.931-7.07c0-0.65,0.07-1.3,0.2-1.95c0.13-0.64,0.32-1.27,0.57-1.87  c0.25-0.6,0.56-1.18,0.92-1.73c0.36-0.54,0.78-1.06,1.24-1.52c0.46-0.46,0.97-0.88,1.52-1.24c0.54-0.36,1.12-0.67,1.73-0.92  c0.6-0.25,1.229-0.44,1.87-0.57c1.29-0.26,2.609-0.26,3.91,0c0.63,0.13,1.26,0.32,1.869,0.57c0.601,0.25,1.181,0.56,1.721,0.92  c0.55,0.36,1.06,0.78,1.52,1.24c0.46,0.46,0.88,0.98,1.25,1.52c0.36,0.55,0.67,1.13,0.92,1.73c0.25,0.6,0.44,1.23,0.57,1.87  c0.13,0.65,0.189,1.3,0.189,1.95c0,2.64-1.069,5.22-2.93,7.07c-0.46,0.47-0.97,0.88-1.52,1.25c-0.54,0.36-1.12,0.67-1.721,0.92  c-0.609,0.25-1.239,0.44-1.869,0.57C454.858,429.722,454.198,429.782,453.547,429.782z"/>
<circle style="fill:#BFDEFF;" cx="255.987" cy="255.999" r="84.126"/>
<path style="fill:#076893;" d="M405.98,278.079v-44.155l-38.403-5.917c-2.775-11.096-7.16-21.554-12.894-31.109l21.994-30.364  l-31.222-31.222l-30.363,21.994c-9.557-5.735-20.013-10.12-31.109-12.894l-5.917-37.012h-44.155l-5.917,37.012  c-11.096,2.775-21.554,7.16-31.109,12.894l-30.364-21.994l-31.222,31.222l21.994,30.364c-5.735,9.557-10.119,20.013-12.894,31.109  l-37.547,6.272v44.155l37.547,5.561c2.775,11.096,7.16,21.554,12.894,31.109l-21.994,30.363l31.222,31.222l30.364-21.994  c9.557,5.735,20.013,10.12,31.109,12.894l5.917,37.012h44.155l5.917-37.012c11.096-2.775,21.554-7.16,31.109-12.894l30.363,21.994  l31.222-31.222l-21.994-30.363c5.735-9.556,10.12-20.013,12.894-31.109L405.98,278.079z M255.987,340.13  c-46.463,0-84.128-37.665-84.128-84.128s37.665-84.129,84.128-84.129s84.128,37.665,84.128,84.128S302.45,340.13,255.987,340.13z"/>
<circle style="fill:#FDB845;" cx="255.987" cy="255.999" r="39.028"/>
<path d="M511.975,425.795V120.297c0.004-0.13-0.003-0.261,0-0.392c0-0.013,0-0.025,0-0.038v-2.923  c0.309-15.308-5.536-29.886-16.464-41.06c-11.265-11.518-26.95-18.124-43.032-18.124h-342.96  C99.537,39.809,80.38,27.63,58.424,27.63C26.21,27.632,0,53.841,0,86.057v308.867v0.168c0,32.614,26.538,59.147,59.157,59.147  h344.155c9.982,17.951,29.138,30.13,51.094,30.13c15.607,0,30.773-6.418,41.609-17.607  C506.759,455.668,512.423,441.125,511.975,425.795z M116.263,77.762h336.216c10.734,0,21.208,4.414,28.734,12.108  c7.163,7.323,10.985,16.822,10.765,26.749c-0.001,0.074-0.002,0.148-0.002,0.222v0.238v2.646  c-0.607,19.742-17.434,35.779-37.57,35.779c-21.188,0-38.426-17.238-38.426-38.426c0-5.523-4.478-10-10-10s-10,4.477-10,10v105.188  l-20.51-3.16c-2.295-7.441-5.282-14.645-8.931-21.534l18.233-25.172c2.883-3.979,2.447-9.463-1.027-12.937l-31.222-31.221  c-3.474-3.475-8.958-3.91-12.937-1.028l-25.172,18.233c-6.901-3.655-14.118-6.646-21.572-8.943l-4.905-30.685  c-0.776-4.852-4.962-8.421-9.875-8.421H233.91c-4.913,0-9.099,3.57-9.875,8.421l-4.905,30.685  c-7.454,2.296-14.671,5.288-21.572,8.943l-25.172-18.233c-3.98-2.882-9.463-2.447-12.937,1.028l-31.222,31.221  c-3.475,3.475-3.91,8.958-1.027,12.937l18.233,25.172c-3.662,6.915-6.659,14.149-8.957,21.62l-19.627,3.279V86.057  c0-0.896-0.027-1.789-0.068-2.68c-0.011-0.236-0.024-0.471-0.037-0.706c-0.043-0.752-0.1-1.502-0.171-2.249  c-0.014-0.146-0.024-0.293-0.039-0.439C116.457,79.24,116.368,78.5,116.263,77.762z M346.584,320.971l16.991,23.456l-19.162,19.162  l-23.456-16.991c-3.243-2.349-7.576-2.537-11.011-0.476c-8.849,5.311-18.4,9.27-28.391,11.767c-3.886,0.972-6.816,4.168-7.449,8.122  l-4.57,28.592h-27.099l-4.57-28.592c-0.633-3.955-3.563-7.151-7.449-8.122c-9.99-2.499-19.542-6.458-28.391-11.767  c-3.434-2.061-7.767-1.875-11.011,0.476l-23.456,16.991L148.4,344.427l16.991-23.456c2.35-3.244,2.537-7.577,0.476-11.011  c-5.311-8.849-9.27-18.4-11.768-28.391c-0.981-3.926-4.233-6.873-8.236-7.466l-29.013-4.297v-27.06l29.195-4.877  c3.926-0.656,7.088-3.576,8.054-7.437c2.499-9.991,6.458-19.542,11.768-28.391c2.061-3.435,1.874-7.768-0.476-11.011L148.4,167.574  l19.162-19.162l23.456,16.991c3.244,2.349,7.577,2.538,11.011,0.476c8.849-5.311,18.4-9.27,28.391-11.767  c3.886-0.972,6.816-4.168,7.449-8.122l4.57-28.592h27.099l4.57,28.592c0.633,3.955,3.564,7.151,7.449,8.122  c9.99,2.499,19.542,6.458,28.391,11.767c3.433,2.062,7.768,1.874,11.011-0.476l23.456-16.991l19.162,19.162l-16.991,23.457  c-2.35,3.244-2.537,7.577-0.476,11.011c5.31,8.849,9.27,18.4,11.768,28.391c0.977,3.905,4.2,6.844,8.179,7.457l29.926,4.611v27.001  l-29.927,4.611c-3.978,0.613-7.202,3.552-8.179,7.457c-2.499,9.991-6.458,19.542-11.768,28.391  C344.047,313.394,344.234,317.727,346.584,320.971z M19.999,86.057c0-21.188,17.237-38.426,38.426-38.426  c15.996,0,29.737,9.828,35.512,23.76c0.023,0.058,0.036,0.118,0.06,0.175c0.703,1.708,1.275,3.453,1.72,5.228  c0.029,0.118,0.054,0.238,0.082,0.356c0.112,0.467,0.219,0.935,0.313,1.406c0.047,0.237,0.085,0.478,0.128,0.716  c0.066,0.365,0.133,0.729,0.188,1.096c0.049,0.332,0.087,0.667,0.128,1.001c0.035,0.287,0.076,0.572,0.105,0.86  c0.041,0.414,0.068,0.833,0.095,1.251c0.014,0.217,0.036,0.432,0.047,0.65c0.032,0.638,0.049,1.28,0.049,1.927v148.223v44.155  v72.514c-7.895-6.907-17.663-11.715-28.428-13.58v-205.43c0-5.523-4.477-10-10-10c-5.522,0-10,4.477-10,10v205.43  c-0.431,0.075-0.862,0.152-1.29,0.236c-0.399,0.078-0.794,0.164-1.189,0.251c-0.514,0.112-1.025,0.229-1.533,0.355  c-0.396,0.098-0.79,0.2-1.183,0.306c-0.502,0.135-1,0.277-1.496,0.426c-0.389,0.116-0.776,0.234-1.162,0.358  c-0.495,0.159-0.985,0.328-1.474,0.5c-0.376,0.132-0.751,0.263-1.124,0.402c-0.497,0.186-0.987,0.384-1.477,0.583  c-0.354,0.144-0.71,0.284-1.061,0.435c-0.516,0.222-1.024,0.458-1.533,0.694c-0.314,0.146-0.631,0.285-0.942,0.436  c-0.605,0.294-1.201,0.606-1.794,0.92c-0.205,0.109-0.414,0.209-0.618,0.32c-0.79,0.431-1.569,0.879-2.336,1.345  c-0.215,0.13-0.423,0.271-0.636,0.404c-0.551,0.344-1.101,0.69-1.639,1.052c-0.284,0.191-0.56,0.392-0.841,0.587  c-0.458,0.319-0.916,0.639-1.364,0.971c-0.297,0.22-0.587,0.448-0.88,0.674c-0.421,0.324-0.84,0.649-1.252,0.984  c-0.295,0.24-0.584,0.486-0.873,0.731c-0.242,0.205-0.491,0.402-0.73,0.611V86.057H19.999z M396.569,434.241H59.157  c-21.592,0-39.158-17.562-39.158-39.148v-0.168c0-21.188,17.237-38.426,38.426-38.426s38.427,17.238,38.427,38.426  c0,5.523,4.478,10,10,10c5.522,0,10-4.477,10-10V290.024l19.666,2.913c2.293,7.426,5.276,14.617,8.918,21.494l-18.233,25.172  c-2.883,3.979-2.447,9.463,1.027,12.937l31.222,31.221c3.475,3.475,8.959,3.91,12.937,1.028l25.172-18.233  c6.901,3.655,14.118,6.646,21.572,8.943l4.905,30.685c0.776,4.852,4.962,8.421,9.875,8.421h44.154c4.913,0,9.099-3.57,9.875-8.421  l4.905-30.685c7.454-2.296,14.671-5.288,21.572-8.943l25.172,18.233c3.98,2.883,9.464,2.446,12.937-1.028l31.222-31.221  c3.475-3.475,3.91-8.958,1.027-12.937l-18.233-25.172c3.648-6.889,6.636-14.093,8.931-21.534l20.51-3.16v136.208  c0,0.897,0.028,1.789,0.068,2.68c0.011,0.236,0.024,0.471,0.038,0.706c0.043,0.752,0.099,1.501,0.171,2.249  c0.014,0.146,0.024,0.293,0.039,0.439C396.374,432.761,396.463,433.503,396.569,434.241z M481.648,452.85  c-7.195,7.43-16.869,11.521-27.243,11.521c-15.985,0-29.717-9.814-35.499-23.73c-0.026-0.068-0.043-0.139-0.071-0.207  c-0.705-1.712-1.28-3.462-1.725-5.243c-0.022-0.089-0.041-0.18-0.062-0.27c-0.119-0.493-0.232-0.988-0.331-1.485  c-0.044-0.22-0.079-0.443-0.119-0.664c-0.069-0.381-0.139-0.761-0.197-1.145c-0.048-0.321-0.084-0.646-0.124-0.969  c-0.036-0.296-0.079-0.592-0.108-0.889c-0.041-0.409-0.067-0.823-0.094-1.236c-0.015-0.221-0.037-0.441-0.048-0.663  c-0.032-0.638-0.049-1.28-0.049-1.926V278.079v-44.155v-72.869c7.686,6.724,17.144,11.468,27.571,13.435v205.574  c0,5.523,4.478,10,10,10c5.522,0,10-4.477,10-10v-205.29c10.24-1.619,19.82-5.949,27.845-12.622  c0.192-0.159,0.391-0.311,0.582-0.473v264.266c0,0.107,0.002,0.214,0.005,0.321C492.3,436.198,488.63,445.64,481.648,452.85z"/>
<path d="M255.987,161.873c-51.901,0-94.127,42.225-94.127,94.127s42.226,94.127,94.127,94.127s94.127-42.226,94.127-94.127  S307.889,161.873,255.987,161.873z M255.987,330.13c-40.874,0-74.128-33.254-74.128-74.128s33.254-74.129,74.128-74.129  s74.128,33.254,74.128,74.128S296.862,330.13,255.987,330.13z"/>
<path d="M255.987,206.975c-27.033,0-49.026,21.993-49.026,49.026s21.993,49.026,49.026,49.026s49.026-21.993,49.026-49.026  C305.013,228.968,283.02,206.975,255.987,206.975z M255.987,285.028c-16.005,0-29.027-13.021-29.027-29.027  c0-16.005,13.021-29.027,29.027-29.027c16.005,0,29.027,13.021,29.027,29.027S271.993,285.028,255.987,285.028z"/>
<g>
</g>
<g>
</g>
<g>
</g>
<g>
</g>
<g>
</g>
<g>
</g>
<g>
</g>
<g>
</g>
<g>
</g>
<g>
</g>
<g>
</g>
<g>
</g>
<g>
</g>
<g>
</g>
<g>
</g>
</svg>
