<?xml version="1.0" encoding="iso-8859-1"?>
<!-- Generator: Adobe Illustrator 19.0.0, SVG Export Plug-In . SVG Version: 6.00 Build 0)  -->
<svg xmlns="http://www.w3.org/2000/svg" xmlns:xlink="http://www.w3.org/1999/xlink" version="1.1" id="Capa_1" x="0px" y="0px" viewBox="0 0 511.998 511.998" style="enable-background:new 0 0 511.998 511.998;" xml:space="preserve">
<rect x="104.62" y="83.33" style="fill:#BFDEFF;" width="302.77" height="340.36"/>
<g>
	<path style="fill:#076893;" d="M407.379,83.325h-302.76V55.307c0-25.023,20.285-45.307,45.307-45.307h212.146   c25.022,0,45.307,20.285,45.307,45.307V83.325z"/>
	<path style="fill:#076893;" d="M362.072,501.998H149.926c-25.022,0-45.307-20.285-45.307-45.307V423.69H407.38v33.001   C407.379,481.713,387.095,501.998,362.072,501.998z"/>
</g>
<path style="fill:#FDB845;" d="M407.382,182.984V324.03c-0.201,0.11-0.391,0.211-0.591,0.301  c-10.608,5.284-22.57,8.262-35.224,8.262c-43.686,0-79.091-35.404-79.091-79.081c0-43.687,35.404-79.091,79.091-79.091  c12.654,0,24.616,2.978,35.224,8.262C406.991,182.774,407.182,182.874,407.382,182.984z"/>
<path style="fill:#676767;" d="M397.882,148.601l-5.562-34.796h-41.51l-5.562,34.796c-10.432,2.609-20.263,6.731-29.247,12.123  l-28.545-20.677l-29.352,29.352l20.677,28.545c-5.392,8.984-9.514,18.815-12.123,29.247l-34.796,5.562v41.511l34.796,5.562  c2.609,10.432,6.731,20.263,12.123,29.247l-20.677,28.545l29.352,29.352l28.545-20.677c8.984,5.392,18.815,9.514,29.247,12.123  l5.562,34.796h41.511l5.562-34.796c3.026-0.757,5.994-1.655,9.5-2.661V324.03c-0.201,0.11-0.391,0.211-0.591,0.301  c-10.608,5.284-22.57,8.262-35.224,8.262c-43.686,0-79.091-35.404-79.091-79.081c0-43.687,35.404-79.091,79.091-79.091  c12.654,0,24.616,2.978,35.224,8.262c0.201,0.09,0.391,0.191,0.591,0.301v-31.723C403.876,150.256,400.908,149.357,397.882,148.601z  "/>
<path style="fill:#4184B2;" d="M407.382,245.541v15.943c-3.64,16.424-18.289,28.716-35.815,28.716  c-20.264,0-36.688-16.434-36.688-36.688c0-20.264,16.424-36.698,36.688-36.698C389.094,216.815,403.743,229.107,407.382,245.541z"/>
<path d="M417.379,83.271V55.307C417.379,24.81,392.569,0,362.072,0H149.926c-30.497,0-55.307,24.81-55.307,55.307v27.964  c0,0.02-0.003,0.038-0.003,0.058v340.357c0,0.02,0.003,0.038,0.003,0.058v32.947c0,30.497,24.811,55.307,55.307,55.307h212.146  c30.497,0,55.307-24.81,55.307-55.307v-32.947c0-0.02,0.003-0.038,0.003-0.058v-67.932V324.03v-62.547v-15.942v-62.557v-31.723  V83.329C417.382,83.309,417.379,83.29,417.379,83.271z M397.382,105.181c-1.493-0.877-3.226-1.376-5.062-1.376h-41.51  c-4.914,0-9.099,3.57-9.875,8.421l-4.553,28.479c-6.799,2.118-13.387,4.849-19.698,8.166l-23.362-16.923  c-3.978-2.882-9.463-2.447-12.937,1.028l-29.353,29.352c-3.474,3.475-3.91,8.958-1.027,12.938l16.923,23.362  c-3.316,6.311-6.047,12.899-8.165,19.698l-28.479,4.552c-4.852,0.775-8.421,4.961-8.421,9.874v41.51c0,4.914,3.57,9.099,8.421,9.875  l28.479,4.552c2.118,6.799,4.849,13.387,8.165,19.698l-16.923,23.362c-2.882,3.979-2.447,9.463,1.027,12.938l29.353,29.353  c3.474,3.474,8.958,3.909,12.937,1.027l23.362-16.923c6.311,3.316,12.899,6.047,19.698,8.165l4.553,28.48  c0.775,4.852,4.961,8.421,9.875,8.421h41.511c1.836,0,3.569-0.499,5.062-1.376v11.851H162.845V205.129c0-5.523-4.477-10-10-10  s-10,4.477-10,10v208.557h-28.229V93.329h282.767v11.852H397.382z M394.309,167.342c-0.128-0.034-0.258-0.063-0.387-0.096  c-0.827-0.214-1.658-0.416-2.491-0.606c-0.31-0.071-0.621-0.136-0.932-0.204c-0.676-0.146-1.354-0.285-2.033-0.415  c-0.322-0.062-0.644-0.124-0.966-0.182c-0.769-0.139-1.541-0.266-2.315-0.384c-0.208-0.032-0.414-0.068-0.622-0.099  c-0.976-0.142-1.956-0.267-2.94-0.377c-0.252-0.028-0.505-0.049-0.757-0.076c-0.745-0.076-1.491-0.145-2.239-0.203  c-0.331-0.026-0.663-0.048-0.995-0.07c-0.708-0.047-1.417-0.085-2.128-0.115c-0.308-0.013-0.616-0.029-0.924-0.039  c-1.001-0.033-2.005-0.054-3.012-0.054c-49.125,0-89.091,39.966-89.091,89.091c0,49.12,39.966,89.081,89.091,89.081  c1.007,0,2.011-0.021,3.012-0.054c0.309-0.01,0.616-0.026,0.924-0.039c0.711-0.03,1.42-0.068,2.128-0.115  c0.332-0.022,0.664-0.045,0.995-0.07c0.749-0.058,1.495-0.127,2.239-0.203c0.252-0.026,0.505-0.048,0.757-0.076  c0.983-0.11,1.964-0.235,2.94-0.377c0.208-0.03,0.415-0.067,0.622-0.098c0.774-0.118,1.546-0.245,2.315-0.384  c0.323-0.058,0.644-0.12,0.966-0.182c0.68-0.13,1.357-0.269,2.033-0.415c0.311-0.067,0.622-0.133,0.932-0.204  c0.833-0.19,1.664-0.392,2.491-0.606c0.129-0.033,0.258-0.062,0.387-0.096c0.948-0.25,1.892-0.519,2.832-0.801  c0.08-0.024,0.161-0.044,0.242-0.068v9.407c-0.649,0.176-1.288,0.343-1.927,0.503c-3.885,0.972-6.816,4.168-7.448,8.122  l-4.216,26.375h-24.454l-4.216-26.375c-0.632-3.955-3.563-7.151-7.448-8.122c-9.335-2.335-18.26-6.034-26.527-10.996  c-3.435-2.062-7.769-1.874-11.012,0.475l-21.638,15.674l-17.292-17.291l15.674-21.638c2.35-3.244,2.537-7.577,0.476-11.012  c-4.961-8.268-8.661-17.193-10.996-26.527c-0.972-3.885-4.168-6.816-8.123-7.448l-26.374-4.216v-24.454l26.374-4.216  c3.955-0.632,7.151-3.563,8.123-7.448c2.334-9.335,6.034-18.26,10.996-26.527c2.062-3.435,1.874-7.768-0.476-11.012l-15.674-21.638  l17.292-17.292l21.638,15.674c3.242,2.35,7.577,2.536,11.012,0.476c8.268-4.961,17.193-8.661,26.527-10.996  c3.885-0.972,6.816-4.168,7.448-8.122l4.216-26.374h24.454l4.216,26.374c0.632,3.955,3.563,7.15,7.448,8.122  c0.639,0.16,1.278,0.327,1.927,0.503v9.407c-0.08-0.024-0.161-0.044-0.242-0.068C396.201,167.861,395.257,167.592,394.309,167.342z   M397.382,260.299c-3.041,11.591-13.738,19.901-25.815,19.901c-14.715,0-26.688-11.972-26.688-26.688  c0-14.721,11.972-26.698,26.688-26.698c12.078,0,22.775,8.314,25.815,19.91V260.299z M371.567,206.814  c-25.744,0-46.688,20.949-46.688,46.698c0,25.744,20.944,46.688,46.688,46.688c9.407,0,18.334-2.889,25.815-7.881v25.285  c-0.062,0.025-0.124,0.052-0.185,0.076c-0.887,0.356-1.779,0.691-2.677,1.008c-0.18,0.064-0.361,0.125-0.541,0.187  c-0.927,0.319-1.859,0.624-2.797,0.902c-0.036,0.01-0.071,0.02-0.107,0.03c-0.919,0.271-1.845,0.517-2.774,0.748  c-0.172,0.043-0.343,0.087-0.515,0.129c-0.925,0.223-1.855,0.425-2.789,0.609c-0.183,0.036-0.366,0.069-0.549,0.104  c-0.967,0.182-1.938,0.35-2.915,0.49c-0.018,0.003-0.036,0.004-0.054,0.007c-0.966,0.138-1.938,0.249-2.913,0.347  c-0.182,0.018-0.363,0.038-0.545,0.054c-0.955,0.087-1.914,0.155-2.877,0.204c-0.188,0.009-0.377,0.016-0.566,0.024  c-1,0.042-2.003,0.07-3.011,0.07c-38.097,0-69.091-30.99-69.091-69.081c0-38.097,30.994-69.091,69.091-69.091  c1.008,0,2.011,0.028,3.011,0.07c0.189,0.008,0.378,0.014,0.566,0.024c0.963,0.048,1.922,0.116,2.877,0.204  c0.182,0.017,0.363,0.036,0.545,0.054c0.975,0.097,1.947,0.209,2.913,0.346c0.018,0.003,0.036,0.004,0.054,0.007  c0.977,0.14,1.948,0.308,2.915,0.49c0.183,0.035,0.367,0.068,0.549,0.104c0.934,0.184,1.864,0.386,2.789,0.609  c0.172,0.041,0.343,0.086,0.515,0.129c0.929,0.231,1.855,0.478,2.774,0.748c0.036,0.011,0.071,0.02,0.107,0.03  c0.938,0.278,1.87,0.583,2.797,0.902c0.18,0.062,0.361,0.123,0.541,0.187c0.898,0.317,1.79,0.653,2.677,1.008  c0.062,0.025,0.124,0.051,0.185,0.076v25.286C389.901,209.704,380.974,206.814,371.567,206.814z M114.619,55.307  c0-19.468,15.839-35.307,35.307-35.307h212.146c19.468,0,35.307,15.839,35.307,35.307v18.018h-282.76V55.307z M397.379,456.691  c0,19.468-15.839,35.307-35.307,35.307H149.926c-19.468,0-35.307-15.839-35.307-35.307v-23H397.38L397.379,456.691L397.379,456.691z  "/>
<path d="M152.849,179.449c-0.66,0-1.31-0.07-1.96-0.2c-0.64-0.13-1.27-0.32-1.87-0.57c-0.6-0.25-1.18-0.56-1.73-0.92  c-0.54-0.36-1.05-0.78-1.52-1.24c-0.46-0.46-0.87-0.98-1.24-1.52c-0.36-0.55-0.67-1.13-0.92-1.73c-0.25-0.6-0.44-1.23-0.57-1.87  s-0.19-1.3-0.19-1.95c0-0.66,0.06-1.31,0.19-1.96c0.13-0.64,0.32-1.27,0.57-1.87c0.25-0.6,0.56-1.18,0.92-1.73  c0.37-0.54,0.78-1.05,1.24-1.52c0.47-0.46,0.98-0.87,1.52-1.24c0.55-0.36,1.13-0.67,1.73-0.92c0.6-0.25,1.23-0.44,1.87-0.57  c1.29-0.26,2.62-0.26,3.91,0c0.64,0.13,1.27,0.32,1.87,0.57c0.6,0.25,1.18,0.56,1.73,0.92c0.54,0.37,1.06,0.78,1.52,1.24  c1.86,1.87,2.93,4.44,2.93,7.08c0,0.65-0.07,1.31-0.2,1.95c-0.13,0.64-0.32,1.27-0.57,1.87c-0.25,0.6-0.56,1.18-0.92,1.73  c-0.36,0.54-0.78,1.06-1.24,1.52s-0.98,0.88-1.52,1.24c-0.55,0.36-1.13,0.67-1.73,0.92c-0.6,0.25-1.23,0.44-1.87,0.57  C154.149,179.379,153.499,179.449,152.849,179.449z"/>
<path d="M281.193,58.446H195.12c-5.523,0-10-4.477-10-10s4.477-10,10-10h86.073c5.523,0,10,4.477,10,10  S286.716,58.446,281.193,58.446z"/>
<path d="M316.879,58.449c-0.65,0-1.31-0.07-1.95-0.2s-1.27-0.32-1.88-0.57c-0.6-0.25-1.18-0.56-1.72-0.92  c-0.55-0.36-1.06-0.78-1.52-1.24c-0.461-0.46-0.88-0.97-1.25-1.52c-0.36-0.54-0.66-1.13-0.91-1.73s-0.45-1.23-0.58-1.87  c-0.13-0.64-0.19-1.3-0.19-1.95s0.06-1.31,0.19-1.96c0.13-0.63,0.33-1.26,0.58-1.87c0.25-0.6,0.55-1.18,0.91-1.72  c0.37-0.55,0.789-1.06,1.25-1.52c0.46-0.47,0.97-0.88,1.52-1.25c0.54-0.36,1.12-0.67,1.72-0.92c0.61-0.25,1.24-0.44,1.88-0.57  c3.25-0.65,6.7,0.41,9.02,2.74c0.46,0.46,0.88,0.97,1.24,1.52c0.36,0.54,0.67,1.12,0.92,1.72c0.25,0.61,0.44,1.24,0.57,1.87  c0.13,0.65,0.2,1.31,0.2,1.96s-0.07,1.31-0.2,1.95s-0.32,1.27-0.57,1.87s-0.56,1.19-0.92,1.73c-0.36,0.55-0.78,1.06-1.24,1.52  s-0.97,0.88-1.52,1.24c-0.54,0.36-1.12,0.67-1.73,0.92c-0.6,0.25-1.23,0.44-1.87,0.57C318.189,58.379,317.529,58.449,316.879,58.449  z"/>
<path d="M276.052,472.844h-40.106c-5.523,0-10-4.477-10-10s4.477-10,10-10h40.106c5.523,0,10,4.477,10,10  S281.575,472.844,276.052,472.844z"/>
<g>
</g>
<g>
</g>
<g>
</g>
<g>
</g>
<g>
</g>
<g>
</g>
<g>
</g>
<g>
</g>
<g>
</g>
<g>
</g>
<g>
</g>
<g>
</g>
<g>
</g>
<g>
</g>
<g>
</g>
</svg>
