<?xml version="1.0" encoding="iso-8859-1"?>
<!-- Generator: Adobe Illustrator 19.0.0, SVG Export Plug-In . SVG Version: 6.00 Build 0)  -->
<svg xmlns="http://www.w3.org/2000/svg" xmlns:xlink="http://www.w3.org/1999/xlink" version="1.1" id="Capa_1" x="0px" y="0px" viewBox="0 0 512 512" style="enable-background:new 0 0 512 512;" xml:space="preserve">
<path style="fill:#676767;" d="M43.577,361.439H23c-7.18,0-13-5.82-13-13v-96.384c0-7.18,5.82-13,13-13h20.577V361.439z"/>
<path style="fill:#076893;" d="M314.705,398.846H73.702c-16.638,0-30.125-13.488-30.125-30.125V248.717  c0-74.87,60.694-135.564,135.564-135.564l0,0c74.87,0,135.564,60.694,135.564,135.564V398.846z"/>
<path d="M279.13,358.59c-0.65,0-1.311-0.07-1.96-0.2c-0.64-0.12-1.26-0.32-1.87-0.57c-0.6-0.25-1.18-0.55-1.72-0.92  c-0.55-0.359-1.061-0.779-1.521-1.239c-0.46-0.46-0.88-0.971-1.25-1.521c-0.359-0.54-0.67-1.12-0.92-1.729  c-0.25-0.601-0.439-1.23-0.57-1.87c-0.13-0.641-0.189-1.3-0.189-1.95c0-0.65,0.06-1.311,0.189-1.95c0.131-0.64,0.32-1.27,0.57-1.87  c0.25-0.609,0.561-1.189,0.92-1.729c0.37-0.55,0.79-1.061,1.25-1.521s0.971-0.88,1.521-1.239c0.54-0.36,1.12-0.671,1.72-0.921  c0.61-0.25,1.24-0.44,1.87-0.569c1.29-0.26,2.62-0.26,3.91,0c0.64,0.13,1.27,0.319,1.87,0.569c0.609,0.25,1.189,0.56,1.729,0.921  c0.55,0.359,1.061,0.779,1.521,1.239c0.46,0.46,0.88,0.971,1.239,1.521c0.36,0.54,0.67,1.12,0.92,1.729  c0.25,0.601,0.44,1.23,0.57,1.87c0.13,0.64,0.2,1.3,0.2,1.95c0,2.63-1.07,5.21-2.93,7.07c-0.46,0.46-0.971,0.88-1.521,1.239  c-0.54,0.37-1.12,0.67-1.729,0.92c-0.601,0.25-1.23,0.45-1.87,0.57C280.44,358.52,279.78,358.59,279.13,358.59z"/>
<circle style="fill:#FDB845;" cx="179.14" cy="256.94" r="91.78"/>
<path d="M180.065,320.771c-5.522,0-10-4.478-10-10c0-5.523,4.478-10,10-10c24.167,0,43.829-19.661,43.829-43.828  s-19.662-43.829-43.829-43.829c-12.802,0-24.939,5.603-33.302,15.371c-3.591,4.196-9.903,4.686-14.1,1.094  c-4.195-3.591-4.686-9.904-1.094-14.1c12.166-14.214,29.842-22.365,48.495-22.365c35.195,0,63.829,28.634,63.829,63.829  S215.261,320.771,180.065,320.771z"/>
<path d="M125.31,264.069c-0.649,0-1.31-0.06-1.95-0.189c-0.64-0.13-1.27-0.32-1.869-0.57c-0.61-0.25-1.19-0.56-1.73-0.92  c-0.55-0.37-1.06-0.78-1.52-1.25c-1.86-1.859-2.931-4.439-2.931-7.07c0-0.649,0.07-1.31,0.2-1.949c0.13-0.641,0.32-1.271,0.57-1.87  c0.25-0.61,0.56-1.19,0.92-1.73c0.359-0.55,0.78-1.059,1.24-1.52c0.46-0.46,0.97-0.88,1.52-1.24c0.54-0.36,1.12-0.67,1.73-0.92  c0.6-0.25,1.23-0.44,1.869-0.57c1.29-0.26,2.62-0.26,3.91,0c0.63,0.13,1.261,0.32,1.87,0.57c0.601,0.25,1.18,0.56,1.72,0.92  c0.551,0.36,1.061,0.78,1.52,1.24c0.47,0.46,0.88,0.97,1.25,1.52c0.36,0.54,0.67,1.12,0.92,1.73c0.25,0.6,0.44,1.23,0.57,1.87  s0.189,1.3,0.189,1.949c0,2.631-1.069,5.211-2.93,7.07c-0.46,0.47-0.97,0.88-1.52,1.25c-0.54,0.36-1.119,0.67-1.72,0.92  c-0.609,0.25-1.24,0.44-1.87,0.57C126.62,264.01,125.96,264.069,125.31,264.069z"/>
<rect x="314.7" y="325.01" style="fill:#BFDEFF;" width="146.29" height="73.84"/>
<rect x="461" y="306.04" style="fill:#676767;" width="41" height="92.8"/>
<path d="M502,296.043h-41c-5.522,0-10,4.478-10,10v8.963H324.705v-66.288c0-80.265-65.3-145.565-145.565-145.565  c-73.595,0-134.6,54.904-144.23,125.901H23c-12.683,0-23,10.317-23,23v96.384c0,12.683,10.317,23,23,23h10.679  c1.404,20.862,18.812,37.408,40.023,37.408h241.003H461h41c5.522,0,10-4.478,10-10v-92.804C512,300.521,507.522,296.043,502,296.043  z M20,348.439v-96.384c0-1.654,1.346-3,3-3h10.577v102.384H23C21.346,351.439,20,350.093,20,348.439z M53.577,368.721v-7.282v-2.719  h192.046c5.522,0,10-4.478,10-10s-4.478-10-10-10h-5.962c25.015-18.561,41.259-48.307,41.259-81.778  c0-56.121-45.658-101.778-101.779-101.778S77.362,200.82,77.362,256.941c0,33.471,16.243,63.217,41.258,81.778H53.577v-90.002  c0-69.236,56.328-125.565,125.564-125.565s125.564,56.328,125.564,125.565v76.288v63.841H73.702  C62.605,388.847,53.577,379.818,53.577,368.721z M97.362,256.941c0-45.093,36.686-81.778,81.778-81.778  c45.093,0,81.779,36.686,81.779,81.778s-36.686,81.778-81.779,81.778C134.048,338.72,97.362,302.034,97.362,256.941z   M324.705,335.007H451v53.841h-25.647v-24.63c0-5.522-4.478-10-10-10s-10,4.478-10,10v24.63H370.5v-24.63c0-5.522-4.478-10-10-10  s-10,4.478-10,10v24.63h-25.795V335.007z M492,388.847h-21v-63.841v-8.963h21V388.847z"/>
<g>
</g>
<g>
</g>
<g>
</g>
<g>
</g>
<g>
</g>
<g>
</g>
<g>
</g>
<g>
</g>
<g>
</g>
<g>
</g>
<g>
</g>
<g>
</g>
<g>
</g>
<g>
</g>
<g>
</g>
</svg>
