<?xml version="1.0" encoding="iso-8859-1"?>
<!-- Generator: Adobe Illustrator 19.0.0, SVG Export Plug-In . SVG Version: 6.00 Build 0)  -->
<svg xmlns="http://www.w3.org/2000/svg" xmlns:xlink="http://www.w3.org/1999/xlink" version="1.1" id="Capa_1" x="0px" y="0px" viewBox="0 0 512 512" style="enable-background:new 0 0 512 512;" xml:space="preserve">
<g>
	<path style="fill:#676767;" d="M432.304,383.082c18.28,0,34.638,8.156,45.652,21.041V83.773h-74.99v299.309H432.304z"/>
	<path style="fill:#676767;" d="M79.696,383.082h29.339V83.773h-74.99V404.12C45.057,391.235,61.417,383.082,79.696,383.082z"/>
</g>
<path d="M71.123,348.113c-0.649,0-1.3-0.059-1.949-0.189c-0.641-0.131-1.271-0.32-1.87-0.57c-0.6-0.25-1.181-0.561-1.73-0.92  c-0.54-0.37-1.06-0.79-1.52-1.25c-1.86-1.86-2.92-4.44-2.92-7.069c0-0.649,0.06-1.309,0.19-1.95c0.13-0.64,0.32-1.27,0.57-1.87  c0.25-0.609,0.56-1.189,0.92-1.729c0.36-0.55,0.78-1.061,1.24-1.521c0.46-0.46,0.979-0.88,1.52-1.239c0.55-0.36,1.13-0.67,1.73-0.92  c0.6-0.25,1.229-0.44,1.87-0.57c3.26-0.66,6.709,0.41,9.028,2.729c0.46,0.46,0.87,0.971,1.24,1.521c0.36,0.54,0.67,1.12,0.92,1.729  c0.25,0.601,0.44,1.23,0.57,1.87c0.13,0.641,0.189,1.301,0.189,1.95c0,2.63-1.06,5.21-2.92,7.069  C76.344,347.042,73.764,348.113,71.123,348.113z"/>
<path d="M440.055,348.113c-0.659,0-1.31-0.059-1.96-0.189c-0.64-0.131-1.26-0.32-1.869-0.57c-0.601-0.25-1.181-0.561-1.73-0.92  c-0.54-0.37-1.06-0.79-1.52-1.25c-1.86-1.86-2.931-4.44-2.931-7.069c0-0.649,0.07-1.309,0.2-1.95c0.13-0.64,0.32-1.27,0.57-1.87  c0.25-0.609,0.56-1.189,0.92-1.729c0.359-0.55,0.78-1.061,1.24-1.521c0.46-0.46,0.979-0.88,1.52-1.239  c0.55-0.36,1.13-0.67,1.73-0.92c0.609-0.25,1.229-0.44,1.869-0.57c1.29-0.26,2.62-0.26,3.91,0c0.641,0.13,1.271,0.32,1.87,0.57  c0.601,0.25,1.18,0.56,1.73,0.92c0.54,0.359,1.06,0.779,1.52,1.239c0.46,0.46,0.88,0.971,1.24,1.521c0.36,0.54,0.67,1.12,0.92,1.729  c0.25,0.601,0.44,1.23,0.57,1.87c0.13,0.641,0.199,1.301,0.199,1.95c0,2.63-1.069,5.21-2.93,7.069c-0.46,0.46-0.979,0.88-1.52,1.25  c-0.551,0.359-1.13,0.67-1.73,0.92c-0.6,0.25-1.229,0.439-1.87,0.57C441.366,348.053,440.706,348.113,440.055,348.113z"/>
<rect x="34.047" y="9.999" style="fill:#939393;" width="443.915" height="73.774"/>
<path d="M430.135,54.286c-0.659,0-1.31-0.07-1.96-0.2c-0.64-0.13-1.27-0.32-1.87-0.57c-0.6-0.25-1.18-0.56-1.729-0.92  c-0.54-0.359-1.06-0.78-1.521-1.24c-1.859-1.869-2.93-4.44-2.93-7.068c0-0.66,0.07-1.311,0.2-1.96c0.13-0.641,0.32-1.271,0.57-1.87  c0.25-0.601,0.559-1.181,0.92-1.73c0.359-0.54,0.779-1.05,1.239-1.52c0.461-0.46,0.98-0.87,1.521-1.24  c0.55-0.36,1.13-0.67,1.729-0.92c0.601-0.25,1.23-0.44,1.87-0.57c3.25-0.649,6.699,0.41,9.02,2.73c0.47,0.46,0.88,0.979,1.25,1.52  c0.359,0.55,0.67,1.13,0.92,1.73c0.25,0.6,0.439,1.229,0.57,1.87c0.13,0.649,0.189,1.3,0.189,1.96c0,0.649-0.06,1.3-0.189,1.95  c-0.131,0.64-0.32,1.27-0.57,1.869c-0.25,0.601-0.561,1.181-0.92,1.73c-0.37,0.55-0.78,1.06-1.25,1.52  C435.336,53.216,432.755,54.286,430.135,54.286z"/>
<path style="fill:#BFBFBF;" d="M432.304,501.961H79.696c-33.163,1.217-60.047-25.668-60.047-58.831l0,0  c0-33.163,26.884-60.047,60.047-60.047h352.608c33.163,0,60.047,26.884,60.047,60.047l0,0  C492.352,476.293,465.468,503.178,432.304,501.961z"/>
<circle style="fill:#076893;" cx="90.373" cy="443.125" r="32.068"/>
<path d="M90.369,485.195c-23.195,0-42.066-18.871-42.066-42.066s18.871-42.066,42.066-42.066s42.066,18.871,42.066,42.066  S113.564,485.195,90.369,485.195z M90.369,421.062c-12.168,0-22.067,9.899-22.067,22.067s9.899,22.067,22.067,22.067  s22.067-9.899,22.067-22.067S102.536,421.062,90.369,421.062z"/>
<circle style="fill:#076893;" cx="201.124" cy="443.125" r="32.068"/>
<path d="M201.122,485.195c-23.195,0-42.066-18.871-42.066-42.066s18.871-42.066,42.066-42.066s42.066,18.871,42.066,42.066  C243.189,466.325,224.317,485.195,201.122,485.195z M201.122,421.062c-12.168,0-22.067,9.899-22.067,22.067  s9.899,22.067,22.067,22.067c12.168,0,22.067-9.899,22.067-22.067C223.191,430.961,213.29,421.062,201.122,421.062z"/>
<circle style="fill:#076893;" cx="310.876" cy="443.125" r="32.068"/>
<path d="M310.877,485.195c-23.194,0-42.065-18.871-42.065-42.066s18.871-42.066,42.065-42.066c23.195,0,42.066,18.871,42.066,42.066  S334.072,485.195,310.877,485.195z M310.877,421.062c-12.168,0-22.066,9.899-22.066,22.067s9.898,22.067,22.066,22.067  s22.067-9.899,22.067-22.067S323.045,421.062,310.877,421.062z"/>
<circle style="fill:#076893;" cx="421.627" cy="443.125" r="32.068"/>
<path d="M421.631,485.195c-23.195,0-42.067-18.871-42.067-42.066s18.872-42.066,42.067-42.066c23.195,0,42.066,18.871,42.066,42.066  C463.698,466.325,444.827,485.195,421.631,485.195z M421.631,421.062c-12.169,0-22.068,9.899-22.068,22.067  s9.899,22.067,22.068,22.067c12.168,0,22.067-9.899,22.067-22.067C443.699,430.961,433.799,421.062,421.631,421.062z"/>
<rect x="198.234" y="83.773" style="fill:#FDB845;" width="115.531" height="95.613"/>
<polygon style="fill:#C69F7F;" points="363.763,244.992 148.237,244.992 168.236,179.381 343.764,179.381 "/>
<rect x="148.238" y="297.477" style="fill:#4184B2;" width="215.523" height="85.613"/>
<path d="M487.956,400.659V83.772V9.999c0-5.523-4.477-9.999-9.999-9.999H34.043c-5.522,0-9.999,4.477-9.999,9.999v73.773v316.886  c-9.02,11.792-14.395,26.512-14.395,42.471c0,18.817,7.697,37.029,21.12,49.968c13.269,12.793,30.686,19.482,49.104,18.863h352.253  c0.789,0.026,1.575,0.04,2.36,0.04c17.528,0,34.042-6.657,46.744-18.903c13.423-12.938,21.12-31.151,21.12-49.968  C502.351,427.171,496.976,412.451,487.956,400.659z M456.118,377.257c-0.993-0.359-1.991-0.704-3.001-1.018  c-0.017-0.005-0.034-0.01-0.051-0.015c-0.937-0.29-1.882-0.555-2.831-0.806c-0.309-0.082-0.618-0.161-0.928-0.238  c-0.824-0.206-1.651-0.399-2.484-0.575c-0.237-0.05-0.473-0.102-0.711-0.149c-0.887-0.178-1.778-0.335-2.674-0.479  c-0.331-0.053-0.663-0.103-0.996-0.152c-0.888-0.13-1.78-0.245-2.675-0.341c-0.14-0.015-0.278-0.034-0.419-0.048  c-1.007-0.102-2.02-0.174-3.035-0.232c-0.278-0.016-0.556-0.03-0.835-0.042c-1.056-0.048-2.115-0.081-3.177-0.081h-0.001h-19.338  V93.772h17.088v208.756c0,5.522,4.478,9.999,9.999,9.999c5.522,0,9.999-4.478,9.999-9.999V93.772h17.906v289.055  c-3.615-2.139-7.417-3.938-11.355-5.394C456.441,377.375,456.28,377.316,456.118,377.257z M373.761,373.082v-75.609  c0-5.522-4.478-9.999-9.999-9.999H148.237c-5.522,0-9.999,4.478-9.999,9.999v75.609h-19.205V93.772h69.202v75.61h-19.998  c-4.399,0-8.281,2.876-9.564,7.083l-19.998,65.61c-0.924,3.031-0.356,6.321,1.529,8.866c1.886,2.547,4.867,4.049,8.035,4.049  h215.524c3.169,0,6.15-1.502,8.035-4.049c1.886-2.546,2.453-5.836,1.529-8.866l-19.998-65.61c-1.283-4.208-5.166-7.083-9.564-7.083  h-19.998v-75.61h69.202v279.31H373.761z M353.762,373.082H158.237v-65.61h195.526V373.082z M79.696,373.082  c-1.064,0-2.123,0.033-3.18,0.081c-0.277,0.013-0.553,0.026-0.829,0.042c-1.025,0.059-2.048,0.131-3.065,0.234  c-0.122,0.012-0.242,0.03-0.364,0.043c-0.911,0.097-1.817,0.215-2.72,0.347c-0.321,0.047-0.641,0.095-0.96,0.146  c-0.932,0.149-1.861,0.312-2.784,0.499c-0.179,0.036-0.357,0.076-0.537,0.114c-0.874,0.184-1.742,0.387-2.607,0.603  c-0.283,0.071-0.566,0.143-0.847,0.218c-2.024,0.534-4.02,1.159-5.983,1.87c-0.122,0.044-0.243,0.089-0.365,0.134  c-3.959,1.46-7.78,3.266-11.414,5.416V93.772H61.13v208.756c0,5.522,4.478,9.999,9.999,9.999c5.522,0,9.999-4.478,9.999-9.999  V93.772h17.906v279.31H79.696L79.696,373.082z M198.233,189.38h115.532h22.592l13.903,45.611H161.738l13.903-45.611H198.233z   M303.766,169.382h-16.753v-31.393c0-5.523-4.477-9.999-9.999-9.999c-5.522,0-9.999,4.477-9.999,9.999v31.393h-22.031v-31.393  c0-5.523-4.478-9.999-9.999-9.999c-5.523,0-9.999,4.477-9.999,9.999v31.393h-16.753v-75.61h95.534V169.382z M467.957,19.998v53.775  h-64.991h-89.201H198.233h-89.2H44.043V54.282h350.501c5.522,0,9.999-4.477,9.999-9.999c0-5.522-4.478-9.999-9.999-9.999H44.043  V19.998H467.957z M467.352,478.7c-9.37,9.032-21.668,13.742-34.682,13.269c-0.122-0.005-0.244-0.007-0.366-0.007H79.697  c-0.122,0-0.244,0.002-0.366,0.007c-12.99,0.46-25.311-4.235-34.682-13.269c-9.673-9.325-15.001-21.958-15.001-35.57  c0-19.7,11.445-36.772,28.031-44.932c0.165-0.081,0.33-0.166,0.496-0.245c0.51-0.244,1.028-0.474,1.547-0.701  c0.292-0.127,0.583-0.255,0.877-0.376c0.442-0.183,0.889-0.357,1.338-0.528c0.384-0.146,0.77-0.288,1.158-0.424  c0.389-0.137,0.78-0.27,1.173-0.398c0.46-0.149,0.922-0.29,1.386-0.425c0.345-0.101,0.691-0.202,1.039-0.296  c0.519-0.139,1.042-0.267,1.566-0.389c0.313-0.073,0.624-0.15,0.938-0.217c0.564-0.121,1.133-0.226,1.702-0.327  c0.288-0.052,0.575-0.109,0.865-0.155c0.6-0.096,1.204-0.173,1.808-0.247c0.27-0.033,0.538-0.074,0.809-0.103  c0.644-0.069,1.293-0.115,1.942-0.159c0.236-0.016,0.47-0.041,0.708-0.054c0.881-0.047,1.766-0.072,2.654-0.072  c0.005,0,0.009,0,0.014,0h29.338h39.204h215.523h39.204h29.338c0.005,0,0.009,0,0.014,0c0.888,0,1.773,0.025,2.654,0.072  c0.235,0.012,0.466,0.038,0.699,0.053c0.652,0.044,1.305,0.091,1.953,0.16c0.264,0.028,0.525,0.068,0.788,0.101  c0.612,0.075,1.224,0.153,1.831,0.25c0.281,0.045,0.558,0.1,0.837,0.15c0.58,0.103,1.159,0.21,1.734,0.333  c0.303,0.065,0.603,0.139,0.905,0.209c0.537,0.126,1.073,0.256,1.604,0.399c0.334,0.09,0.666,0.187,0.998,0.284  c0.481,0.14,0.96,0.286,1.436,0.441c0.375,0.122,0.748,0.249,1.12,0.379c0.409,0.144,0.816,0.294,1.221,0.448  c0.427,0.163,0.852,0.329,1.273,0.503c0.321,0.132,0.639,0.271,0.957,0.41c0.492,0.216,0.983,0.434,1.467,0.665  c0.201,0.096,0.399,0.197,0.599,0.296c0.587,0.29,1.172,0.583,1.746,0.896c0.004,0.002,0.008,0.005,0.012,0.007  c15.595,8.487,26.203,25.025,26.203,43.995C482.352,456.741,477.025,469.374,467.352,478.7z"/>
<path d="M304.226,350.277h-96.452c-5.522,0-9.999-4.478-9.999-9.999s4.478-9.999,9.999-9.999h96.453  c5.522,0,9.999,4.478,9.999,9.999C314.225,345.799,309.749,350.277,304.226,350.277z"/>
<g>
</g>
<g>
</g>
<g>
</g>
<g>
</g>
<g>
</g>
<g>
</g>
<g>
</g>
<g>
</g>
<g>
</g>
<g>
</g>
<g>
</g>
<g>
</g>
<g>
</g>
<g>
</g>
<g>
</g>
</svg>
