<?xml version="1.0" encoding="iso-8859-1"?>
<!-- Generator: Adobe Illustrator 19.0.0, SVG Export Plug-In . SVG Version: 6.00 Build 0)  -->
<svg xmlns="http://www.w3.org/2000/svg" xmlns:xlink="http://www.w3.org/1999/xlink" version="1.1" id="Capa_1" x="0px" y="0px" viewBox="0 0 511.999 511.999" style="enable-background:new 0 0 511.999 511.999;" xml:space="preserve">
<g>
	<rect x="168.98" y="236.08" style="fill:#076893;" width="172.87" height="184.09"/>
</g>
<rect x="10" y="14.595" style="fill:#939393;" width="492" height="77.24"/>
<path d="M456.179,63.209c-0.65,0-1.31-0.061-1.95-0.191s-1.27-0.319-1.87-0.569c-0.61-0.25-1.19-0.561-1.73-0.921  c-0.55-0.369-1.06-0.779-1.52-1.239c-0.46-0.471-0.88-0.98-1.24-1.521c-0.36-0.55-0.67-1.13-0.92-1.729  c-0.25-0.6-0.44-1.23-0.57-1.87c-0.13-0.65-0.2-1.3-0.2-1.96c0-2.63,1.07-5.2,2.93-7.07c0.46-0.46,0.97-0.87,1.52-1.24  c0.54-0.359,1.12-0.67,1.73-0.92c0.6-0.25,1.23-0.439,1.87-0.569c1.29-0.261,2.62-0.261,3.91,0c0.63,0.13,1.26,0.319,1.87,0.569  c0.6,0.25,1.18,0.561,1.72,0.92c0.55,0.37,1.06,0.78,1.52,1.24c1.86,1.87,2.93,4.44,2.93,7.07c0,0.66-0.06,1.309-0.19,1.96  c-0.13,0.64-0.32,1.27-0.57,1.87s-0.56,1.18-0.92,1.729c-0.37,0.54-0.79,1.05-1.25,1.521  C461.389,62.149,458.81,63.209,456.179,63.209z"/>
<rect x="10" y="420.16" style="fill:#676767;" width="492" height="77.24"/>
<path d="M54.639,468.789c-0.65,0-1.309-0.07-1.95-0.2c-0.64-0.13-1.27-0.32-1.87-0.57c-0.61-0.25-1.19-0.56-1.73-0.92  c-0.55-0.37-1.06-0.78-1.52-1.24c-0.46-0.47-0.88-0.979-1.24-1.529c-0.36-0.54-0.67-1.12-0.92-1.721  c-0.25-0.6-0.44-1.229-0.57-1.869c-0.13-0.65-0.2-1.301-0.2-1.95c0-0.66,0.07-1.31,0.2-1.96c0.13-0.641,0.32-1.27,0.57-1.87  c0.25-0.601,0.56-1.181,0.92-1.73c0.36-0.54,0.78-1.06,1.24-1.52c0.46-0.46,0.97-0.88,1.52-1.24c0.54-0.36,1.12-0.67,1.73-0.92  c0.6-0.25,1.23-0.44,1.87-0.57c1.29-0.26,2.62-0.26,3.91,0c0.63,0.13,1.26,0.32,1.87,0.57c0.6,0.25,1.18,0.56,1.72,0.92  c0.55,0.36,1.06,0.78,1.52,1.24s0.88,0.979,1.25,1.52c0.36,0.55,0.67,1.13,0.92,1.73s0.44,1.229,0.57,1.87  c0.13,0.649,0.19,1.3,0.19,1.96c0,0.65-0.06,1.3-0.19,1.95c-0.13,0.64-0.32,1.27-0.57,1.869c-0.25,0.601-0.56,1.181-0.92,1.721  c-0.37,0.55-0.79,1.06-1.25,1.529C59.849,467.719,57.27,468.789,54.639,468.789z"/>
<rect x="10" y="203.14" style="fill:#FDB845;" width="70.56" height="105.72"/>
<polygon style="fill:#C69F7F;" points="126.251,163.073 126.251,348.926 80.559,328.892 80.559,183.107 "/>
<rect x="430.26" y="203.14" style="fill:#FDB845;" width="71.73" height="105.72"/>
<polygon style="fill:#C69F7F;" points="384.571,348.926 384.571,163.073 430.263,183.107 430.263,328.892 "/>
<path d="M501.999,4.595H10c-5.523,0-10,4.477-10,10v65.109v12.131V203.14v105.719v111.305v7.123v70.117c0,5.522,4.477,10,10,10  h491.999c5.523,0,10-4.478,10-10v-70.117v-7.123V308.859V203.14V91.835v-12.13v-65.11C511.999,9.073,507.522,4.595,501.999,4.595z   M217.925,370.74c-3.905-3.904-10.237-3.904-14.143,0l-24.804,24.804V259.447l24.804,24.804c1.953,1.952,4.512,2.929,7.071,2.929  s5.119-0.977,7.071-2.929c3.905-3.905,3.905-10.237,0-14.143l-24.031-24.031h123.035l-24.031,24.031  c-3.905,3.905-3.905,10.237,0.001,14.143c1.953,1.952,4.512,2.929,7.071,2.929c2.559,0,5.119-0.977,7.071-2.929l24.804-24.804  v136.097L307.04,370.74c-3.905-3.903-10.237-3.904-14.142,0c-3.905,3.905-3.906,10.237-0.001,14.143l25.281,25.281H192.643  l25.281-25.281C221.83,380.977,221.83,374.645,217.925,370.74z M341.844,226.077H168.979c-5.523,0-10,4.478-10,10v174.087H20  v-91.305h50.559v10.033c0,3.97,2.349,7.564,5.984,9.158l39.708,17.41v15.116c0,5.522,4.477,10,10,10s10-4.478,10-10v-21.65V163.073  v-21.65c0-5.522-4.477-10-10-10c-5.523,0-10,4.478-10,10v15.116l-39.708,17.41c-3.636,1.594-5.984,5.188-5.984,9.158v10.033H20  v-91.305h471.999v91.305h-51.736v-10.033c0-3.97-2.349-7.564-5.984-9.158l-39.708-17.41v-15.116c0-5.522-4.477-10-10-10  s-10,4.478-10,10v21.65v185.854v21.65c0,5.522,4.477,10,10,10s10-4.478,10-10V355.46l39.708-17.41  c3.636-1.594,5.984-5.189,5.984-9.158v-10.033h51.736v91.305H351.844V236.077C351.844,230.554,347.367,226.077,341.844,226.077z   M116.252,333.622L90.56,322.357v-13.499V203.14v-13.499l25.692-11.265V333.622z M70.559,245.999H39.094c-5.523,0-10,4.478-10,10  c0,5.523,4.477,10,10,10h31.465v32.859H20V213.14h50.559V245.999z M491.999,298.859h-51.736V266h31.465c5.523,0,10-4.478,10-10  s-4.477-10-10-10h-31.465v-32.86h51.736V298.859z M394.571,178.376l25.692,11.265v13.499v105.719v13.499l-25.692,11.265V178.376z   M491.999,24.595v55.109v2.131H20v-2.131V63.215h400.532c5.523,0,10-4.478,10-10s-4.477-10-10-10H20v-18.62H491.999z M20,487.404  v-57.24h148.979h172.866H492v18.62H90.29c-5.523,0-10,4.478-10,10s4.477,10,10,10h401.708v18.62H20z"/>
<g>
</g>
<g>
</g>
<g>
</g>
<g>
</g>
<g>
</g>
<g>
</g>
<g>
</g>
<g>
</g>
<g>
</g>
<g>
</g>
<g>
</g>
<g>
</g>
<g>
</g>
<g>
</g>
<g>
</g>
</svg>
