<?xml version="1.0" encoding="iso-8859-1"?>
<!-- Generator: Adobe Illustrator 19.0.0, SVG Export Plug-In . SVG Version: 6.00 Build 0)  -->
<svg xmlns="http://www.w3.org/2000/svg" xmlns:xlink="http://www.w3.org/1999/xlink" version="1.1" id="Capa_1" x="0px" y="0px" viewBox="0 0 512 512" style="enable-background:new 0 0 512 512;" xml:space="preserve">
<g>
	<rect x="10" y="33.75" style="fill:#939393;" width="80.996" height="349.59"/>
	<rect x="421" y="33.75" style="fill:#939393;" width="80.996" height="349.59"/>
</g>
<rect x="179.71" y="26.361" style="fill:#FDB845;" width="152.58" height="133.78"/>
<g>
	<rect x="332.29" y="67.14" style="fill:#076893;" width="88.72" height="48.11"/>
	<rect x="90.996" y="67.14" style="fill:#076893;" width="88.72" height="48.11"/>
</g>
<rect x="224.99" y="160.14" style="fill:#C69F7F;" width="62.03" height="47"/>
<polygon style="fill:#BFBFBF;" points="10,383.343 10,485.639 101,485.639 101,444.139 411,444.139 411,485.639 502,485.639   502,383.343 "/>
<rect x="90.996" y="307.46" style="fill:#4184B2;" width="75.885" height="75.881"/>
<rect x="218.06" y="307.46" style="fill:#076893;" width="75.881" height="75.881"/>
<path d="M50.5,144.14c-2.63,0-5.21-1.07-7.07-2.93c-0.46-0.46-0.88-0.97-1.25-1.52c-0.36-0.54-0.67-1.12-0.92-1.73  c-0.25-0.6-0.44-1.23-0.57-1.87s-0.19-1.3-0.19-1.95s0.06-1.309,0.19-1.95c0.13-0.64,0.32-1.27,0.57-1.87  c0.25-0.61,0.56-1.19,0.92-1.73c0.37-0.55,0.79-1.06,1.25-1.52c0.46-0.46,0.97-0.88,1.52-1.24c0.54-0.36,1.12-0.67,1.72-0.92  c0.61-0.25,1.24-0.45,1.87-0.57c1.29-0.26,2.62-0.26,3.91,0c0.64,0.12,1.27,0.32,1.87,0.57c0.61,0.25,1.19,0.56,1.73,0.92  c0.55,0.36,1.06,0.78,1.52,1.24c0.46,0.46,0.88,0.97,1.24,1.52c0.36,0.54,0.67,1.12,0.92,1.73c0.25,0.6,0.44,1.23,0.57,1.87  s0.2,1.3,0.2,1.95s-0.07,1.31-0.2,1.95s-0.32,1.27-0.57,1.87c-0.25,0.61-0.56,1.19-0.92,1.73c-0.36,0.55-0.78,1.06-1.24,1.52  C55.71,143.07,53.13,144.14,50.5,144.14z"/>
<path d="M461.5,295.01c-0.65,0-1.31-0.07-1.95-0.2s-1.27-0.32-1.87-0.57c-0.61-0.25-1.189-0.56-1.729-0.92  c-0.551-0.36-1.061-0.78-1.521-1.24c-1.86-1.86-2.93-4.44-2.93-7.07c0-2.64,1.069-5.21,2.93-7.07c0.46-0.46,0.97-0.88,1.521-1.25  c0.54-0.36,1.119-0.67,1.729-0.92c0.601-0.25,1.23-0.44,1.87-0.57c1.29-0.26,2.61-0.26,3.91,0c0.63,0.13,1.26,0.32,1.87,0.57  c0.6,0.25,1.18,0.56,1.72,0.92c0.55,0.37,1.06,0.79,1.52,1.25c0.461,0.46,0.881,0.97,1.25,1.52c0.36,0.54,0.671,1.12,0.921,1.72  c0.25,0.61,0.439,1.23,0.569,1.87c0.13,0.65,0.19,1.3,0.19,1.96c0,0.65-0.06,1.31-0.19,1.95s-0.319,1.27-0.569,1.87  s-0.561,1.19-0.921,1.73c-0.369,0.54-0.789,1.06-1.25,1.52c-0.46,0.46-0.97,0.88-1.52,1.24c-0.54,0.36-1.12,0.67-1.72,0.92  c-0.61,0.25-1.24,0.44-1.87,0.57C462.81,294.94,462.149,295.01,461.5,295.01z"/>
<path d="M502,23.75h-80.996c-5.522,0-10,4.477-10,10v23.39h-68.716V26.361c0-5.523-4.478-10-10-10h-0.766c-0.003,0-0.007,0-0.01,0  H180.488c-0.003,0-0.007,0-0.01,0h-0.766c-5.523,0-10,4.477-10,10V57.14h-68.716V33.75c0-5.523-4.477-10-10-10H10  c-5.523,0-10,4.477-10,10v349.593v102.296c0,5.523,4.477,10,10,10h91c5.523,0,10-4.477,10-10v-31.5h290v31.5c0,5.523,4.478,10,10,10  h91c5.522,0,10-4.477,10-10V383.343V33.75C512,28.227,507.522,23.75,502,23.75z M342.288,77.14h68.716v28.11h-68.716V77.14z   M189.712,115.25V67.14V49.732l24.733,24.733c1.953,1.953,4.512,2.929,7.071,2.929s5.119-0.976,7.071-2.929  c3.905-3.905,3.905-10.237,0-14.142l-23.962-23.962h102.748l-23.962,23.962c-3.905,3.905-3.905,10.237,0,14.142  c1.953,1.953,4.512,2.929,7.071,2.929c2.56,0,5.118-0.976,7.071-2.929l24.733-24.733V67.14v48.11v20.27l-24.733-24.733  c-3.906-3.905-10.236-3.905-14.143,0c-3.905,3.905-3.905,10.237,0,14.143l25.211,25.211h-21.61h-62.026h-21.61l25.211-25.211  c3.905-3.905,3.905-10.237,0-14.143c-3.905-3.905-10.237-3.905-14.143,0L189.71,135.52v-20.27H189.712z M277.013,170.14v27h-42.026  v-27H277.013z M100.996,77.14h68.716v28.11h-68.716V77.14z M100.996,125.25h68.716v34.89c0,5.523,4.477,10,10,10h35.275v33.281  l-25.191,29.185c-2.976,3.447-3.247,8.469-0.659,12.216l27.621,40c1.941,2.81,5.063,4.319,8.238,4.319  c1.96,0,3.939-0.575,5.673-1.772c4.545-3.138,5.685-9.367,2.547-13.911l-23.227-33.637l19.577-22.681h52.869l19.578,22.681  l-23.228,33.637c-3.139,4.544-1.998,10.772,2.546,13.911c1.734,1.198,3.714,1.772,5.674,1.772c3.175,0,6.297-1.508,8.237-4.319  l27.622-40c2.588-3.747,2.317-8.769-0.658-12.216l-25.192-29.185V170.14h35.275c5.522,0,10-4.477,10-10v-34.89h68.716v248.093  H303.94v-65.881c0-5.523-4.478-10-10-10h-75.88c-5.523,0-10,4.477-10,10v65.881h-31.179v-65.881c0-5.523-4.477-10-10-10h-65.885  C100.996,297.462,100.996,125.25,100.996,125.25z M283.94,317.462v55.881h-55.88v-55.881H283.94z M100.996,317.462h55.885v55.881  h-55.885V317.462z M20,43.75h60.996v23.39v48.11v192.212v65.881H60.498V169.729c0-5.523-4.477-10-10-10s-10,4.477-10,10v203.614H20  V43.75z M492,475.639h-71v-31.5c0-5.523-4.478-10-10-10H101c-5.523,0-10,4.477-10,10v31.5H20v-82.296h70.996h75.885h51.179h75.881  h127.064H492V475.639z M492,373.343h-60.996V115.25V67.14V43.75h20.498v205.667c0,5.523,4.477,10,10,10c5.522,0,10-4.477,10-10  V43.75H492V373.343z"/>
<g>
</g>
<g>
</g>
<g>
</g>
<g>
</g>
<g>
</g>
<g>
</g>
<g>
</g>
<g>
</g>
<g>
</g>
<g>
</g>
<g>
</g>
<g>
</g>
<g>
</g>
<g>
</g>
<g>
</g>
</svg>
