<?xml version="1.0" encoding="iso-8859-1"?>
<!-- Generator: Adobe Illustrator 19.0.0, SVG Export Plug-In . SVG Version: 6.00 Build 0)  -->
<svg xmlns="http://www.w3.org/2000/svg" xmlns:xlink="http://www.w3.org/1999/xlink" version="1.1" id="Capa_1" x="0px" y="0px" viewBox="0 0 512 512" style="enable-background:new 0 0 512 512;" xml:space="preserve">
<path style="fill:#BFDEFF;" d="M290.949,448h-59.072v-44.464c0-16.313,13.224-29.536,29.536-29.536l0,0  c16.312,0,29.536,13.224,29.536,29.536L290.949,448L290.949,448z"/>
<path style="fill:#4184B2;" d="M391.181,448h-59.073v-44.464c0-16.313,13.224-29.536,29.536-29.536l0,0  c16.313,0,29.536,13.224,29.536,29.536L391.181,448L391.181,448z"/>
<path style="fill:#076893;" d="M491.413,448H432.34v-44.464c0-16.313,13.224-29.536,29.536-29.536l0,0  c16.312,0,29.536,13.224,29.536,29.536L491.413,448L491.413,448z"/>
<path style="fill:#BFBFBF;" d="M163.413,448v-20c0-40.869-33.131-74-74-74l0,0c-40.869,0-74,33.131-74,74v5  c0,38.108,30.892,69,69,69l0,0h79h328v-54H163.413z"/>
<rect x="227.16" y="210.11" style="fill:#C69F7F;" width="68.5" height="60.697"/>
<rect x="26.24" y="10" style="fill:#676767;" width="470.35" height="77.11"/>
<rect x="214.91" y="87.11" style="fill:#FDB845;" width="93" height="123"/>
<path style="fill:#076893;" d="M55.412,428L55.412,428c0-18.778,15.222-34,34-34l0,0c18.778,0,34,15.222,34,34l0,0  c0,18.778-15.222,34-34,34l0,0C70.635,462,55.412,446.778,55.412,428z"/>
<path d="M446.85,58.55c-0.66,0-1.31-0.06-1.96-0.19c-0.64-0.13-1.27-0.32-1.87-0.57s-1.18-0.56-1.729-0.92  c-0.54-0.37-1.05-0.78-1.51-1.24c-0.471-0.47-0.881-0.98-1.25-1.52c-0.36-0.55-0.671-1.13-0.921-1.73s-0.44-1.23-0.569-1.87  c-0.13-0.65-0.19-1.3-0.19-1.96c0-2.63,1.061-5.21,2.931-7.07c2.319-2.32,5.77-3.38,9.02-2.73c0.64,0.13,1.27,0.32,1.87,0.57  s1.18,0.56,1.73,0.92c0.54,0.36,1.061,0.78,1.52,1.24c0.46,0.46,0.88,0.98,1.24,1.52c0.359,0.55,0.67,1.13,0.92,1.73  s0.439,1.23,0.569,1.87c0.131,0.65,0.2,1.3,0.2,1.95c0,0.66-0.069,1.31-0.2,1.96c-0.13,0.64-0.319,1.27-0.569,1.87  s-0.561,1.18-0.92,1.73c-0.36,0.54-0.78,1.05-1.24,1.52c-0.46,0.46-0.98,0.87-1.52,1.24c-0.55,0.36-1.13,0.67-1.73,0.92  c-0.601,0.25-1.23,0.44-1.87,0.57C448.16,58.49,447.5,58.55,446.85,58.55z"/>
<path d="M496.588,0H26.237c-5.523,0-10,4.477-10,10v65v12.111v299.716C9.359,399.003,5.412,413.045,5.412,428v5  c0,43.56,35.439,79,79,79h407c5.522,0,10-4.477,10-10v-54v-44.464c0-21.8-17.735-39.536-39.536-39.536  c-21.801,0-39.536,17.736-39.536,39.536V438h-21.159v-34.464c0-21.8-17.735-39.536-39.536-39.536  c-21.801,0-39.536,17.736-39.536,39.536V438h-21.16v-34.464c0-21.8-17.735-39.536-39.536-39.536s-39.536,17.736-39.536,39.536V438  h-48.464v-10c0-46.318-37.683-84-84-84c-20.161,0-38.682,7.144-53.175,19.028V97.111h168.678v112.995c0,5.523,4.478,10,10,10h2.249  v50.697c0,0.348,0.018,0.691,0.053,1.03l-22.184,27.164c-2.816,3.448-3.014,8.344-0.483,12.007l27.621,40  c1.94,2.811,5.063,4.319,8.237,4.319c1.959,0,3.939-0.575,5.674-1.772c4.544-3.138,5.685-9.367,2.546-13.911l-23.35-33.814  l20.435-25.023h51.399l20.435,25.023l-23.35,33.814c-3.139,4.544-1.998,10.773,2.546,13.911c1.735,1.197,3.714,1.772,5.674,1.772  c3.175,0,6.297-1.509,8.237-4.319l27.621-40c2.53-3.664,2.333-8.559-0.483-12.007l-22.184-27.164  c0.035-0.339,0.053-0.682,0.053-1.03v-50.697h2.249c5.522,0,10-4.477,10-10V97.111h168.678V199c0,5.523,4.478,10,10,10  c5.523,0,10-4.477,10-10V87.111V75V10C506.588,4.477,502.11,0,496.588,0z M481.412,492h-51.27l34-34h17.27V492z M442.34,403.536  c0-10.772,8.764-19.536,19.536-19.536s19.536,8.764,19.536,19.536V438H442.34V403.536z M391.181,458h41.159h3.518l-34,34h-68.381  l34-34H391.181z M342.108,403.536c0-10.772,8.764-19.536,19.536-19.536s19.536,8.764,19.536,19.536V438h-39.072L342.108,403.536  L342.108,403.536z M290.948,458h41.16h7.083l-34,34h-68.38l34-34H290.948z M241.876,403.536c0-10.772,8.764-19.536,19.536-19.536  s19.536,8.764,19.536,19.536V438h-39.072L241.876,403.536L241.876,403.536z M89.412,364c35.29,0,64,28.71,64,64v20  c0,5.523,4.478,10,10,10h68.464h10.65l-34,34H84.412c-32.533,0-59-26.467-59-59v-5C25.412,392.71,54.122,364,89.412,364z   M285.661,260.803h-48.497v-40.697h48.497V260.803z M297.91,200.106h-2.249h-24.249v-54.439h8.667c5.522,0,10-4.477,10-10  s-4.478-10-10-10h-37.333c-5.522,0-10,4.477-10,10s4.478,10,10,10h8.666v54.439h-24.248h-2.249V97.111h72.995V200.106z   M307.91,77.111h-92.995H36.237V75V58.555h375.019c5.522,0,10-4.477,10-10s-4.478-10-10-10H36.237V20h450.351v55v2.111H307.91z"/>
<path d="M89.412,472c24.262,0,44-19.738,44-44s-19.738-44-44-44s-44,19.738-44,44S65.15,472,89.412,472z M89.412,404  c13.233,0,24,10.767,24,24s-10.767,24-24,24s-24-10.767-24-24S76.179,404,89.412,404z"/>
<g>
</g>
<g>
</g>
<g>
</g>
<g>
</g>
<g>
</g>
<g>
</g>
<g>
</g>
<g>
</g>
<g>
</g>
<g>
</g>
<g>
</g>
<g>
</g>
<g>
</g>
<g>
</g>
<g>
</g>
</svg>
