<?xml version="1.0" encoding="iso-8859-1"?>
<!-- Generator: Adobe Illustrator 19.0.0, SVG Export Plug-In . SVG Version: 6.00 Build 0)  -->
<svg xmlns="http://www.w3.org/2000/svg" xmlns:xlink="http://www.w3.org/1999/xlink" version="1.1" id="Capa_1" x="0px" y="0px" viewBox="0 0 512 512" style="enable-background:new 0 0 512 512;" xml:space="preserve">
<rect x="20.825" y="10" style="fill:#939393;" width="470.35" height="77.11"/>
<path d="M441.44,58.55c-0.659,0-1.31-0.06-1.96-0.19c-0.64-0.13-1.27-0.319-1.87-0.569s-1.18-0.561-1.729-0.92  c-0.54-0.36-1.061-0.78-1.521-1.24c-0.46-0.47-0.88-0.981-1.239-1.521c-0.36-0.55-0.67-1.13-0.92-1.729  c-0.25-0.601-0.44-1.231-0.57-1.87c-0.13-0.65-0.19-1.3-0.19-1.95c0-0.66,0.06-1.31,0.19-1.96c0.13-0.64,0.32-1.27,0.57-1.87  s0.56-1.18,0.92-1.729c0.359-0.54,0.779-1.05,1.239-1.521c0.46-0.46,0.98-0.87,1.521-1.239c0.55-0.36,1.13-0.671,1.729-0.921  c0.601-0.25,1.23-0.439,1.87-0.569c1.29-0.26,2.62-0.26,3.91,0c0.641,0.13,1.26,0.319,1.87,0.569c0.6,0.25,1.18,0.561,1.72,0.921  c0.551,0.369,1.061,0.779,1.521,1.239c0.47,0.471,0.88,0.98,1.25,1.521c0.359,0.55,0.67,1.13,0.92,1.729  c0.25,0.601,0.44,1.23,0.57,1.87c0.13,0.65,0.189,1.3,0.189,1.96c0,0.65-0.06,1.3-0.189,1.95c-0.131,0.64-0.32,1.27-0.57,1.87  s-0.56,1.18-0.92,1.729c-0.37,0.54-0.78,1.051-1.25,1.521c-0.46,0.46-0.97,0.88-1.521,1.24c-0.54,0.359-1.12,0.67-1.72,0.92  c-0.61,0.25-1.229,0.439-1.87,0.569C442.74,58.49,442.09,58.55,441.44,58.55z"/>
<rect x="20.825" y="424.89" style="fill:#676767;" width="470.35" height="77.11"/>
<path d="M70.569,473.44c-0.649,0-1.309-0.06-1.96-0.19c-0.63-0.13-1.26-0.32-1.869-0.57c-0.601-0.25-1.181-0.56-1.721-0.92  c-0.55-0.37-1.06-0.78-1.529-1.25c-0.46-0.46-0.87-0.97-1.24-1.52c-0.36-0.54-0.67-1.12-0.92-1.721c-0.25-0.6-0.441-1.229-0.57-1.87  c-0.13-0.649-0.19-1.3-0.19-1.96c0-0.65,0.061-1.31,0.19-1.949c0.13-0.641,0.32-1.271,0.57-1.87c0.25-0.601,0.559-1.19,0.92-1.73  c0.37-0.54,0.78-1.059,1.24-1.52c0.47-0.46,0.98-0.88,1.529-1.24c0.54-0.36,1.12-0.67,1.721-0.92c0.609-0.25,1.239-0.44,1.869-0.57  c1.29-0.26,2.62-0.26,3.91,0c0.641,0.13,1.271,0.32,1.87,0.57c0.601,0.25,1.18,0.56,1.73,0.92c0.54,0.36,1.06,0.78,1.52,1.24  s0.88,0.98,1.24,1.52c0.36,0.54,0.67,1.13,0.92,1.73s0.44,1.23,0.57,1.87c0.13,0.64,0.199,1.3,0.199,1.949  c0,0.66-0.069,1.31-0.199,1.96c-0.13,0.641-0.32,1.27-0.57,1.87c-0.25,0.601-0.56,1.181-0.92,1.721c-0.36,0.55-0.78,1.06-1.24,1.52  c-0.46,0.47-0.979,0.88-1.52,1.25c-0.551,0.36-1.13,0.67-1.73,0.92c-0.6,0.25-1.229,0.44-1.87,0.57  C71.88,473.38,71.22,473.44,70.569,473.44z"/>
<path style="fill:#4184B2;" d="M299.212,424.889v-96.78l-1.763-3.308c-8.08-15.164-23.863-24.638-41.046-24.638l0,0  c-17.183,0-32.966,9.474-41.046,24.638l-1.763,3.308v96.78H299.212z"/>
<path style="fill:#FDB845;" d="M256,151.758L256,151.758c-30.908,0-55.964-25.056-55.964-55.964V87.11h111.927v8.684  C311.963,126.703,286.908,151.758,256,151.758z"/>
<path style="fill:#C69F7F;" d="M256,151.758L256,151.758c-9.488,0-18.419-2.369-26.249-6.536v51.103h52.498v-51.104  C274.419,149.389,265.488,151.758,256,151.758z"/>
<path d="M256.399,395.97c-0.649,0-1.31-0.07-1.949-0.2c-0.641-0.12-1.27-0.319-1.87-0.569c-0.601-0.25-1.19-0.551-1.73-0.921  c-0.54-0.359-1.06-0.779-1.52-1.239c-0.46-0.46-0.88-0.971-1.24-1.521c-0.36-0.54-0.67-1.12-0.92-1.729  c-0.25-0.6-0.44-1.23-0.57-1.87c-0.13-0.641-0.2-1.3-0.2-1.95s0.07-1.31,0.2-1.95c0.13-0.64,0.32-1.27,0.57-1.87  c0.25-0.609,0.56-1.189,0.92-1.73c0.36-0.55,0.78-1.06,1.24-1.52s0.98-0.88,1.52-1.239c0.54-0.36,1.13-0.67,1.73-0.92  c0.6-0.25,1.23-0.45,1.87-0.57c1.29-0.27,2.619-0.27,3.909,0c0.631,0.12,1.261,0.32,1.87,0.57c0.601,0.25,1.181,0.56,1.721,0.92  c0.55,0.359,1.06,0.779,1.52,1.239c0.47,0.46,0.88,0.971,1.25,1.52c0.36,0.54,0.67,1.12,0.92,1.73c0.25,0.601,0.441,1.23,0.57,1.87  c0.13,0.641,0.189,1.3,0.189,1.95c0,2.63-1.06,5.21-2.93,7.07c-0.46,0.46-0.97,0.88-1.52,1.239c-0.54,0.37-1.12,0.671-1.721,0.921  c-0.609,0.25-1.239,0.449-1.87,0.569C257.71,395.899,257.06,395.97,256.399,395.97z"/>
<path style="fill:#BFDEFF;" d="M147.714,424.889v-96.78l-1.763-3.308c-8.08-15.164-23.863-24.638-41.046-24.638l0,0  c-17.183,0-32.966,9.474-41.046,24.638l-1.763,3.308v96.78H147.714z"/>
<path style="fill:#FDB845;" d="M104.502,151.758L104.502,151.758c-30.908,0-55.963-25.056-55.963-55.964V87.11h111.927v8.684  C160.466,126.703,135.41,151.758,104.502,151.758z"/>
<path style="fill:#C69F7F;" d="M104.502,151.758c-9.488,0-18.419-2.369-26.249-6.536v51.104h52.498v-51.104  C122.922,149.389,113.99,151.758,104.502,151.758z"/>
<path d="M104.91,395.97c-0.66,0-1.311-0.07-1.96-0.2c-0.641-0.12-1.261-0.319-1.87-0.569c-0.601-0.25-1.181-0.551-1.721-0.921  c-0.55-0.359-1.06-0.779-1.529-1.239c-0.46-0.46-0.88-0.971-1.24-1.521c-0.36-0.54-0.67-1.12-0.92-1.729  c-0.25-0.6-0.44-1.23-0.57-1.87c-0.13-0.641-0.189-1.3-0.189-1.95s0.06-1.31,0.189-1.95c0.13-0.64,0.32-1.27,0.57-1.87  c0.25-0.609,0.56-1.189,0.92-1.73c0.36-0.55,0.78-1.06,1.24-1.52c0.47-0.46,0.979-0.88,1.529-1.239c0.54-0.36,1.12-0.67,1.721-0.92  c0.609-0.25,1.229-0.45,1.87-0.57c1.29-0.27,2.619-0.27,3.909,0c0.641,0.12,1.271,0.32,1.87,0.57c0.601,0.25,1.181,0.56,1.73,0.92  c0.54,0.359,1.06,0.779,1.52,1.239c0.46,0.46,0.88,0.971,1.24,1.52c0.36,0.54,0.67,1.12,0.92,1.73c0.25,0.601,0.44,1.23,0.57,1.87  c0.13,0.641,0.2,1.3,0.2,1.95s-0.07,1.31-0.2,1.95s-0.32,1.27-0.57,1.87c-0.25,0.609-0.56,1.189-0.92,1.729  c-0.36,0.55-0.78,1.061-1.24,1.521s-0.979,0.88-1.52,1.239c-0.55,0.37-1.13,0.671-1.73,0.921c-0.6,0.25-1.229,0.449-1.87,0.569  C106.22,395.899,105.56,395.97,104.91,395.97z"/>
<path style="fill:#FDB845;" d="M407.498,151.758L407.498,151.758c-30.908,0-55.964-25.056-55.964-55.964V87.11h111.927v8.684  C463.461,126.703,438.405,151.758,407.498,151.758z"/>
<path style="fill:#C69F7F;" d="M407.498,151.758L407.498,151.758c-9.488,0-18.419-2.369-26.249-6.536v51.104h52.498v-51.104  C425.917,149.389,416.986,151.758,407.498,151.758z"/>
<path style="fill:#076893;" d="M450.306,424.889v-96.78l-1.763-3.308c-8.08-15.164-23.863-24.638-41.046-24.638l0,0  c-17.183,0-32.965,9.474-41.046,24.638l-1.763,3.308v96.78H450.306z"/>
<path d="M491.175,0H20.825c-5.522,0-10,4.477-10,10v65v12.11v337.78V432v70c0,5.522,4.477,10,10,10h470.35c5.522,0,10-4.478,10-10  v-70v-7.11V87.11V75V10C501.175,4.477,496.697,0,491.175,0z M407.498,360.38c5.523,0,10-4.478,10-10v-38.823  c9.406,2.671,17.48,9.05,22.221,17.948l0.588,1.102v84.282H374.69v-84.282l0.588-1.103c4.741-8.897,12.815-15.276,22.221-17.947  v38.823C397.498,355.902,401.976,360.38,407.498,360.38z M459.132,323.406l-1.763-3.307c-8.243-15.472-22.997-26.029-39.871-29.046  V249c0-5.523-4.477-10-10-10c-5.522,0-10,4.477-10,10v42.053c-16.874,3.018-31.628,13.574-39.871,29.045l-1.763,3.308  c-0.771,1.447-1.175,3.063-1.175,4.703v86.78h-45.478v-86.78c0-1.641-0.403-3.256-1.175-4.703l-1.763-3.307  c-8.243-15.472-22.997-26.029-39.871-29.046V249c0-5.523-4.477-10-10-10c-5.522,0-10,4.477-10,10v42.053  c-16.874,3.018-31.628,13.574-39.871,29.045l-1.763,3.308c-0.771,1.447-1.175,3.063-1.175,4.703v86.78h-45.88v-86.78  c0-1.641-0.404-3.257-1.176-4.705l-1.763-3.305c-8.243-15.472-22.996-26.029-39.87-29.046V249c0-5.523-4.478-10-10-10  c-5.523,0-10,4.477-10,10v42.053c-16.874,3.018-31.628,13.574-39.871,29.045l-1.763,3.308c-0.771,1.447-1.175,3.063-1.175,4.703  v86.78h-21.27V97.11h7.747c0.443,22.445,12.139,42.171,29.68,53.756v45.46c0,0.773,0.096,1.523,0.263,2.246l-22.218,25.74  c-2.798,3.242-3.222,7.906-1.053,11.599l17.621,30c1.863,3.172,5.202,4.938,8.633,4.938c1.72,0,3.464-0.445,5.055-1.379  c4.763-2.798,6.355-8.926,3.559-13.688l-13.994-23.824l22.124-25.631h32.52l22.125,25.631l-13.994,23.824  c-2.797,4.762-1.204,10.89,3.559,13.688c1.591,0.934,3.334,1.379,5.055,1.379c3.43,0,6.77-1.767,8.633-4.938l17.621-30  c2.169-3.692,1.745-8.357-1.053-11.599l-22.218-25.741c0.166-0.722,0.262-1.472,0.262-2.245v-45.459  c17.542-11.585,29.238-31.311,29.681-53.757h19.637c0.443,22.446,12.14,42.172,29.681,53.757v45.459  c0,0.773,0.096,1.522,0.262,2.245l-22.218,25.74c-2.798,3.242-3.222,7.906-1.052,11.599l17.622,30  c1.862,3.172,5.202,4.938,8.632,4.938c1.721,0,3.464-0.445,5.055-1.38c4.763-2.797,6.355-8.925,3.558-13.687l-13.993-23.824  l22.125-25.631h32.519l22.124,25.631l-13.993,23.824c-2.798,4.762-1.205,10.89,3.558,13.687c1.591,0.935,3.334,1.38,5.055,1.38  c3.43-0.001,6.77-1.767,8.632-4.938l17.622-30c2.17-3.692,1.746-8.357-1.052-11.599l-22.219-25.74  c0.166-0.723,0.262-1.472,0.262-2.245v-45.459c17.542-11.585,29.238-31.311,29.681-53.757h19.637  c0.443,22.446,12.14,42.172,29.681,53.757v45.459c0,0.773,0.096,1.522,0.262,2.245l-22.218,25.741  c-2.798,3.242-3.222,7.906-1.053,11.599l17.621,30c1.863,3.172,5.202,4.938,8.633,4.938c1.72,0,3.464-0.445,5.055-1.379  c4.763-2.798,6.355-8.926,3.559-13.688l-13.994-23.824l22.124-25.631h32.52l22.125,25.631l-13.994,23.824  c-2.797,4.762-1.204,10.89,3.559,13.688c1.591,0.934,3.334,1.379,5.055,1.379c3.43,0,6.77-1.767,8.633-4.938l17.621-30  c2.169-3.692,1.745-8.357-1.053-11.599l-22.217-25.74c0.166-0.723,0.263-1.472,0.263-2.246v-45.46  c17.541-11.585,29.237-31.311,29.68-53.756h7.747v317.78h-20.868v-86.78C460.307,326.469,459.903,324.853,459.132,323.406z   M256.403,360.38c5.523,0,10-4.478,10-10v-38.823c9.406,2.671,17.48,9.05,22.221,17.948l0.588,1.102v84.282h-65.617v-84.282  l0.588-1.103c4.741-8.897,12.815-15.276,22.221-17.947v38.823C246.403,355.902,250.881,360.38,256.403,360.38z M104.906,360.38  c5.522,0,10-4.478,10-10v-38.823c9.405,2.671,17.479,9.05,22.221,17.95l0.588,1.102v84.281H72.098v-84.282l0.588-1.103  c4.741-8.897,12.815-15.276,22.221-17.947v38.823C94.906,355.902,99.384,360.38,104.906,360.38z M120.751,186.326H88.253v-26.598  c0.361,0.092,0.727,0.167,1.09,0.253c0.361,0.085,0.722,0.172,1.084,0.251c0.56,0.122,1.122,0.236,1.687,0.344  c0.198,0.038,0.396,0.07,0.594,0.106c1.124,0.204,2.258,0.379,3.401,0.524c0.109,0.014,0.217,0.028,0.326,0.042  c1.979,0.242,3.983,0.396,6.011,0.459c0.004,0,0.008,0,0.012,0.001c0.681,0.021,1.359,0.052,2.045,0.052  c0.685,0,1.363-0.031,2.043-0.052c0.006,0,0.011,0,0.017-0.001c2.025-0.063,4.026-0.216,6.002-0.458  c0.114-0.014,0.228-0.029,0.342-0.043c1.136-0.145,2.263-0.319,3.38-0.521c0.202-0.036,0.405-0.071,0.606-0.109  c0.564-0.108,1.126-0.221,1.684-0.343c0.36-0.078,0.717-0.165,1.076-0.249c0.366-0.086,0.736-0.162,1.099-0.254L120.751,186.326  L120.751,186.326z M125.023,136.904c-0.361,0.181-0.721,0.365-1.085,0.536c-0.432,0.203-0.871,0.393-1.31,0.582  c-0.306,0.132-0.612,0.262-0.92,0.387c-0.48,0.194-0.962,0.383-1.45,0.562c-0.237,0.087-0.476,0.167-0.714,0.25  c-1.76,0.611-3.568,1.118-5.417,1.513c-0.225,0.048-0.448,0.101-0.673,0.146c-0.493,0.098-0.991,0.18-1.49,0.262  c-0.366,0.059-0.732,0.117-1.1,0.168c-0.427,0.059-0.855,0.113-1.285,0.161c-0.503,0.055-1.008,0.098-1.514,0.137  c-0.324,0.025-0.646,0.055-0.971,0.073c-0.859,0.047-1.722,0.077-2.591,0.077s-1.732-0.03-2.591-0.077  c-0.325-0.018-0.646-0.048-0.969-0.073c-0.507-0.038-1.013-0.082-1.517-0.137c-0.429-0.047-0.856-0.101-1.281-0.16  c-0.37-0.051-0.739-0.109-1.107-0.169c-0.496-0.081-0.991-0.163-1.482-0.261c-0.232-0.046-0.461-0.1-0.692-0.15  c-1.836-0.393-3.632-0.896-5.381-1.503c-0.248-0.086-0.498-0.17-0.745-0.261c-0.48-0.176-0.954-0.362-1.426-0.553  c-0.32-0.13-0.638-0.264-0.955-0.402c-0.428-0.185-0.857-0.37-1.278-0.568c-0.392-0.184-0.779-0.382-1.168-0.577  c-14.661-7.381-24.862-22.371-25.352-39.758h91.89C149.956,114.526,139.723,129.536,125.023,136.904z M272.249,186.326h-32.498  v-26.597c0.366,0.093,0.738,0.169,1.106,0.256c0.355,0.083,0.709,0.169,1.066,0.247c0.561,0.123,1.125,0.237,1.692,0.345  c0.195,0.037,0.392,0.07,0.587,0.105c1.125,0.204,2.26,0.379,3.404,0.525c0.109,0.014,0.218,0.028,0.327,0.042  c1.978,0.242,3.981,0.396,6.009,0.458c0.005,0,0.009,0,0.014,0.001c0.68,0.021,1.359,0.052,2.044,0.052  c0.685,0,1.363-0.031,2.044-0.052c0.005,0,0.009,0,0.014-0.001c2.027-0.063,4.031-0.216,6.009-0.458  c0.109-0.013,0.218-0.028,0.327-0.042c1.144-0.146,2.279-0.321,3.404-0.525c0.196-0.035,0.392-0.068,0.587-0.105  c0.566-0.108,1.13-0.222,1.692-0.345c0.357-0.077,0.711-0.163,1.066-0.247c0.368-0.087,0.741-0.163,1.106-0.256V186.326z   M276.628,136.851c-0.402,0.203-0.803,0.407-1.209,0.597c-0.416,0.195-0.839,0.378-1.261,0.56c-0.323,0.14-0.648,0.277-0.974,0.409  c-0.468,0.189-0.938,0.374-1.413,0.548c-0.252,0.093-0.507,0.178-0.761,0.266c-1.743,0.604-3.533,1.105-5.364,1.498  c-0.234,0.05-0.466,0.105-0.701,0.151c-0.489,0.097-0.984,0.179-1.479,0.26c-0.369,0.06-0.738,0.118-1.11,0.169  c-0.425,0.059-0.851,0.113-1.28,0.16c-0.504,0.055-1.01,0.099-1.518,0.137c-0.323,0.025-0.644,0.054-0.969,0.072  c-0.859,0.047-1.722,0.077-2.591,0.077c-0.869,0-1.732-0.03-2.591-0.077c-0.325-0.018-0.646-0.048-0.969-0.072  c-0.508-0.038-1.014-0.082-1.518-0.137c-0.428-0.047-0.855-0.101-1.28-0.16c-0.371-0.051-0.741-0.109-1.11-0.169  c-0.495-0.081-0.989-0.163-1.479-0.26c-0.235-0.046-0.467-0.102-0.701-0.151c-1.831-0.393-3.621-0.894-5.364-1.498  c-0.254-0.088-0.508-0.174-0.761-0.266c-0.475-0.174-0.946-0.359-1.413-0.548c-0.326-0.132-0.65-0.27-0.974-0.409  c-0.423-0.183-0.845-0.365-1.261-0.56c-0.406-0.19-0.807-0.395-1.209-0.597c-14.643-7.387-24.828-22.367-25.317-39.74h91.891  C301.456,114.484,291.271,129.464,276.628,136.851z M423.747,186.326h-32.498v-26.597c0.363,0.092,0.733,0.168,1.099,0.254  c0.358,0.085,0.716,0.171,1.076,0.249c0.559,0.122,1.12,0.236,1.684,0.343c0.202,0.038,0.404,0.072,0.606,0.109  c1.118,0.202,2.245,0.376,3.381,0.521c0.114,0.014,0.227,0.03,0.341,0.043c1.976,0.242,3.977,0.395,6.003,0.458  c0.006,0,0.011,0,0.017,0.001c0.68,0.021,1.358,0.052,2.043,0.052c0.686,0,1.364-0.031,2.045-0.052c0.004,0,0.008,0,0.011-0.001  c2.028-0.063,4.032-0.216,6.01-0.459c0.109-0.013,0.218-0.028,0.327-0.042c1.143-0.146,2.276-0.321,3.4-0.524  c0.198-0.036,0.396-0.069,0.594-0.106c0.565-0.108,1.128-0.222,1.687-0.344c0.363-0.079,0.723-0.166,1.084-0.251  c0.363-0.086,0.73-0.161,1.09-0.253V186.326z M428.09,136.868c-0.388,0.195-0.776,0.393-1.168,0.577  c-0.421,0.197-0.849,0.383-1.277,0.567c-0.318,0.137-0.636,0.273-0.956,0.402c-0.472,0.191-0.946,0.377-1.426,0.553  c-0.247,0.091-0.497,0.174-0.745,0.261c-1.749,0.607-3.544,1.109-5.381,1.503c-0.231,0.049-0.461,0.104-0.692,0.15  c-0.491,0.097-0.986,0.179-1.482,0.261c-0.368,0.06-0.737,0.118-1.107,0.169c-0.425,0.059-0.852,0.113-1.281,0.16  c-0.503,0.055-1.009,0.099-1.517,0.137c-0.323,0.025-0.645,0.055-0.969,0.073c-0.859,0.047-1.722,0.077-2.591,0.077  c-0.869,0-1.732-0.03-2.591-0.077c-0.326-0.018-0.648-0.048-0.971-0.073c-0.506-0.038-1.012-0.082-1.514-0.137  c-0.43-0.048-0.858-0.102-1.285-0.161c-0.368-0.051-0.734-0.108-1.1-0.168c-0.499-0.082-0.997-0.165-1.49-0.262  c-0.225-0.044-0.449-0.098-0.673-0.146c-1.849-0.395-3.657-0.902-5.417-1.513c-0.238-0.083-0.477-0.163-0.713-0.25  c-0.488-0.178-0.97-0.368-1.45-0.562c-0.308-0.125-0.614-0.255-0.92-0.387c-0.439-0.189-0.878-0.379-1.31-0.582  c-0.364-0.171-0.724-0.355-1.085-0.536c-14.7-7.368-24.933-22.378-25.424-39.794h91.89  C452.952,114.498,442.751,129.488,428.09,136.868z M481.175,20v55v2.11h-17.714H351.534h-39.57H200.036h-39.57H48.539H30.825V75  V58.556h375.019c5.522,0,10-4.478,10-10s-4.478-10-10-10H30.825V20H481.175z M30.825,492v-57.11h31.272h85.617h65.88h85.617h65.478  h85.617h30.868v18.555H106.156c-5.523,0-10,4.478-10,10s4.477,10,10,10h375.018V492H30.825z"/>
<path d="M407.5,395.97c-0.65,0-1.31-0.07-1.96-0.2c-0.63-0.12-1.26-0.319-1.87-0.569c-0.601-0.25-1.18-0.551-1.72-0.921  c-0.551-0.359-1.061-0.779-1.521-1.239c-0.46-0.46-0.88-0.971-1.25-1.521c-0.36-0.54-0.67-1.12-0.92-1.729  c-0.25-0.6-0.44-1.23-0.57-1.87c-0.13-0.641-0.19-1.3-0.19-1.95s0.06-1.31,0.19-1.95s0.32-1.27,0.57-1.87  c0.25-0.609,0.56-1.189,0.92-1.73c0.37-0.55,0.79-1.06,1.25-1.52s0.97-0.88,1.521-1.239c0.54-0.36,1.119-0.67,1.72-0.92  c0.61-0.25,1.24-0.45,1.87-0.57c1.29-0.26,2.62-0.26,3.91,0c0.64,0.12,1.27,0.32,1.869,0.57c0.61,0.25,1.19,0.56,1.73,0.92  c0.55,0.359,1.06,0.779,1.52,1.239c0.461,0.46,0.881,0.971,1.24,1.52c0.36,0.54,0.67,1.12,0.92,1.73c0.25,0.601,0.44,1.23,0.57,1.87  c0.13,0.641,0.2,1.3,0.2,1.95s-0.07,1.31-0.2,1.95s-0.32,1.27-0.57,1.87c-0.25,0.609-0.56,1.189-0.92,1.729  c-0.359,0.55-0.779,1.061-1.24,1.521c-0.46,0.46-0.97,0.88-1.52,1.239c-0.54,0.37-1.12,0.671-1.73,0.921  c-0.6,0.25-1.229,0.449-1.869,0.569C408.81,395.899,408.149,395.97,407.5,395.97z"/>
<g>
</g>
<g>
</g>
<g>
</g>
<g>
</g>
<g>
</g>
<g>
</g>
<g>
</g>
<g>
</g>
<g>
</g>
<g>
</g>
<g>
</g>
<g>
</g>
<g>
</g>
<g>
</g>
<g>
</g>
</svg>
