<?xml version="1.0" encoding="iso-8859-1"?>
<!-- Generator: Adobe Illustrator 19.0.0, SVG Export Plug-In . SVG Version: 6.00 Build 0)  -->
<svg xmlns="http://www.w3.org/2000/svg" xmlns:xlink="http://www.w3.org/1999/xlink" version="1.1" id="Capa_1" x="0px" y="0px" viewBox="0 0 512.001 512.001" style="enable-background:new 0 0 512.001 512.001;" xml:space="preserve">
<path style="fill:#076893;" d="M442.049,501.645H69.951c-33.118,0-59.965-26.847-59.965-59.965l0,0  c0-33.118,26.847-59.965,59.965-59.965h372.098c33.118,0,59.965,26.847,59.965,59.965l0,0  C502.014,474.798,475.167,501.645,442.049,501.645z"/>
<g>
	<circle style="fill:#BFBFBF;" cx="78.986" cy="441.682" r="32.024"/>
	<circle style="fill:#BFBFBF;" cx="236.129" cy="441.682" r="32.024"/>
	<circle style="fill:#BFBFBF;" cx="393.272" cy="441.682" r="32.024"/>
</g>
<rect x="175.706" y="87.354" style="fill:#676767;" width="160.598" height="92.137"/>
<polygon style="fill:#C69F7F;" points="322.147,179.494 189.853,179.494 189.853,208.595 235.491,223.502 235.491,247.338   276.509,247.338 276.509,223.502 322.147,208.595 "/>
<rect x="144.311" y="289.951" style="fill:#FDB845;" width="223.387" height="91.757"/>
<path d="M319.283,339.999H192.717c-5.514,0-9.986-4.472-9.986-9.986s4.472-9.986,9.986-9.986h126.565  c5.514,0,9.986,4.472,9.986,9.986C329.268,335.529,324.798,339.999,319.283,339.999z"/>
<rect x="21.169" y="10.356" style="fill:#939393;" width="469.671" height="76.999"/>
<path d="M441.162,58.845c-0.648,0-1.308-0.069-1.947-0.2c-0.639-0.13-1.268-0.319-1.867-0.568c-0.608-0.25-1.187-0.559-1.727-0.919  c-0.549-0.359-1.059-0.779-1.519-1.238c-1.856-1.867-2.926-4.434-2.926-7.06c0-0.659,0.07-1.308,0.2-1.957  c0.13-0.639,0.32-1.268,0.569-1.867c0.25-0.599,0.559-1.178,0.919-1.728c0.358-0.539,0.778-1.058,1.237-1.518  c1.857-1.856,4.434-2.926,7.06-2.926c2.626,0,5.202,1.068,7.06,2.926c0.459,0.459,0.879,0.979,1.248,1.518  c0.358,0.549,0.669,1.128,0.919,1.728c0.25,0.6,0.438,1.228,0.569,1.867c0.13,0.649,0.19,1.298,0.19,1.957  c0,2.626-1.058,5.192-2.926,7.06c-0.459,0.459-0.969,0.879-1.518,1.238c-0.539,0.358-1.118,0.669-1.717,0.919  c-0.609,0.25-1.238,0.439-1.867,0.568C442.47,58.776,441.811,58.845,441.162,58.845z"/>
<path d="M442.049,371.728h-64.371v-81.777c0-5.514-4.472-9.986-9.986-9.986H144.308c-5.515,0-9.986,4.472-9.986,9.986v81.777H69.952  C31.381,371.728,0,403.108,0,441.679s31.381,69.952,69.952,69.952h372.097c38.571,0,69.952-31.381,69.952-69.952  C512,403.108,480.619,371.728,442.049,371.728z M154.294,299.937h203.413v71.791H154.294V299.937z M442.049,491.66H69.952  c-27.56,0-49.981-22.421-49.981-49.981c0-27.56,22.421-49.981,49.981-49.981h74.357h223.384h74.357  c27.56,0,49.981,22.421,49.981,49.981C492.029,469.239,469.608,491.66,442.049,491.66z"/>
<path d="M150.751,431.694H119.79c-4.493-18.357-21.077-32.023-40.8-32.023c-23.164,0-42.008,18.845-42.008,42.008  s18.845,42.008,42.008,42.008c19.722,0,36.306-13.665,40.8-32.023h30.961c5.514,0,9.986-4.472,9.986-9.986  C160.737,436.165,156.265,431.694,150.751,431.694z M78.99,463.717c-12.151,0-22.037-9.886-22.037-22.037  c0-12.151,9.886-22.037,22.037-22.037s22.037,9.886,22.037,22.037C101.028,453.831,91.141,463.717,78.99,463.717z"/>
<path d="M307.892,431.694h-30.961c-4.493-18.357-21.077-32.023-40.8-32.023c-23.164,0-42.008,18.845-42.008,42.008  s18.845,42.008,42.008,42.008c19.723,0,36.306-13.665,40.8-32.023h30.961c5.514,0,9.986-4.472,9.986-9.986  C317.878,436.165,313.406,431.694,307.892,431.694z M236.132,463.717c-12.151,0-22.037-9.886-22.037-22.037  c0-12.151,9.886-22.037,22.037-22.037s22.037,9.886,22.037,22.037C258.169,453.831,248.283,463.717,236.132,463.717z"/>
<path d="M465.033,431.694h-30.961c-4.494-18.357-21.077-32.023-40.8-32.023c-23.164,0-42.008,18.845-42.008,42.008  s18.845,42.008,42.008,42.008c19.723,0,36.306-13.665,40.8-32.023h30.961c5.514,0,9.986-4.472,9.986-9.986  C475.018,436.165,470.548,431.694,465.033,431.694z M393.273,463.717c-12.151,0-22.037-9.886-22.037-22.037  c0-12.151,9.886-22.037,22.037-22.037c12.151,0,22.037,9.886,22.037,22.037C415.31,453.831,405.424,463.717,393.273,463.717z"/>
<path d="M21.164,97.34h144.552v72.168h-6.799c-5.514,0-9.986,4.472-9.986,9.986c0,5.515,4.472,9.986,9.986,9.986h16.785h4.165  v19.116c0,4.32,2.778,8.15,6.885,9.492l38.753,12.659v6.606h-68.07c-5.515,0-9.986,4.472-9.986,9.986  c0,5.515,4.471,9.986,9.986,9.986h78.055h41.019h78.055c5.515,0,9.986-4.472,9.986-9.986c0-5.514-4.471-9.986-9.986-9.986h-68.07  v-6.606l38.753-12.659c4.107-1.342,6.886-5.173,6.886-9.492v-19.116h4.165h16.785c5.514,0,9.986-4.471,9.986-9.986  c0-5.514-4.472-9.986-9.986-9.986h-6.799V97.34h144.552c5.515,0,9.986-4.472,9.986-9.986V10.356c0-5.515-4.471-9.986-9.986-9.986  H21.164c-5.514,0-9.986,4.471-9.986,9.986v76.999C11.179,92.869,15.65,97.34,21.164,97.34z M301.615,117.183  c1.974,2.328,4.788,3.525,7.619,3.525c2.283,0,4.578-0.779,6.456-2.372l10.624-9.014v47.58l-10.624-9.014  c-4.204-3.569-10.508-3.053-14.075,1.153c-3.568,4.205-3.052,10.506,1.153,14.075l7.532,6.391H201.699l7.532-6.391  c4.205-3.568,4.722-9.87,1.153-14.075c-3.567-4.205-9.87-4.722-14.075-1.153l-10.624,9.014v-47.58l10.624,9.014  c1.877,1.594,4.172,2.372,6.456,2.372c2.831,0,5.644-1.197,7.619-3.525c3.568-4.205,3.052-10.506-1.153-14.075l-6.798-5.768h107.133  l-6.798,5.768C298.563,106.676,298.047,112.978,301.615,117.183z M312.162,201.353l-38.753,12.659  c-4.107,1.342-6.885,5.173-6.885,9.492v13.85h-21.048v-13.85c0-4.32-2.778-8.15-6.885-9.492l-38.753-12.659V189.48h112.324V201.353z   M480.85,20.341v57.028H336.298H175.702H31.15V58.841h374.478c5.514,0,9.986-4.472,9.986-9.986s-4.472-9.986-9.986-9.986H31.15  V20.341H480.85z"/>
<g>
</g>
<g>
</g>
<g>
</g>
<g>
</g>
<g>
</g>
<g>
</g>
<g>
</g>
<g>
</g>
<g>
</g>
<g>
</g>
<g>
</g>
<g>
</g>
<g>
</g>
<g>
</g>
<g>
</g>
</svg>
