<?xml version="1.0" encoding="iso-8859-1"?>
<!-- Generator: Adobe Illustrator 19.0.0, SVG Export Plug-In . SVG Version: 6.00 Build 0)  -->
<svg xmlns="http://www.w3.org/2000/svg" xmlns:xlink="http://www.w3.org/1999/xlink" version="1.1" id="Capa_1" x="0px" y="0px" viewBox="0 0 512 512" style="enable-background:new 0 0 512 512;" xml:space="preserve">
<polygon style="fill:#FDB845;" points="325.639,74.59 186.361,74.59 116.721,161 186.361,247.41 325.639,247.41 395.279,161 "/>
<path d="M311.38,171c-0.65,0-1.311-0.07-1.95-0.2c-0.64-0.12-1.27-0.32-1.87-0.57c-0.609-0.25-1.189-0.56-1.729-0.92  c-0.55-0.359-1.061-0.779-1.521-1.24c-0.46-0.46-0.88-0.97-1.24-1.52c-0.359-0.54-0.67-1.12-0.92-1.73  c-0.25-0.6-0.439-1.23-0.569-1.869c-0.13-0.641-0.2-1.301-0.2-1.95c0-0.65,0.07-1.311,0.2-1.95c0.13-0.64,0.319-1.27,0.569-1.87  c0.25-0.61,0.561-1.189,0.92-1.73c0.36-0.551,0.78-1.061,1.24-1.52c0.46-0.46,0.971-0.88,1.521-1.24  c0.54-0.359,1.12-0.67,1.729-0.92c0.601-0.25,1.23-0.45,1.87-0.569c1.29-0.261,2.62-0.261,3.91,0c0.63,0.119,1.26,0.319,1.87,0.569  c0.6,0.25,1.18,0.561,1.72,0.92c0.55,0.36,1.06,0.78,1.52,1.24s0.88,0.97,1.25,1.52c0.359,0.54,0.67,1.119,0.92,1.73  c0.239,0.601,0.439,1.23,0.569,1.87c0.12,0.64,0.19,1.3,0.19,1.95c0,0.649-0.07,1.31-0.19,1.95c-0.13,0.64-0.33,1.27-0.569,1.869  c-0.25,0.61-0.561,1.19-0.92,1.73c-0.37,0.55-0.79,1.06-1.25,1.52c-0.46,0.461-0.971,0.881-1.52,1.24  c-0.54,0.36-1.12,0.67-1.72,0.92c-0.61,0.25-1.24,0.45-1.87,0.57C312.69,170.93,312.03,171,311.38,171z"/>
<g>
	<rect x="213.71" y="10" style="fill:#076893;" width="84.59" height="64.59"/>
	<rect x="226.33" y="247.41" style="fill:#076893;" width="59.33" height="39.59"/>
</g>
<rect x="78.33" y="397.69" style="fill:#676767;" width="80.67" height="104.31"/>
<rect x="215.67" y="397.69" style="fill:#939393;" width="80.67" height="104.31"/>
<rect x="353" y="397.69" style="fill:#676767;" width="80.67" height="104.31"/>
<path d="M118.67,482c-0.65,0-1.31-0.07-1.96-0.2c-0.64-0.12-1.26-0.32-1.87-0.57c-0.6-0.25-1.18-0.56-1.72-0.92  c-0.55-0.359-1.06-0.779-1.53-1.24c-0.46-0.46-0.87-0.97-1.24-1.52c-0.36-0.54-0.67-1.12-0.92-1.73c-0.25-0.6-0.44-1.229-0.57-1.869  c-0.13-0.641-0.19-1.301-0.19-1.95c0-0.65,0.06-1.31,0.19-1.95c0.13-0.64,0.32-1.27,0.57-1.88c0.25-0.601,0.56-1.18,0.92-1.72  c0.37-0.551,0.78-1.061,1.24-1.521c0.47-0.46,0.98-0.88,1.53-1.24c0.54-0.37,1.12-0.67,1.72-0.92c0.61-0.25,1.23-0.45,1.87-0.58  c3.25-0.65,6.7,0.42,9.03,2.74c0.46,0.46,0.88,0.97,1.24,1.521c0.36,0.54,0.67,1.119,0.92,1.72c0.25,0.61,0.44,1.24,0.57,1.88  s0.2,1.3,0.2,1.95c0,0.649-0.07,1.31-0.2,1.95c-0.13,0.64-0.32,1.27-0.57,1.869c-0.25,0.61-0.56,1.19-0.92,1.73  c-0.36,0.55-0.78,1.06-1.24,1.52c-0.46,0.461-0.97,0.881-1.52,1.24c-0.54,0.36-1.13,0.67-1.73,0.92c-0.6,0.25-1.23,0.45-1.87,0.57  C119.98,481.93,119.32,482,118.67,482z"/>
<path d="M256,438.819c-0.65,0-1.31-0.06-1.95-0.189c-0.64-0.13-1.27-0.32-1.88-0.57c-0.6-0.25-1.18-0.56-1.72-0.92  c-0.55-0.37-1.06-0.79-1.52-1.25s-0.88-0.97-1.24-1.52c-0.36-0.54-0.67-1.12-0.92-1.721c-0.25-0.609-0.45-1.239-0.57-1.869  c-0.13-0.65-0.2-1.311-0.2-1.961c0-0.649,0.07-1.31,0.2-1.949c0.12-0.641,0.32-1.27,0.57-1.87c0.25-0.601,0.56-1.19,0.92-1.73  c0.36-0.55,0.78-1.06,1.24-1.52s0.97-0.88,1.52-1.24c0.54-0.36,1.12-0.67,1.72-0.92c0.61-0.25,1.24-0.44,1.88-0.57  c1.29-0.26,2.61-0.26,3.9,0c0.64,0.13,1.27,0.32,1.869,0.57c0.61,0.25,1.191,0.56,1.73,0.92c0.55,0.36,1.06,0.78,1.52,1.24  c0.461,0.46,0.881,0.97,1.24,1.52c0.36,0.54,0.67,1.13,0.92,1.73s0.45,1.229,0.57,1.87c0.13,0.64,0.2,1.3,0.2,1.949  c0,0.65-0.07,1.311-0.2,1.961c-0.13,0.63-0.32,1.26-0.57,1.869c-0.25,0.601-0.56,1.181-0.92,1.721c-0.359,0.55-0.779,1.06-1.24,1.52  c-0.46,0.46-0.97,0.88-1.52,1.25c-0.54,0.36-1.12,0.67-1.73,0.92c-0.6,0.25-1.229,0.44-1.869,0.57  C257.31,438.76,256.65,438.819,256,438.819z"/>
<path d="M472.213,492h-28.546v-84.315h28.546c5.522,0,10-4.477,10-10c0-5.522-4.478-10-10-10h-38.546h-40.79l-106.35-43.672  c0.983-3.073,1.518-6.344,1.518-9.739c0-14.18-9.257-26.237-22.045-30.447V297h19.667c5.522,0,10-4.478,10-10v-29.591h29.973  c3.025,0,5.888-1.369,7.786-3.725l69.639-86.409c2.952-3.663,2.952-8.888,0-12.551l-69.639-86.409  c-1.898-2.355-4.761-3.725-7.786-3.725h-17.345V10c0-5.523-4.478-10-10-10h-84.59c-5.523,0-10,4.477-10,10v54.591H186.36  c-3.025,0-5.888,1.369-7.786,3.725l-69.639,86.409c-2.952,3.663-2.952,8.888,0,12.551l69.639,86.409  c1.898,2.355,4.761,3.725,7.786,3.725h29.973V287c0,5.522,4.477,10,10,10H246v15.229c0,5.523,4.477,10,10,10  c6.642,0,12.045,5.403,12.045,12.045c0,0.707-0.074,1.396-0.191,2.071l-8.055-3.308c-2.434-1-5.163-1-7.598,0l-8.055,3.308  c-0.118-0.674-0.191-1.363-0.191-2.071c0-5.522-4.477-10-10-10s-10,4.478-10,10c0,3.395,0.535,6.666,1.518,9.739l-106.35,43.672  h-40.79H39.787c-5.523,0-10,4.478-10,10c0,5.523,4.477,10,10,10h28.546V492H39.787c-5.523,0-10,4.478-10,10s4.477,10,10,10h38.546  H159h56.666h80.667H353h80.667h38.546c5.522,0,10-4.478,10-10S477.735,492,472.213,492z M207.614,237.409l11.832-11.832  c3.905-3.905,3.905-10.237,0-14.143c-3.905-3.904-10.237-3.904-14.143,0l-19.432,19.432L137.624,171h138.17c5.522,0,10-4.477,10-10  s-4.478-10-10-10h-138.17l48.248-59.867l19.432,19.432c1.953,1.952,4.512,2.929,7.071,2.929s5.119-0.977,7.071-2.929  c3.905-3.905,3.905-10.237,0-14.143L207.614,84.59h6.09h84.59h6.091l-11.832,11.832c-3.905,3.905-3.905,10.237,0,14.143  c1.953,1.952,4.512,2.929,7.071,2.929s5.118-0.977,7.071-2.929l19.432-19.432L374.376,151h-23.154c-5.522,0-10,4.477-10,10  s4.478,10,10,10h23.154l-48.247,59.867l-19.432-19.432c-3.906-3.904-10.236-3.904-14.143,0c-3.905,3.905-3.905,10.237,0,14.143  l11.832,11.832h-18.719h-59.334h-18.719V237.409z M223.705,20h64.59v44.591h-64.59L223.705,20L223.705,20z M236.333,257.409h39.334  V277h-39.334V257.409z M205.666,407.685V492H169v-84.315H205.666z M171.771,387.685l65.978-27.093  c5.183,3.606,11.473,5.727,18.251,5.727c6.779,0,13.068-2.121,18.251-5.727l65.977,27.093h-43.896h-80.667H171.771z M343,407.685  V492h-36.667v-84.315H343z M88.333,492v-84.315h20.333v28.725c0,5.522,4.477,10,10,10s10-4.478,10-10v-28.725H149V492H88.333z   M266,492v-27.588c0-5.523-4.478-10-10-10c-5.523,0-10,4.477-10,10V492h-20.334v-84.315h60.667V492H266z M363,492v-84.315h22.278  v28.725c0,5.522,4.478,10,10,10s10-4.478,10-10v-28.725h18.389V492H363z"/>
<path d="M395.28,482c-2.641,0-5.211-1.07-7.07-2.931c-0.46-0.46-0.88-0.97-1.25-1.52c-0.36-0.54-0.67-1.12-0.92-1.73  c-0.25-0.6-0.44-1.229-0.57-1.869c-0.13-0.641-0.189-1.301-0.189-1.95c0-0.65,0.06-1.31,0.189-1.95c0.13-0.64,0.32-1.27,0.57-1.88  c0.25-0.601,0.56-1.18,0.92-1.72c0.37-0.551,0.79-1.061,1.25-1.521c2.32-2.32,5.77-3.39,9.02-2.74c0.641,0.13,1.27,0.33,1.87,0.58  c0.61,0.25,1.19,0.55,1.73,0.92c0.55,0.36,1.06,0.78,1.52,1.24s0.88,0.97,1.24,1.521c0.36,0.54,0.67,1.119,0.92,1.72  c0.25,0.61,0.44,1.24,0.57,1.88s0.2,1.3,0.2,1.95c0,0.649-0.07,1.31-0.2,1.95s-0.32,1.27-0.57,1.869c-0.25,0.61-0.56,1.19-0.92,1.73  c-0.36,0.55-0.78,1.06-1.24,1.52c-0.46,0.461-0.97,0.881-1.52,1.24c-0.54,0.36-1.12,0.67-1.73,0.92c-0.6,0.25-1.229,0.45-1.87,0.57  C396.59,481.93,395.93,482,395.28,482z"/>
<g>
</g>
<g>
</g>
<g>
</g>
<g>
</g>
<g>
</g>
<g>
</g>
<g>
</g>
<g>
</g>
<g>
</g>
<g>
</g>
<g>
</g>
<g>
</g>
<g>
</g>
<g>
</g>
<g>
</g>
</svg>
