<?xml version="1.0" encoding="iso-8859-1"?>
<!-- Generator: Adobe Illustrator 19.0.0, SVG Export Plug-In . SVG Version: 6.00 Build 0)  -->
<svg xmlns="http://www.w3.org/2000/svg" xmlns:xlink="http://www.w3.org/1999/xlink" version="1.1" id="Capa_1" x="0px" y="0px" viewBox="0 0 512 512" style="enable-background:new 0 0 512 512;" xml:space="preserve">
<rect x="35.14" y="69.26" style="fill:#BFDEFF;" width="440.43" height="298.04"/>
<path style="fill:#076893;" d="M469.106,442.74h-427.5C22.967,442.74,10,427.63,10,408.99v-41.693h492v41.693  C502,427.63,487.746,442.74,469.106,442.74z"/>
<path style="fill:#FDB845;" d="M344.624,367.297c6.665-13.372,10.42-28.449,10.42-44.405c0-55.056-44.632-99.688-99.688-99.688  s-99.688,44.632-99.688,99.688c0,15.956,3.755,31.033,10.42,44.405H344.624z"/>
<path style="fill:#676767;" d="M387.584,289.721c-3.288-13.149-8.484-25.54-15.28-36.863l26.062-35.979l-36.997-36.997  l-35.979,26.062c-11.323-6.796-23.715-11.992-36.863-15.28l-7.01-43.858h-52.321l-7.01,43.858  c-13.149,3.288-25.54,8.484-36.864,15.28l-35.979-26.062l-36.996,36.997l26.061,35.979c-6.796,11.324-11.991,23.715-15.28,36.863  l-43.858,7.011v52.321l43.858,7.01c0.954,3.814,2.086,7.555,3.354,11.234h39.606c-6.665-13.372-10.42-28.449-10.42-44.405  c0-55.056,44.632-99.688,99.688-99.688s99.688,44.632,99.688,99.688c0,15.956-3.755,31.033-10.42,44.405h39.606  c1.267-3.679,2.4-7.42,3.354-11.234l43.858-7.01v-52.321L387.584,289.721z"/>
<path style="fill:#4184B2;" d="M242.448,367.297h25.817c19.256-5.589,33.336-23.347,33.336-44.405  c0-25.54-20.704-46.244-46.244-46.244s-46.244,20.704-46.244,46.244C209.112,343.95,223.192,361.708,242.448,367.297z"/>
<path d="M61.36,413.72c-0.66,0-1.31-0.06-1.96-0.19c-0.64-0.13-1.27-0.32-1.87-0.57s-1.18-0.56-1.73-0.92  c-0.54-0.37-1.05-0.79-1.52-1.25c-1.86-1.86-2.92-4.44-2.92-7.07c0-0.65,0.06-1.31,0.19-1.95c0.13-0.64,0.32-1.27,0.57-1.87  c0.25-0.61,0.56-1.19,0.92-1.73c0.37-0.55,0.78-1.06,1.24-1.52c0.47-0.46,0.98-0.88,1.52-1.24c0.55-0.36,1.13-0.67,1.73-0.92  s1.23-0.44,1.87-0.57c3.25-0.66,6.71,0.41,9.03,2.73c0.46,0.46,0.88,0.97,1.24,1.52c0.36,0.54,0.67,1.12,0.92,1.73  c0.25,0.6,0.44,1.23,0.57,1.87c0.13,0.64,0.2,1.3,0.2,1.95s-0.07,1.31-0.2,1.96c-0.13,0.63-0.32,1.26-0.57,1.87  c-0.25,0.6-0.56,1.18-0.92,1.72c-0.36,0.55-0.78,1.06-1.24,1.52C66.57,412.65,63.99,413.72,61.36,413.72z"/>
<path d="M435.14,117.79c-0.65,0-1.309-0.07-1.95-0.2c-0.64-0.13-1.27-0.32-1.87-0.57s-1.19-0.56-1.73-0.92s-1.06-0.78-1.52-1.24  c-0.46-0.46-0.88-0.97-1.24-1.52c-0.36-0.54-0.67-1.12-0.92-1.73c-0.25-0.6-0.44-1.23-0.57-1.87s-0.2-1.3-0.2-1.95  s0.07-1.31,0.2-1.96c0.13-0.63,0.32-1.26,0.57-1.87c0.25-0.6,0.56-1.18,0.92-1.72c0.36-0.55,0.78-1.06,1.24-1.52  c0.46-0.46,0.98-0.88,1.52-1.25c0.54-0.36,1.13-0.67,1.73-0.92s1.23-0.44,1.87-0.57c1.29-0.25,2.62-0.25,3.91,0  c0.64,0.13,1.27,0.32,1.87,0.57s1.18,0.56,1.72,0.92c0.55,0.37,1.06,0.79,1.53,1.25c0.46,0.46,0.87,0.97,1.24,1.52  c0.36,0.54,0.67,1.12,0.92,1.72c0.25,0.61,0.44,1.24,0.57,1.87c0.13,0.65,0.19,1.31,0.19,1.96c0,0.65-0.059,1.31-0.19,1.95  c-0.13,0.64-0.32,1.27-0.57,1.87c-0.25,0.61-0.56,1.19-0.92,1.73c-0.37,0.55-0.78,1.06-1.24,1.52c-0.47,0.46-0.98,0.88-1.53,1.24  c-0.54,0.36-1.12,0.67-1.72,0.92s-1.23,0.44-1.87,0.57C436.45,117.72,435.8,117.79,435.14,117.79z"/>
<path d="M502,357.297h-16.431V69.26c0-5.523-4.477-10-10-10H35.144c-5.523,0-10,4.477-10,10v288.037H10c-5.523,0-10,4.477-10,10  v41.693c0,24.941,17.887,43.75,41.606,43.75h427.5c24.053,0,42.894-19.217,42.894-43.75v-41.693  C512,361.774,507.523,357.297,502,357.297z M45.144,117.788h349c5.523,0,10-4.477,10-10c0-5.523-4.477-10-10-10h-349V79.26h420.425  v278.037h-28.467c2.643-1.817,4.34-4.857,4.34-8.244v-52.321c0-4.914-3.57-9.099-8.421-9.875l-37.501-5.995  c-2.837-9.477-6.634-18.636-11.339-27.354l22.284-30.764c2.882-3.979,2.447-9.463-1.027-12.938l-36.997-36.997  c-3.474-3.474-8.958-3.909-12.937-1.027l-30.764,22.284c-8.718-4.705-17.876-8.501-27.354-11.338l-5.995-37.502  c-0.775-4.851-4.961-8.421-9.875-8.421h-52.321c-4.914,0-9.099,3.57-9.874,8.421l-5.995,37.502  c-9.478,2.837-18.636,6.634-27.354,11.338l-30.764-22.284c-3.978-2.881-9.462-2.447-12.938,1.027l-36.997,36.997  c-3.474,3.475-3.91,8.958-1.027,12.938l22.284,30.764c-4.705,8.717-8.501,17.877-11.339,27.354l-37.501,5.995  c-4.852,0.775-8.421,4.961-8.421,9.875v52.321c0,3.387,1.697,6.427,4.34,8.244H45.144V117.788z M255.356,213.205  c-60.482,0-109.688,49.206-109.688,109.687c0,1.327,0.031,2.648,0.077,3.966c0.013,0.373,0.031,0.744,0.047,1.117  c0.046,1.029,0.107,2.056,0.181,3.08c0.023,0.32,0.042,0.641,0.068,0.961c0.106,1.298,0.232,2.591,0.383,3.88  c0.03,0.254,0.067,0.505,0.098,0.759c0.132,1.06,0.279,2.116,0.442,3.169c0.057,0.372,0.116,0.743,0.177,1.114  c0.184,1.112,0.383,2.221,0.601,3.325c0.035,0.179,0.065,0.359,0.102,0.538c0.257,1.267,0.54,2.527,0.842,3.783  c0.08,0.334,0.167,0.666,0.25,1c0.244,0.975,0.502,1.946,0.773,2.914c0.095,0.339,0.188,0.679,0.286,1.018  c0.361,1.241,0.74,2.478,1.146,3.708c0.008,0.025,0.015,0.05,0.023,0.075h-17.356c-0.353-1.237-0.68-2.458-0.981-3.66  c-0.971-3.886-4.168-6.817-8.123-7.449l-35.436-5.664V305.26l35.437-5.665c3.955-0.632,7.151-3.563,8.123-7.448  c3.004-12.014,7.766-23.501,14.153-34.144c2.061-3.435,1.874-7.768-0.476-11.012l-21.059-29.072l24.936-24.936l29.072,21.059  c3.244,2.35,7.576,2.536,11.012,0.476c10.642-6.386,22.129-11.148,34.143-14.152c3.885-0.972,6.816-4.168,7.448-8.123l5.665-35.437  h35.264l5.664,35.437c0.632,3.955,3.563,7.151,7.449,8.123c12.014,3.004,23.501,7.766,34.143,14.152  c3.437,2.063,7.769,1.874,11.012-0.476l29.072-21.059l24.936,24.936l-21.059,29.072c-2.35,3.244-2.537,7.578-0.476,11.012  c6.387,10.642,11.148,22.129,14.153,34.144c0.972,3.885,4.168,6.816,8.123,7.448l35.436,5.665v35.265l-35.436,5.664  c-3.956,0.632-7.152,3.563-8.123,7.449c-0.301,1.202-0.628,2.423-0.981,3.66h-17.356c0.008-0.025,0.015-0.05,0.023-0.075  c0.406-1.229,0.785-2.466,1.146-3.708c0.099-0.338,0.191-0.678,0.286-1.018c0.271-0.968,0.529-1.939,0.773-2.914  c0.083-0.333,0.17-0.665,0.25-1c0.302-1.256,0.585-2.516,0.842-3.783c0.036-0.179,0.066-0.359,0.102-0.538  c0.218-1.104,0.417-2.213,0.601-3.325c0.061-0.371,0.12-0.742,0.177-1.114c0.162-1.053,0.31-2.109,0.442-3.169  c0.031-0.253,0.068-0.505,0.098-0.759c0.151-1.288,0.278-2.582,0.383-3.88c0.026-0.32,0.045-0.641,0.068-0.961  c0.074-1.024,0.135-2.05,0.181-3.08c0.017-0.372,0.034-0.744,0.047-1.117c0.046-1.318,0.077-2.639,0.077-3.966  C365.044,262.41,315.838,213.205,255.356,213.205z M219.112,322.892c0-19.985,16.259-36.245,36.244-36.245  s36.245,16.259,36.245,36.245c0,15.58-10.151,29.538-24.847,34.405H243.96C229.263,352.43,219.112,338.472,219.112,322.892z   M255.356,266.647c-31.013,0-56.244,25.231-56.244,56.245c0,12.732,4.378,24.761,11.847,34.405h-38.445  c-0.053-0.128-0.105-0.256-0.158-0.384c-0.503-1.222-0.986-2.449-1.432-3.687c-0.021-0.059-0.04-0.119-0.061-0.178  c-0.435-1.213-0.837-2.435-1.217-3.663c-0.059-0.192-0.122-0.382-0.18-0.574c-0.369-1.219-0.707-2.446-1.023-3.68  c-0.062-0.242-0.122-0.484-0.182-0.727c-0.307-1.244-0.591-2.493-0.843-3.75c-0.033-0.164-0.061-0.329-0.093-0.493  c-0.239-1.229-0.454-2.464-0.641-3.705c-0.02-0.133-0.044-0.264-0.063-0.397c-0.187-1.281-0.341-2.57-0.473-3.863  c-0.025-0.248-0.051-0.495-0.074-0.743c-0.119-1.274-0.214-2.553-0.279-3.837c-0.011-0.224-0.019-0.449-0.029-0.674  c-0.059-1.345-0.097-2.694-0.097-4.051c0-4.636,0.354-9.192,1.035-13.64c0.227-1.483,0.491-2.954,0.79-4.412  c0.299-1.458,0.634-2.904,1.003-4.335c9.6-37.225,42.563-65.164,82.251-67.183c1.526-0.078,3.063-0.117,4.608-0.117  c49.454,0,89.688,40.233,89.688,89.687c0,1.356-0.039,2.706-0.097,4.051c-0.01,0.225-0.017,0.45-0.029,0.674  c-0.066,1.285-0.16,2.564-0.279,3.837c-0.023,0.248-0.049,0.496-0.074,0.743c-0.132,1.293-0.285,2.582-0.473,3.863  c-0.019,0.133-0.043,0.264-0.063,0.397c-0.187,1.241-0.402,2.476-0.641,3.705c-0.032,0.164-0.06,0.329-0.093,0.493  c-0.252,1.257-0.537,2.507-0.843,3.75c-0.06,0.242-0.12,0.485-0.182,0.727c-0.315,1.233-0.654,2.46-1.023,3.68  c-0.058,0.192-0.121,0.383-0.18,0.574c-0.38,1.228-0.783,2.45-1.217,3.663c-0.021,0.059-0.04,0.119-0.061,0.178  c-0.447,1.238-0.929,2.465-1.432,3.687c-0.053,0.128-0.105,0.256-0.158,0.384h-38.445c7.469-9.644,11.847-21.673,11.847-34.405  C311.601,291.879,286.369,266.647,255.356,266.647z M492,393.722H102.357c-5.523,0-10,4.477-10,10s4.477,10,10,10h389.205  c-2.06,10.976-11.184,19.018-22.456,19.018h-427.5c-12.52,0-21.606-9.988-21.606-23.75v-31.693h15.144h91.338h39.606h76.359h25.817  h76.359h39.607h91.338H492V393.722z"/>
<g>
</g>
<g>
</g>
<g>
</g>
<g>
</g>
<g>
</g>
<g>
</g>
<g>
</g>
<g>
</g>
<g>
</g>
<g>
</g>
<g>
</g>
<g>
</g>
<g>
</g>
<g>
</g>
<g>
</g>
</svg>
