<?xml version="1.0" encoding="iso-8859-1"?>
<!-- Generator: Adobe Illustrator 19.0.0, SVG Export Plug-In . SVG Version: 6.00 Build 0)  -->
<svg xmlns="http://www.w3.org/2000/svg" xmlns:xlink="http://www.w3.org/1999/xlink" version="1.1" id="Capa_1" x="0px" y="0px" viewBox="0 0 512 512" style="enable-background:new 0 0 512 512;" xml:space="preserve">
<path style="fill:#C69F7F;" d="M35.588,390.534l-7.834,7.834c-23.715,23.715-23.715,62.164,0,85.879l0,0  c23.715,23.715,62.164,23.715,85.879,0l7.834-7.833L35.588,390.534z"/>
<path style="fill:#076893;" d="M237.973,274.028c-15.331-15.332-26.515-33.233-33.553-52.323L35.588,390.534l85.879,85.879  l168.831-168.831C271.207,300.543,253.304,289.36,237.973,274.028z"/>
<path d="M207.2,314.8c-0.65,0-1.31-0.07-1.95-0.2c-0.64-0.13-1.27-0.32-1.87-0.57c-0.61-0.25-1.19-0.56-1.73-0.92  c-0.55-0.36-1.06-0.78-1.52-1.24c-1.86-1.86-2.93-4.44-2.93-7.07s1.07-5.21,2.93-7.07c0.46-0.46,0.97-0.88,1.52-1.25  c0.54-0.36,1.12-0.67,1.73-0.92c0.6-0.25,1.23-0.44,1.87-0.57c1.29-0.26,2.62-0.26,3.91,0c0.63,0.13,1.26,0.32,1.87,0.57  c0.6,0.25,1.18,0.56,1.72,0.92c0.55,0.37,1.06,0.79,1.52,1.25c0.47,0.46,0.88,0.97,1.25,1.52c0.36,0.54,0.67,1.12,0.92,1.72  c0.25,0.61,0.44,1.24,0.57,1.87c0.13,0.65,0.19,1.31,0.19,1.96c0,2.63-1.06,5.21-2.93,7.07c-0.46,0.46-0.97,0.88-1.52,1.24  c-0.54,0.36-1.12,0.67-1.72,0.92c-0.61,0.25-1.24,0.44-1.87,0.57C208.51,314.73,207.85,314.8,207.2,314.8z"/>
<polygon style="fill:#676767;" points="367.383,10.001 473.55,38.45 501.999,144.617 424.695,221.921 318.528,193.473   290.079,87.306 "/>
<path style="fill:#FDB845;" d="M424.695,221.921l-106.167-28.449L290.079,87.306l60.736-60.736  c-40.472-2.831-81.902,11.22-112.842,42.16c-56.692,56.692-56.692,148.608,0,205.299s148.607,56.692,205.299,0  c30.94-30.94,44.992-72.372,42.16-112.842L424.695,221.921z"/>
<circle style="fill:#BFBFBF;" cx="396.036" cy="115.958" r="44.013"/>
<path d="M396.039,169.949c-13.832,0-27.663-5.265-38.192-15.794c-21.059-21.06-21.059-55.327,0-76.386  c10.202-10.202,23.767-15.82,38.193-15.82c14.427,0,27.991,5.618,38.192,15.82s15.82,23.766,15.82,38.192  s-5.618,27.992-15.82,38.193C423.702,164.684,409.871,169.949,396.039,169.949z M396.039,81.949c-9.086,0-17.626,3.538-24.05,9.962  c-13.261,13.261-13.261,34.838,0,48.1c13.261,13.26,34.837,13.26,48.099,0c6.424-6.423,9.962-14.965,9.962-24.05  s-3.538-17.626-9.962-24.05C413.665,85.488,405.124,81.949,396.039,81.949z"/>
<path d="M511.66,142.029L483.21,35.861c-0.008-0.028-0.02-0.054-0.028-0.083c-0.108-0.393-0.238-0.78-0.395-1.16  c-0.01-0.024-0.022-0.046-0.032-0.069c-0.144-0.34-0.311-0.672-0.495-0.998c-0.05-0.089-0.103-0.176-0.156-0.263  c-0.158-0.261-0.329-0.516-0.513-0.764c-0.061-0.083-0.119-0.168-0.183-0.249c-0.244-0.309-0.501-0.611-0.787-0.896  c-0.285-0.285-0.587-0.543-0.896-0.787c-0.08-0.063-0.164-0.12-0.246-0.181c-0.25-0.185-0.506-0.357-0.768-0.515  c-0.086-0.052-0.172-0.104-0.26-0.154c-0.328-0.185-0.662-0.353-1.004-0.498c-0.022-0.009-0.042-0.02-0.064-0.029  c-0.38-0.158-0.769-0.287-1.162-0.396c-0.028-0.008-0.053-0.02-0.081-0.028L369.971,0.341c-3.451-0.925-7.132,0.062-9.661,2.588  l-13.415,13.415c-43.257-1.737-85.307,14.625-115.995,45.313c-29.308,29.308-45.448,68.274-45.448,109.721  c0,16.442,2.549,32.491,7.444,47.705L28.52,383.458c-0.002,0.002-0.003,0.003-0.005,0.005l-7.834,7.834  c-27.576,27.576-27.576,72.446,0,100.022C34.47,505.107,52.581,512,70.692,512s36.223-6.894,50.011-20.681l7.833-7.833  l164.45-164.45c15.458,4.958,31.546,7.439,47.634,7.439c39.736,0,79.47-15.125,109.721-45.375  c30.688-30.688,47.054-72.738,45.314-115.996l13.414-13.414C511.597,149.163,512.584,145.48,511.66,142.029z M467.494,145.49  l15.366,4.123l-4.5,4.5l-48.668,48.668l-4.123-15.366c-1.431-5.333-6.915-8.5-12.251-7.066c-5.334,1.431-8.499,6.916-7.066,12.251  l4.055,15.113l-72.458-19.415l11.052-11.052c3.905-3.905,3.905-10.238,0-14.144c-3.905-3.905-10.238-3.905-14.143,0l-11.052,11.052  l-19.416-72.458l15.113,4.055c0.868,0.233,1.74,0.344,2.598,0.344c4.414,0,8.455-2.945,9.653-7.411  c1.432-5.334-1.732-10.82-7.066-12.251l-15.366-4.123l48.668-48.668l4.5-4.5l4.123,15.367c1.198,4.466,5.238,7.411,9.653,7.411  c0.858,0,1.73-0.111,2.598-0.344c5.334-1.431,8.499-6.916,7.066-12.251l-4.055-15.113l72.458,19.416l-11.053,11.053  c-3.905,3.905-3.905,10.238,0.001,14.143c1.953,1.953,4.512,2.929,7.071,2.929c2.559,0,5.119-0.977,7.071-2.929l11.052-11.053  l19.416,72.459l-15.113-4.055c-5.331-1.43-10.82,1.732-12.251,7.066C458.994,138.573,462.159,144.058,467.494,145.49z   M34.826,405.439l0.762-0.762l28.796,28.796l-35.926,35.926C15.348,449.704,17.469,422.796,34.826,405.439z M70.693,492.008  c-9.809-0.001-19.618-2.825-28.092-8.465l35.926-35.926l28.796,28.797l-0.762,0.761C96.672,487.065,83.685,492.009,70.693,492.008z   M272.76,310.976L121.466,462.27L92.67,433.474l95.622-95.622c3.905-3.905,3.905-10.238,0-14.144  c-3.905-3.905-10.238-3.905-14.144,0L78.527,419.33l-28.796-28.796l151.28-151.277c2.298,4.717,4.84,9.322,7.621,13.798  c0.076,0.123,0.151,0.246,0.227,0.368c0.415,0.663,0.837,1.323,1.262,1.981c0.253,0.393,0.508,0.784,0.765,1.175  c0.334,0.506,0.669,1.01,1.009,1.513c0.382,0.566,0.77,1.128,1.161,1.689c0.257,0.369,0.512,0.739,0.772,1.106  c0.574,0.811,1.158,1.616,1.749,2.417c0.099,0.133,0.194,0.269,0.293,0.402c1.458,1.962,2.966,3.891,4.521,5.789  c0.164,0.2,0.331,0.398,0.496,0.598c0.6,0.725,1.206,1.445,1.82,2.16c0.227,0.265,0.457,0.529,0.686,0.792  c0.565,0.649,1.136,1.295,1.713,1.936c0.254,0.283,0.508,0.566,0.765,0.847c0.586,0.643,1.181,1.28,1.779,1.914  c0.24,0.255,0.477,0.511,0.719,0.764c0.833,0.872,1.675,1.738,2.531,2.594c0.881,0.881,1.772,1.746,2.67,2.603  c0.221,0.211,0.445,0.418,0.667,0.628c0.722,0.681,1.448,1.355,2.18,2.02c0.182,0.165,0.365,0.33,0.548,0.495  c0.881,0.794,1.77,1.576,2.666,2.348c0.009,0.008,0.017,0.015,0.026,0.023C249.773,297.911,260.84,305.193,272.76,310.976z   M436.2,266.956c-50.229,50.229-130.48,52.585-183.527,7.069c-0.018-0.016-0.036-0.032-0.055-0.048  c-0.835-0.717-1.663-1.446-2.484-2.187c-0.293-0.265-0.581-0.538-0.873-0.806c-0.557-0.512-1.115-1.021-1.666-1.544  c-0.859-0.816-1.71-1.643-2.551-2.484c-0.836-0.836-1.658-1.682-2.469-2.535c-0.301-0.317-0.594-0.64-0.891-0.959  c-0.495-0.53-0.99-1.06-1.475-1.597c-0.385-0.427-0.762-0.859-1.142-1.29c-0.383-0.435-0.767-0.868-1.144-1.307  c-0.418-0.486-0.827-0.978-1.238-1.469c-0.326-0.39-0.652-0.78-0.972-1.173c-0.424-0.519-0.841-1.043-1.256-1.568  c-0.3-0.379-0.599-0.758-0.894-1.14c-0.411-0.531-0.816-1.064-1.219-1.6c-0.297-0.396-0.592-0.793-0.884-1.192  c-0.379-0.517-0.756-1.036-1.127-1.557c-0.323-0.454-0.642-0.911-0.959-1.369c-0.323-0.465-0.645-0.931-0.961-1.399  c-0.397-0.589-0.787-1.183-1.175-1.778c-0.221-0.339-0.444-0.676-0.662-1.016c-5.148-8.067-9.42-16.67-12.772-25.759  c-0.051-0.139-0.122-0.268-0.179-0.404c-5.364-14.689-8.169-30.359-8.169-46.462c0-36.104,14.06-70.049,39.59-95.578  c22.009-22.008,50.723-35.562,81.216-38.82l-43.253,43.253c-2.526,2.526-3.513,6.208-2.588,9.661l28.449,106.167  c0.008,0.028,0.02,0.054,0.028,0.082c0.108,0.393,0.238,0.781,0.395,1.161c0.009,0.022,0.021,0.043,0.03,0.066  c0.145,0.342,0.313,0.676,0.498,1.004c0.049,0.087,0.1,0.172,0.152,0.257c0.16,0.264,0.333,0.522,0.519,0.773  c0.059,0.08,0.115,0.163,0.177,0.241c0.244,0.31,0.503,0.612,0.789,0.898c0.286,0.286,0.589,0.545,0.899,0.789  c0.078,0.061,0.16,0.117,0.239,0.176c0.252,0.187,0.511,0.36,0.776,0.52c0.085,0.051,0.169,0.102,0.255,0.151  c0.329,0.186,0.665,0.355,1.01,0.5c0.02,0.009,0.04,0.019,0.06,0.028c0.381,0.158,0.769,0.287,1.163,0.396  c0.028,0.008,0.053,0.02,0.081,0.028l106.167,28.449c0.429,0.115,0.861,0.2,1.294,0.257c0.263,0.034,0.527,0.038,0.79,0.051  c0.168,0.008,0.336,0.033,0.504,0.033c0.002,0,0.004,0,0.006,0c0.037,0,0.073-0.005,0.109-0.005c0.355-0.004,0.708-0.03,1.058-0.071  c0.124-0.015,0.245-0.035,0.368-0.054c0.276-0.043,0.549-0.098,0.82-0.164c0.117-0.029,0.234-0.055,0.35-0.087  c0.371-0.105,0.737-0.224,1.094-0.371c0.019-0.008,0.036-0.018,0.055-0.026c0.341-0.143,0.672-0.308,0.996-0.489  c0.105-0.058,0.206-0.122,0.309-0.184c0.245-0.148,0.484-0.307,0.717-0.477c0.097-0.071,0.195-0.139,0.29-0.214  c0.306-0.241,0.604-0.495,0.884-0.773c0.005-0.005,0.01-0.008,0.015-0.013l27.735-27.735l15.518-15.518  C471.761,216.231,458.206,244.95,436.2,266.956z"/>
<path style="fill:#C69F7F;" d="M297.647,269.991l-55.637-55.637c-7.598-7.597-7.598-19.915,0-27.514l0,0  c7.597-7.597,19.916-7.597,27.514,0l55.637,55.637c7.598,7.597,7.598,19.916,0,27.513l0,0  C317.562,277.588,305.244,277.588,297.647,269.991z"/>
<path d="M311.403,285.676c-7.542,0-15.086-2.871-20.828-8.614l-55.636-55.636c-11.485-11.485-11.485-30.172,0-41.657  c5.563-5.563,12.961-8.627,20.828-8.627c7.867,0,15.265,3.063,20.828,8.628l55.637,55.636c5.563,5.563,8.627,12.96,8.627,20.828  c0,7.868-3.063,15.265-8.627,20.828C326.489,282.804,318.946,285.676,311.403,285.676z M255.767,191.143  c-2.525,0-4.899,0.983-6.685,2.769c-3.686,3.686-3.686,9.685,0,13.37l55.636,55.636c3.686,3.686,9.685,3.686,13.37,0  c1.786-1.785,2.769-4.159,2.769-6.685c0-2.525-0.983-4.899-2.768-6.684l-55.637-55.636  C260.666,192.127,258.292,191.143,255.767,191.143z"/>
<g>
</g>
<g>
</g>
<g>
</g>
<g>
</g>
<g>
</g>
<g>
</g>
<g>
</g>
<g>
</g>
<g>
</g>
<g>
</g>
<g>
</g>
<g>
</g>
<g>
</g>
<g>
</g>
<g>
</g>
</svg>
