<?xml version="1.0" encoding="iso-8859-1"?>
<!-- Generator: Adobe Illustrator 19.0.0, SVG Export Plug-In . SVG Version: 6.00 Build 0)  -->
<svg xmlns="http://www.w3.org/2000/svg" xmlns:xlink="http://www.w3.org/1999/xlink" version="1.1" id="Capa_1" x="0px" y="0px" viewBox="0 0 512 512" style="enable-background:new 0 0 512 512;" xml:space="preserve">
<polygon style="fill:#676767;" points="104.043,69.965 181.601,69.965 142.822,10 "/>
<polygon style="fill:#076893;" points="192.721,285.65 192.721,89.077 165.426,120.002 120.218,120.002 92.923,89.077   92.923,285.65 "/>
<polygon style="fill:#FDB845;" points="181.601,69.965 104.043,69.965 92.923,87.161 92.923,89.077 120.218,120.002   165.426,120.002 192.721,89.077 192.721,87.161 "/>
<path d="M142.819,166.63c-0.65,0-1.31-0.06-1.95-0.19s-1.27-0.32-1.87-0.57c-0.6-0.25-1.19-0.559-1.73-0.92  c-0.54-0.37-1.06-0.78-1.52-1.24s-0.88-0.98-1.24-1.52c-0.36-0.55-0.67-1.13-0.92-1.73c-0.25-0.6-0.44-1.23-0.57-1.87  c-0.13-0.65-0.2-1.3-0.2-1.95c0-0.66,0.07-1.31,0.2-1.96c0.13-0.64,0.32-1.27,0.57-1.87c0.25-0.6,0.56-1.191,0.92-1.73  c0.36-0.54,0.78-1.06,1.24-1.52c0.46-0.461,0.98-0.88,1.52-1.24c0.54-0.36,1.13-0.67,1.73-0.92c0.6-0.25,1.23-0.44,1.87-0.57  c1.29-0.26,2.62-0.26,3.91,0c0.63,0.13,1.26,0.32,1.87,0.57c0.6,0.25,1.18,0.56,1.72,0.92c0.55,0.36,1.06,0.78,1.52,1.24  s0.88,0.98,1.25,1.52c0.36,0.55,0.671,1.13,0.921,1.73c0.25,0.6,0.44,1.23,0.57,1.87c0.13,0.65,0.19,1.3,0.19,1.96  c0,0.65-0.06,1.3-0.19,1.95c-0.13,0.64-0.32,1.27-0.57,1.87c-0.25,0.6-0.56,1.18-0.921,1.73c-0.37,0.54-0.79,1.06-1.25,1.52  s-0.97,0.87-1.52,1.24c-0.54,0.36-1.12,0.67-1.72,0.92c-0.61,0.25-1.24,0.441-1.87,0.57  C144.129,166.57,143.468,166.63,142.819,166.63z"/>
<path style="fill:#C69F7F;" d="M347.936,320.209l-30.85-23.769c-14.19-10.94-22.5-27.84-22.5-45.76v-45.52  c0-6.3-2.56-12.01-6.69-16.14c-4.13-4.14-9.85-6.69-16.15-6.69c-23.59,0-42.72,19.12-42.72,42.71v60.61H80.5  c-11.414,0-20.667,9.253-20.667,20.667v175.017C59.833,492.747,69.086,502,80.5,502h201.867c12.57,0,24.8-4.1,34.83-11.68  l30.74-23.243V320.209H347.936z"/>
<rect x="347.94" y="308.58" style="fill:#076893;" width="104.23" height="177.84"/>
<path d="M90.749,349.74c-0.66,0-1.31-0.07-1.96-0.2c-0.64-0.13-1.27-0.32-1.87-0.57c-0.6-0.25-1.18-0.56-1.73-0.92  c-0.54-0.36-1.05-0.78-1.52-1.24c-0.46-0.46-0.87-0.97-1.24-1.52c-0.36-0.54-0.67-1.12-0.92-1.73c-0.25-0.6-0.44-1.23-0.57-1.87  c-0.13-0.64-0.19-1.3-0.19-1.95c0-0.66,0.06-1.31,0.19-1.96c0.13-0.63,0.32-1.26,0.57-1.87c0.25-0.6,0.56-1.18,0.92-1.72  c0.37-0.55,0.78-1.06,1.24-1.52c0.47-0.46,0.98-0.88,1.52-1.25c0.55-0.36,1.13-0.67,1.73-0.92c0.6-0.25,1.23-0.44,1.87-0.57  c1.29-0.26,2.62-0.26,3.91,0c0.64,0.13,1.27,0.32,1.87,0.57c0.6,0.25,1.18,0.56,1.73,0.92c0.54,0.37,1.06,0.79,1.52,1.25  s0.88,0.97,1.24,1.52c0.36,0.54,0.67,1.12,0.92,1.72c0.25,0.61,0.44,1.24,0.57,1.87c0.13,0.65,0.2,1.3,0.2,1.96  c0,0.65-0.07,1.31-0.2,1.95s-0.32,1.27-0.57,1.87c-0.25,0.61-0.56,1.19-0.92,1.73c-0.36,0.55-0.78,1.06-1.24,1.52  s-0.98,0.88-1.52,1.24c-0.55,0.36-1.13,0.67-1.73,0.92c-0.6,0.25-1.23,0.44-1.87,0.57C92.059,349.67,91.399,349.74,90.749,349.74z"/>
<path d="M400.049,357.66c-0.65,0-1.31-0.06-1.95-0.19s-1.27-0.32-1.87-0.57c-0.609-0.25-1.19-0.56-1.73-0.92  c-0.55-0.36-1.06-0.78-1.52-1.24s-0.88-0.98-1.239-1.52c-0.36-0.55-0.671-1.13-0.921-1.73s-0.439-1.23-0.569-1.87  c-0.13-0.65-0.2-1.3-0.2-1.95c0-0.66,0.07-1.31,0.2-1.96c0.13-0.64,0.319-1.27,0.569-1.87s0.561-1.18,0.921-1.73  c0.359-0.54,0.779-1.05,1.239-1.52c0.46-0.46,0.971-0.87,1.52-1.24c0.54-0.36,1.12-0.67,1.73-0.92c0.601-0.25,1.23-0.44,1.87-0.57  c1.29-0.26,2.62-0.26,3.91,0c0.63,0.13,1.26,0.32,1.87,0.57c0.6,0.25,1.18,0.56,1.72,0.92c0.55,0.37,1.061,0.78,1.521,1.24  c0.46,0.47,0.88,0.98,1.25,1.52c0.359,0.55,0.67,1.13,0.92,1.73s0.44,1.23,0.569,1.87c0.131,0.65,0.19,1.3,0.19,1.96  c0,2.63-1.06,5.2-2.93,7.07c-0.46,0.46-0.971,0.88-1.521,1.24c-0.54,0.36-1.12,0.67-1.72,0.92c-0.61,0.25-1.24,0.44-1.87,0.57  C401.358,357.6,400.699,357.66,400.049,357.66z"/>
<path d="M452.167,298.576h-104.23c-2.942,0-5.579,1.278-7.408,3.3l-17.336-13.357c-11.65-8.981-18.605-23.127-18.605-37.84v-45.52  c0-8.765-3.416-17.007-9.61-23.202c-6.193-6.209-14.443-9.627-23.229-9.627c-29.07,0-52.72,23.646-52.72,52.71v50.61h-16.306V89.077  v-1.916c0-1.927-0.557-3.813-1.603-5.43L190,64.535L151.219,4.57C149.377,1.721,146.215,0,142.822,0  c-3.393,0-6.555,1.721-8.397,4.57L95.646,64.535L84.526,81.73c-1.046,1.618-1.603,3.503-1.603,5.43v1.916V275.65H80.5  c-16.91,0-30.667,13.757-30.667,30.667v175.017C49.833,498.243,63.59,512,80.5,512h201.867c14.656,0,29.167-4.866,40.861-13.703  l14.745-11.149c0.379,5.177,4.689,9.263,9.963,9.263h104.23c5.522,0,10-4.477,10-10V308.576  C462.167,303.053,457.689,298.576,452.167,298.576z M104.721,87.332l4.765-7.367h66.674l4.764,7.367l-20.009,22.671H124.73  L104.721,87.332z M142.822,28.415l20.403,31.55h-40.806L142.822,28.415z M102.923,115.519l9.798,11.101  c1.898,2.151,4.629,3.383,7.498,3.383h45.208c2.869,0,5.599-1.232,7.497-3.383l9.798-11.101V275.65h-29.899v-78.047  c0-5.523-4.477-10-10-10s-10,4.477-10,10v78.047h-29.899L102.923,115.519L102.923,115.519z M80.5,295.65h12.423h99.798h2.501  c0.088,0.007,0.173,0.022,0.262,0.027c9.102,0.471,16.424,7.73,16.671,16.523c0.26,9.271-6.961,17.059-16.154,17.502  c-9.193-0.443-16.417-8.234-16.164-17.509c0.151-5.521-4.202-10.119-9.723-10.27c-5.521-0.159-10.119,4.202-10.27,9.723  c-0.178,6.512,1.351,12.683,4.17,18.091H125.44c-5.523,0-10,4.477-10,10s4.477,10,10,10h69.911l0,0  c0.118,0.008,0.234,0.025,0.354,0.028c4.318,0.128,8.395,1.894,11.466,4.958c3.224,3.23,4.999,7.512,4.999,12.057  c0,9.166-7.078,16.581-16.17,17.013c-9.092-0.432-16.17-7.847-16.17-17.013c0-5.523-4.477-10-10-10s-10,4.477-10,10  c0,6.159,1.478,11.95,4.097,17.046H69.833v-77.509C69.833,300.435,74.618,295.65,80.5,295.65z M196.001,437.873  c-9.092-0.431-16.17-7.843-16.17-17.003c0-5.523-4.477-10-10-10s-10,4.477-10,10c0,6.159,1.479,11.95,4.099,17.045H69.833v-34.089  h125.503c0.121,0.008,0.24,0.026,0.362,0.029c9.237,0.279,16.473,7.753,16.473,17.015  C212.171,430.03,205.093,437.441,196.001,437.873z M69.833,481.333v-23.418h125.623c0.084,0.005,0.165,0.018,0.25,0.02  c4.318,0.128,8.395,1.894,11.467,4.959c3.31,3.316,5.082,7.727,4.99,12.421c-0.17,8.717-7.227,15.931-16.162,16.636  c-8.935-0.705-15.991-7.919-16.162-16.636c-0.107-5.521-4.651-9.934-10.193-9.803c-5.522,0.108-9.911,4.671-9.803,10.193  c0.114,5.852,1.636,11.387,4.237,16.295H80.5C74.618,492,69.833,487.215,69.833,481.333z M311.168,482.342  c-8.241,6.228-18.47,9.658-28.801,9.658h-54.445c2.601-4.908,4.123-10.443,4.237-16.295c0.198-10.175-3.648-19.742-10.844-26.953  c-0.27-0.27-0.55-0.527-0.827-0.788c7.214-6.746,11.683-16.368,11.683-27.094c0-10.698-4.444-20.298-11.625-27.041  c7.181-6.745,11.625-16.348,11.625-27.049c0-9.879-3.85-19.178-10.857-26.199c-0.296-0.295-0.601-0.578-0.905-0.862  c7.476-7.008,12.047-17.058,11.738-28.08c-0.161-5.735-1.687-11.164-4.256-15.989h1.136c5.523,0,10-4.477,10-10v-60.61  c0-18.036,14.678-32.71,32.72-32.71c3.435,0,6.656,1.333,9.078,3.761c2.426,2.425,3.762,5.646,3.762,9.068v45.52  c0,20.871,9.867,40.938,26.397,53.682l26.953,20.767v50.003c-28.292,2.41-56.015-13.39-67.989-39.712  c-2.288-5.027-8.216-7.249-13.244-4.961c-5.027,2.287-7.248,8.216-4.961,13.244c8.343,18.337,22.846,33.384,40.837,42.37  c12.328,6.156,25.94,9.316,39.58,9.316c1.926,0,3.853-0.07,5.777-0.197v66.912L311.168,482.342z M442.167,476.411h-32.115V387.67  c0-5.523-4.477-10-10-10c-5.522,0-10,4.477-10,10v88.741h-32.115v-9.333V383.8c0-0.037,0-0.073,0-0.11v-63.48v-1.632h84.23  L442.167,476.411L442.167,476.411z"/>
<g>
</g>
<g>
</g>
<g>
</g>
<g>
</g>
<g>
</g>
<g>
</g>
<g>
</g>
<g>
</g>
<g>
</g>
<g>
</g>
<g>
</g>
<g>
</g>
<g>
</g>
<g>
</g>
<g>
</g>
</svg>
