<?xml version="1.0" encoding="iso-8859-1"?>
<!-- Generator: Adobe Illustrator 19.0.0, SVG Export Plug-In . SVG Version: 6.00 Build 0)  -->
<svg xmlns="http://www.w3.org/2000/svg" xmlns:xlink="http://www.w3.org/1999/xlink" version="1.1" id="Capa_1" x="0px" y="0px" viewBox="0 0 512.001 512.001" style="enable-background:new 0 0 512.001 512.001;" xml:space="preserve">
<path style="fill:#C69F7F;" d="M355.497,320.209l-30.85-23.769c-14.19-10.94-22.5-27.84-22.5-45.76v-45.52  c0-6.3-2.56-12.01-6.69-16.14c-4.13-4.14-9.85-6.69-16.15-6.69c-23.59,0-42.72,19.12-42.72,42.71v60.61H88.06  c-11.414,0-20.666,9.253-20.666,20.667v175.017c0,11.414,9.253,20.667,20.666,20.667h201.867c12.57,0,24.8-4.1,34.83-11.68  l30.74-23.243L355.497,320.209L355.497,320.209z"/>
<path style="fill:#676767;" d="M196.291,10v76.616h-88.155V10C75.05,26.29,52.275,60.328,52.275,99.699  c0,55.194,44.744,99.938,99.938,99.938s99.938-44.744,99.938-99.938C252.151,60.328,229.376,26.29,196.291,10z"/>
<path style="fill:#076893;" d="M152.213,199.637c-15.822,0-30.781-3.682-44.077-10.228v96.241h88.155v-96.241  C182.994,195.955,168.035,199.637,152.213,199.637z"/>
<path d="M178.711,138.274h-52.995c-5.522,0-10-4.477-10-10s4.478-10,10-10h52.995c5.522,0,10,4.477,10,10  S184.233,138.274,178.711,138.274z"/>
<rect x="355.501" y="308.58" style="fill:#076893;" width="104.23" height="177.84"/>
<path d="M98.311,349.74c-0.66,0-1.31-0.07-1.96-0.2c-0.64-0.13-1.27-0.32-1.87-0.57c-0.6-0.25-1.189-0.56-1.729-0.92  c-0.55-0.36-1.061-0.78-1.521-1.24c-0.46-0.46-0.88-0.97-1.239-1.52c-0.36-0.54-0.671-1.12-0.921-1.73  c-0.25-0.6-0.439-1.23-0.569-1.87c-0.13-0.64-0.2-1.3-0.2-1.95s0.07-1.31,0.2-1.96c0.13-0.63,0.319-1.26,0.569-1.87  c0.25-0.6,0.561-1.18,0.921-1.72c0.359-0.55,0.779-1.06,1.239-1.52s0.971-0.88,1.521-1.25c0.54-0.36,1.13-0.67,1.729-0.92  c0.601-0.25,1.23-0.44,1.87-0.57c1.29-0.26,2.62-0.26,3.91,0c0.64,0.13,1.26,0.32,1.87,0.57c0.6,0.25,1.18,0.56,1.72,0.92  c0.55,0.37,1.061,0.79,1.521,1.25c0.47,0.46,0.88,0.97,1.25,1.52c0.359,0.54,0.67,1.12,0.92,1.72c0.25,0.61,0.439,1.24,0.569,1.87  c0.131,0.65,0.19,1.31,0.19,1.96s-0.06,1.31-0.19,1.95c-0.13,0.64-0.319,1.27-0.569,1.87c-0.25,0.61-0.561,1.19-0.92,1.73  c-0.37,0.55-0.78,1.06-1.25,1.52c-0.46,0.46-0.971,0.88-1.521,1.24c-0.54,0.36-1.12,0.67-1.72,0.92c-0.61,0.25-1.23,0.44-1.87,0.57  C99.61,349.67,98.961,349.74,98.311,349.74z"/>
<path d="M407.61,357.66c-0.649,0-1.31-0.06-1.949-0.19c-0.641-0.13-1.271-0.32-1.88-0.57c-0.601-0.25-1.181-0.56-1.721-0.92  c-0.55-0.36-1.06-0.78-1.52-1.24s-0.88-0.98-1.24-1.52c-0.36-0.55-0.67-1.13-0.92-1.73s-0.45-1.23-0.57-1.87  c-0.13-0.65-0.2-1.3-0.2-1.95c0-0.66,0.07-1.31,0.2-1.96c0.12-0.64,0.32-1.27,0.57-1.87s0.56-1.18,0.92-1.73  c0.36-0.54,0.78-1.05,1.24-1.52c0.46-0.46,0.97-0.87,1.52-1.24c0.54-0.36,1.12-0.67,1.721-0.92c0.609-0.25,1.239-0.44,1.88-0.57  c1.279-0.26,2.609-0.26,3.899,0c0.641,0.13,1.27,0.32,1.88,0.57c0.6,0.25,1.181,0.56,1.721,0.92c0.55,0.37,1.06,0.78,1.52,1.24  c0.46,0.47,0.88,0.98,1.24,1.52c0.36,0.55,0.67,1.13,0.92,1.73s0.45,1.23,0.57,1.87c0.13,0.65,0.199,1.3,0.199,1.96  c0,0.65-0.069,1.3-0.199,1.95c-0.12,0.64-0.32,1.27-0.57,1.87s-0.559,1.18-0.92,1.73c-0.36,0.54-0.78,1.06-1.24,1.52  s-0.97,0.88-1.52,1.24c-0.54,0.36-1.12,0.67-1.721,0.92c-0.609,0.25-1.239,0.44-1.88,0.57  C408.921,357.6,408.261,357.66,407.61,357.66z"/>
<path d="M459.727,298.576h-104.23c-2.942,0-5.579,1.278-7.409,3.301l-17.336-13.356c-11.65-8.982-18.606-23.128-18.606-37.841  v-45.52c0-8.765-3.416-17.008-9.609-23.202c-6.193-6.209-14.443-9.627-23.23-9.627c-29.069,0-52.72,23.646-52.72,52.71v50.61  h-20.296v-80.263c33.325-18.908,55.86-54.714,55.86-95.688c0-20.926-5.907-41.282-17.083-58.868  C234.2,23.73,218.86,9.967,200.708,1.03c-3.098-1.525-6.767-1.345-9.7,0.482c-2.934,1.825-4.717,5.035-4.717,8.49v66.616h-68.155V10  c0-3.455-1.783-6.665-4.717-8.49c-2.932-1.825-6.6-2.008-9.7-0.482C85.566,9.966,70.227,23.729,59.359,40.83  C48.183,58.416,42.275,78.772,42.275,99.699c0,40.975,22.536,76.781,55.86,95.689v80.262H88.061  c-16.91,0-30.667,13.757-30.667,30.667v175.017c0,16.91,13.757,30.667,30.667,30.667h201.866c14.656,0,29.167-4.866,40.861-13.703  l14.746-11.15c0.378,5.178,4.689,9.263,9.963,9.263h104.229c5.522,0,10-4.477,10-10V308.576  C469.727,303.053,465.249,298.576,459.727,298.576z M62.275,99.699c0-28.805,13.407-55.107,35.86-71.9v58.817  c0,5.523,4.477,10,10,10h88.155c5.523,0,10-4.477,10-10V27.799c22.453,16.793,35.86,43.095,35.86,71.899  c0,46.473-35.431,84.826-80.698,89.467c-0.05,0.005-0.1,0.01-0.149,0.015c-0.672,0.068-1.346,0.127-2.022,0.18  c-0.2,0.015-0.401,0.028-0.602,0.042c-0.556,0.04-1.113,0.077-1.672,0.106c-0.381,0.02-0.763,0.033-1.145,0.048  c-0.404,0.016-0.807,0.035-1.213,0.046c-0.81,0.021-1.622,0.034-2.436,0.034c-0.814,0-1.626-0.013-2.436-0.034  c-0.404-0.011-0.807-0.03-1.21-0.046c-0.383-0.015-0.766-0.028-1.148-0.048c-0.558-0.029-1.113-0.066-1.669-0.106  c-0.202-0.014-0.404-0.027-0.606-0.043c-0.674-0.053-1.347-0.112-2.017-0.18c-0.052-0.005-0.104-0.01-0.156-0.015  C97.704,184.523,62.275,146.171,62.275,99.699z M118.136,204.259c4.745,1.552,9.585,2.749,14.498,3.63  c0.102,0.018,0.203,0.036,0.305,0.054c1.564,0.276,3.136,0.52,4.715,0.728c0.215,0.029,0.428,0.061,0.644,0.089  c0.668,0.084,1.339,0.159,2.01,0.23c0.68,0.074,1.363,0.139,2.047,0.2c0.501,0.044,1,0.094,1.502,0.132  c1.141,0.086,2.288,0.149,3.438,0.2c0.366,0.016,0.732,0.03,1.099,0.042c1.269,0.043,2.541,0.074,3.82,0.074s2.551-0.03,3.82-0.074  c0.367-0.012,0.734-0.026,1.1-0.042c1.148-0.051,2.292-0.114,3.431-0.2c0.507-0.038,1.011-0.088,1.516-0.132  c0.68-0.061,1.359-0.126,2.036-0.199c0.674-0.072,1.347-0.147,2.018-0.231c0.202-0.026,0.401-0.056,0.602-0.083  c1.596-0.21,3.185-0.456,4.765-0.735c0.093-0.017,0.186-0.033,0.28-0.05c4.917-0.882,9.762-2.079,14.511-3.633v71.391h-68.155  v-71.391H118.136z M88.061,295.65h20.075h88.155h6.491c0.088,0.007,0.173,0.022,0.262,0.027c9.101,0.471,16.424,7.729,16.671,16.523  c0.26,9.272-6.96,17.06-16.153,17.503c-9.193-0.443-16.418-8.234-16.164-17.509c0.151-5.521-4.202-10.119-9.723-10.27  c-0.094-0.003-0.186-0.004-0.278-0.004c-5.396,0-9.843,4.299-9.991,9.727c-0.178,6.512,1.352,12.683,4.17,18.091h-38.575  c-5.523,0-10,4.477-10,10s4.478,10,10,10h69.713c0.041,0,0.081-0.006,0.122-0.006c0.144,0.01,0.285,0.03,0.431,0.034  c4.317,0.128,8.395,1.894,11.466,4.957c3.224,3.23,4.999,7.512,4.999,12.057c0,9.165-7.078,16.581-16.17,17.013  c-9.093-0.432-16.171-7.847-16.171-17.013c0-5.523-4.477-10-10-10c-5.522,0-10,4.477-10,10c0,6.159,1.478,11.95,4.097,17.046H77.394  v-77.509C77.394,300.435,82.179,295.65,88.061,295.65z M203.561,437.873c-9.093-0.431-16.171-7.843-16.171-17.003  c0-5.523-4.477-10-10-10c-5.522,0-10,4.477-10,10c0,6.159,1.479,11.95,4.099,17.045H77.394v-34.089h125.503  c0.121,0.008,0.24,0.026,0.362,0.029c9.237,0.279,16.473,7.753,16.473,17.015C219.731,430.03,212.653,437.441,203.561,437.873z   M77.394,481.333v-23.418h125.297c0.067,0,0.133-0.009,0.2-0.01c0.126,0.008,0.249,0.026,0.376,0.03  c4.317,0.128,8.395,1.894,11.467,4.958c3.31,3.316,5.081,7.727,4.989,12.421c-0.171,8.717-7.227,15.931-16.161,16.636  c-8.935-0.705-15.992-7.919-16.162-16.635c-0.106-5.456-4.561-9.805-9.994-9.805c-0.065,0-0.133,0-0.199,0.002  c-5.521,0.107-9.91,4.671-9.803,10.193c0.114,5.852,1.636,11.387,4.237,16.295h-83.58C82.179,492,77.394,487.215,77.394,481.333z   M318.728,482.342c-8.241,6.228-18.47,9.658-28.801,9.658h-54.445c2.601-4.908,4.123-10.443,4.237-16.295  c0.199-10.175-3.646-19.742-10.844-26.954c-0.27-0.27-0.549-0.527-0.827-0.787c7.214-6.746,11.683-16.368,11.683-27.094  c0-10.698-4.444-20.298-11.625-27.042c7.181-6.745,11.625-16.348,11.625-27.049c0-9.878-3.851-19.177-10.858-26.2  c-0.296-0.295-0.601-0.577-0.905-0.861c7.475-7.008,12.046-17.058,11.738-28.079c-0.161-5.735-1.687-11.164-4.256-15.989h1.136  c5.523,0,10-4.477,10-10v-60.61c0-18.036,14.678-32.71,32.72-32.71c3.435,0,6.657,1.333,9.079,3.761  c2.425,2.425,3.761,5.646,3.761,9.068v45.52c0,20.87,9.867,40.938,26.397,53.682l26.954,20.766v50.003  c-28.293,2.412-56.015-13.39-67.99-39.712c-2.288-5.027-8.22-7.248-13.243-4.961c-5.027,2.287-7.249,8.216-4.962,13.244  c8.343,18.337,22.846,33.384,40.837,42.37c12.328,6.156,25.94,9.316,39.58,9.316c1.927,0,3.854-0.07,5.778-0.197v66.912  L318.728,482.342z M449.727,476.411h-32.116V387.67c0-5.523-4.478-10-10-10s-10,4.477-10,10v88.741h-32.114v-9.333v-83.299  c0-0.024,0-0.047,0-0.071V320.21v-1.632h84.229v157.833H449.727z"/>
<g>
</g>
<g>
</g>
<g>
</g>
<g>
</g>
<g>
</g>
<g>
</g>
<g>
</g>
<g>
</g>
<g>
</g>
<g>
</g>
<g>
</g>
<g>
</g>
<g>
</g>
<g>
</g>
<g>
</g>
</svg>
