<?xml version="1.0" encoding="iso-8859-1"?>
<!-- Generator: Adobe Illustrator 19.0.0, SVG Export Plug-In . SVG Version: 6.00 Build 0)  -->
<svg xmlns="http://www.w3.org/2000/svg" xmlns:xlink="http://www.w3.org/1999/xlink" version="1.1" id="Capa_1" x="0px" y="0px" viewBox="0 0 512 512" style="enable-background:new 0 0 512 512;" xml:space="preserve">
<path style="fill:#676767;" d="M92,354c1.043,0,2.078,0.036,3.111,0.079V58.38H18V428C18,387.131,51.131,354,92,354z"/>
<path style="fill:#BFBFBF;" d="M166,448v-20c0-40.869-33.131-74-74-74l0,0c-40.869,0-74,33.131-74,74v5c0,38.108,30.892,69,69,69  l0,0h79h328v-54H166z"/>
<path style="fill:#076893;" d="M58,428L58,428c0-18.778,15.222-34,34-34l0,0c18.778,0,34,15.222,34,34l0,0c0,18.778-15.222,34-34,34  l0,0C73.222,462,58,446.778,58,428z"/>
<path d="M92,472c-24.262,0-44-19.738-44-44s19.738-44,44-44s44,19.738,44,44S116.262,472,92,472z M92,404c-13.233,0-24,10.767-24,24  s10.767,24,24,24s24-10.767,24-24S105.233,404,92,404z"/>
<path d="M56.56,118.12c-2.64,0-5.22-1.07-7.08-2.931c-0.46-0.46-0.88-0.97-1.24-1.52c-0.36-0.54-0.67-1.12-0.92-1.72  c-0.25-0.61-0.44-1.24-0.57-1.881c-0.13-0.64-0.2-1.3-0.2-1.949c0-0.65,0.07-1.311,0.2-1.95c0.13-0.641,0.32-1.271,0.57-1.87  c0.25-0.61,0.56-1.19,0.92-1.73c0.36-0.55,0.78-1.059,1.24-1.52c1.86-1.86,4.44-2.93,7.08-2.93c2.63,0,5.21,1.069,7.07,2.93  c0.46,0.46,0.88,0.97,1.24,1.52c0.36,0.54,0.67,1.12,0.92,1.73c0.25,0.6,0.44,1.229,0.57,1.87c0.13,0.64,0.2,1.3,0.2,1.95  c0,0.649-0.07,1.31-0.2,1.949c-0.13,0.641-0.32,1.271-0.57,1.881c-0.25,0.6-0.56,1.18-0.92,1.72c-0.36,0.55-0.78,1.06-1.24,1.52  C61.77,117.05,59.19,118.12,56.56,118.12z"/>
<g>
	<path style="fill:#FDB845;" d="M411.634,109c-14.449,0-27.448-6.194-36.498-16.067v108.562h72.995V92.933   C439.083,102.806,426.083,109,411.634,109z"/>
	<path style="fill:#FDB845;" d="M239.634,109c-14.449,0-27.448-6.194-36.498-16.067v108.562h72.995V92.933   C267.083,102.806,254.083,109,239.634,109z"/>
</g>
<rect x="387.39" y="201.5" style="fill:#C69F7F;" width="48.5" height="40.697"/>
<circle style="fill:#076893;" cx="411.63" cy="59.5" r="49.5"/>
<rect x="215.39" y="201.5" style="fill:#C69F7F;" width="48.5" height="40.697"/>
<circle style="fill:#076893;" cx="239.63" cy="59.5" r="49.5"/>
<rect x="374.13" y="302.33" style="fill:#BFBFBF;" width="75" height="75"/>
<rect x="202.13" y="373" style="fill:#676767;" width="75" height="75"/>
<path d="M494,438H287.134v-65c0-5.522-4.477-10-10-10h-75c-5.523,0-10,4.478-10,10v65H176v-10c0-41.858-30.778-76.656-70.89-82.97  V68.38h75.689c1.586,10.553,5.961,20.198,12.337,28.181v104.933c0,5.523,4.477,10,10,10h2.249v30.697  c0,0.773,0.096,1.523,0.262,2.246l-22.218,25.74c-2.976,3.447-3.247,8.47-0.659,12.217l27.622,40  c1.94,2.811,5.062,4.318,8.237,4.318c1.959,0,3.939-0.575,5.673-1.772c4.545-3.138,5.685-9.366,2.546-13.911l-23.227-33.637  l21.752-25.2h28.52l21.752,25.2l-23.228,33.637c-3.139,4.545-1.998,10.773,2.546,13.911c1.734,1.198,3.714,1.772,5.673,1.772  c3.175,0,6.297-1.509,8.237-4.318l27.622-40c2.588-3.747,2.317-8.77-0.659-12.217l-22.218-25.74  c0.166-0.723,0.262-1.472,0.262-2.246v-30.697h2.249c5.523,0,10-4.477,10-10V96.56c6.376-7.983,10.751-17.628,12.337-28.18h54.33  c1.586,10.553,5.961,20.198,12.337,28.181v104.933c0,5.523,4.477,10,10,10h2.249v30.697c0,0.21,0.019,0.416,0.031,0.623  l-30.896,26.28c-3.541,3.012-4.54,8.067-2.409,12.199l20.022,38.838v57.202c0,5.522,4.477,10,10,10h75c5.523,0,10-4.478,10-10  v-57.201l20.023-38.839c2.13-4.132,1.132-9.188-2.409-12.199l-30.896-26.28c0.013-0.207,0.031-0.413,0.031-0.623v-30.697h2.249  c5.523,0,10-4.477,10-10V96.56c8.127-10.175,13.002-23.056,13.002-37.06c0-32.809-26.691-59.5-59.5-59.5  c-29.007,0-53.218,20.87-58.442,48.38h-55.115C292.852,20.87,268.642,0,239.634,0s-53.218,20.87-58.442,48.38H30  c-0.007,0-0.013,0.001-0.019,0.001H18c-5.523,0-10,4.477-10,10V428v5c0,43.56,35.439,79,79,79h407c5.523,0,10-4.478,10-10v-54  C504,442.478,499.523,438,494,438z M336.064,492l34-34h68.381l-34.001,34H336.064z M239.399,492l34-34h3.735h64.645l-34,34H239.399z   M212.134,383h55v55h-55V383z M225.932,117.39c0.031,0.007,0.062,0.014,0.093,0.021c1.017,0.239,2.043,0.451,3.079,0.637  c0.14,0.025,0.279,0.05,0.419,0.075c0.921,0.159,1.849,0.294,2.783,0.41c0.213,0.026,0.425,0.057,0.638,0.081  c0.878,0.099,1.763,0.174,2.652,0.234c0.24,0.016,0.478,0.041,0.718,0.055c1.1,0.061,2.205,0.098,3.32,0.098  c1.114,0,2.22-0.037,3.32-0.098c0.24-0.013,0.479-0.038,0.718-0.055c0.889-0.06,1.774-0.135,2.652-0.234  c0.213-0.024,0.425-0.055,0.638-0.081c0.934-0.115,1.861-0.251,2.782-0.409c0.141-0.024,0.281-0.05,0.421-0.075  c1.035-0.186,2.06-0.397,3.076-0.636c0.032-0.007,0.065-0.015,0.097-0.022c4.458-1.055,8.723-2.608,12.733-4.606  c0.02-0.01,0.041-0.018,0.061-0.028v78.739h-2.249h-14.249v-44.105c0-5.523-4.477-10-10-10s-10,4.477-10,10v44.105h-14.249h-2.249  v-78.739c0.019,0.009,0.038,0.017,0.056,0.026C217.205,114.78,221.472,116.334,225.932,117.39z M253.883,232.191h-28.498v-20.697  h28.498V232.191z M397.932,117.39c0.031,0.007,0.062,0.014,0.093,0.021c1.017,0.239,2.043,0.451,3.079,0.637  c0.14,0.025,0.279,0.05,0.419,0.075c0.921,0.159,1.849,0.294,2.783,0.41c0.213,0.026,0.425,0.057,0.638,0.081  c0.878,0.099,1.763,0.174,2.652,0.234c0.24,0.016,0.478,0.041,0.718,0.055c1.1,0.061,2.205,0.098,3.32,0.098  c1.114,0,2.22-0.037,3.32-0.098c0.24-0.013,0.479-0.038,0.718-0.055c0.889-0.06,1.774-0.135,2.652-0.234  c0.213-0.024,0.425-0.055,0.638-0.081c0.934-0.115,1.861-0.251,2.782-0.409c0.141-0.024,0.281-0.05,0.421-0.075  c1.035-0.186,2.06-0.397,3.076-0.636c0.032-0.007,0.065-0.015,0.097-0.022c4.458-1.055,8.723-2.608,12.733-4.606  c0.02-0.01,0.041-0.018,0.061-0.028v78.739h-2.249h-14.249v-44.105c0-5.523-4.477-10-10-10s-10,4.477-10,10v44.105h-14.249h-2.249  v-78.739c0.018,0.009,0.038,0.017,0.056,0.026C389.205,114.78,393.472,116.334,397.932,117.39z M439.134,367.333h-55v-55h55V367.333  z M450.881,292.495c-0.568-0.1-1.15-0.162-1.747-0.162h-75c-0.597,0-1.178,0.062-1.746,0.162l-6.862-13.31l31.575-26.857  c0.051-0.043,0.095-0.092,0.145-0.137h28.777c0.05,0.044,0.094,0.093,0.145,0.137l31.575,26.857L450.881,292.495z M425.883,232.191  h-28.498v-20.697h28.498V232.191z M411.634,20c21.78,0,39.5,17.72,39.5,39.5c0,12.202-5.563,23.127-14.284,30.378  c-0.054,0.045-0.106,0.09-0.16,0.134c-0.384,0.316-0.777,0.621-1.174,0.923c-0.155,0.117-0.308,0.235-0.464,0.35  c-0.318,0.235-0.643,0.463-0.968,0.689c-0.257,0.177-0.515,0.353-0.775,0.524c-0.245,0.161-0.492,0.319-0.74,0.475  c-0.367,0.229-0.736,0.453-1.11,0.67c-0.161,0.093-0.321,0.187-0.483,0.278c-0.484,0.272-0.973,0.535-1.468,0.786  c-0.067,0.034-0.133,0.069-0.2,0.103c-5.439,2.722-11.489,4.19-17.673,4.19c-6.186,0-12.238-1.469-17.678-4.193  c-0.062-0.031-0.123-0.064-0.185-0.095c-0.501-0.254-0.995-0.52-1.485-0.795c-0.156-0.088-0.311-0.178-0.466-0.269  c-0.38-0.22-0.755-0.448-1.128-0.681c-0.243-0.152-0.484-0.307-0.723-0.464c-0.267-0.175-0.531-0.355-0.794-0.537  c-0.32-0.222-0.638-0.445-0.95-0.676c-0.163-0.12-0.323-0.243-0.484-0.365c-0.389-0.297-0.776-0.597-1.154-0.907  c-0.061-0.051-0.122-0.103-0.183-0.153c-8.712-7.251-14.269-18.17-14.269-30.365C372.134,37.72,389.854,20,411.634,20z M239.634,20  c21.78,0,39.5,17.72,39.5,39.5c0,12.202-5.563,23.127-14.284,30.378c-0.054,0.045-0.106,0.09-0.16,0.134  c-0.384,0.316-0.777,0.621-1.174,0.923c-0.155,0.117-0.308,0.235-0.464,0.35c-0.319,0.235-0.643,0.463-0.968,0.689  c-0.257,0.177-0.515,0.353-0.775,0.524c-0.245,0.161-0.492,0.319-0.74,0.475c-0.367,0.229-0.736,0.453-1.11,0.67  c-0.161,0.093-0.321,0.187-0.483,0.278c-0.484,0.272-0.973,0.535-1.468,0.786c-0.067,0.034-0.133,0.069-0.2,0.103  c-5.439,2.722-11.489,4.19-17.673,4.19c-6.186,0-12.238-1.469-17.678-4.193c-0.062-0.031-0.123-0.064-0.185-0.095  c-0.501-0.254-0.995-0.52-1.485-0.795c-0.156-0.088-0.311-0.178-0.466-0.269c-0.38-0.22-0.755-0.448-1.128-0.681  c-0.243-0.152-0.484-0.307-0.723-0.464c-0.267-0.175-0.531-0.355-0.794-0.537c-0.32-0.222-0.638-0.445-0.95-0.676  c-0.163-0.12-0.323-0.243-0.484-0.365c-0.389-0.297-0.776-0.597-1.154-0.907c-0.061-0.051-0.122-0.103-0.183-0.153  c-8.712-7.251-14.269-18.17-14.269-30.365C200.134,37.72,217.854,20,239.634,20z M28,373.65V68.381h57.11V344.28  c-0.278,0.023-0.551,0.064-0.828,0.089c-0.724,0.066-1.443,0.147-2.162,0.231c-0.692,0.082-1.383,0.166-2.071,0.264  c-0.705,0.101-1.405,0.216-2.105,0.334c-0.689,0.117-1.377,0.236-2.061,0.369c-0.687,0.134-1.369,0.282-2.05,0.433  c-0.683,0.151-1.365,0.304-2.042,0.472c-0.669,0.166-1.333,0.345-1.996,0.528c-0.675,0.185-1.349,0.372-2.018,0.574  c-0.409,0.123-0.817,0.246-1.223,0.375V143.711c0-5.522-4.477-10-10-10c-5.523,0-10,4.478-10,10v213.681  c-0.309,0.199-0.613,0.405-0.919,0.608c-0.557,0.37-1.105,0.753-1.653,1.137c-0.559,0.391-1.118,0.782-1.667,1.186  c-0.54,0.397-1.07,0.807-1.6,1.217c-0.538,0.416-1.075,0.832-1.602,1.26c-0.521,0.423-1.031,0.859-1.541,1.294  c-0.516,0.44-1.031,0.879-1.536,1.331c-0.5,0.448-0.989,0.908-1.479,1.367c-0.493,0.463-0.987,0.926-1.469,1.401  c-0.478,0.471-0.944,0.954-1.411,1.436c-0.471,0.486-0.943,0.972-1.402,1.47c-0.454,0.492-0.896,0.996-1.339,1.499  C28.629,372.951,28.305,373.292,28,373.65z M28,433v-5c0-35.29,28.71-64,64-64c0.907,0,1.807,0.033,2.704,0.07  c0.016,0,0.031-0.001,0.046-0.001C128.768,365.517,156,393.632,156,428v20c0,5.522,4.477,10,10,10h36.134h42.979l-34,34H87  C54.467,492,28,465.533,28,433z M484,492h-51.271l34-34H484V492z"/>
<g>
</g>
<g>
</g>
<g>
</g>
<g>
</g>
<g>
</g>
<g>
</g>
<g>
</g>
<g>
</g>
<g>
</g>
<g>
</g>
<g>
</g>
<g>
</g>
<g>
</g>
<g>
</g>
<g>
</g>
</svg>
