<?xml version="1.0" encoding="iso-8859-1"?>
<!-- Generator: Adobe Illustrator 19.0.0, SVG Export Plug-In . SVG Version: 6.00 Build 0)  -->
<svg xmlns="http://www.w3.org/2000/svg" xmlns:xlink="http://www.w3.org/1999/xlink" version="1.1" id="Capa_1" x="0px" y="0px" viewBox="0 0 512 512" style="enable-background:new 0 0 512 512;" xml:space="preserve">
<g>
	<rect x="66.19" y="209.749" style="fill:#939393;" width="62.45" height="186.12"/>
	<rect x="384.36" y="209.749" style="fill:#939393;" width="62.45" height="186.12"/>
</g>
<rect x="10" y="61.659" style="fill:#076893;" width="492" height="148.09"/>
<g>
	<polygon style="fill:#FDB845;" points="201.985,61.657 53.888,209.744 10,209.744 10,159.322 107.48,61.657  "/>
	<polygon style="fill:#FDB845;" points="377.301,61.657 229.203,209.744 134.699,209.744 282.797,61.657  "/>
	<polygon style="fill:#FDB845;" points="502,61.657 502,112.079 404.52,209.744 310.015,209.744 458.103,61.657  "/>
</g>
<path d="M297.78,102.129c-0.65,0-1.311-0.06-1.95-0.19c-0.641-0.13-1.271-0.32-1.87-0.57c-0.61-0.25-1.19-0.56-1.73-0.92  c-0.55-0.37-1.06-0.78-1.52-1.25c-1.86-1.86-2.93-4.43-2.93-7.07c0-0.65,0.069-1.3,0.199-1.95c0.12-0.64,0.32-1.27,0.57-1.87  c0.25-0.6,0.56-1.19,0.92-1.73c0.36-0.55,0.78-1.06,1.24-1.52c0.46-0.461,0.97-0.88,1.52-1.24c0.54-0.36,1.12-0.67,1.73-0.92  c0.6-0.25,1.23-0.44,1.87-0.57c1.29-0.26,2.62-0.26,3.899,0c0.641,0.13,1.271,0.32,1.88,0.57c0.601,0.25,1.181,0.56,1.721,0.92  c0.55,0.36,1.059,0.78,1.52,1.24c1.86,1.86,2.931,4.44,2.931,7.07c0,2.64-1.07,5.21-2.931,7.07c-0.46,0.47-0.97,0.88-1.52,1.25  c-0.54,0.36-1.12,0.67-1.721,0.92c-0.609,0.25-1.239,0.44-1.88,0.57C299.09,102.069,298.43,102.129,297.78,102.129z"/>
<path d="M384.96,190.479c-0.65,0-1.311-0.07-1.95-0.2c-0.64-0.13-1.27-0.32-1.87-0.57c-0.609-0.25-1.189-0.56-1.729-0.92  c-0.551-0.36-1.061-0.78-1.521-1.24s-0.88-0.98-1.24-1.52c-0.359-0.55-0.67-1.13-0.92-1.73s-0.439-1.23-0.569-1.87  c-0.13-0.65-0.2-1.3-0.2-1.95c0-0.66,0.07-1.31,0.2-1.96c0.13-0.64,0.319-1.27,0.569-1.87s0.561-1.18,0.92-1.73  c0.36-0.54,0.78-1.05,1.24-1.52c0.46-0.46,0.97-0.87,1.521-1.24c0.54-0.36,1.12-0.67,1.729-0.92c0.601-0.25,1.23-0.44,1.87-0.57  c1.29-0.26,2.61-0.26,3.91,0c0.64,0.13,1.26,0.32,1.87,0.57c0.6,0.25,1.18,0.56,1.72,0.92c0.55,0.37,1.06,0.78,1.521,1.24  c0.46,0.47,0.88,0.98,1.25,1.52c0.359,0.55,0.67,1.13,0.92,1.73s0.439,1.23,0.569,1.87c0.13,0.65,0.19,1.3,0.19,1.96  c0,0.65-0.061,1.3-0.19,1.95c-0.13,0.64-0.319,1.27-0.569,1.87s-0.561,1.18-0.92,1.73c-0.37,0.54-0.79,1.06-1.25,1.52  c-0.461,0.46-0.971,0.88-1.521,1.24c-0.54,0.36-1.12,0.67-1.72,0.92c-0.61,0.25-1.23,0.44-1.87,0.57  C386.27,190.409,385.609,190.479,384.96,190.479z"/>
<path d="M34.95,190.469c-0.65,0-1.311-0.06-1.95-0.19c-0.641-0.13-1.271-0.32-1.88-0.57c-0.601-0.25-1.181-0.56-1.721-0.92  c-0.55-0.36-1.06-0.78-1.52-1.24c-0.46-0.47-0.88-0.98-1.25-1.52c-0.36-0.55-0.66-1.13-0.91-1.73s-0.45-1.23-0.57-1.87  c-0.13-0.65-0.199-1.3-0.199-1.96c0-0.65,0.069-1.3,0.199-1.95c0.12-0.64,0.32-1.27,0.57-1.87s0.55-1.18,0.91-1.73  c0.37-0.54,0.79-1.06,1.25-1.52s0.97-0.88,1.52-1.24c0.54-0.36,1.12-0.67,1.721-0.92c0.609-0.25,1.239-0.44,1.88-0.57  c3.25-0.66,6.7,0.41,9.02,2.73c0.46,0.46,0.88,0.98,1.24,1.52c0.36,0.55,0.67,1.13,0.92,1.73s0.44,1.23,0.57,1.87  c0.13,0.65,0.2,1.3,0.2,1.95c0,0.66-0.07,1.31-0.2,1.96c-0.13,0.64-0.32,1.27-0.57,1.87s-0.56,1.18-0.92,1.73  c-0.36,0.54-0.78,1.05-1.24,1.52C40.16,189.409,37.58,190.469,34.95,190.469z"/>
<rect x="128.64" y="261.549" style="fill:#676767;" width="255.73" height="37.24"/>
<rect x="23.84" y="395.869" style="fill:#BFDEFF;" width="464.32" height="54.47"/>
<path d="M502,51.657h-43.897h-80.802h-94.504h-80.812H107.48H10c-5.523,0-10,4.477-10,10v97.665v50.423c0,5.523,4.477,10,10,10  h43.888h2.303v166.124H23.84c-5.522,0-10,4.477-10,10v54.474c0,5.523,4.478,10,10,10h464.32c5.522,0,10-4.477,10-10v-54.474  c0-5.523-4.478-10-10-10h-31.353V219.744H502c5.522,0,10-4.477,10-10v-97.665V61.657C512,56.134,507.522,51.657,502,51.657z   M479.638,71.657l-77.045,77.044c-3.905,3.905-3.905,10.237,0,14.143c1.953,1.953,4.512,2.929,7.071,2.929  c2.559,0,5.119-0.977,7.071-2.929L492,87.58v20.363l-91.628,91.802h-16.01h-50.205L462.245,71.657H479.638z M138.637,385.868v-77.08  h235.726v77.08L138.637,385.868L138.637,385.868z M258.653,71.657L130.557,199.744h-1.92H78.032L206.128,71.657H258.653z   M374.362,288.788H138.637v-17.241h235.726L374.362,288.788L374.362,288.788z M374.362,251.547H138.637v-31.803h90.566h80.811  h64.348V251.547z M433.96,71.657L305.872,199.744h-52.525L381.443,71.657H433.96z M353.157,71.657L225.061,199.744h-20.749  l75.838-75.838c3.905-3.905,3.905-10.237,0-14.143c-3.906-3.905-10.236-3.904-14.143,0c0,0-89.288,89.401-89.664,89.981h-17.501  L286.939,71.657H353.157z M83.37,71.657L20,135.147v-63.49C20,71.657,83.37,71.657,83.37,71.657z M20,199.744v-36.286l91.628-91.801  h17.996L52.58,148.702c-3.905,3.905-3.905,10.237,0,14.142c1.953,1.953,4.512,2.929,7.071,2.929s5.118-0.976,7.071-2.929  c0,0,89.843-90.158,90.323-91.187h20.796L49.746,199.744H20z M76.19,219.744h42.446v41.803v37.241v87.08H76.19V219.744z   M478.16,440.341H33.84v-34.474h32.35h62.446h255.726h62.445h31.353V440.341z M436.808,385.868h-42.445v-87.08v-37.241v-41.803  h10.157h32.288V385.868z M446.808,199.744H428.63l63.37-63.49v63.49H446.808z"/>
<g>
</g>
<g>
</g>
<g>
</g>
<g>
</g>
<g>
</g>
<g>
</g>
<g>
</g>
<g>
</g>
<g>
</g>
<g>
</g>
<g>
</g>
<g>
</g>
<g>
</g>
<g>
</g>
<g>
</g>
</svg>
