<?xml version="1.0" encoding="iso-8859-1"?>
<!-- Generator: Adobe Illustrator 19.0.0, SVG Export Plug-In . SVG Version: 6.00 Build 0)  -->
<svg xmlns="http://www.w3.org/2000/svg" xmlns:xlink="http://www.w3.org/1999/xlink" version="1.1" id="Capa_1" x="0px" y="0px" viewBox="0 0 512 512" style="enable-background:new 0 0 512 512;" xml:space="preserve">
<polygon style="fill:#C69F7F;" points="77.551,316.953 74.364,364.67 75.189,381.5 178.442,381.5 178.442,316.953 "/>
<polygon style="fill:#939393;" points="502,243.474 405.074,290.324 405.074,243.474 308.527,290.324 308.527,243.474   178.442,316.953 178.442,480.381 502,480.381 "/>
<polygon style="fill:#676767;" points="86.557,182.093 77.551,316.953 178.442,316.953 168.424,182.093 "/>
<polygon style="fill:#FDB845;" points="163.523,116.124 90.963,116.124 86.557,182.093 168.424,182.093 "/>
<g>
	<rect x="178.44" y="360.23" style="fill:#BFDEFF;" width="137.12" height="68.949"/>
	<rect x="315.56" y="360.23" style="fill:#BFDEFF;" width="137.12" height="68.949"/>
</g>
<path d="M223.17,404.71c-0.65,0-1.311-0.07-1.95-0.2c-0.64-0.13-1.27-0.32-1.87-0.57c-0.6-0.25-1.189-0.56-1.729-0.92  c-0.551-0.36-1.061-0.78-1.521-1.24c-0.46-0.46-0.88-0.98-1.24-1.52c-0.359-0.55-0.67-1.13-0.92-1.73s-0.439-1.23-0.569-1.87  c-0.13-0.64-0.2-1.3-0.2-1.95c0-0.66,0.07-1.31,0.2-1.96c0.13-0.64,0.319-1.27,0.569-1.87s0.561-1.18,0.92-1.72  c0.36-0.55,0.78-1.06,1.24-1.52c0.46-0.47,0.97-0.88,1.521-1.25c0.54-0.36,1.12-0.67,1.729-0.92c0.601-0.25,1.23-0.44,1.87-0.57  c1.29-0.26,2.62-0.26,3.91,0c0.63,0.13,1.26,0.32,1.87,0.57c0.6,0.25,1.18,0.56,1.72,0.92c0.55,0.37,1.061,0.78,1.521,1.25  c0.46,0.46,0.88,0.97,1.25,1.52c0.359,0.54,0.67,1.12,0.92,1.72s0.439,1.23,0.569,1.87c0.13,0.65,0.19,1.3,0.19,1.96  c0,0.65-0.061,1.31-0.19,1.95c-0.13,0.64-0.319,1.27-0.569,1.87s-0.561,1.18-0.92,1.73c-0.37,0.54-0.79,1.06-1.25,1.52  s-0.971,0.88-1.521,1.24c-0.54,0.36-1.12,0.67-1.72,0.92c-0.61,0.25-1.24,0.44-1.87,0.57  C224.48,404.64,223.819,404.71,223.17,404.71z"/>
<path style="fill:#BFDEFF;" d="M469.505,61.014L469.505,61.014c0-16.234-13.161-29.395-29.395-29.395H191.019  c-16.234,0-29.395,13.161-29.395,29.395l0,0c0,16.234,13.161,29.395,29.395,29.395h61.859c-16.234,0-29.395,13.161-29.395,29.395  l0,0c0,16.234,13.161,29.395,29.395,29.395h184.475c16.234,0,29.395-13.161,29.395-29.395l0,0c0-16.234-13.161-29.395-29.395-29.395  h2.757C456.344,90.409,469.505,77.249,469.505,61.014z"/>
<path d="M479.505,61.014c0-21.723-17.673-39.395-39.396-39.395h-249.09c-21.723,0-39.395,17.672-39.395,39.395  s17.672,39.395,39.395,39.395h27.578c-3.253,5.729-5.113,12.35-5.113,19.395c0,21.723,17.672,39.395,39.395,39.395h184.475  c21.723,0,39.395-17.672,39.395-39.395c0-11.027-4.554-21.01-11.88-28.168C473.791,84.408,479.505,73.366,479.505,61.014z   M437.353,100.409c10.694,0,19.395,8.701,19.395,19.395s-8.701,19.395-19.395,19.395H252.878c-10.694,0-19.395-8.701-19.395-19.395  s8.7-19.395,19.395-19.395c0.001,0,0.002,0,0.003,0s0.002,0,0.003,0h112.193c5.522,0,10-4.477,10-10s-4.478-10-10-10H252.885  c-0.001,0-0.002,0-0.003,0s-0.002,0-0.003,0H191.02c-10.694,0-19.395-8.701-19.395-19.395s8.7-19.395,19.395-19.395h249.091  c10.694,0,19.396,8.701,19.396,19.395s-8.701,19.395-19.396,19.395h-2.757c-5.522,0-10,4.477-10,10  C427.353,95.932,431.83,100.409,437.353,100.409z"/>
<path d="M400.67,100.41c-0.65,0-1.31-0.07-1.96-0.2c-0.63-0.12-1.26-0.32-1.87-0.57c-0.6-0.25-1.18-0.56-1.72-0.92  c-0.551-0.36-1.06-0.78-1.52-1.24s-0.88-0.97-1.25-1.52c-0.359-0.54-0.67-1.12-0.92-1.73c-0.25-0.6-0.439-1.23-0.57-1.87  c-0.13-0.64-0.19-1.3-0.19-1.95c0-0.65,0.06-1.31,0.19-1.95c0.131-0.64,0.32-1.27,0.57-1.88c0.25-0.6,0.561-1.18,0.92-1.72  c0.37-0.55,0.79-1.06,1.25-1.52s0.97-0.88,1.52-1.25c0.54-0.36,1.12-0.66,1.72-0.91c0.61-0.25,1.24-0.45,1.87-0.57  c1.3-0.26,2.62-0.26,3.91,0c0.64,0.12,1.27,0.32,1.87,0.57c0.609,0.25,1.189,0.55,1.729,0.91c0.55,0.37,1.061,0.79,1.521,1.25  s0.88,0.97,1.239,1.52c0.36,0.54,0.67,1.12,0.92,1.72c0.25,0.61,0.44,1.24,0.57,1.88s0.2,1.3,0.2,1.95c0,0.65-0.07,1.31-0.2,1.95  s-0.32,1.27-0.57,1.87c-0.25,0.61-0.56,1.19-0.92,1.73c-0.359,0.55-0.779,1.06-1.239,1.52c-0.46,0.46-0.971,0.88-1.521,1.24  c-0.54,0.36-1.12,0.67-1.729,0.92c-0.601,0.25-1.23,0.45-1.87,0.57C401.979,100.34,401.319,100.41,400.67,100.41z"/>
<path d="M127,227.8c-0.66,0-1.311-0.07-1.96-0.2c-0.641-0.13-1.271-0.32-1.87-0.57c-0.601-0.25-1.18-0.56-1.73-0.92  c-0.54-0.36-1.05-0.78-1.52-1.24c-0.46-0.46-0.87-0.97-1.24-1.52c-0.36-0.539-0.67-1.12-0.92-1.73c-0.25-0.6-0.441-1.23-0.57-1.87  c-0.13-0.64-0.189-1.3-0.189-1.95s0.06-1.31,0.189-1.96c0.13-0.63,0.32-1.26,0.57-1.87c0.25-0.6,0.559-1.18,0.92-1.72  c0.37-0.55,0.78-1.06,1.24-1.52c0.47-0.46,0.979-0.88,1.52-1.25c0.551-0.36,1.13-0.67,1.73-0.92c0.6-0.25,1.229-0.441,1.87-0.57  c1.29-0.26,2.62-0.26,3.91,0c0.64,0.13,1.27,0.32,1.869,0.57c0.601,0.25,1.181,0.559,1.73,0.92c0.54,0.37,1.06,0.79,1.52,1.25  c0.461,0.46,0.881,0.97,1.24,1.52c0.36,0.54,0.67,1.12,0.92,1.72c0.25,0.61,0.44,1.24,0.57,1.87c0.13,0.65,0.2,1.31,0.2,1.96  c0,0.65-0.07,1.31-0.2,1.95c-0.13,0.64-0.32,1.27-0.57,1.87c-0.25,0.61-0.56,1.191-0.92,1.73c-0.359,0.55-0.779,1.06-1.24,1.52  c-0.46,0.46-0.98,0.88-1.52,1.24c-0.55,0.36-1.13,0.67-1.73,0.92c-0.6,0.25-1.23,0.44-1.869,0.57  C128.3,227.73,127.649,227.8,127,227.8z"/>
<rect x="10" y="381.5" style="fill:#076893;" width="168.44" height="98.88"/>
<polygon style="fill:#4184B2;" points="75.189,381.5 64.242,158.309 21.913,158.309 11.51,381.5 "/>
<path d="M507.315,235.003c-2.914-1.828-6.567-2.031-9.666-0.532l-82.575,39.913v-30.91c0-3.445-1.772-6.647-4.692-8.475  c-2.919-1.828-6.573-2.027-9.674-0.521l-82.181,39.879v-30.882c0-3.556-1.889-6.844-4.959-8.637  c-3.071-1.792-6.863-1.819-9.959-0.07l-116.361,65.727l-8.851-119.142l-4.9-65.968c-0.388-5.221-4.737-9.259-9.973-9.259H90.963  c-5.265,0-9.627,4.081-9.978,9.333l-4.405,65.968l-0.687,10.288L74.23,157.82c-0.262-5.326-4.656-9.51-9.988-9.51h-42.33  c-5.342,0-9.74,4.198-9.989,9.535L1.764,375.834C0.653,377.445,0,379.395,0,381.5v98.881c0,5.523,4.477,10,10,10h168.442H502  c5.522,0,10-4.477,10-10V243.474C512,240.032,510.229,236.832,507.315,235.003z M325.565,370.231h117.122v14.474H325.565V370.231z   M325.565,404.706h117.122v14.474H325.565V404.706z M305.565,384.706h-45.373c-5.523,0-10,4.477-10,10s4.477,10,10,10h45.373v14.474  H188.442V381.5v-11.269h117.122v14.475H305.565z M84.711,371.5l-0.199-4.062l-0.131-2.678l2.524-37.807h30.091V371.5H84.711z   M95.912,192.093h63.227l8.533,114.86h-30.676v-53.565c0-5.523-4.477-10-10-10s-10,4.477-10,10v53.565H88.241L95.912,192.093z   M136.996,326.953h31.446v33.279V371.5h-31.446V326.953z M100.317,126.125h53.921l3.415,45.968H97.248L100.317,126.125z   M31.457,168.309h23.264L64.687,371.5h-42.7L31.457,168.309z M20,391.5h55.189h93.253v37.68v41.201H20V391.5z M492,470.381H188.442  V439.18h127.122h137.122c5.523,0,10-4.477,10-10v-68.948c0-5.523-4.477-10-10-10H315.565H188.442V322.79l110.084-62.181v23.794  l-39.814,21.822c-4.843,2.654-6.617,8.733-3.963,13.576c1.819,3.318,5.244,5.195,8.778,5.195c1.625,0,3.273-0.397,4.798-1.233  l44.787-24.548l81.96-39.772v24.686l-55.436,27.561c-4.945,2.459-6.961,8.461-4.502,13.406c1.747,3.516,5.285,5.551,8.962,5.551  c1.495,0,3.015-0.337,4.444-1.048l60.968-30.311L492,259.415V470.381z"/>
<g>
</g>
<g>
</g>
<g>
</g>
<g>
</g>
<g>
</g>
<g>
</g>
<g>
</g>
<g>
</g>
<g>
</g>
<g>
</g>
<g>
</g>
<g>
</g>
<g>
</g>
<g>
</g>
<g>
</g>
</svg>
