<?xml version="1.0" encoding="iso-8859-1"?>
<!-- Generator: Adobe Illustrator 19.0.0, SVG Export Plug-In . SVG Version: 6.00 Build 0)  -->
<svg xmlns="http://www.w3.org/2000/svg" xmlns:xlink="http://www.w3.org/1999/xlink" version="1.1" id="Capa_1" x="0px" y="0px" viewBox="0 0 512 512" style="enable-background:new 0 0 512 512;" xml:space="preserve">
<path style="fill:#FDB845;" d="M299.378,255.242H30.981c-11.527,0-20.872-9.345-20.981-20.872V51.125  c0.109-11.527,9.454-20.872,20.981-20.872h268.397c11.527,0,20.872,9.345,20.872,20.872v183.244  C320.25,245.897,310.905,255.242,299.378,255.242z"/>
<rect x="320.25" y="76.08" style="fill:#BFBFBF;" width="50.27" height="133.33"/>
<rect x="370.52" y="97.19" style="fill:#676767;" width="50.27" height="91.11"/>
<path style="fill:#076893;" d="M65,255.242v226.506h153.5c16.845,0,30.5-23.655,30.5-40.5V255.242H65z M209,411.747h-74V290.241h74  V411.747z"/>
<path style="fill:#676767;" d="M150.492,370.414H135v-46.349h15.492c12.799,0,23.174,10.376,23.174,23.174l0,0  C173.667,360.038,163.291,370.414,150.492,370.414z"/>
<path d="M277.77,225.34c-2.64,0-5.22-1.07-7.08-2.93c-0.46-0.46-0.87-0.971-1.24-1.521c-0.36-0.54-0.67-1.12-0.92-1.729  c-0.25-0.601-0.44-1.23-0.57-1.87c-0.13-0.641-0.19-1.3-0.19-1.95s0.06-1.311,0.19-1.96c0.13-0.64,0.32-1.27,0.57-1.87  c0.25-0.6,0.56-1.18,0.92-1.72c0.37-0.55,0.78-1.06,1.24-1.52c0.47-0.46,0.98-0.88,1.52-1.25c0.55-0.359,1.13-0.67,1.73-0.92  s1.23-0.439,1.87-0.57c1.29-0.26,2.62-0.26,3.91,0c0.64,0.131,1.27,0.32,1.87,0.57s1.19,0.561,1.73,0.92  c0.55,0.37,1.06,0.79,1.52,1.25s0.88,0.971,1.24,1.52c0.36,0.54,0.67,1.12,0.92,1.72s0.44,1.23,0.57,1.87  c0.13,0.649,0.2,1.31,0.2,1.96c0,0.65-0.07,1.31-0.2,1.95s-0.32,1.27-0.57,1.87c-0.25,0.609-0.56,1.189-0.92,1.729  c-0.36,0.55-0.78,1.061-1.24,1.521c-0.46,0.46-0.98,0.88-1.52,1.239c-0.54,0.36-1.13,0.67-1.73,0.92s-1.23,0.44-1.87,0.57  C279.08,225.27,278.42,225.34,277.77,225.34z"/>
<path d="M100,300.75c-0.65,0-1.31-0.07-1.95-0.2s-1.27-0.32-1.88-0.57c-0.6-0.25-1.18-0.56-1.72-0.92  c-0.55-0.359-1.06-0.78-1.52-1.24s-0.88-0.97-1.24-1.52c-0.36-0.54-0.67-1.13-0.92-1.73s-0.44-1.229-0.57-1.869  c-0.13-0.641-0.2-1.301-0.2-1.95c0-0.65,0.07-1.31,0.2-1.96c0.13-0.63,0.32-1.261,0.57-1.87c0.25-0.601,0.56-1.18,0.92-1.72  c0.36-0.551,0.78-1.061,1.24-1.521s0.97-0.88,1.52-1.25c0.54-0.36,1.12-0.67,1.72-0.92c0.61-0.25,1.24-0.44,1.88-0.57  c3.25-0.65,6.7,0.41,9.02,2.74c0.46,0.46,0.88,0.97,1.24,1.521c0.36,0.54,0.67,1.119,0.92,1.72c0.25,0.609,0.45,1.24,0.57,1.87  c0.13,0.65,0.2,1.31,0.2,1.96c0,0.649-0.07,1.31-0.2,1.95c-0.12,0.64-0.32,1.27-0.57,1.869c-0.25,0.61-0.56,1.19-0.92,1.73  c-0.36,0.55-0.78,1.06-1.24,1.52C105.21,299.68,102.63,300.75,100,300.75z"/>
<path d="M502,132.747h-71.206V97.194c0-5.522-4.477-10-10-10h-40.272V76.08c0-5.522-4.477-10-10-10H330.25V51.125  c0-17.022-13.849-30.872-30.872-30.872H30.981C14.059,20.253,0.161,34.06,0,51.125v159.638c0,0.006,0,0.012,0,0.018v23.684  c0.16,16.971,14.058,30.777,30.981,30.777H55v216.506c0,5.522,4.477,10,10,10h153.5c24.347,0,40.5-30.396,40.5-50.5V265.241h40.378  c17.023,0,30.872-13.85,30.872-30.872v-14.955h40.272c5.523,0,10-4.478,10-10v-11.113h40.272c5.523,0,10-4.478,10-10v-35.554H502  c5.523,0,10-4.478,10-10C512,137.225,507.523,132.747,502,132.747z M330.25,140.495l30.272-30.272v35.783l-30.272,30.272V140.495z   M356.379,86.08l-26.129,26.13V86.08H356.379z M239,441.247c0,12.599-10.602,30.5-20.5,30.5H110v-145.41c0-5.522-4.477-10-10-10  s-10,4.478-10,10v145.41H75V265.241h164V441.247z M310.25,234.369c0,5.995-4.877,10.872-10.872,10.872H249H65H30.981  c-5.998,0-10.924-4.92-10.981-10.872v-9.032h222.177c5.523,0,10-4.477,10-10c0-5.522-4.477-10-10-10h-212.6L136.839,98.074  c3.905-3.905,3.905-10.237,0-14.143c-3.905-3.904-10.237-3.904-14.143,0L20,186.629v-18.856l82.662-82.661  c3.905-3.905,3.906-10.237,0-14.142c-3.905-3.903-10.237-3.904-14.142,0L20,139.489v-18.856l48.486-48.485  c3.905-3.905,3.905-10.237,0-14.143c-3.906-3.903-10.237-3.903-14.142,0L20,92.349V51.22c0.057-6.047,4.983-10.967,10.982-10.967  h268.397c5.995,0,10.872,4.877,10.872,10.872V76.08v133.334v24.955H310.25z M360.522,199.414h-25.125l25.125-25.125V188.3V199.414z   M410.794,178.301h-30.272v-71.106h30.272V178.301z"/>
<path d="M135,421.747h74c5.523,0,10-4.478,10-10V290.241c0-5.522-4.477-10-10-10h-74c-5.523,0-10,4.478-10,10v33.824v46.349v41.333  C125,417.27,129.477,421.747,135,421.747z M199,300.241v101.506h-54v-21.333h5.492c18.292,0,33.174-14.882,33.174-33.175  c0-18.292-14.882-33.174-33.174-33.174H145v-13.824H199z M145,334.065h5.492c7.264,0,13.174,5.91,13.174,13.174  c0,7.265-5.91,13.175-13.174,13.175H145V334.065z"/>
<circle style="fill:#BFBFBF;" cx="264.77" cy="86.23" r="26.69"/>
<path d="M264.767,122.917c-20.231,0-36.69-16.459-36.69-36.69c0-20.23,16.459-36.689,36.69-36.689s36.69,16.459,36.69,36.689  C301.457,106.458,284.998,122.917,264.767,122.917z M264.767,69.537c-9.203,0-16.69,7.487-16.69,16.689  c0,9.203,7.487,16.69,16.69,16.69s16.69-7.487,16.69-16.69C281.457,77.024,273.969,69.537,264.767,69.537z"/>
<g>
</g>
<g>
</g>
<g>
</g>
<g>
</g>
<g>
</g>
<g>
</g>
<g>
</g>
<g>
</g>
<g>
</g>
<g>
</g>
<g>
</g>
<g>
</g>
<g>
</g>
<g>
</g>
<g>
</g>
</svg>
