<?xml version="1.0" encoding="iso-8859-1"?>
<!-- Generator: Adobe Illustrator 19.0.0, SVG Export Plug-In . SVG Version: 6.00 Build 0)  -->
<svg xmlns="http://www.w3.org/2000/svg" xmlns:xlink="http://www.w3.org/1999/xlink" version="1.1" id="Capa_1" x="0px" y="0px" viewBox="0 0 511.996 511.996" style="enable-background:new 0 0 511.996 511.996;" xml:space="preserve">
<rect x="125.053" y="125.041" transform="matrix(-0.7071 -0.7071 0.7071 -0.7071 256.0061 618.0123)" style="fill:#FDB845;" width="261.889" height="261.889"/>
<g>
	<polygon style="fill:#076893;" points="283.226,295.123 228.771,295.123 220.59,141.435 291.408,141.435  "/>
	<rect x="228.169" y="325.685" style="fill:#076893;" width="55.669" height="44.85"/>
</g>
<path d="M283.834,380.54h-55.669c-5.523,0-10-4.477-10-10v-44.851c0-5.523,4.477-10,10-10h55.669c5.523,0,10,4.477,10,10v44.851  C293.834,376.063,289.357,380.54,283.834,380.54z M238.165,360.539h35.669v-24.85h-35.669V360.539z"/>
<path d="M255.999,274.878c-2.63,0-5.21-1.07-7.07-2.93c-0.46-0.46-0.88-0.97-1.24-1.52c-0.36-0.54-0.67-1.12-0.92-1.73  c-0.25-0.6-0.45-1.23-0.57-1.87c-0.13-0.64-0.2-1.3-0.2-1.95c0-2.64,1.07-5.21,2.93-7.07c0.46-0.47,0.97-0.88,1.52-1.25  c0.54-0.36,1.12-0.67,1.73-0.92c0.6-0.25,1.23-0.44,1.87-0.57c1.29-0.26,2.62-0.26,3.9,0c0.64,0.13,1.27,0.32,1.87,0.57  c0.61,0.25,1.19,0.56,1.73,0.92c0.55,0.37,1.06,0.78,1.52,1.25c0.46,0.46,0.88,0.97,1.24,1.52c0.36,0.54,0.67,1.12,0.92,1.72  c0.25,0.61,0.45,1.24,0.57,1.87c0.13,0.65,0.2,1.31,0.2,1.96s-0.07,1.31-0.2,1.95c-0.12,0.64-0.32,1.27-0.57,1.87  c-0.25,0.61-0.56,1.19-0.92,1.73c-0.36,0.55-0.78,1.06-1.24,1.52c-0.46,0.46-0.97,0.88-1.52,1.24c-0.54,0.36-1.12,0.67-1.73,0.92  c-0.6,0.25-1.23,0.441-1.87,0.57C257.309,274.808,256.649,274.878,255.999,274.878z"/>
<polygon style="fill:#BFBFBF;" points="441.185,255.988 502.01,255.988 255.999,9.977 255.999,70.801 "/>
<g>
	<polygon style="fill:#676767;" points="441.185,255.988 255.999,441.174 255.999,501.999 502.01,255.988  "/>
	<polygon style="fill:#676767;" points="255.999,70.801 255.999,9.977 9.987,255.988 70.813,255.988  "/>
</g>
<polygon style="fill:#BFBFBF;" points="70.813,255.988 9.987,255.988 255.999,501.999 255.999,441.174 "/>
<path d="M298.665,134.555c-1.889-1.992-4.512-3.12-7.257-3.12H220.59c-2.745,0-5.368,1.128-7.257,3.12  c-1.888,1.991-2.875,4.671-2.729,7.412l8.182,153.688c0.283,5.309,4.669,9.468,9.986,9.468h54.453c5.316,0,9.703-4.16,9.986-9.468  l8.182-153.688C301.541,139.226,300.554,136.546,298.665,134.555z M273.743,285.123h-35.489l-7.118-133.687h14.862v77.848  c0,5.523,4.477,10,10,10c5.523,0,10-4.477,10-10v-77.848h14.862L273.743,285.123z"/>
<path d="M511.757,258.162c0.054-0.242,0.089-0.485,0.125-0.73c0.035-0.239,0.072-0.477,0.089-0.716  c0.018-0.242,0.016-0.484,0.016-0.727s0.002-0.485-0.016-0.727c-0.017-0.24-0.054-0.477-0.089-0.717  c-0.036-0.245-0.071-0.489-0.125-0.73c-0.051-0.228-0.119-0.452-0.187-0.677c-0.074-0.25-0.15-0.497-0.244-0.741  c-0.03-0.077-0.045-0.157-0.077-0.234c-0.114-0.275-0.242-0.54-0.378-0.801c-0.026-0.05-0.055-0.098-0.082-0.148  c-0.211-0.387-0.443-0.759-0.699-1.11c-0.03-0.041-0.062-0.08-0.092-0.12c-0.27-0.359-0.562-0.699-0.875-1.017  c-0.015-0.015-0.027-0.033-0.042-0.049L263.07,2.906c-0.015-0.015-0.033-0.027-0.048-0.042c-0.317-0.313-0.658-0.605-1.017-0.875  c-0.04-0.03-0.079-0.062-0.12-0.092c-0.352-0.256-0.723-0.488-1.111-0.699c-0.049-0.027-0.097-0.055-0.147-0.081  c-0.261-0.136-0.526-0.265-0.801-0.379c-0.077-0.032-0.157-0.047-0.234-0.077c-0.244-0.094-0.492-0.17-0.743-0.244  c-0.224-0.067-0.447-0.135-0.673-0.185c-0.245-0.055-0.492-0.09-0.74-0.126c-0.235-0.034-0.469-0.071-0.705-0.088  C256.484-0.002,256.236,0,255.987,0c-0.237,0-0.473-0.002-0.709,0.016c-0.246,0.018-0.49,0.055-0.736,0.091  c-0.238,0.035-0.475,0.069-0.711,0.121c-0.234,0.052-0.464,0.122-0.695,0.192c-0.244,0.073-0.486,0.147-0.724,0.238  c-0.079,0.03-0.161,0.046-0.239,0.079c-0.276,0.114-0.543,0.244-0.804,0.38c-0.047,0.025-0.093,0.052-0.14,0.077  c-0.39,0.212-0.763,0.445-1.117,0.703c-0.039,0.029-0.077,0.06-0.116,0.089c-0.36,0.271-0.701,0.563-1.019,0.877  c-0.015,0.015-0.033,0.026-0.048,0.042L2.917,248.916c-0.015,0.015-0.027,0.033-0.042,0.049c-0.314,0.316-0.605,0.657-0.876,1.016  c-0.03,0.04-0.062,0.079-0.092,0.12c-0.256,0.351-0.488,0.723-0.699,1.11c-0.027,0.05-0.056,0.098-0.082,0.148  c-0.136,0.26-0.265,0.526-0.379,0.801c-0.032,0.077-0.047,0.157-0.077,0.234c-0.094,0.244-0.169,0.491-0.244,0.741  c-0.067,0.225-0.136,0.449-0.187,0.677c-0.054,0.242-0.089,0.485-0.125,0.73c-0.035,0.239-0.072,0.477-0.089,0.717  c-0.018,0.242-0.016,0.484-0.016,0.727s-0.002,0.485,0.016,0.727c0.017,0.24,0.054,0.477,0.089,0.716  c0.036,0.245,0.071,0.489,0.125,0.73c0.051,0.228,0.119,0.452,0.187,0.677c0.074,0.25,0.15,0.497,0.244,0.741  c0.03,0.077,0.045,0.157,0.077,0.234c0.114,0.275,0.243,0.54,0.379,0.801c0.026,0.05,0.055,0.098,0.082,0.148  c0.211,0.387,0.442,0.759,0.699,1.11c0.03,0.041,0.062,0.08,0.092,0.12c0.27,0.359,0.562,0.699,0.875,1.017  c0.015,0.015,0.026,0.033,0.042,0.048l246.011,246.011c0.021,0.021,0.044,0.038,0.065,0.059c0.212,0.208,0.432,0.41,0.663,0.599  c0.035,0.028,0.071,0.053,0.106,0.081c0.197,0.157,0.401,0.307,0.61,0.45c0.08,0.054,0.16,0.106,0.241,0.158  c0.177,0.113,0.359,0.221,0.545,0.324c0.08,0.044,0.159,0.091,0.24,0.133c0.252,0.13,0.508,0.253,0.773,0.363  c0.004,0.001,0.007,0.002,0.011,0.004c0.247,0.102,0.5,0.188,0.754,0.27c0.06,0.019,0.119,0.045,0.179,0.063  c0.203,0.061,0.41,0.105,0.616,0.153c0.749,0.175,1.508,0.272,2.265,0.272c0.001,0,0.001,0,0.002,0c0.001,0,0.001,0,0.002,0  c0.739,0,1.481-0.092,2.214-0.259c0.223-0.051,0.447-0.1,0.666-0.166c0.066-0.02,0.13-0.048,0.196-0.069  c0.248-0.08,0.495-0.163,0.736-0.263c0.004-0.002,0.008-0.003,0.013-0.005c0.266-0.11,0.523-0.234,0.775-0.364  c0.079-0.041,0.157-0.087,0.235-0.13c0.188-0.104,0.371-0.212,0.551-0.327c0.08-0.051,0.159-0.102,0.238-0.156  c0.21-0.143,0.415-0.294,0.613-0.452c0.034-0.027,0.07-0.052,0.104-0.08c0.231-0.19,0.451-0.391,0.663-0.6  c0.021-0.021,0.044-0.038,0.065-0.059L509.08,263.055c0.015-0.015,0.027-0.033,0.042-0.048c0.313-0.317,0.605-0.657,0.875-1.017  c0.03-0.04,0.062-0.079,0.092-0.12c0.256-0.351,0.488-0.723,0.699-1.11c0.027-0.05,0.056-0.098,0.082-0.148  c0.136-0.26,0.265-0.526,0.378-0.801c0.032-0.077,0.047-0.157,0.077-0.234c0.094-0.244,0.169-0.491,0.244-0.741  C511.637,258.614,511.706,258.39,511.757,258.162z M255.999,427.03L84.956,255.988L255.999,84.945l171.043,171.043L255.999,427.03z   M265.999,66.659V34.12l211.868,211.868h-32.539L265.999,66.659z M245.998,34.12v32.539L66.67,245.987H34.131L245.998,34.12z   M66.67,265.988l179.328,179.328v32.539L34.131,265.988H66.67z M265.999,477.856v-32.539l179.328-179.328h32.539L265.999,477.856z"/>
<g>
</g>
<g>
</g>
<g>
</g>
<g>
</g>
<g>
</g>
<g>
</g>
<g>
</g>
<g>
</g>
<g>
</g>
<g>
</g>
<g>
</g>
<g>
</g>
<g>
</g>
<g>
</g>
<g>
</g>
</svg>
