<?xml version="1.0" encoding="iso-8859-1"?>
<!-- Generator: Adobe Illustrator 19.0.0, SVG Export Plug-In . SVG Version: 6.00 Build 0)  -->
<svg xmlns="http://www.w3.org/2000/svg" xmlns:xlink="http://www.w3.org/1999/xlink" version="1.1" id="Capa_1" x="0px" y="0px" viewBox="0 0 512 512" style="enable-background:new 0 0 512 512;" xml:space="preserve">
<rect x="114.085" y="10.355" style="fill:#076893;" width="75.531" height="29.008"/>
<rect x="76.2" y="39.363" style="fill:#C69F7F;" width="149.105" height="40.272"/>
<path style="fill:#076893;" d="M442.049,367.937H69.951c-33.118,0-59.965-26.847-59.965-59.965l0,0  c0-33.118,26.847-59.965,59.965-59.965h372.098c33.118,0,59.965,26.847,59.965,59.965l0,0  C502.014,341.09,475.167,367.937,442.049,367.937z"/>
<g>
	<circle style="fill:#BFBFBF;" cx="78.986" cy="307.975" r="32.024"/>
	<circle style="fill:#BFBFBF;" cx="236.129" cy="307.975" r="32.024"/>
	<circle style="fill:#BFBFBF;" cx="393.272" cy="307.975" r="32.024"/>
</g>
<g>
	<rect x="78.906" y="367.938" style="fill:#676767;" width="32.952" height="88.772"/>
	<rect x="239.524" y="367.938" style="fill:#676767;" width="32.952" height="88.772"/>
	<rect x="400.142" y="367.938" style="fill:#676767;" width="32.952" height="88.772"/>
</g>
<g>
	<rect x="53.942" y="456.71" style="fill:#BFDEFF;" width="82.88" height="44.935"/>
	<rect x="214.56" y="456.71" style="fill:#BFDEFF;" width="82.88" height="44.935"/>
	<rect x="375.178" y="456.71" style="fill:#BFDEFF;" width="82.88" height="44.935"/>
</g>
<g>
	<rect x="295.633" y="125.688" style="fill:#FDB845;" width="149.105" height="122.313"/>
	<rect x="76.2" y="125.688" style="fill:#FDB845;" width="149.105" height="122.313"/>
</g>
<rect x="333.618" y="125.688" style="fill:#C69F7F;" width="73.134" height="48.929"/>
<path d="M406.183,217.396c-0.648,0-1.308-0.06-1.946-0.19c-0.64-0.13-1.269-0.32-1.867-0.569c-0.609-0.25-1.189-0.559-1.728-0.919  c-0.549-0.369-1.058-0.789-1.518-1.248c-0.459-0.459-0.879-0.969-1.248-1.518c-0.351-0.539-0.659-1.118-0.909-1.718  c-0.25-0.609-0.449-1.228-0.569-1.867c-0.13-0.649-0.2-1.298-0.2-1.957c0-0.649,0.07-1.308,0.2-1.947  c0.12-0.639,0.32-1.268,0.569-1.867c0.25-0.609,0.549-1.188,0.909-1.728c0.369-0.549,0.789-1.058,1.248-1.518  c0.459-0.459,0.969-0.879,1.518-1.238c0.539-0.359,1.118-0.669,1.728-0.919c0.599-0.25,1.227-0.439,1.867-0.569  c1.288-0.26,2.605-0.26,3.893,0c0.64,0.13,1.268,0.32,1.877,0.569c0.6,0.25,1.179,0.559,1.719,0.919  c0.549,0.359,1.058,0.779,1.518,1.238c0.459,0.459,0.879,0.969,1.238,1.518c0.358,0.539,0.669,1.118,0.919,1.728  c0.25,0.599,0.449,1.228,0.569,1.867c0.13,0.639,0.199,1.298,0.199,1.947c0,0.659-0.069,1.308-0.199,1.957  c-0.12,0.639-0.32,1.258-0.569,1.867c-0.25,0.599-0.56,1.178-0.919,1.718c-0.359,0.549-0.779,1.058-1.238,1.518  c-0.459,0.459-0.969,0.879-1.518,1.248c-0.539,0.359-1.118,0.669-1.719,0.919c-0.608,0.25-1.237,0.439-1.877,0.569  C407.491,217.336,406.832,217.396,406.183,217.396z"/>
<path d="M76.199,89.613h149.105c5.515,0,9.986-4.471,9.986-9.986V39.361c0-5.515-4.471-9.986-9.986-9.986h-25.695V10.355  c0-5.515-4.471-9.986-9.986-9.986H114.09c-5.515,0-9.986,4.471-9.986,9.986v19.02H76.199c-5.515,0-9.986,4.471-9.986,9.986v40.268  C66.213,85.143,70.684,89.613,76.199,89.613z M124.076,20.341h55.562v9.034h-55.562C124.076,29.375,124.076,20.341,124.076,20.341z   M86.184,49.347h27.906h75.533h25.695v20.297H86.184V49.347z"/>
<path d="M512,307.972c0-34.243-24.739-62.796-57.277-68.78V125.688c0-5.515-4.472-9.986-9.986-9.986h-37.985h-73.133h-37.985  c-5.514,0-9.986,4.471-9.986,9.986V238.02h-50.359V125.688c0-5.515-4.471-9.986-9.986-9.986H76.199  c-5.515,0-9.986,4.471-9.986,9.986v112.433C29.374,240.072,0,270.655,0,307.972c0,38.227,30.826,69.372,68.924,69.925v68.828H53.946  c-5.515,0-9.986,4.471-9.986,9.986v44.935c0,5.515,4.471,9.986,9.986,9.986h82.88c5.515,0,9.986-4.471,9.986-9.986V456.71  c0-4.256-2.667-7.88-6.417-9.318l35.298-23.993l35.298,23.993c-3.75,1.438-6.417,5.062-6.417,9.318v44.935  c0,5.515,4.471,9.986,9.986,9.986h82.88c5.514,0,9.986-4.471,9.986-9.986V456.71c0-4.256-2.667-7.88-6.418-9.318l35.299-23.993  l35.299,23.993c-3.75,1.438-6.417,5.062-6.417,9.318v44.935c0,5.515,4.471,9.986,9.986,9.986h82.88c5.514,0,9.986-4.471,9.986-9.986  V456.71c0-5.515-4.472-9.986-9.986-9.986h-14.978v-68.828C481.174,377.343,512,346.199,512,307.972z M396.767,135.674v28.958  h-53.162v-28.958H396.767z M305.619,217.399h65.026c5.515,0,9.986-4.471,9.986-9.986s-4.471-9.986-9.986-9.986h-65.026v-61.754  h18.014v38.944c0,5.515,4.472,9.986,9.986,9.986h73.133c5.514,0,9.986-4.471,9.986-9.986v-38.944h18.014V238.02H305.619V217.399z   M215.318,135.674V238.02H86.184v-20.621h65.672c5.515,0,9.986-4.471,9.986-9.986s-4.471-9.986-9.986-9.986H86.184v-61.754H215.318z   M19.971,307.972c0-27.559,22.421-49.98,49.98-49.98h6.247h149.105h70.33h146.415c27.56,0,49.981,22.422,49.981,49.981  c0,27.559-22.421,49.98-49.981,49.98h-8.958h-32.952h-0.014c-0.015,0-0.031,0-0.046,0H272.535c-0.015,0-0.031,0-0.046,0h-0.013  h-32.952h-0.014c-0.015,0-0.029,0-0.043,0H111.921c-0.015,0-0.031,0-0.046,0h-0.013H78.91h-8.959  C42.392,357.952,19.971,335.531,19.971,307.972z M262.491,446.724h-12.981v-68.802h12.981V446.724z M367.686,377.923l-31.378,21.328  l-31.378-21.328H367.686z M207.07,377.923l-31.377,21.328l-31.377-21.328H207.07z M88.896,377.923h12.981v68.802H88.896V377.923z   M126.841,491.659H63.932v-24.964H78.91h32.952h14.978V491.659z M121.848,435.851v-49.052l36.082,24.527L121.848,435.851z   M229.538,386.799v49.052l-36.082-24.526L229.538,386.799z M287.455,491.659h-62.909v-24.964h14.978h32.952h14.978V491.659z   M282.462,435.852v-49.053l36.083,24.527L282.462,435.852z M390.153,386.799v49.053l-36.083-24.527L390.153,386.799z   M448.069,491.659H385.16v-24.964h14.978h32.952h14.978V491.659z M410.124,446.724v-68.802h12.981v68.802H410.124z"/>
<path d="M119.79,317.957h30.961c5.515,0,9.986-4.471,9.986-9.986c0-5.515-4.471-9.986-9.986-9.986H119.79  c-4.494-18.357-21.077-32.023-40.8-32.023c-23.164,0-42.008,18.845-42.008,42.008S55.826,349.98,78.99,349.98  C98.713,349.98,115.296,336.315,119.79,317.957z M56.953,307.972c0-12.151,9.886-22.037,22.037-22.037s22.037,9.886,22.037,22.037  c0,12.151-9.886,22.037-22.037,22.037C66.839,330.009,56.953,320.123,56.953,307.972z"/>
<path d="M236.132,349.98c19.723,0,36.306-13.665,40.8-32.023h30.961c5.514,0,9.986-4.471,9.986-9.986  c0-5.515-4.472-9.986-9.986-9.986h-30.961c-4.495-18.357-21.077-32.023-40.8-32.023c-23.164,0-42.008,18.845-42.008,42.008  C194.122,331.135,212.967,349.98,236.132,349.98z M236.132,285.935c12.151,0,22.037,9.886,22.037,22.037  c0,12.151-9.886,22.037-22.037,22.037s-22.037-9.886-22.037-22.037C214.094,295.82,223.98,285.935,236.132,285.935z"/>
<path d="M393.273,349.98c19.723,0,36.306-13.665,40.8-32.023h30.961c5.514,0,9.986-4.471,9.986-9.986  c0-5.515-4.472-9.986-9.986-9.986h-30.961c-4.494-18.357-21.077-32.023-40.8-32.023c-23.164,0-42.008,18.845-42.008,42.008  C351.264,331.135,370.109,349.98,393.273,349.98z M393.273,285.935c12.151,0,22.037,9.886,22.037,22.037  c0,12.151-9.886,22.037-22.037,22.037c-12.151,0-22.037-9.886-22.037-22.037C371.235,295.82,381.121,285.935,393.273,285.935z"/>
<path d="M187.389,217.396c-0.649,0-1.298-0.06-1.947-0.19c-0.639-0.13-1.268-0.32-1.867-0.569c-0.599-0.25-1.178-0.559-1.727-0.919  c-0.539-0.369-1.048-0.789-1.518-1.248c-0.459-0.459-0.869-0.969-1.238-1.518c-0.359-0.539-0.669-1.118-0.919-1.718  c-0.25-0.609-0.439-1.228-0.569-1.867c-0.13-0.649-0.19-1.298-0.19-1.957c0-0.649,0.06-1.308,0.19-1.947  c0.13-0.639,0.32-1.268,0.569-1.867c0.25-0.609,0.559-1.188,0.919-1.728c0.369-0.549,0.779-1.058,1.238-1.518  c0.469-0.459,0.979-0.879,1.518-1.238c0.549-0.359,1.128-0.669,1.727-0.919c0.599-0.25,1.228-0.439,1.867-0.569  c1.288-0.26,2.616-0.26,3.904,0c0.639,0.13,1.268,0.32,1.867,0.569c0.599,0.25,1.178,0.559,1.728,0.919  c0.539,0.359,1.048,0.779,1.518,1.238c0.459,0.459,0.869,0.969,1.238,1.518c0.359,0.539,0.669,1.118,0.919,1.728  c0.25,0.599,0.439,1.228,0.569,1.867c0.13,0.639,0.2,1.298,0.2,1.947c0,0.659-0.07,1.308-0.2,1.957  c-0.13,0.639-0.32,1.258-0.569,1.867c-0.25,0.599-0.559,1.178-0.919,1.718c-0.369,0.549-0.779,1.058-1.238,1.518  c-0.469,0.459-0.979,0.879-1.518,1.248c-0.549,0.359-1.128,0.669-1.728,0.919c-0.599,0.25-1.228,0.439-1.867,0.569  C188.697,217.336,188.048,217.396,187.389,217.396z"/>
<g>
</g>
<g>
</g>
<g>
</g>
<g>
</g>
<g>
</g>
<g>
</g>
<g>
</g>
<g>
</g>
<g>
</g>
<g>
</g>
<g>
</g>
<g>
</g>
<g>
</g>
<g>
</g>
<g>
</g>
</svg>
