<?xml version="1.0" encoding="iso-8859-1"?>
<!-- Generator: Adobe Illustrator 19.0.0, SVG Export Plug-In . SVG Version: 6.00 Build 0)  -->
<svg xmlns="http://www.w3.org/2000/svg" xmlns:xlink="http://www.w3.org/1999/xlink" version="1.1" id="Capa_1" x="0px" y="0px" viewBox="0 0 512 512" style="enable-background:new 0 0 512 512;" xml:space="preserve">
<path d="M52.14,115.39c-0.65,0-1.31-0.07-1.95-0.2s-1.27-0.32-1.87-0.57s-1.19-0.56-1.73-0.92c-0.55-0.36-1.06-0.78-1.52-1.24  s-0.88-0.97-1.24-1.52c-0.36-0.54-0.67-1.12-0.92-1.73c-0.25-0.6-0.44-1.23-0.57-1.87s-0.2-1.3-0.2-1.95c0-0.65,0.07-1.309,0.2-1.96  c0.13-0.63,0.32-1.26,0.57-1.87c0.25-0.6,0.56-1.18,0.92-1.72c0.36-0.55,0.78-1.06,1.24-1.52c0.46-0.46,0.97-0.88,1.52-1.25  c0.54-0.36,1.13-0.67,1.73-0.92s1.23-0.44,1.87-0.57c1.29-0.26,2.62-0.26,3.91,0c0.64,0.13,1.26,0.32,1.87,0.57  c0.6,0.25,1.18,0.56,1.72,0.92c0.55,0.37,1.06,0.79,1.52,1.25c0.47,0.46,0.88,0.97,1.25,1.52c0.36,0.54,0.67,1.12,0.92,1.72  c0.25,0.61,0.44,1.24,0.57,1.87c0.13,0.65,0.19,1.31,0.19,1.96s-0.06,1.31-0.19,1.95c-0.13,0.64-0.32,1.27-0.57,1.87  c-0.25,0.61-0.56,1.19-0.92,1.73c-0.37,0.55-0.78,1.06-1.25,1.52c-0.46,0.46-0.97,0.88-1.52,1.24c-0.54,0.36-1.12,0.67-1.72,0.92  c-0.61,0.25-1.23,0.44-1.87,0.57C53.45,115.321,52.8,115.39,52.14,115.39z"/>
<path d="M112.67,154.23c-0.65,0-1.31-0.07-1.95-0.2c-0.64-0.13-1.27-0.32-1.88-0.57c-0.6-0.25-1.18-0.56-1.72-0.92  c-0.55-0.36-1.059-0.78-1.52-1.24c-0.46-0.46-0.88-0.98-1.25-1.52c-0.36-0.54-0.66-1.13-0.91-1.73c-0.25-0.6-0.45-1.23-0.57-1.87  c-0.13-0.64-0.2-1.3-0.2-1.95s0.07-1.31,0.2-1.96c0.12-0.64,0.32-1.26,0.57-1.87c0.25-0.6,0.55-1.18,0.91-1.72  c0.37-0.55,0.79-1.06,1.25-1.52c0.461-0.47,0.97-0.88,1.52-1.25c0.54-0.36,1.12-0.67,1.72-0.92c0.61-0.25,1.24-0.44,1.88-0.57  c1.28-0.26,2.61-0.26,3.9,0c0.64,0.13,1.27,0.32,1.87,0.57c0.61,0.25,1.19,0.56,1.73,0.92c0.55,0.37,1.06,0.78,1.52,1.25  c0.46,0.46,0.88,0.97,1.24,1.52c0.36,0.54,0.67,1.12,0.92,1.72c0.25,0.61,0.44,1.23,0.57,1.87c0.13,0.65,0.2,1.31,0.2,1.96  s-0.07,1.31-0.2,1.95s-0.32,1.27-0.57,1.87c-0.25,0.6-0.56,1.19-0.92,1.73s-0.78,1.06-1.24,1.52s-0.97,0.88-1.52,1.24  c-0.54,0.36-1.12,0.67-1.73,0.92c-0.6,0.25-1.23,0.44-1.87,0.57C113.98,154.16,113.32,154.23,112.67,154.23z"/>
<path d="M138.39,193.064H72.669c-5.523,0-10-4.477-10-10s4.477-10,10-10h65.721c5.523,0,10,4.477,10,10  C148.39,188.588,143.913,193.064,138.39,193.064z"/>
<path d="M173.98,193.061c-0.65,0-1.31-0.06-1.95-0.19s-1.27-0.32-1.88-0.57c-0.6-0.25-1.18-0.56-1.72-0.92  c-0.55-0.37-1.06-0.78-1.52-1.25c-0.46-0.46-0.88-0.97-1.25-1.51c-0.36-0.55-0.66-1.13-0.91-1.73c-0.25-0.6-0.45-1.23-0.57-1.87  c-0.13-0.65-0.2-1.3-0.2-1.96c0-0.65,0.07-1.3,0.2-1.95c0.12-0.64,0.32-1.27,0.57-1.87s0.55-1.18,0.91-1.73  c0.37-0.54,0.79-1.06,1.25-1.52s0.97-0.88,1.52-1.24c0.54-0.36,1.12-0.67,1.72-0.92c0.61-0.25,1.24-0.44,1.88-0.57  c1.29-0.26,2.61-0.26,3.9,0c0.64,0.13,1.27,0.32,1.87,0.57c0.61,0.25,1.19,0.56,1.73,0.92c0.55,0.36,1.06,0.78,1.52,1.24  s0.88,0.98,1.24,1.52c0.36,0.55,0.67,1.13,0.92,1.73s0.44,1.23,0.57,1.87c0.13,0.65,0.2,1.3,0.2,1.95c0,0.66-0.07,1.309-0.2,1.96  c-0.13,0.64-0.32,1.27-0.57,1.87c-0.25,0.6-0.56,1.18-0.92,1.73c-0.36,0.54-0.78,1.05-1.24,1.51c-0.46,0.47-0.97,0.88-1.52,1.25  c-0.54,0.36-1.12,0.67-1.73,0.92c-0.6,0.25-1.23,0.44-1.87,0.57S174.63,193.061,173.98,193.061z"/>
<path style="fill:#076893;" d="M442.318,340.477H69.682C36.516,340.477,10,313.591,10,280.425l0,0  c0-33.166,26.516-60.052,59.682-60.052h372.636c33.166,0,59.682,26.886,59.682,60.052l0,0  C502,313.591,475.484,340.477,442.318,340.477z"/>
<g>
	<circle style="fill:#BFBFBF;" cx="78.73" cy="280.43" r="32.07"/>
	<circle style="fill:#BFBFBF;" cx="236.1" cy="280.43" r="32.07"/>
	<circle style="fill:#BFBFBF;" cx="393.47" cy="280.43" r="32.07"/>
</g>
<g>
	<rect x="78.65" y="340.481" style="fill:#676767;" width="33" height="99.4"/>
	<rect x="239.5" y="340.481" style="fill:#676767;" width="33" height="99.4"/>
	<rect x="400.35" y="340.481" style="fill:#676767;" width="33" height="99.4"/>
</g>
<rect x="346.47" y="72.121" style="fill:#FDB845;" width="94" height="148.25"/>
<rect x="213.98" y="72.121" style="fill:#C69F7F;" width="94" height="148.25"/>
<path d="M512,280.425c0-35.853-26.936-65.483-61.529-69.557V72.122c0-5.523-4.477-10-10-10h-94c-5.523,0-10,4.477-10,10v138.251  H317.98V72.122c0-5.523-4.477-10-10-10h-94c-5.523,0-10,4.477-10,10v23.267H87.733c-5.523,0-10,4.477-10,10s4.477,10,10,10H203.98  v18.838h-55.721c-5.523,0-10,4.477-10,10s4.477,10,10,10h55.721v56.146H69.682C31.259,210.372,0,241.799,0,280.425  c0,38.28,30.705,69.469,68.654,70.026v79.427H37.5c-5.523,0-10,4.477-10,10s4.477,10,10,10h41.154h32.998c0.003,0,0.006,0,0.009,0  c0.004,0,0.008,0,0.012,0h127.808c0.004,0,0.008,0,0.012,0c0.003,0,0.006,0,0.009,0h32.996c0.003,0,0.006,0,0.009,0  c0.004,0,0.008,0,0.012,0h127.808c0.004,0,0.008,0,0.012,0c0.003,0,0.006,0,0.009,0h32.998H474.5c5.523,0,10-4.477,10-10  s-4.477-10-10-10h-31.154v-79.427C481.295,349.895,512,318.706,512,280.425z M356.471,82.122h74v128.251h-74V82.122z   M223.979,82.122h74v128.251h-74V82.122z M20,280.425c0-27.599,22.287-50.052,49.682-50.052h144.297h94h38.491h94h1.847  c27.395,0,49.682,22.454,49.682,50.053c0,27.599-22.287,50.052-49.682,50.052h-8.972h-33H272.5h-33H111.654h-33h-8.972  C42.287,330.477,20,308.024,20,280.425z M320.131,390.179L282.5,419.437v-58.517L320.131,390.179z M301.654,350.477h69.539  l-34.77,27.034L301.654,350.477z M336.423,402.846l34.77,27.033h-69.539L336.423,402.846z M352.715,390.179l37.631-29.258v58.517  L352.715,390.179z M159.285,390.179l-37.631,29.258v-58.517L159.285,390.179z M140.807,350.477h69.539l-34.77,27.034  L140.807,350.477z M175.577,402.846l34.77,27.033h-69.539L175.577,402.846z M191.869,390.179l37.631-29.258v58.517L191.869,390.179z   M88.654,429.878v-79.401h13v79.401H88.654z M249.5,429.878v-79.401h13v79.401H249.5z M410.346,429.878v-79.401h13v79.401H410.346z"/>
<path d="M119.593,290.425h31.006c5.523,0,10-4.477,10-10s-4.477-10-10-10h-31.006c-4.501-18.384-21.107-32.069-40.859-32.069  c-23.197,0-42.069,18.872-42.069,42.069c0,23.197,18.872,42.069,42.069,42.069C98.486,322.495,115.092,308.81,119.593,290.425z   M56.665,280.425c0-12.169,9.9-22.069,22.069-22.069s22.069,9.9,22.069,22.069s-9.9,22.069-22.069,22.069  S56.665,292.594,56.665,280.425z"/>
<path d="M236.102,322.495c19.752,0,36.358-13.685,40.859-32.069h31.006c5.523,0,10-4.477,10-10s-4.477-10-10-10h-31.006  c-4.5-18.384-21.107-32.069-40.859-32.069c-23.197,0-42.069,18.872-42.069,42.069C194.033,303.622,212.905,322.495,236.102,322.495z   M236.102,258.356c12.169,0,22.069,9.9,22.069,22.069s-9.9,22.069-22.069,22.069s-22.069-9.9-22.069-22.069  C214.033,268.257,223.934,258.356,236.102,258.356z"/>
<path d="M393.471,322.495c19.752,0,36.358-13.685,40.859-32.069h31.006c5.523,0,10-4.477,10-10s-4.477-10-10-10H434.33  c-4.5-18.384-21.107-32.069-40.859-32.069c-23.197,0-42.069,18.872-42.069,42.069C351.402,303.622,370.273,322.495,393.471,322.495z   M393.471,258.356c12.169,0,22.069,9.9,22.069,22.069s-9.9,22.069-22.069,22.069s-22.069-9.9-22.069-22.069  C371.401,268.257,381.302,258.356,393.471,258.356z"/>
<g>
</g>
<g>
</g>
<g>
</g>
<g>
</g>
<g>
</g>
<g>
</g>
<g>
</g>
<g>
</g>
<g>
</g>
<g>
</g>
<g>
</g>
<g>
</g>
<g>
</g>
<g>
</g>
<g>
</g>
</svg>
