<?xml version="1.0" encoding="iso-8859-1"?>
<!-- Generator: Adobe Illustrator 19.0.0, SVG Export Plug-In . SVG Version: 6.00 Build 0)  -->
<svg xmlns="http://www.w3.org/2000/svg" xmlns:xlink="http://www.w3.org/1999/xlink" version="1.1" id="Capa_1" x="0px" y="0px" viewBox="0 0 512 512" style="enable-background:new 0 0 512 512;" xml:space="preserve">
<rect x="386.53" y="213.16" style="fill:#076893;" width="42.916" height="41.82"/>
<rect x="27.474" y="158.7" style="fill:#BFBFBF;" width="303.98" height="343.3"/>
<rect x="67.4" y="198.62" style="fill:#FDB845;" width="224.14" height="48.38"/>
<rect x="67.4" y="247" style="fill:#676767;" width="224.14" height="131.64"/>
<rect x="27.474" y="10" style="fill:#076893;" width="303.98" height="148.7"/>
<rect x="67.4" y="49.922" style="fill:#BFDEFF;" width="224.14" height="68.858"/>
<path d="M254.47,93.13c-2.63,0-5.2-1.07-7.07-2.93c-0.46-0.46-0.88-0.971-1.24-1.521c-0.36-0.54-0.67-1.12-0.92-1.729  c-0.25-0.601-0.44-1.23-0.57-1.87c-0.13-0.641-0.2-1.3-0.2-1.95s0.07-1.311,0.2-1.96c0.13-0.63,0.32-1.26,0.57-1.87  c0.25-0.6,0.56-1.18,0.92-1.72c0.36-0.55,0.78-1.061,1.24-1.521c0.46-0.46,0.97-0.88,1.52-1.25c0.54-0.359,1.12-0.67,1.73-0.92  c0.6-0.25,1.23-0.439,1.87-0.57c3.25-0.649,6.7,0.41,9.03,2.74c1.86,1.86,2.92,4.44,2.92,7.07s-1.06,5.21-2.93,7.07  C259.68,92.06,257.1,93.13,254.47,93.13z"/>
<circle style="fill:#FDB845;" cx="116.23" cy="296.61" r="19.462"/>
<path d="M116.231,326.076c-16.245,0-29.462-13.217-29.462-29.462s13.217-29.462,29.462-29.462s29.461,13.217,29.461,29.462  C145.692,312.859,132.476,326.076,116.231,326.076z M116.231,287.152c-5.217,0-9.462,4.244-9.462,9.462  c0,5.218,4.245,9.462,9.462,9.462c5.217,0,9.461-4.244,9.461-9.462C125.692,291.397,121.448,287.152,116.231,287.152z"/>
<path d="M124.214,358.635h-15.968c-5.523,0-10-4.478-10-10s4.477-10,10-10h15.968c5.523,0,10,4.478,10,10  C134.214,354.157,129.737,358.635,124.214,358.635z"/>
<circle style="fill:#076893;" cx="179.47" cy="296.61" r="19.462"/>
<path d="M179.464,326.076c-16.245,0-29.462-13.217-29.462-29.462s13.216-29.462,29.462-29.462c16.245,0,29.462,13.217,29.462,29.462  C208.926,312.859,195.71,326.076,179.464,326.076z M179.464,287.152c-5.217,0-9.462,4.244-9.462,9.462  c0,5.218,4.244,9.462,9.462,9.462c5.217,0,9.462-4.244,9.462-9.462C188.926,291.397,184.682,287.152,179.464,287.152z"/>
<path d="M187.449,358.635H171.48c-5.523,0-10-4.478-10-10s4.477-10,10-10h15.968c5.523,0,10,4.478,10,10  C197.449,354.157,192.972,358.635,187.449,358.635z"/>
<circle style="fill:#FDB845;" cx="242.7" cy="296.61" r="19.462"/>
<path d="M242.699,326.076c-16.245,0-29.462-13.217-29.462-29.462s13.217-29.462,29.462-29.462s29.461,13.217,29.461,29.462  C272.161,312.859,258.944,326.076,242.699,326.076z M242.699,287.152c-5.217,0-9.462,4.244-9.462,9.462  c0,5.218,4.245,9.462,9.462,9.462s9.461-4.244,9.461-9.462C252.161,291.397,247.917,287.152,242.699,287.152z"/>
<path d="M250.683,358.635h-15.968c-5.523,0-10-4.478-10-10s4.477-10,10-10h15.968c5.523,0,10,4.478,10,10  C260.683,354.157,256.206,358.635,250.683,358.635z"/>
<path d="M81.23,428.56c-0.66,0-1.31-0.069-1.96-0.2c-0.64-0.13-1.27-0.319-1.87-0.569c-0.6-0.25-1.18-0.561-1.73-0.92  c-0.54-0.36-1.06-0.78-1.52-1.24s-0.88-0.97-1.24-1.521c-0.36-0.54-0.67-1.119-0.92-1.729c-0.25-0.601-0.44-1.23-0.57-1.87  c-0.13-0.64-0.2-1.3-0.2-1.95c0-2.63,1.07-5.21,2.93-7.069c0.46-0.461,0.98-0.881,1.52-1.25c0.55-0.36,1.13-0.671,1.73-0.921  c0.6-0.25,1.23-0.439,1.87-0.569c3.25-0.65,6.7,0.42,9.03,2.74c0.46,0.46,0.87,0.97,1.24,1.52c0.36,0.54,0.67,1.12,0.92,1.72  c0.25,0.61,0.44,1.24,0.57,1.87c0.13,0.65,0.19,1.311,0.19,1.96c0,0.65-0.06,1.31-0.19,1.95c-0.13,0.64-0.32,1.27-0.57,1.87  c-0.25,0.61-0.56,1.189-0.92,1.729c-0.37,0.551-0.78,1.06-1.24,1.521C86.43,427.49,83.86,428.56,81.23,428.56z"/>
<path d="M277.7,472.41c-2.63,0-5.2-1.07-7.07-2.931c-0.46-0.46-0.88-0.97-1.24-1.52c-0.36-0.54-0.67-1.12-0.92-1.73  c-0.25-0.6-0.44-1.229-0.57-1.87c-0.13-0.64-0.19-1.3-0.19-1.949c0-0.65,0.06-1.311,0.19-1.95c0.13-0.641,0.32-1.27,0.57-1.87  c0.25-0.61,0.56-1.19,0.92-1.73c0.36-0.55,0.78-1.06,1.24-1.52c2.33-2.32,5.78-3.39,9.03-2.73c0.64,0.131,1.27,0.32,1.87,0.57  s1.18,0.561,1.73,0.92c0.54,0.36,1.06,0.78,1.52,1.24s0.88,0.97,1.24,1.52c0.36,0.54,0.67,1.12,0.92,1.73  c0.25,0.6,0.44,1.229,0.57,1.87c0.13,0.64,0.19,1.3,0.19,1.95c0,0.649-0.06,1.31-0.19,1.949c-0.13,0.641-0.32,1.271-0.57,1.87  c-0.25,0.61-0.56,1.19-0.92,1.73c-0.37,0.55-0.78,1.06-1.24,1.52s-0.98,0.88-1.52,1.25c-0.55,0.36-1.13,0.67-1.73,0.92  s-1.23,0.44-1.87,0.57C279.01,472.35,278.36,472.41,277.7,472.41z"/>
<rect x="331.45" y="82.65" style="fill:#FDB845;" width="153.07" height="130.52"/>
<path d="M301.534,378.637V247.001v-48.378c0-5.522-4.477-10-10-10H67.396c-5.523,0-10,4.478-10,10v48.378v131.636  c0,5.523,4.477,10,10,10h224.138C297.057,388.637,301.534,384.159,301.534,378.637z M77.396,208.623h204.138v28.378H77.396V208.623z   M281.534,368.637H77.396V257.001h204.138V368.637z"/>
<path d="M291.534,39.922H67.396c-5.523,0-10,4.477-10,10v68.858c0,5.522,4.477,10,10,10h224.138c5.523,0,10-4.478,10-10V49.922  C301.534,44.399,297.057,39.922,291.534,39.922z M281.534,108.78H77.396V93.128h141.558c5.523,0,10-4.478,10-10s-4.477-10-10-10  H77.396V59.922h204.138V108.78z"/>
<path d="M484.526,72.649H341.455V10c0-5.523-4.477-10-10-10H27.474c-5.523,0-10,4.477-10,10v148.701V502c0,5.522,4.477,10,10,10  h303.981c5.523,0,10-4.478,10-10V335.833h66.535c5.523,0,10-4.478,10-10v-60.848h11.458c5.523,0,10-4.478,10-10v-31.82h45.078  c5.523,0,10-4.477,10-10V82.649C494.526,77.127,490.049,72.649,484.526,72.649z M474.526,92.649v57.983h-6.581l-11.224-42.574  c-1.111-4.217-4.827-7.227-9.182-7.439c-4.351-0.22-8.346,2.42-9.863,6.509l-15.038,40.517l-11.212-8.713  c-2.231-1.734-5.093-2.446-7.875-1.952c-2.783,0.491-5.228,2.138-6.73,4.53l-11.229,17.886l-9.004-40.517  c-0.975-4.389-4.758-7.587-9.248-7.817c-4.47-0.254-8.581,2.562-10.002,6.825l-10.91,32.746h-4.975V92.649H474.526z M37.474,20  h283.981v62.649v66.052H37.474V20z M37.474,492v-19.589h204.711c5.523,0,10-4.478,10-10s-4.477-10-10-10H37.474v-283.71h283.981  v44.464v195.394H116.744c-5.523,0-10,4.478-10,10s4.477,10,10,10h204.711V492H37.474z M397.99,315.833h-56.535v-92.668h35.078v31.82  c0,5.522,4.477,10,10,10h11.458v50.848H397.99z M419.448,244.985h-22.915v-21.82h22.915V244.985z M429.448,203.165h-42.915h-45.078  v-32.532h12.184c4.305,0,8.126-2.755,9.487-6.839l1.773-5.322l6.453,29.035c0.88,3.96,4.063,6.995,8.06,7.686  c0.569,0.098,1.139,0.146,1.703,0.146c3.4,0,6.618-1.737,8.467-4.683l18.3-29.149l13.252,10.298  c2.515,1.955,5.811,2.592,8.874,1.723c3.064-0.873,5.528-3.152,6.637-6.139l8.79-23.684l5.135,19.477  c1.157,4.392,5.128,7.451,9.669,7.451h14.286v32.532L429.448,203.165L429.448,203.165z"/>
<g>
</g>
<g>
</g>
<g>
</g>
<g>
</g>
<g>
</g>
<g>
</g>
<g>
</g>
<g>
</g>
<g>
</g>
<g>
</g>
<g>
</g>
<g>
</g>
<g>
</g>
<g>
</g>
<g>
</g>
</svg>
