<?xml version="1.0" encoding="iso-8859-1"?>
<!-- Generator: Adobe Illustrator 19.0.0, SVG Export Plug-In . SVG Version: 6.00 Build 0)  -->
<svg xmlns="http://www.w3.org/2000/svg" xmlns:xlink="http://www.w3.org/1999/xlink" version="1.1" id="Capa_1" x="0px" y="0px" viewBox="0 0 512 512" style="enable-background:new 0 0 512 512;" xml:space="preserve">
<path d="M419.626,496.552H56.785c-5.522,0-10-4.478-10-10s4.478-10,10-10h362.841c5.522,0,10,4.478,10,10  S425.148,496.552,419.626,496.552z"/>
<path d="M455.21,496.55c-0.65,0-1.311-0.06-1.95-0.19c-0.64-0.13-1.27-0.319-1.87-0.569c-0.609-0.25-1.189-0.561-1.729-0.92  c-0.551-0.37-1.061-0.79-1.521-1.25c-1.859-1.86-2.93-4.44-2.93-7.07c0-0.65,0.07-1.31,0.2-1.95s0.319-1.27,0.569-1.87  c0.25-0.609,0.561-1.189,0.92-1.729c0.36-0.55,0.78-1.061,1.24-1.521s0.97-0.88,1.521-1.239c0.54-0.36,1.12-0.671,1.729-0.921  c0.601-0.25,1.23-0.439,1.87-0.569c1.29-0.26,2.62-0.26,3.91,0c0.64,0.13,1.27,0.319,1.87,0.569s1.18,0.561,1.729,0.921  c0.54,0.359,1.05,0.779,1.521,1.239c0.46,0.46,0.88,0.971,1.24,1.521c0.359,0.54,0.67,1.12,0.92,1.729  c0.25,0.601,0.439,1.23,0.569,1.87c0.13,0.641,0.19,1.3,0.19,1.95c0,2.63-1.061,5.21-2.92,7.07c-0.471,0.46-0.98,0.88-1.521,1.25  c-0.55,0.359-1.13,0.67-1.729,0.92c-0.6,0.25-1.23,0.439-1.87,0.569C456.52,496.49,455.87,496.55,455.21,496.55z"/>
<rect x="33.32" y="161.15" style="fill:#FDB845;" width="445.35" height="71.41"/>
<polygon style="fill:#BFBFBF;" points="449.493,161.152 404.885,57.781 256,25.448 107.115,57.781 62.507,161.152 "/>
<path d="M135.83,99.96c-0.65,0-1.311-0.061-1.95-0.19c-0.64-0.13-1.27-0.319-1.87-0.569c-0.61-0.25-1.19-0.561-1.729-0.92  c-0.551-0.37-1.061-0.79-1.521-1.25c-0.46-0.461-0.88-0.971-1.24-1.521c-0.359-0.54-0.67-1.12-0.92-1.72  c-0.25-0.61-0.45-1.24-0.569-1.87c-0.131-0.65-0.2-1.31-0.2-1.96s0.069-1.311,0.2-1.95c0.119-0.64,0.319-1.27,0.569-1.87  c0.25-0.609,0.561-1.189,0.92-1.729c0.36-0.551,0.78-1.061,1.24-1.521c0.46-0.46,0.97-0.88,1.521-1.24  c0.539-0.359,1.119-0.67,1.729-0.92c0.6-0.25,1.23-0.439,1.87-0.569c1.29-0.261,2.62-0.261,3.9,0c0.64,0.13,1.27,0.319,1.88,0.569  c0.6,0.25,1.18,0.561,1.72,0.92c0.55,0.36,1.06,0.78,1.52,1.24s0.881,0.97,1.25,1.521c0.36,0.54,0.66,1.12,0.91,1.729  c0.25,0.601,0.45,1.23,0.58,1.87s0.19,1.3,0.19,1.95c0,0.649-0.061,1.31-0.19,1.96c-0.13,0.63-0.33,1.26-0.58,1.87  c-0.25,0.6-0.56,1.18-0.91,1.72c-0.369,0.55-0.79,1.06-1.25,1.521c-0.46,0.46-0.97,0.88-1.52,1.25c-0.54,0.359-1.12,0.67-1.72,0.92  c-0.61,0.25-1.24,0.439-1.88,0.569C137.14,99.899,136.48,99.96,135.83,99.96z"/>
<path d="M125.05,132.29c-0.65,0-1.31-0.061-1.95-0.19c-0.64-0.13-1.27-0.319-1.87-0.569c-0.609-0.25-1.189-0.561-1.729-0.921  c-0.55-0.369-1.061-0.79-1.521-1.25c-0.46-0.46-0.88-0.97-1.239-1.52c-0.36-0.54-0.671-1.12-0.921-1.72  c-0.25-0.601-0.439-1.23-0.569-1.87c-0.13-0.65-0.2-1.3-0.2-1.96c0-0.65,0.07-1.311,0.2-1.95c0.13-0.64,0.319-1.27,0.569-1.87  c0.25-0.61,0.561-1.189,0.921-1.729c0.359-0.551,0.779-1.061,1.239-1.521c0.46-0.46,0.971-0.88,1.521-1.24  c0.54-0.359,1.12-0.67,1.729-0.92c0.601-0.25,1.23-0.439,1.87-0.569c1.29-0.261,2.62-0.261,3.91,0c0.63,0.13,1.26,0.319,1.87,0.569  c0.6,0.25,1.18,0.561,1.72,0.92c0.55,0.36,1.061,0.78,1.521,1.24c0.46,0.46,0.88,0.97,1.25,1.521c0.359,0.54,0.67,1.119,0.92,1.729  c0.25,0.6,0.44,1.23,0.569,1.87c0.131,0.64,0.19,1.3,0.19,1.95c0,0.66-0.06,1.31-0.19,1.96c-0.13,0.64-0.319,1.27-0.569,1.87  c-0.25,0.6-0.56,1.18-0.92,1.72c-0.37,0.55-0.79,1.06-1.25,1.52c-0.46,0.46-0.971,0.881-1.521,1.25  c-0.54,0.36-1.12,0.671-1.72,0.921c-0.61,0.25-1.24,0.439-1.87,0.569C126.359,132.229,125.7,132.29,125.05,132.29z"/>
<path d="M168.16,89.179c-0.65,0-1.311-0.06-1.95-0.189c-0.641-0.131-1.271-0.32-1.87-0.57c-0.61-0.25-1.19-0.56-1.73-0.92  c-0.55-0.37-1.06-0.78-1.52-1.25c-1.86-1.86-2.93-4.44-2.93-7.07c0-0.649,0.069-1.31,0.199-1.95c0.131-0.64,0.32-1.27,0.57-1.87  c0.25-0.6,0.561-1.18,0.92-1.73c0.36-0.54,0.78-1.061,1.24-1.52c0.46-0.46,0.97-0.88,1.52-1.239c0.54-0.36,1.12-0.67,1.73-0.92  c0.6-0.25,1.23-0.44,1.87-0.57c1.29-0.26,2.609-0.26,3.91,0c0.63,0.13,1.26,0.32,1.87,0.57c0.6,0.25,1.18,0.56,1.72,0.92  c0.55,0.359,1.059,0.779,1.52,1.239c0.46,0.46,0.88,0.98,1.25,1.52c0.36,0.54,0.67,1.13,0.92,1.73c0.25,0.601,0.44,1.23,0.57,1.87  c0.13,0.641,0.191,1.301,0.191,1.95c0,2.63-1.07,5.21-2.931,7.07c-0.46,0.47-0.97,0.88-1.52,1.25c-0.54,0.359-1.12,0.67-1.72,0.92  c-0.61,0.25-1.24,0.44-1.87,0.57C169.47,89.12,168.81,89.179,168.16,89.179z"/>
<path d="M203.189,79.479c-0.65,0-1.31-0.06-1.949-0.189c-0.641-0.13-1.271-0.32-1.87-0.57c-0.61-0.25-1.19-0.56-1.73-0.92  c-0.55-0.37-1.06-0.78-1.52-1.25c-0.46-0.46-0.88-0.97-1.24-1.52c-0.36-0.54-0.67-1.12-0.92-1.721c-0.25-0.609-0.45-1.229-0.57-1.87  c-0.13-0.649-0.2-1.3-0.2-1.96c0-0.649,0.07-1.3,0.2-1.949c0.12-0.641,0.32-1.271,0.57-1.87c0.25-0.601,0.559-1.181,0.91-1.73  c0.37-0.55,0.79-1.06,1.25-1.52s0.97-0.88,1.52-1.24c0.54-0.36,1.12-0.67,1.73-0.92c0.6-0.25,1.229-0.44,1.87-0.57  c1.29-0.26,2.609-0.26,3.899,0c0.641,0.13,1.271,0.32,1.87,0.57c0.61,0.25,1.19,0.56,1.73,0.92c0.55,0.36,1.06,0.78,1.52,1.24  c0.46,0.46,0.88,0.97,1.24,1.52c0.359,0.55,0.67,1.13,0.92,1.73s0.45,1.229,0.57,1.87c0.13,0.649,0.199,1.3,0.199,1.949  c0,0.66-0.069,1.311-0.199,1.96c-0.12,0.641-0.32,1.261-0.57,1.87c-0.25,0.601-0.561,1.181-0.92,1.721  c-0.36,0.55-0.78,1.059-1.24,1.52c-0.46,0.47-0.97,0.88-1.52,1.25c-0.54,0.36-1.12,0.67-1.73,0.92c-0.6,0.25-1.229,0.44-1.87,0.57  C204.5,79.42,203.84,79.479,203.189,79.479z"/>
<g>
	<circle style="fill:#676767;" cx="177.7" cy="400.68" r="45.27"/>
	<circle style="fill:#676767;" cx="334.3" cy="400.68" r="45.27"/>
</g>
<path style="fill:#076893;" d="M59.463,232.563l47.652,179.233h26.699c-0.898-3.557-1.38-7.28-1.38-11.116  c0-24.999,20.266-45.266,45.266-45.266c24.999,0,45.266,20.266,45.266,45.266c0,3.836-0.482,7.559-1.38,11.116h68.828  c-0.898-3.557-1.38-7.28-1.38-11.116c0-24.999,20.266-45.266,45.266-45.266s45.266,20.266,45.266,45.266  c0,3.836-0.482,7.559-1.38,11.116h26.699l47.652-179.233L59.463,232.563L59.463,232.563z"/>
<path d="M345.188,258.524H166.813c-5.523,0-10,4.478-10,10c0,5.523,4.477,10,10,10h178.375c5.522,0,10-4.477,10-10  C355.188,263.002,350.71,258.524,345.188,258.524z"/>
<path d="M502,258.524h-46.018l4.243-15.961h18.451c5.522,0,10-4.478,10-10v-71.411c0-5.522-4.478-10-10-10h-3.511  c-0.06,0-0.119,0-0.179,0h-18.918l-42.003-97.333c-1.278-2.962-3.907-5.126-7.06-5.811L258.122,15.676  c-1.398-0.303-2.846-0.303-4.244,0L104.993,48.009c-3.152,0.685-5.781,2.849-7.06,5.811L55.93,151.153H33.323  c-5.522,0-10,4.478-10,10v71.411c0,5.522,4.478,10,10,10h18.451l4.243,15.961H10c-5.523,0-10,4.478-10,10c0,5.523,4.477,10,10,10  h51.335l36.116,135.842c1.165,4.381,5.131,7.431,9.664,7.431h19.521c8.312,20.026,28.066,34.149,51.064,34.149  s42.752-14.124,51.064-34.149h54.472c8.312,20.026,28.066,34.149,51.064,34.149s42.752-14.124,51.064-34.149h19.521  c4.533,0,8.499-3.05,9.664-7.431l36.116-135.842H502c5.522,0,10-4.477,10-10S507.522,258.524,502,258.524z M452.537,222.563h-24.745  l40.885-40.878v40.878L452.537,222.563L452.537,222.563z M55.438,222.563l51.42-51.411h95.83l-51.412,51.411H59.463H55.438z   M230.974,171.152h95.838l-51.42,51.411h-95.83L230.974,171.152z M355.097,171.152h94.396h1.433l-51.42,51.411h-95.829  L355.097,171.152z M114.26,66.463L256,35.681l141.74,30.781l19.777,45.831H163.684c-5.522,0-10,4.478-10,10s4.478,10,10,10h262.465  l8.138,18.858h-83.234c-0.06,0-0.119,0-0.179,0H226.921c-0.056,0-0.112,0-0.169,0H102.813c-0.06,0-0.119,0-0.179,0h-24.92  L114.26,66.463z M62.507,171.152h16.065l-35.249,35.243v-35.243H62.507z M177.7,435.946c-16.631,0-30.601-11.576-34.299-27.092  c-0.109-0.459-0.213-0.92-0.304-1.383c-0.046-0.233-0.085-0.468-0.126-0.703c-0.077-0.443-0.147-0.887-0.207-1.332  c-0.031-0.231-0.062-0.462-0.089-0.695c-0.055-0.475-0.097-0.951-0.133-1.428c-0.015-0.201-0.034-0.4-0.046-0.601  c-0.039-0.676-0.063-1.353-0.063-2.031c0-19.445,15.82-35.266,35.266-35.266s35.266,15.82,35.266,35.266  c0,0.679-0.024,1.357-0.063,2.034c-0.011,0.197-0.03,0.392-0.045,0.588c-0.036,0.484-0.079,0.967-0.135,1.448  c-0.026,0.225-0.055,0.448-0.086,0.672c-0.061,0.456-0.133,0.91-0.212,1.363c-0.04,0.226-0.077,0.452-0.121,0.676  c-0.091,0.469-0.197,0.936-0.307,1.401C208.296,424.374,194.329,435.946,177.7,435.946z M334.3,435.946  c-16.628,0-30.596-11.572-34.297-27.083c-0.11-0.465-0.216-0.931-0.307-1.401c-0.044-0.224-0.081-0.45-0.121-0.676  c-0.079-0.453-0.151-0.907-0.212-1.363c-0.03-0.223-0.06-0.447-0.086-0.672c-0.056-0.481-0.099-0.964-0.134-1.448  c-0.015-0.196-0.034-0.391-0.045-0.588c-0.039-0.677-0.063-1.355-0.063-2.034c0-19.445,15.82-35.266,35.266-35.266  c19.445,0,35.266,15.82,35.266,35.266c0,0.678-0.024,1.355-0.063,2.031c-0.011,0.201-0.031,0.401-0.046,0.601  c-0.035,0.477-0.078,0.953-0.132,1.428c-0.027,0.232-0.057,0.464-0.089,0.695c-0.06,0.446-0.13,0.89-0.207,1.332  c-0.041,0.235-0.08,0.47-0.126,0.703c-0.091,0.464-0.195,0.924-0.304,1.383C364.901,424.37,350.931,435.946,334.3,435.946z   M397.196,401.797h-7.642c0.007-0.372,0.011-0.744,0.011-1.116c0-30.474-24.792-55.266-55.266-55.266s-55.266,24.792-55.266,55.266  c0,0.372,0.004,0.744,0.011,1.116h-46.09c0.007-0.372,0.011-0.744,0.011-1.116c0-30.474-24.792-55.266-55.266-55.266  s-55.266,24.792-55.266,55.266c0,0.372,0.004,0.744,0.011,1.116h-7.642L82.03,278.524h22.446c5.522,0,10-4.477,10-10  c0-5.522-4.478-10-10-10H76.712l-4.243-15.961h367.063l-4.243,15.961h-27.763c-5.522,0-10,4.478-10,10c0,5.523,4.478,10,10,10  h22.446L397.196,401.797z"/>
<g>
</g>
<g>
</g>
<g>
</g>
<g>
</g>
<g>
</g>
<g>
</g>
<g>
</g>
<g>
</g>
<g>
</g>
<g>
</g>
<g>
</g>
<g>
</g>
<g>
</g>
<g>
</g>
<g>
</g>
</svg>
