<?xml version="1.0" encoding="iso-8859-1"?>
<!-- Generator: Adobe Illustrator 19.0.0, SVG Export Plug-In . SVG Version: 6.00 Build 0)  -->
<svg xmlns="http://www.w3.org/2000/svg" xmlns:xlink="http://www.w3.org/1999/xlink" version="1.1" id="Capa_1" x="0px" y="0px" viewBox="0 0 512 512" style="enable-background:new 0 0 512 512;" xml:space="preserve">
<rect x="10" y="34.201" style="fill:#939393;" width="74.996" height="443.61"/>
<path d="M47.5,92.031c-0.65,0-1.311-0.07-1.96-0.2c-0.63-0.13-1.26-0.32-1.87-0.57c-0.601-0.25-1.18-0.56-1.72-0.92  c-0.551-0.36-1.061-0.78-1.521-1.24c-0.46-0.46-0.88-0.979-1.25-1.52c-0.36-0.55-0.67-1.13-0.92-1.73s-0.44-1.229-0.57-1.87  c-0.13-0.64-0.189-1.3-0.189-1.949c0-0.65,0.06-1.311,0.189-1.961c0.13-0.63,0.32-1.26,0.57-1.869c0.25-0.601,0.56-1.181,0.92-1.721  c0.37-0.55,0.79-1.06,1.25-1.52c0.46-0.46,0.97-0.88,1.521-1.25c0.54-0.36,1.119-0.67,1.72-0.92c0.61-0.25,1.24-0.44,1.87-0.57  c1.29-0.26,2.62-0.26,3.91,0c0.64,0.13,1.27,0.32,1.869,0.57c0.61,0.25,1.19,0.56,1.73,0.92c0.55,0.37,1.06,0.79,1.52,1.25  c0.461,0.46,0.881,0.97,1.24,1.52c0.36,0.54,0.67,1.12,0.92,1.721c0.25,0.609,0.44,1.239,0.57,1.869c0.13,0.65,0.2,1.311,0.2,1.961  c0,0.649-0.07,1.31-0.2,1.949c-0.13,0.641-0.32,1.271-0.57,1.87c-0.25,0.601-0.56,1.181-0.92,1.73c-0.359,0.54-0.779,1.06-1.24,1.52  c-0.46,0.46-0.97,0.88-1.52,1.24c-0.54,0.36-1.12,0.67-1.73,0.92c-0.6,0.25-1.229,0.44-1.869,0.57  C48.81,91.96,48.149,92.031,47.5,92.031z"/>
<rect x="427" y="34.201" style="fill:#939393;" width="74.996" height="443.61"/>
<path d="M464.5,439.97c-0.65,0-1.31-0.06-1.95-0.189c-0.64-0.131-1.27-0.32-1.87-0.57c-0.61-0.25-1.189-0.561-1.729-0.92  c-0.551-0.37-1.061-0.79-1.521-1.25s-0.88-0.971-1.24-1.521c-0.359-0.54-0.67-1.12-0.92-1.72c-0.25-0.61-0.439-1.24-0.569-1.87  c-0.131-0.649-0.2-1.3-0.2-1.96c0-0.65,0.069-1.31,0.2-1.95c0.13-0.64,0.319-1.27,0.569-1.87s0.561-1.189,0.92-1.73  c0.36-0.55,0.78-1.06,1.24-1.52s0.97-0.88,1.521-1.239c0.54-0.36,1.119-0.67,1.729-0.92c0.601-0.25,1.23-0.44,1.87-0.57  c1.29-0.26,2.61-0.26,3.91,0c0.63,0.13,1.26,0.32,1.87,0.57c0.6,0.25,1.18,0.56,1.72,0.92c0.55,0.359,1.06,0.779,1.52,1.239  c0.461,0.46,0.881,0.971,1.25,1.52c0.36,0.54,0.671,1.13,0.921,1.73c0.25,0.601,0.439,1.23,0.569,1.87  c0.13,0.641,0.19,1.3,0.19,1.95c0,0.66-0.06,1.311-0.19,1.96c-0.13,0.63-0.319,1.26-0.569,1.87c-0.25,0.6-0.561,1.18-0.921,1.72  c-0.369,0.55-0.789,1.061-1.25,1.521c-0.46,0.46-0.97,0.88-1.52,1.25c-0.54,0.359-1.12,0.67-1.72,0.92  c-0.61,0.25-1.24,0.439-1.87,0.57C465.81,439.91,465.149,439.97,464.5,439.97z"/>
<rect x="84.996" y="95.73" style="fill:#C69F7F;" width="159.67" height="123.93"/>
<g>
	<polygon style="fill:#FDB845;" points="196.5,95.732 196.5,166.105 164.821,141.008 133.143,166.105 133.143,95.732  "/>
	<rect x="287.34" y="75.73" style="fill:#FDB845;" width="139.67" height="143.93"/>
</g>
<g>
	<polygon style="fill:#C69F7F;" points="388.841,75.732 388.841,146.105 357.162,121.008 325.484,146.105 325.484,75.732  "/>
	<rect x="267.34" y="308.41" style="fill:#C69F7F;" width="159.67" height="123.93"/>
	<rect x="84.996" y="288.41" style="fill:#C69F7F;" width="139.67" height="46.589"/>
</g>
<rect x="84.996" y="335" style="fill:#FDB845;" width="139.67" height="97.34"/>
<path d="M502,24.198h-74.996c-5.522,0-10,4.478-10,10v31.535h-28.163h-63.357h-38.146c-5.522,0-10,4.478-10,10v133.932h-22.674  V95.732c0-5.522-4.478-10-10-10H196.5h-63.357H94.996V34.197c0-5.522-4.478-10-10-10H10c-5.523,0-10,4.478-10,10v443.605  c0,5.522,4.477,10,10,10h74.996c5.522,0,10-4.478,10-10v-35.46h129.667h42.674h149.667v35.46c0,5.522,4.478,10,10,10H502  c5.522,0,10-4.478,10-10V34.197C512,28.675,507.522,24.198,502,24.198z M257.337,308.411v113.932h-22.674V335v-46.589  c0-5.522-4.478-10-10-10H94.996v-48.747h149.667h42.674h129.667v68.747H267.337C261.815,298.411,257.337,302.889,257.337,308.411z   M94.996,298.411h119.667V325H94.996V298.411z M378.841,85.732v39.692l-15.469-12.255c-1.819-1.441-4.015-2.162-6.21-2.162  c-2.195,0-4.391,0.721-6.21,2.162l-15.469,12.255V85.732H378.841z M297.337,85.732h18.146v60.373c0,3.836,2.193,7.333,5.647,9.003  c3.453,1.669,7.557,1.218,10.563-1.165l25.469-20.178l25.469,20.178c1.802,1.428,3.997,2.162,6.211,2.162  c1.48,0,2.969-0.328,4.353-0.997c3.453-1.67,5.646-5.167,5.646-9.003V85.732h18.163v123.932H297.337V85.732z M186.5,105.732v39.692  l-15.469-12.255c-1.819-1.441-4.015-2.162-6.21-2.162s-4.391,0.721-6.21,2.162l-15.469,12.255v-39.692  C143.142,105.733,186.5,105.733,186.5,105.732z M123.143,105.732v60.373c0,3.836,2.193,7.333,5.646,9.003s7.557,1.219,10.563-1.165  l25.469-20.178l25.469,20.178c1.802,1.428,3.997,2.162,6.211,2.162c1.48,0,2.969-0.328,4.352-0.997  c3.453-1.67,5.646-5.167,5.646-9.003v-60.373h28.163v103.932H94.996V105.732H123.143z M74.996,467.803H57.498V117.617  c0-5.522-4.478-10-10-10s-10,4.478-10,10v350.186H20V44.197h54.996v51.535v123.932v68.747V335v97.343V467.803z M94.996,422.343V345  h119.667v77.343L94.996,422.343L94.996,422.343z M277.337,422.343v-63.818h101.504c5.523,0,10-4.478,10-10s-4.477-10-10-10H277.337  v-20.113h139.667v103.932H277.337V422.343z M492,467.803h-54.996v-35.46V308.411v-88.747V75.732V44.197h17.498v350.186  c0,5.523,4.477,10,10,10c5.522,0,10-4.477,10-10V44.197H492V467.803z"/>
<g>
</g>
<g>
</g>
<g>
</g>
<g>
</g>
<g>
</g>
<g>
</g>
<g>
</g>
<g>
</g>
<g>
</g>
<g>
</g>
<g>
</g>
<g>
</g>
<g>
</g>
<g>
</g>
<g>
</g>
</svg>
