<?xml version="1.0" encoding="iso-8859-1"?>
<!-- Generator: Adobe Illustrator 19.0.0, SVG Export Plug-In . SVG Version: 6.00 Build 0)  -->
<svg xmlns="http://www.w3.org/2000/svg" xmlns:xlink="http://www.w3.org/1999/xlink" version="1.1" id="Capa_1" x="0px" y="0px" viewBox="0 0 511.999 511.999" style="enable-background:new 0 0 511.999 511.999;" xml:space="preserve">
<rect x="67.13" y="190.028" style="fill:#C69F7F;" width="188.87" height="146.04"/>
<polygon style="fill:#FDB845;" points="199.027,190.027 199.027,273.273 161.554,243.585 124.081,273.273 124.081,190.027 "/>
<rect x="256" y="190.028" style="fill:#C69F7F;" width="188.87" height="146.04"/>
<polygon style="fill:#FDB845;" points="387.9,190.027 387.9,273.273 350.426,243.585 312.953,273.273 312.953,190.027 "/>
<rect x="161.56" y="43.428" style="fill:#C69F7F;" width="188.87" height="146.6"/>
<polygon style="fill:#FDB845;" points="293.463,43.426 293.463,126.673 255.99,96.984 218.517,126.673 218.517,43.426 "/>
<g>
	<circle style="fill:#BFDEFF;" cx="110.96" cy="425.909" r="42.66"/>
	<circle style="fill:#BFDEFF;" cx="401.04" cy="425.909" r="42.66"/>
</g>
<path style="fill:#076893;" d="M454.923,336.074H57.077c-25.957,0-47.077,21.043-47.077,47v0.354c0,25.957,21.12,47,47.077,47  h11.458c-0.156-1.485-0.24-2.991-0.24-4.517c0-23.561,19.1-42.66,42.66-42.66s42.66,19.1,42.66,42.66  c0,1.526-0.084,3.032-0.24,4.517h205.248c-0.156-1.485-0.24-2.991-0.24-4.517c0-23.561,19.1-42.66,42.66-42.66  s42.66,19.1,42.66,42.66c0,1.526-0.084,3.032-0.24,4.517h11.459c25.957,0,47.077-21.043,47.077-47v-0.354  C502,357.116,480.88,336.074,454.923,336.074z"/>
<path d="M212.49,393.249c-0.65,0-1.31-0.06-1.95-0.19s-1.27-0.319-1.87-0.569c-0.6-0.25-1.19-0.561-1.73-0.921  c-0.55-0.369-1.06-0.79-1.52-1.25s-0.88-0.97-1.24-1.52c-0.36-0.54-0.67-1.12-0.92-1.72c-0.25-0.61-0.44-1.24-0.57-1.87  c-0.13-0.65-0.2-1.311-0.2-1.96c0-2.63,1.07-5.21,2.93-7.07c0.46-0.46,0.97-0.88,1.52-1.24c0.54-0.359,1.13-0.67,1.73-0.92  c0.6-0.25,1.23-0.439,1.87-0.569c1.29-0.261,2.62-0.261,3.91,0c0.64,0.13,1.27,0.319,1.87,0.569c0.6,0.25,1.18,0.561,1.73,0.92  c0.54,0.36,1.06,0.78,1.52,1.24c1.86,1.86,2.93,4.44,2.93,7.07c0,0.649-0.07,1.31-0.2,1.96c-0.13,0.63-0.32,1.26-0.57,1.87  c-0.25,0.6-0.56,1.18-0.92,1.72c-0.37,0.55-0.79,1.06-1.25,1.52c-0.461,0.46-0.97,0.881-1.52,1.25c-0.54,0.36-1.12,0.671-1.72,0.921  s-1.23,0.439-1.87,0.569C213.8,393.189,213.15,393.249,212.49,393.249z"/>
<path d="M454.923,326.073h-0.051V190.027c0-5.522-4.477-10-10-10h-56.973h-27.463V43.426c0-5.522-4.477-10-10-10h-56.973h-74.946  h-56.953c-5.523,0-10,4.478-10,10v136.602h-27.483H67.128c-5.523,0-10,4.478-10,10v136.045h-0.051c-31.473,0-57.077,25.57-57.077,57  v0.355c0,31.43,25.604,57,57.077,57h3.269c6.32,21.997,26.607,38.144,50.609,38.144s44.289-16.146,50.609-38.144h188.871  c6.32,21.997,26.607,38.144,50.609,38.144s44.289-16.146,50.609-38.144h3.269c31.473,0,57.077-25.57,57.077-57v-0.355  C512,351.643,486.396,326.073,454.923,326.073z M434.872,326.073H266V200.027h36.953v73.246c0,3.836,2.194,7.333,5.647,9.003  c3.453,1.669,7.557,1.217,10.563-1.165l31.263-24.769l31.263,24.769c1.802,1.428,3.997,2.162,6.211,2.162  c1.48,0,2.968-0.328,4.352-0.997c3.453-1.67,5.647-5.167,5.647-9.003v-73.246h36.973L434.872,326.073L434.872,326.073z   M377.899,252.593l-21.263-16.846c-1.819-1.441-4.015-2.162-6.21-2.162c-2.195,0-4.391,0.721-6.21,2.162l-21.263,16.846v-52.565  h27.483h27.463L377.899,252.593L377.899,252.593z M283.463,53.426v52.566L262.2,89.146c-1.819-1.441-4.015-2.162-6.21-2.162  c-2.195,0-4.391,0.721-6.21,2.162l-21.263,16.846V53.426H283.463z M171.564,53.426h36.953v73.246c0,3.836,2.194,7.333,5.647,9.003  s7.556,1.217,10.563-1.165l31.263-24.769l31.263,24.769c1.802,1.428,3.998,2.162,6.211,2.162c1.48,0,2.968-0.328,4.352-0.997  c3.453-1.67,5.647-5.167,5.647-9.003V53.426h36.973v126.602h-27.483H256h-56.973h-27.463L171.564,53.426L171.564,53.426z   M161.564,200.027h27.463v52.565l-21.263-16.846c-3.638-2.883-8.782-2.883-12.42,0l-21.264,16.846v-52.565L161.564,200.027  L161.564,200.027z M77.128,200.027h36.953v73.246c0,3.836,2.194,7.333,5.647,9.003c1.384,0.669,2.871,0.997,4.352,0.997  c2.213,0,4.41-0.734,6.211-2.162l31.264-24.769l31.263,24.769c3.006,2.382,7.11,2.833,10.563,1.165  c3.453-1.67,5.647-5.167,5.647-9.003v-73.246H246v126.045H77.128V200.027z M57.077,346.073h10.051H256h188.872h10.051  c17.036,0,31.417,11.529,35.741,27.178H335.229c-5.523,0-10,4.477-10,10c0,5.522,4.477,10,10,10h24.549  c-0.235,0.296-0.471,0.592-0.7,0.893c-0.232,0.306-0.456,0.618-0.682,0.929c-0.256,0.353-0.51,0.705-0.757,1.064  c-0.219,0.318-0.431,0.641-0.643,0.964c-0.238,0.363-0.475,0.728-0.704,1.097c-0.205,0.329-0.404,0.661-0.601,0.995  c-0.222,0.375-0.439,0.752-0.652,1.132c-0.189,0.339-0.374,0.679-0.556,1.022c-0.205,0.387-0.404,0.777-0.6,1.17  c-0.172,0.346-0.343,0.693-0.508,1.044c-0.189,0.401-0.37,0.806-0.549,1.212c-0.155,0.351-0.309,0.702-0.456,1.057  c-0.173,0.417-0.336,0.839-0.498,1.261c-0.136,0.353-0.273,0.705-0.401,1.063c-0.157,0.436-0.302,0.878-0.447,1.319  c-0.116,0.351-0.235,0.701-0.344,1.055c-0.142,0.465-0.271,0.936-0.4,1.406c-0.093,0.338-0.192,0.674-0.279,1.015  c-0.131,0.516-0.245,1.038-0.361,1.559c-0.067,0.303-0.143,0.603-0.205,0.909c-0.133,0.657-0.247,1.32-0.356,1.985  c-0.029,0.176-0.066,0.35-0.093,0.526c-0.126,0.826-0.234,1.658-0.321,2.496H163.333c-0.087-0.838-0.195-1.67-0.321-2.496  c-0.027-0.177-0.064-0.35-0.093-0.526c-0.109-0.665-0.222-1.328-0.355-1.985c-0.062-0.305-0.137-0.605-0.205-0.909  c-0.116-0.522-0.23-1.044-0.361-1.559c-0.086-0.341-0.186-0.677-0.279-1.015c-0.13-0.47-0.258-0.941-0.4-1.406  c-0.109-0.355-0.228-0.704-0.344-1.055c-0.146-0.441-0.291-0.883-0.447-1.319c-0.128-0.357-0.266-0.71-0.401-1.064  c-0.162-0.422-0.325-0.842-0.497-1.259c-0.147-0.356-0.302-0.708-0.457-1.06c-0.179-0.406-0.36-0.81-0.548-1.21  c-0.165-0.35-0.335-0.698-0.508-1.044c-0.195-0.393-0.395-0.783-0.6-1.17c-0.182-0.343-0.367-0.684-0.556-1.022  c-0.213-0.381-0.43-0.758-0.652-1.132c-0.197-0.334-0.397-0.666-0.601-0.995c-0.23-0.37-0.466-0.734-0.704-1.097  c-0.212-0.323-0.424-0.646-0.643-0.964c-0.247-0.359-0.502-0.712-0.758-1.064c-0.225-0.311-0.45-0.623-0.682-0.929  c-0.229-0.302-0.465-0.597-0.7-0.893h24.549c5.523,0,10-4.478,10-10c0-5.523-4.477-10-10-10H21.337  C25.66,357.603,40.041,346.073,57.077,346.073z M21.337,393.251H69.69c-0.235,0.296-0.471,0.592-0.7,0.893  c-0.232,0.306-0.456,0.618-0.682,0.929c-0.256,0.353-0.51,0.705-0.757,1.064c-0.219,0.318-0.431,0.641-0.643,0.964  c-0.238,0.363-0.475,0.728-0.704,1.097c-0.205,0.329-0.404,0.661-0.601,0.995c-0.222,0.375-0.439,0.752-0.652,1.132  c-0.189,0.339-0.374,0.679-0.556,1.022c-0.205,0.387-0.404,0.777-0.6,1.17c-0.172,0.346-0.343,0.693-0.507,1.044  c-0.189,0.401-0.37,0.806-0.549,1.212c-0.154,0.351-0.308,0.702-0.456,1.057c-0.173,0.417-0.336,0.839-0.498,1.261  c-0.136,0.353-0.273,0.705-0.401,1.063c-0.157,0.436-0.302,0.878-0.447,1.319c-0.116,0.351-0.235,0.701-0.344,1.055  c-0.142,0.465-0.271,0.936-0.4,1.406c-0.093,0.338-0.192,0.674-0.279,1.015c-0.131,0.516-0.245,1.038-0.361,1.559  c-0.067,0.303-0.143,0.603-0.205,0.909c-0.133,0.657-0.247,1.32-0.356,1.985c-0.029,0.176-0.066,0.35-0.093,0.526  c-0.126,0.826-0.234,1.658-0.321,2.496h-1.502C40.041,420.427,25.661,408.898,21.337,393.251z M110.956,458.57  c-16.841,0-30.743-12.814-32.476-29.204c-0.122-1.164-0.184-2.326-0.184-3.457c0-18.009,14.651-32.66,32.66-32.66  s32.66,14.651,32.66,32.66c0,1.127-0.062,2.283-0.182,3.436C141.711,445.746,127.804,458.57,110.956,458.57z M401.044,458.57  c-16.848,0-30.755-12.824-32.478-29.224c-0.12-1.154-0.182-2.31-0.182-3.436c0-18.009,14.651-32.66,32.66-32.66  s32.66,14.651,32.66,32.66c0,1.13-0.062,2.293-0.184,3.457C431.788,445.757,417.886,458.57,401.044,458.57z M454.923,420.427h-1.502  c-0.087-0.838-0.195-1.67-0.321-2.496c-0.027-0.177-0.064-0.35-0.093-0.526c-0.109-0.665-0.222-1.328-0.356-1.985  c-0.062-0.305-0.137-0.605-0.205-0.909c-0.116-0.522-0.23-1.044-0.361-1.559c-0.087-0.341-0.186-0.677-0.279-1.015  c-0.13-0.47-0.258-0.941-0.4-1.406c-0.109-0.355-0.228-0.704-0.344-1.055c-0.145-0.441-0.29-0.883-0.447-1.319  c-0.128-0.357-0.266-0.71-0.401-1.064c-0.162-0.422-0.325-0.842-0.497-1.259c-0.147-0.356-0.302-0.708-0.457-1.06  c-0.178-0.406-0.359-0.81-0.548-1.21c-0.165-0.35-0.335-0.698-0.508-1.044c-0.196-0.393-0.395-0.783-0.6-1.17  c-0.182-0.343-0.367-0.684-0.556-1.022c-0.212-0.381-0.43-0.758-0.652-1.132c-0.198-0.334-0.397-0.666-0.601-0.995  c-0.23-0.37-0.466-0.734-0.704-1.097c-0.212-0.323-0.424-0.646-0.643-0.964c-0.247-0.359-0.502-0.712-0.757-1.064  c-0.226-0.311-0.45-0.623-0.682-0.929c-0.229-0.302-0.465-0.597-0.7-0.893h48.353C486.339,408.898,471.959,420.427,454.923,420.427z  "/>
<path d="M299.51,393.249c-0.66,0-1.31-0.06-1.96-0.19c-0.64-0.13-1.27-0.319-1.87-0.569s-1.18-0.561-1.72-0.921  c-0.55-0.369-1.06-0.79-1.52-1.25s-0.88-0.97-1.25-1.52c-0.36-0.54-0.67-1.12-0.92-1.72c-0.25-0.61-0.44-1.24-0.57-1.87  c-0.13-0.65-0.2-1.311-0.2-1.96c0-2.63,1.07-5.21,2.93-7.07c0.46-0.46,0.98-0.88,1.52-1.24c0.55-0.359,1.13-0.67,1.73-0.92  s1.23-0.439,1.87-0.569c3.25-0.66,6.71,0.409,9.03,2.729c1.86,1.86,2.93,4.44,2.93,7.07c0,0.649-0.07,1.31-0.2,1.96  c-0.13,0.63-0.32,1.26-0.57,1.87c-0.25,0.6-0.56,1.18-0.92,1.72c-0.36,0.55-0.78,1.06-1.24,1.52c-0.461,0.46-0.97,0.881-1.52,1.25  c-0.54,0.36-1.12,0.671-1.73,0.921c-0.6,0.25-1.23,0.439-1.87,0.569C300.82,393.189,300.16,393.249,299.51,393.249z"/>
<g>
</g>
<g>
</g>
<g>
</g>
<g>
</g>
<g>
</g>
<g>
</g>
<g>
</g>
<g>
</g>
<g>
</g>
<g>
</g>
<g>
</g>
<g>
</g>
<g>
</g>
<g>
</g>
<g>
</g>
</svg>
