<?xml version="1.0" encoding="iso-8859-1"?>
<!-- Generator: Adobe Illustrator 19.0.0, SVG Export Plug-In . SVG Version: 6.00 Build 0)  -->
<svg xmlns="http://www.w3.org/2000/svg" xmlns:xlink="http://www.w3.org/1999/xlink" version="1.1" id="Capa_1" x="0px" y="0px" viewBox="0 0 511.998 511.998" style="enable-background:new 0 0 511.998 511.998;" xml:space="preserve">
<rect x="10" y="55.59" style="fill:#C69F7F;" width="492" height="400.81"/>
<g>
	<polygon style="fill:#076893;" points="158.594,364.052 158.594,289.719 127.765,289.719 183.612,214.859 239.46,289.719    208.63,289.719 208.63,364.052  "/>
	<polygon style="fill:#076893;" points="303.369,364.052 303.369,289.719 272.539,289.719 328.386,214.859 384.234,289.719    353.404,289.719 353.404,364.052  "/>
</g>
<g>
	<polygon style="fill:#FDB845;" points="332.986,55.593 332.986,187.861 255.999,137.759 179.013,187.861 179.013,55.593  "/>
	<rect x="179.01" y="399.29" style="fill:#FDB845;" width="153.97" height="57.12"/>
</g>
<path d="M420.579,374.049c-0.65,0-1.31-0.06-1.961-0.19c-0.64-0.13-1.26-0.32-1.87-0.57c-0.6-0.25-1.18-0.56-1.72-0.92  c-0.55-0.37-1.06-0.789-1.53-1.25c-0.46-0.46-0.87-0.97-1.24-1.519c-0.36-0.54-0.67-1.12-0.92-1.72c-0.25-0.61-0.44-1.24-0.57-1.87  c-0.13-0.65-0.19-1.31-0.19-1.96s0.059-1.31,0.19-1.95c0.13-0.64,0.32-1.27,0.57-1.87c0.25-0.61,0.56-1.19,0.92-1.73  c0.37-0.55,0.78-1.06,1.24-1.52c0.47-0.46,0.98-0.88,1.53-1.24c0.54-0.36,1.12-0.67,1.72-0.92c0.61-0.25,1.23-0.44,1.87-0.57  c1.29-0.26,2.62-0.26,3.91,0c0.64,0.13,1.27,0.32,1.87,0.57s1.18,0.56,1.73,0.92c0.54,0.36,1.06,0.78,1.52,1.24s0.88,0.97,1.24,1.52  c0.36,0.54,0.671,1.12,0.921,1.73c0.25,0.6,0.44,1.23,0.57,1.87c0.13,0.64,0.2,1.3,0.2,1.95c0,2.63-1.07,5.21-2.93,7.07  c-0.46,0.461-0.98,0.88-1.52,1.25c-0.55,0.36-1.13,0.67-1.73,0.92s-1.23,0.44-1.87,0.57  C421.888,373.989,421.228,374.049,420.579,374.049z"/>
<path d="M133.598,131.729c-2.63,0-5.21-1.07-7.07-2.93c-0.46-0.46-0.88-0.97-1.24-1.52c-0.36-0.54-0.67-1.12-0.92-1.73  c-0.25-0.6-0.44-1.23-0.57-1.87s-0.2-1.3-0.2-1.95c0-0.65,0.07-1.31,0.2-1.96c0.13-0.63,0.32-1.26,0.57-1.87  c0.25-0.6,0.56-1.18,0.92-1.72c0.36-0.55,0.78-1.06,1.24-1.52c2.32-2.33,5.78-3.39,9.03-2.74c0.64,0.13,1.27,0.32,1.87,0.57  c0.6,0.25,1.18,0.56,1.73,0.92c0.54,0.37,1.06,0.79,1.52,1.25s0.87,0.97,1.24,1.52c0.36,0.54,0.67,1.12,0.92,1.72  c0.25,0.61,0.44,1.24,0.57,1.87c0.13,0.65,0.19,1.31,0.19,1.96s-0.06,1.31-0.19,1.95s-0.32,1.27-0.57,1.87  c-0.25,0.61-0.56,1.19-0.92,1.73c-0.37,0.55-0.78,1.06-1.24,1.52c-0.46,0.46-0.98,0.88-1.52,1.24c-0.55,0.36-1.13,0.67-1.73,0.92  c-0.6,0.25-1.23,0.44-1.87,0.57C134.908,131.659,134.258,131.729,133.598,131.729z"/>
<path d="M501.999,45.593H332.985H179.013H10c-5.523,0-10,4.477-10,10v400.813c0,5.523,4.477,10,10,10h169.013h153.972h169.013  c5.523,0,10-4.477,10-10V55.593C511.999,50.07,507.521,45.593,501.999,45.593z M322.985,65.593v103.83l-61.531-40.044  c-3.316-2.158-7.593-2.158-10.909,0l-61.532,40.044V65.593H322.985z M189.013,446.406V409.29h133.972v37.116H189.013z   M342.985,446.406V399.29c0-5.523-4.477-10-10-10H179.013c-5.523,0-10,4.477-10,10v47.116H20V131.727h77.941c5.523,0,10-4.477,10-10  s-4.477-10-10-10H20V65.593h149.013v122.269c0,3.668,2.008,7.042,5.233,8.79c3.224,1.748,7.146,1.591,10.222-0.409L256,149.691  l71.531,46.552c1.653,1.076,3.551,1.619,5.455,1.619c1.636,0,3.276-0.401,4.767-1.21c3.225-1.749,5.233-5.122,5.233-8.79V65.593  h149.013v46.134h-78.98c-5.523,0-10,4.477-10,10s4.477,10,10,10h78.98v314.679H342.985z"/>
<path d="M384.913,354.051h-21.508v-54.332h20.83c3.783,0,7.242-2.135,8.938-5.517c1.696-3.381,1.339-7.431-0.923-10.463  l-55.848-74.86c-1.887-2.53-4.858-4.021-8.015-4.021s-6.128,1.49-8.015,4.021l-55.847,74.86c-2.262,3.032-2.62,7.082-0.923,10.463  c1.696,3.382,5.155,5.517,8.938,5.517h20.83v54.332h-74.74v-54.332h20.83c3.783,0,7.242-2.135,8.939-5.517  c1.696-3.381,1.339-7.431-0.923-10.463l-55.848-74.86c-1.887-2.53-4.858-4.021-8.015-4.021s-6.128,1.49-8.015,4.021l-55.847,74.86  c-2.262,3.032-2.62,7.082-0.923,10.463c1.696,3.382,5.155,5.517,8.938,5.517h20.83v54.332h-57.17c-5.523,0-10,4.477-10,10  s4.477,10,10,10h67.17h50.036h94.739h50.036h31.508c5.523,0,10-4.477,10-10C394.913,358.529,390.435,354.051,384.913,354.051z   M168.594,354.051v-64.332c0-5.523-4.477-10-10-10h-10.893l35.911-48.137l35.911,48.137H208.63c-5.523,0-10,4.477-10,10v64.332  H168.594z M313.369,354.051v-64.332c0-5.523-4.477-10-10-10h-10.893l35.911-48.137l35.911,48.137h-10.893c-5.523,0-10,4.477-10,10  v64.332H313.369z"/>
<path d="M377.358,131.729c-0.65,0-1.31-0.07-1.96-0.2c-0.63-0.13-1.26-0.32-1.87-0.57c-0.6-0.25-1.18-0.56-1.72-0.92  c-0.55-0.36-1.06-0.78-1.52-1.24s-0.88-0.97-1.25-1.52c-0.36-0.54-0.67-1.12-0.92-1.73c-0.25-0.6-0.44-1.23-0.57-1.87  s-0.19-1.3-0.19-1.95c0-0.65,0.06-1.31,0.19-1.96c0.13-0.63,0.32-1.26,0.57-1.87c0.25-0.6,0.56-1.18,0.92-1.72  c0.37-0.55,0.79-1.06,1.25-1.52s0.97-0.88,1.52-1.25c0.54-0.36,1.12-0.67,1.72-0.92c0.61-0.25,1.24-0.44,1.87-0.57  c1.29-0.26,2.62-0.26,3.91,0c0.64,0.13,1.27,0.32,1.87,0.57c0.61,0.25,1.19,0.56,1.73,0.92c0.55,0.37,1.06,0.79,1.52,1.25  s0.88,0.97,1.24,1.52c0.36,0.54,0.67,1.12,0.92,1.72c0.25,0.61,0.44,1.24,0.57,1.87c0.13,0.65,0.2,1.31,0.2,1.96  s-0.07,1.31-0.2,1.95s-0.32,1.27-0.57,1.87c-0.25,0.61-0.56,1.19-0.92,1.73c-0.36,0.55-0.78,1.06-1.24,1.52  c-0.46,0.46-0.97,0.88-1.52,1.24c-0.54,0.36-1.12,0.67-1.73,0.92c-0.6,0.25-1.23,0.44-1.87,0.57  C378.668,131.659,378.008,131.729,377.358,131.729z"/>
<g>
</g>
<g>
</g>
<g>
</g>
<g>
</g>
<g>
</g>
<g>
</g>
<g>
</g>
<g>
</g>
<g>
</g>
<g>
</g>
<g>
</g>
<g>
</g>
<g>
</g>
<g>
</g>
<g>
</g>
</svg>
