<?xml version="1.0" encoding="iso-8859-1"?>
<!-- Generator: Adobe Illustrator 19.0.0, SVG Export Plug-In . SVG Version: 6.00 Build 0)  -->
<svg xmlns="http://www.w3.org/2000/svg" xmlns:xlink="http://www.w3.org/1999/xlink" version="1.1" id="Capa_1" x="0px" y="0px" viewBox="0 0 512 512" style="enable-background:new 0 0 512 512;" xml:space="preserve">
<polygon style="fill:#C69F7F;" points="327.197,102 256,197.436 184.802,102 30.5,102 30.5,502 481.5,502 481.5,102 "/>
<rect x="179.17" y="445" style="fill:#FDB845;" width="153.66" height="57"/>
<path d="M420.24,415c-0.65,0-1.31-0.07-1.95-0.2c-0.64-0.12-1.27-0.32-1.87-0.57c-0.61-0.25-1.19-0.56-1.73-0.92  c-0.55-0.36-1.06-0.78-1.52-1.24s-0.88-0.97-1.24-1.52c-0.36-0.54-0.67-1.12-0.92-1.73c-0.25-0.6-0.44-1.23-0.57-1.87  c-0.13-0.64-0.2-1.3-0.2-1.95s0.07-1.31,0.2-1.95s0.32-1.27,0.57-1.88c0.25-0.6,0.56-1.18,0.92-1.72c0.36-0.55,0.78-1.06,1.24-1.52  s0.97-0.88,1.52-1.24c0.54-0.36,1.12-0.67,1.73-0.92c0.6-0.25,1.23-0.45,1.87-0.57c1.29-0.26,2.62-0.26,3.91,0  c0.63,0.12,1.26,0.32,1.87,0.57c0.6,0.25,1.18,0.56,1.72,0.92c0.55,0.36,1.06,0.78,1.52,1.24s0.88,0.97,1.25,1.52  c0.36,0.54,0.67,1.12,0.92,1.72c0.25,0.61,0.44,1.24,0.56,1.88c0.13,0.64,0.2,1.3,0.2,1.95s-0.07,1.31-0.2,1.95  c-0.12,0.64-0.31,1.27-0.56,1.87c-0.25,0.61-0.56,1.19-0.92,1.73c-0.37,0.55-0.79,1.06-1.25,1.52c-0.461,0.46-0.97,0.88-1.52,1.24  c-0.54,0.36-1.12,0.67-1.72,0.92c-0.61,0.25-1.24,0.45-1.87,0.57C421.55,414.93,420.89,415,420.24,415z"/>
<path d="M173.85,178c-0.65,0-1.31-0.07-1.95-0.2c-0.64-0.12-1.27-0.32-1.87-0.57c-0.61-0.25-1.19-0.56-1.73-0.92  c-0.55-0.36-1.06-0.78-1.52-1.24s-0.88-0.97-1.24-1.52c-0.36-0.54-0.67-1.12-0.92-1.73c-0.25-0.6-0.44-1.23-0.57-1.87  s-0.2-1.3-0.2-1.95s0.07-1.31,0.2-1.95c0.13-0.64,0.32-1.27,0.57-1.87c0.25-0.61,0.56-1.19,0.92-1.73c0.36-0.55,0.78-1.06,1.24-1.52  s0.97-0.88,1.52-1.24c0.54-0.36,1.12-0.67,1.73-0.92c0.6-0.25,1.23-0.44,1.87-0.57c1.29-0.26,2.62-0.26,3.91,0  c0.63,0.13,1.26,0.32,1.87,0.57c0.6,0.25,1.18,0.56,1.72,0.92c0.55,0.36,1.06,0.78,1.52,1.24s0.88,0.97,1.25,1.52  c0.36,0.54,0.67,1.12,0.92,1.73c0.25,0.6,0.44,1.23,0.57,1.87s0.19,1.3,0.19,1.95s-0.06,1.31-0.19,1.95s-0.32,1.27-0.57,1.87  c-0.25,0.61-0.56,1.19-0.92,1.73c-0.37,0.55-0.79,1.06-1.25,1.52s-0.97,0.88-1.52,1.24c-0.54,0.36-1.12,0.67-1.72,0.92  c-0.61,0.25-1.24,0.45-1.87,0.57C175.16,177.93,174.5,178,173.85,178z"/>
<path d="M337.11,178c-0.65,0-1.31-0.07-1.95-0.2c-0.64-0.12-1.27-0.32-1.87-0.57c-0.61-0.25-1.19-0.56-1.73-0.92  c-0.55-0.36-1.06-0.78-1.52-1.24s-0.88-0.97-1.24-1.52c-0.36-0.54-0.67-1.12-0.92-1.72c-0.25-0.61-0.44-1.24-0.57-1.88  s-0.2-1.3-0.2-1.95s0.07-1.31,0.2-1.95s0.32-1.27,0.57-1.87c0.25-0.61,0.56-1.19,0.92-1.73c0.36-0.55,0.78-1.06,1.24-1.52  s0.97-0.88,1.52-1.24c0.539-0.36,1.12-0.67,1.73-0.92c0.6-0.25,1.23-0.45,1.87-0.57c1.29-0.26,2.62-0.26,3.91,0  c0.63,0.12,1.26,0.32,1.87,0.57c0.6,0.25,1.18,0.56,1.72,0.92c0.55,0.36,1.06,0.78,1.52,1.24s0.88,0.97,1.24,1.52  c0.37,0.54,0.67,1.12,0.92,1.73c0.25,0.6,0.45,1.23,0.58,1.87c0.13,0.64,0.19,1.3,0.19,1.95s-0.06,1.31-0.19,1.95  s-0.33,1.27-0.58,1.88c-0.25,0.6-0.55,1.18-0.92,1.72c-0.36,0.55-0.78,1.06-1.24,1.52s-0.97,0.88-1.52,1.24  c-0.54,0.36-1.12,0.67-1.72,0.92c-0.61,0.25-1.24,0.45-1.87,0.57C338.42,177.93,337.76,178,337.11,178z"/>
<path style="fill:#BFDEFF;" d="M256,230.026L256,230.026c-42.904,0-77.684,34.78-77.684,77.683v30.69  c0-14.301,11.593-25.894,25.894-25.894l0,0c14.301,0,25.894,11.593,25.894,25.894c0-14.301,11.593-25.894,25.895-25.894l0,0  c14.301,0,25.895,11.593,25.895,25.894c0-14.301,11.593-25.894,25.894-25.894l0,0c14.301,0,25.894,11.593,25.894,25.894v-30.69  C333.683,264.806,298.903,230.026,256,230.026z"/>
<polygon style="fill:#076893;" points="294.925,10 294.925,80.961 342.893,80.961 256,197.436 169.107,80.961 217.075,80.961   217.075,10 "/>
<path d="M481.5,92H347.134l3.775-5.06c2.262-3.032,2.62-7.082,0.923-10.463c-1.696-3.382-5.155-5.517-8.938-5.517h-37.968V10  c0-5.523-4.477-10-10-10h-77.851c-5.523,0-10,4.477-10,10v60.96h-37.968c-3.783,0-7.242,2.135-8.938,5.517  c-1.696,3.381-1.339,7.431,0.923,10.463l3.775,5.06H30.5c-5.523,0-10,4.477-10,10v400c0,5.523,4.477,10,10,10h148.67h153.66H481.5  c5.523,0,10-4.477,10-10V102C491.5,96.477,487.023,92,481.5,92z M217.075,90.96c5.523,0,10-4.477,10-10V20h57.851v60.96  c0,5.523,4.477,10,10,10h28.032L256,180.712L189.043,90.96H217.075z M189.17,492v-37h133.66v37H189.17z M342.83,492v-47  c0-5.523-4.477-10-10-10H179.17c-5.523,0-10,4.477-10,10v47H40.5V178h97.762c5.523,0,10-4.477,10-10s-4.477-10-10-10H40.5v-46  h139.287l68.198,91.415c1.887,2.53,4.858,4.021,8.015,4.021c3.157,0,6.128-1.49,8.015-4.021L332.213,112H471.5v46h-98.8  c-5.523,0-10,4.477-10,10s4.477,10,10,10h98.8v314H342.83z"/>
<path d="M384.652,395h-119.49c0.547-2.124,0.838-4.349,0.838-6.641v-62.298c3.592,2.917,5.895,7.362,5.895,12.339  c0,5.523,4.477,10,10,10s10-4.477,10-10c0-8.764,7.13-15.895,15.895-15.895c8.764,0,15.895,7.13,15.895,15.895  c0,5.523,4.477,10,10,10s10-4.477,10-10v-30.69c0-48.349-39.335-87.684-87.684-87.684s-87.684,39.335-87.684,87.684v30.69  c0,5.523,4.477,10,10,10s10-4.477,10-10c0-8.764,7.13-15.895,15.895-15.895c8.764,0,15.895,7.13,15.895,15.895  c0,5.523,4.477,10,10,10s10-4.477,10-10c0-4.977,2.303-9.422,5.895-12.339v62.298c0,3.662-2.979,6.641-6.641,6.641  s-6.641-2.979-6.641-6.641v-3.72c0-5.523-4.477-10-10-10s-10,4.477-10,10v3.72c0,2.292,0.291,4.517,0.838,6.641H91.759  c-5.523,0-10,4.477-10,10s4.477,10,10,10h292.893c5.523,0,10-4.477,10-10S390.175,395,384.652,395z M230.105,313.566  c-6.537-6.814-15.729-11.061-25.895-11.061c-5.697,0-11.088,1.334-15.878,3.706c0.8-36.631,30.848-66.186,67.668-66.186  s66.867,29.554,67.667,66.186c-4.79-2.372-10.181-3.706-15.878-3.706c-10.166,0-19.358,4.247-25.895,11.061  c-6.537-6.814-15.729-11.061-25.895-11.061C245.834,302.505,236.643,306.752,230.105,313.566z"/>
<g>
</g>
<g>
</g>
<g>
</g>
<g>
</g>
<g>
</g>
<g>
</g>
<g>
</g>
<g>
</g>
<g>
</g>
<g>
</g>
<g>
</g>
<g>
</g>
<g>
</g>
<g>
</g>
<g>
</g>
</svg>
