<svg xmlns="http://www.w3.org/2000/svg" xmlns:xlink="http://www.w3.org/1999/xlink" width="48" height="60" viewBox="0 0 48 60">
    <defs>
        <rect id="b" width="1080" height="800" x="310" y="100" rx="4"/>
        <filter id="a" width="105.7%" height="107.8%" x="-2.9%" y="-3.6%" filterUnits="objectBoundingBox">
            <feOffset dy="2" in="SourceAlpha" result="shadowOffsetOuter1"/>
            <feGaussianBlur in="shadowOffsetOuter1" result="shadowBlurOuter1" stdDeviation="10"/>
            <feComposite in="shadowBlurOuter1" in2="SourceAlpha" operator="out" result="shadowBlurOuter1"/>
            <feColorMatrix in="shadowBlurOuter1" values="0 0 0 0 0.73692602 0 0 0 0 0.73692602 0 0 0 0 0.73692602 0 0 0 1 0"/>
        </filter>
    </defs>
    <g fill="none" fill-rule="evenodd" transform="translate(-826 -588)">
        <path fill="#F8F8F8" d="M260 0h1180v1024H260z"/>
        <use fill="#000" filter="url(#a)" xlink:href="#b"/>
        <use fill="#FFF" xlink:href="#b"/>
        <rect width="1079" height="799" x="310.5" y="100.5" stroke="#E1E1E1" rx="4"/>
        <rect width="1000" height="308" x="350" y="480" fill="#E9F3FF" stroke="#07F" stroke-linecap="round" stroke-linejoin="round" stroke-width="2" rx="4"/>
        <g fill="#07F" fill-rule="nonzero">
            <path d="M858.914 588H826.5v60h47v-45.414L858.914 588zm.586 3.414L870.086 602H859.5v-10.586zM828.5 646v-56h29v14h14v42h-43z"/>
            <path d="M836.5 605h9a1 1 0 1 0 0-2h-9a1 1 0 1 0 0 2zM853.5 625h-17a1 1 0 1 0 0 2h17a1 1 0 1 0 0-2zM863.5 618h-7a1 1 0 1 0 0 2h7a1 1 0 1 0 0-2zM836.5 613h5a1 1 0 1 0 0-2h-5a1 1 0 1 0 0 2zM851.5 613h7a1 1 0 1 0 0-2h-7a1 1 0 1 0 0 2zM845.5 612c0 .26.11.52.29.71.19.18.45.29.71.29.26 0 .52-.11.71-.29.18-.19.29-.45.29-.71 0-.261-.11-.521-.29-.71-.37-.37-1.04-.37-1.42 0-.18.189-.29.449-.29.71zM841.5 618a1 1 0 1 0 0 2h10a1 1 0 1 0 0-2h-10zM836.5 620c.26 0 .52-.11.71-.29.18-.19.29-.45.29-.71 0-.261-.11-.521-.29-.71-.37-.37-1.05-.37-1.42 0-.18.189-.29.439-.29.71 0 .26.11.52.29.71.19.18.45.29.71.29zM863.5 632h-7a1 1 0 1 0 0 2h7a1 1 0 1 0 0-2zM851.5 632h-10a1 1 0 1 0 0 2h10a1 1 0 1 0 0-2zM835.79 632.29a1.013 1.013 0 0 0 0 1.42c.19.18.45.29.71.29.27 0 .52-.11.71-.29.18-.19.29-.45.29-.71a.987.987 0 0 0-.29-.7c-.37-.38-1.04-.38-1.42-.01zM862.79 611.29c-.18.189-.29.449-.29.71 0 .26.11.52.29.71.19.18.45.29.71.29.26 0 .52-.11.71-.29.19-.19.29-.45.29-.71 0-.261-.1-.521-.29-.71-.38-.37-1.04-.37-1.42 0zM859.21 626.71c.18-.19.29-.45.29-.71 0-.261-.11-.521-.29-.71-.38-.37-1.05-.37-1.42 0-.18.189-.29.449-.29.71 0 .26.11.52.29.71.19.189.44.29.71.29.27 0 .52-.11.71-.29zM862.79 625.29c-.18.189-.29.449-.29.71 0 .26.11.52.29.71.19.18.44.29.71.29.27 0 .52-.11.71-.29.18-.19.29-.45.29-.71 0-.261-.11-.521-.29-.71-.37-.37-1.05-.37-1.42 0z"/>
        </g>
    </g>
</svg>
