<?xml version="1.0" encoding="UTF-8" standalone="no"?>
<svg width="41px" height="49px" viewBox="0 0 41 49" version="1.1" xmlns="http://www.w3.org/2000/svg" xmlns:xlink="http://www.w3.org/1999/xlink">
    <!-- Generator: Sketch 49.3 (51167) - http://www.bohemiancoding.com/sketch -->
    <title>Shape</title>
    <desc>Created with Sketch.</desc>
    <defs></defs>
    <g id="Page-1" stroke="none" stroke-width="1" fill="none" fill-rule="evenodd">
        <g id="8" transform="translate(-830.000000, -610.000000)" fill="#0077FF" fill-rule="nonzero">
            <path d="M850.157,652.474 L848.236,649.649 C847.887,649.141 848.014,648.443 848.538,648.093 C849.046,647.744 849.728,647.887 850.078,648.395 L853.173,652.95 C853.49,653.363 853.475,653.95 853.125,654.363 L849.474,658.585 C849.077,659.045 848.379,659.093 847.903,658.696 C847.443,658.283 847.395,657.585 847.792,657.109 L849.887,654.696 C849.189,654.68 848.506,654.617 847.808,654.521 C846.713,654.378 845.618,654.14 844.522,653.791 C839.205,652.14 835.046,648.49 832.65,643.918 C830.237,639.347 829.587,633.855 831.237,628.537 C832.269,625.22 834.078,622.347 836.395,620.077 C838.808,617.728 841.776,616.014 844.998,615.109 C845.585,614.934 846.204,615.284 846.379,615.871 C846.554,616.474 846.204,617.093 845.601,617.252 C842.744,618.077 840.093,619.601 837.966,621.68 C835.887,623.696 834.284,626.235 833.379,629.188 C831.903,633.918 832.49,638.807 834.617,642.87 C836.76,646.933 840.442,650.187 845.172,651.663 C846.156,651.965 847.14,652.171 848.108,652.314 C848.792,652.41 849.474,652.458 850.157,652.474 Z M855.966,653.855 C855.379,654.03 854.76,653.68 854.585,653.077 C854.426,652.49 854.76,651.871 855.363,651.696 C858.236,650.886 860.871,649.363 863.013,647.268 C865.076,645.252 866.679,642.713 867.6,639.776 C869.06,635.03 868.473,630.157 866.346,626.078 C864.204,622.014 860.521,618.76 855.792,617.3 C854.808,616.998 853.84,616.776 852.856,616.649 C852.173,616.554 851.491,616.506 850.824,616.49 L852.729,619.315 C853.078,619.823 852.951,620.521 852.443,620.855 C851.935,621.204 851.237,621.077 850.888,620.569 L847.793,615.998 C847.476,615.585 847.491,614.998 847.841,614.601 L851.49,610.38 C851.887,609.92 852.601,609.872 853.061,610.269 C853.521,610.666 853.585,611.38 853.172,611.84 L851.077,614.253 C851.775,614.285 852.458,614.332 853.156,614.428 C854.251,614.587 855.346,614.825 856.442,615.158 C861.775,616.825 865.918,620.475 868.314,625.047 C870.727,629.618 871.377,635.11 869.727,640.428 C868.695,643.745 866.886,646.602 864.569,648.872 C862.156,651.22 859.188,652.934 855.966,653.855 Z" id="Shape"></path>
        </g>
    </g>
</svg>