<?xml version="1.0" encoding="UTF-8" standalone="no"?>
<svg width="18px" height="18px" viewBox="0 0 18 18" version="1.1" xmlns="http://www.w3.org/2000/svg" xmlns:xlink="http://www.w3.org/1999/xlink">
    <!-- Generator: Sketch 49.3 (51167) - http://www.bohemiancoding.com/sketch -->
    <title>Shape</title>
    <desc>Created with Sketch.</desc>
    <defs></defs>
    <g id="Page-1" stroke="none" stroke-width="1" fill="none" fill-rule="evenodd">
        <g id="1.1-speed-dial" transform="translate(-551.000000, -133.000000)" fill="#0073FF">
            <g id="Group-7" transform="translate(530.000000, 112.000000)">
                <path d="M21,23 L21,29 L26,29 L25,25 L29,26 L29,21 L23,21 C21.9,21 21,21.9 21,23 L21,23 Z M26,31 L21,31 L21,37 C21,38.1 21.9,39 23,39 L29,39 L29,34 L25,35 L26,31 L26,31 Z M35,35 L31,34 L31,39 L37,39 C38.1,39 39,38.1 39,37 L39,31 L34,31 L35,35 L35,35 Z M37,21 L31,21 L31,26 L35,25 L34,29 L39,29 L39,23 C39,21.9 38.1,21 37,21 L37,21 Z" id="Shape"></path>
            </g>
        </g>
    </g>
</svg>