<?xml version="1.0" encoding="UTF-8" standalone="no"?>
<svg width="48px" height="48px" viewBox="0 0 48 48" version="1.1" xmlns="http://www.w3.org/2000/svg" xmlns:xlink="http://www.w3.org/1999/xlink">
    <!-- Generator: Sketch 49.3 (51167) - http://www.bohemiancoding.com/sketch -->
    <title>Shape</title>
    <desc>Created with Sketch.</desc>
    <defs></defs>
    <g id="Page-1" stroke="none" stroke-width="1" fill="none" fill-rule="evenodd">
        <g id="3" transform="translate(-366.000000, -286.000000)" fill="#0077FF" fill-rule="nonzero">
            <g id="Group-8" transform="translate(310.000000, 100.000000)">
                <g id="Group-6" transform="translate(40.000000, 170.000000)">
                    <path d="M63.220561,54.9066869 L58.2923013,54.9066869 L58.2923013,49.3931742 C58.2923013,48.9621861 57.9433632,48.6129291 57.5127686,48.6129291 L51.0169121,48.6129291 L51.0169121,44.1916657 L55.9451718,44.1916657 C56.3757663,44.1916657 56.7247045,43.8424086 56.7247045,43.4114206 L56.7247045,36.5455457 C56.7247045,36.1145577 56.3757663,35.7653007 55.9451718,35.7653007 L51.0169121,35.7653007 L51.0169121,31.1360032 C51.0169121,30.7050151 50.6679739,30.3557581 50.2373794,30.3557581 L40.7795796,30.3557581 L40.7795796,25.8825096 L43.1228655,25.8825096 C43.5534601,25.8825096 43.9023982,25.5332526 43.9023982,25.1022645 C43.9023982,24.6712765 43.5534601,24.3220195 43.1228655,24.3220195 L31.4255614,24.3220195 L31.4255614,17.5603963 L48.5746261,17.5603963 L48.5746261,24.322301 L46.3353092,24.322301 C45.9047146,24.322301 45.5557765,24.671558 45.5557765,25.1025461 C45.5557765,25.5335341 45.9047146,25.8827911 46.3353092,25.8827911 L49.3541589,25.8827911 C49.7847535,25.8827911 50.1336917,25.5335341 50.1336917,25.1025461 L50.1336917,16.780245 C50.1336917,16.349257 49.7847535,16 49.3541589,16 L30.6460286,16 C30.215434,16 29.8664958,16.349257 29.8664958,16.780245 L29.8664958,25.1025461 C29.8664958,25.5335341 30.215434,25.8827911 30.6460286,25.8827911 L39.2205141,25.8827911 L39.2205141,30.3560396 L29.2794322,30.3560396 C28.8488376,30.3560396 28.4998994,30.7052966 28.4998994,31.1362847 L28.4998994,35.7655822 L23.5716398,35.7655822 C23.1410452,35.7655822 22.792107,36.1148392 22.792107,36.5458272 L22.792107,43.4117021 C22.792107,43.8426902 23.1410452,44.1919472 23.5716398,44.1919472 L28.4998994,44.1919472 L28.4998994,48.6132106 L22.4872314,48.6132106 C22.0566368,48.6132106 21.7076986,48.9624676 21.7076986,49.3934557 L21.7076986,54.9069684 L16.7795328,54.9069684 C16.3489382,54.9069684 16,55.2562254 16,55.6872134 L16,62.5530883 C16,62.9840763 16.3489382,63.3333333 16.7795328,63.3333333 L28.1950238,63.3333333 C28.6256184,63.3333333 28.9745566,62.9840763 28.9745566,62.5530883 L28.9745566,55.6872134 C28.9745566,55.2562254 28.6256184,54.9069684 28.1950238,54.9069684 L23.2667642,54.9069684 L23.2667642,50.1737007 L38.9790136,50.1737007 L38.9790136,54.9069684 L34.0506602,54.9069684 C33.6200657,54.9069684 33.2711275,55.2562254 33.2711275,55.6872134 L33.2711275,62.5530883 C33.2711275,62.9840763 33.6200657,63.3333333 34.0506602,63.3333333 L40.0000469,63.3333333 C40.4306415,63.3333333 40.7795796,62.9840763 40.7795796,62.5530883 C40.7795796,62.1221003 40.4306415,61.7728432 40.0000469,61.7728432 L34.830193,61.7728432 L34.830193,56.4673646 L44.6867123,56.4673646 L44.6867123,61.7728432 L43.2123969,61.7728432 C42.7818023,61.7728432 42.4328641,62.1221003 42.4328641,62.5530883 C42.4328641,62.9840763 42.7818023,63.3333333 43.2123969,63.3333333 L45.4661513,63.3333333 C45.8967459,63.3333333 46.2456841,62.9840763 46.2456841,62.5530883 L46.2456841,55.6872134 C46.2456841,55.2562254 45.8967459,54.9069684 45.4661513,54.9069684 L40.5378917,54.9069684 L40.5378917,50.1737007 L56.7332358,50.1737007 L56.7332358,54.9069684 L51.8049762,54.9069684 C51.3743816,54.9069684 51.0254434,55.2562254 51.0254434,55.6872134 L51.0254434,62.5530883 C51.0254434,62.9840763 51.3743816,63.3333333 51.8049762,63.3333333 L63.2204672,63.3333333 C63.6510618,63.3333333 64,62.9840763 64,62.5530883 L64,55.6872134 C64.0000937,55.2559439 63.6511555,54.9066869 63.220561,54.9066869 Z M27.415491,56.4671769 L27.415491,61.7726556 L17.5589718,61.7726556 L17.5589718,56.4671769 L27.415491,56.4671769 Z M55.1657327,37.3258846 L55.1657327,42.6313632 L45.3093072,42.6313632 L45.3093072,37.3258846 L55.1657327,37.3258846 Z M49.4580341,48.613023 L30.0588712,48.613023 L30.0588712,44.1917595 L30.4615282,44.1917595 C30.8921228,44.1917595 31.241061,43.8425025 31.241061,43.4115145 C31.241061,42.9805264 30.8921228,42.6312694 30.4615282,42.6312694 L24.3511726,42.6312694 L24.3511726,37.3257908 L34.2076918,37.3257908 L34.2076918,42.6312694 L33.6738783,42.6312694 C33.2432837,42.6312694 32.8943455,42.9805264 32.8943455,43.4115145 C32.8943455,43.8425025 33.2432837,44.1917595 33.6738783,44.1917595 L34.9872246,44.1917595 C35.4178192,44.1917595 35.7667573,43.8425025 35.7667573,43.4115145 L35.7667573,36.5456396 C35.7667573,36.1146515 35.4178192,35.7653945 34.9872246,35.7653945 L30.0588712,35.7653945 L30.0588712,31.916342 L49.4580341,31.916342 L49.4579403,35.7653945 L44.5296807,35.7653945 C44.0990861,35.7653945 43.7501479,36.1146515 43.7501479,36.5456396 L43.7501479,43.4115145 C43.7501479,43.8425025 44.0990861,44.1917595 44.5296807,44.1917595 L49.4579403,44.1917595 L49.4580341,48.613023 Z M52.5846027,61.7725617 L52.5846027,56.4670831 L62.4410282,56.4670831 L62.4410282,61.7725617 L52.5846027,61.7725617 Z" id="Shape"></path>
                </g>
            </g>
        </g>
    </g>
</svg>