<?xml version="1.0" encoding="UTF-8" standalone="no"?>
<svg width="48px" height="37px" viewBox="0 0 48 37" version="1.1" xmlns="http://www.w3.org/2000/svg" xmlns:xlink="http://www.w3.org/1999/xlink">
    <!-- Generator: Sketch 49.3 (51167) - http://www.bohemiancoding.com/sketch -->
    <title>Group 10</title>
    <desc>Created with Sketch.</desc>
    <defs></defs>
    <g id="Page-1" stroke="none" stroke-width="1" fill="none" fill-rule="evenodd">
        <g id="3" transform="translate(-516.000000, -288.000000)" fill="#0077FF" fill-rule="nonzero">
            <g id="Group-8" transform="translate(310.000000, 100.000000)">
                <g id="Group-5" transform="translate(190.000000, 170.000000)">
                    <g id="Group-10" transform="translate(16.000000, 18.000000)">
                        <g id="003-helmet" transform="translate(0.000000, 0.400000)">
                            <path d="M46.393125,28.3685566 L46.3412813,28.3685566 L46.3412813,24.1445762 C46.3412813,13.6028279 39.0207188,4.46599207 28.8535313,2.20140059 C28.7995313,1.65635565 28.5675938,1.14931955 28.1821875,0.748010287 C27.7189688,0.265684652 27.09675,0 26.43,0 L21.57,0 C20.90325,0 20.2810313,0.265684652 19.8178125,0.748010287 C19.4325,1.14931955 19.2004687,1.65635565 19.1464688,2.20140059 C8.97928125,4.46599207 1.65871875,13.6028279 1.65871875,24.1445762 L1.65871875,28.3685566 L1.606875,28.3685566 C0.72075,28.3685566 0,29.0937427 0,29.9851114 L0,31.0487932 C0,31.7526641 0.44259375,32.371086 1.10128125,32.5877269 C7.347,34.6421852 15.4793437,35.7735849 24,35.7735849 C32.5206563,35.7735849 40.653,34.6421852 46.8987188,32.5877269 C47.5574062,32.371086 48,31.7526641 48,31.0487932 L48,29.9851114 C48,29.0937427 47.2791562,28.3685566 46.393125,28.3685566 Z M20.93625,1.83498779 C21.1037812,1.66059981 21.328875,1.56439877 21.57,1.56439877 L26.4299062,1.56439877 C26.6710312,1.56439877 26.896125,1.66041118 27.0636562,1.83498779 C27.2311875,2.00947008 27.3189375,2.23912649 27.3105937,2.4815154 L26.5956562,23.3407315 C26.5791562,23.8207936 26.1923437,24.1968265 25.7149687,24.1968265 L22.285125,24.1968265 C21.80775,24.1968265 21.4209375,23.8207936 21.4044375,23.3408259 L20.6895,2.48160972 C20.6810625,2.23903218 20.7687187,2.00947008 20.93625,1.83498779 Z M46.4449687,31.0488875 C46.4449687,31.0699197 46.435875,31.0941586 46.4155312,31.1008549 C40.3215937,33.105232 32.3609062,34.2091861 24,34.2091861 C15.6390937,34.2091861 7.67840625,33.105232 1.5845625,31.1006663 C1.56421875,31.0939699 1.555125,31.0698253 1.555125,31.0487932 L1.555125,29.9851114 C1.555125,29.9563454 1.578375,29.9329553 1.60696875,29.9329553 L31.464375,29.9329553 C31.89375,29.9329553 32.2419375,29.5827647 32.2419375,29.1507088 C32.2419375,28.7187472 31.8938437,28.3684623 31.464375,28.3684623 L3.21384375,28.3684623 L3.21384375,24.1445762 C3.21384375,16.2829701 7.5898125,9.26170851 14.1972187,5.69925175 L15.8843437,17.5809297 C15.9398437,17.9711098 16.272375,18.2526394 16.6531875,18.2526394 C16.68975,18.2526394 16.7267812,18.2499986 16.7640937,18.2447169 C17.18925,18.183601 17.4846562,17.7873847 17.4239062,17.3597616 L15.6660937,4.98019609 C16.7855625,4.48711857 17.9595,4.09014779 19.178625,3.7992811 L19.8503437,23.3948682 C19.8958125,24.7217824 20.9653125,25.7613196 22.2852187,25.7613196 L25.7150625,25.7613196 C27.034875,25.7613196 28.104375,24.7217824 28.1499375,23.3948682 L28.8216562,3.79937541 C30.0406875,4.09033642 31.2147187,4.4873072 32.3341875,4.98029041 L30.576375,17.3598559 C30.5157187,17.7875733 30.811125,18.1836953 31.2361875,18.2448112 C31.2735,18.2500929 31.3105312,18.2527337 31.3470937,18.2527337 C31.7278125,18.2527337 32.0604375,17.9711098 32.1159375,17.581024 L33.8030625,5.69934606 C40.4104687,9.26170851 44.7864375,16.2828758 44.7864375,24.1445762 L44.7864375,28.3685566 L39.7581562,28.3685566 C39.3287812,28.3685566 38.9805937,28.7187472 38.9805937,29.1508031 C38.9805937,29.5827647 39.3286875,29.9330497 39.7581562,29.9330497 L46.3933125,29.9330497 C46.4219062,29.9330497 46.4451562,29.9564397 46.4451562,29.9852057 L46.4451562,31.0488875 L46.4449687,31.0488875 Z" id="Shape"></path>
                            <path d="M36.3651886,28.5283019 L34.729151,28.5283019 C34.3056712,28.5283019 33.9622642,28.8323817 33.9622642,29.2075472 C33.9622642,29.5826308 34.3055787,29.8867925 34.729151,29.8867925 L36.3651886,29.8867925 C36.7886685,29.8867925 37.1320755,29.5827127 37.1320755,29.2075472 C37.1320755,28.8323817 36.7887609,28.5283019 36.3651886,28.5283019 Z" id="Shape"></path>
                            <path d="M18.1052058,22.2191332 L17.8656091,20.5829864 C17.8042178,20.1637341 17.4065005,19.8724301 16.9766665,19.9323365 C16.547022,19.9922429 16.2484972,20.3806174 16.3098885,20.7997772 L16.5493905,22.4359241 C16.6054764,22.818382 16.9415181,23.0943396 17.3263508,23.0943396 C17.3632992,23.0943396 17.4007214,23.0917511 17.4384278,23.086574 C17.8680724,23.0266676 18.1665971,22.638293 18.1052058,22.2191332 Z" id="Shape"></path>
                            <path d="M31.0232588,19.9323547 C30.5935981,19.8723563 30.1956764,20.1638435 30.1342827,20.5830009 L29.8947717,22.2191383 C29.8334729,22.6383881 30.1320089,23.026668 30.5615749,23.086574 C30.5991879,23.0917511 30.6367063,23.0943396 30.6736562,23.0943396 C31.0584086,23.0943396 31.3945577,22.8182911 31.4506457,22.4359279 L31.6901567,20.7997905 C31.7513608,20.3806331 31.4528248,19.9922608 31.0232588,19.9323547 Z" id="Shape"></path>
                        </g>
                    </g>
                </g>
            </g>
        </g>
    </g>
</svg>