<?xml version="1.0" encoding="UTF-8" standalone="no"?>
<svg width="49px" height="54px" viewBox="0 0 49 54" version="1.1" xmlns="http://www.w3.org/2000/svg" xmlns:xlink="http://www.w3.org/1999/xlink">
    <!-- Generator: Sketch 49.3 (51167) - http://www.bohemiancoding.com/sketch -->
    <title>Group 9</title>
    <desc>Created with Sketch.</desc>
    <defs></defs>
    <g id="Page-1" stroke="none" stroke-width="1" fill="none" fill-rule="evenodd">
        <g id="3" transform="translate(-668.000000, -284.000000)" fill="#0077FF" fill-rule="nonzero">
            <g id="Group-8" transform="translate(310.000000, 100.000000)">
                <g id="Group" transform="translate(340.000000, 170.000000)">
                    <g id="Group-9" transform="translate(18.000000, 14.000000)">
                        <g id="002-order" transform="translate(0.400000, 0.400000)">
                            <path d="M4.94845361,29.6907216 C4.40189691,29.6907216 3.95876289,30.0969278 3.95876289,30.5979381 L3.95876289,34.2268041 C3.95876289,34.7278144 4.40189691,35.1340206 4.94845361,35.1340206 C5.49501031,35.1340206 5.93814433,34.7278144 5.93814433,34.2268041 L5.93814433,30.5979381 C5.93814433,30.0969278 5.49501031,29.6907216 4.94845361,29.6907216 Z" id="Shape"></path>
                            <path d="M8.41237113,31.6701031 C7.86581443,31.6701031 7.42268041,32.0763093 7.42268041,32.5773196 L7.42268041,36.2061856 C7.42268041,36.7071959 7.86581443,37.1134021 8.41237113,37.1134021 C8.95892784,37.1134021 9.40206186,36.7071959 9.40206186,36.2061856 L9.40206186,32.5773196 C9.40206186,32.0763093 8.95892784,31.6701031 8.41237113,31.6701031 Z" id="Shape"></path>
                            <path d="M40.8773968,36.3600928 C40.459326,36.094384 39.9050373,36.2180451 39.6393286,36.636116 C39.3843827,37.0373698 39.4867422,37.5678904 39.8728608,37.8453711 C42.3382344,39.5053221 42.9910708,42.8495528 41.3312319,45.3148143 C39.6712809,47.780188 36.3270503,48.4331365 33.8617887,46.7731855 C31.3964151,45.1132344 30.7434666,41.7690038 32.4034176,39.3037422 C33.4029086,37.8192487 35.0750799,36.9287319 36.864634,36.927835 C37.359951,36.927835 37.7615412,36.5262448 37.7615412,36.0309278 C37.7615412,35.5356108 37.359951,35.1340206 36.864634,35.1340206 C32.9018738,35.1348054 29.689937,38.3478634 29.6907218,42.3106236 C29.6915066,46.2733839 32.9045645,49.4853207 36.8673247,49.4845359 C40.830085,49.4837511 44.0420218,46.2706932 44.041237,42.3079329 C44.0407885,39.9227203 42.8550772,37.6935696 40.8773968,36.3600928 Z" id="Shape"></path>
                            <path d="M47.5710203,39.5626288 C46.693591,36.5225438 44.5346011,34.0160672 41.6583628,32.6982933 L41.6583628,12.6808998 C41.658476,12.3605989 41.4893521,12.0640743 41.2137051,11.9010367 L21.2901403,0.126099389 C21.0057767,-0.0420331295 20.652473,-0.0420331295 20.3682226,0.126099389 L0.444657799,11.9010367 C0.42563985,11.9119059 0.412055602,11.9282096 0.39394327,11.9408903 C0.375830938,11.953571 0.358624223,11.9680633 0.340511892,11.9825555 C0.261836451,12.0444871 0.194254814,12.1192127 0.140370627,12.203562 C0.140370627,12.2099024 0.129503228,12.2135254 0.125880762,12.2198658 L0.125880762,12.2262061 C0.0748266269,12.3182544 0.0401867926,12.4184546 0.0235460879,12.5223911 C0.0235460879,12.549564 0.0153955387,12.5749254 0.0126786889,12.6020983 C0.0099618392,12.6292713 5.67926839e-08,12.6537269 5.67926839e-08,12.6808998 L5.67926839e-08,36.2307744 C-0.00011314528,36.5510754 0.169010751,36.8476 0.444657799,37.0106376 L20.3682226,48.7855749 C20.3921082,48.7971234 20.4165599,48.8074265 20.4415776,48.8163709 C20.4662556,48.8287119 20.4917261,48.8395811 20.5176493,48.8489784 C20.7169982,48.9323087 20.9413647,48.9323087 21.1407136,48.8489784 C21.1669764,48.8395811 21.1926733,48.8287119 21.217691,48.8163709 C21.241237,48.8055017 21.2665943,48.7991614 21.2901403,48.7855749 L26.6975769,45.5891323 C28.3615342,51.3540963 34.3829788,54.6784781 40.1471152,53.0142493 C45.9111383,51.3501336 49.2349776,45.3275928 47.5710203,39.5626288 Z M20.8291814,1.95755502 L25.5383877,4.74096905 L18.5560838,8.86763169 C18.1252367,9.12226471 17.9822625,9.67806439 18.236854,10.1089818 C18.4914454,10.5398992 19.0471544,10.6828968 19.4780015,10.4282638 L27.3197355,5.79709034 L32.0289417,8.58050437 L13.8858191,19.3002261 L9.17661289,16.5168121 L16.762963,12.0332783 C17.1938101,11.7786453 17.3367843,11.2228456 17.0821928,10.7919282 C16.8276014,10.3610108 16.2718924,10.2180132 15.8410453,10.4726462 L7.39617068,15.4643139 L2.68605884,12.6808998 L20.8291814,1.95755502 Z M12.9802025,20.8699159 L12.9802025,26.9177048 L8.30178727,24.1524061 L8.30178727,18.1046171 L12.9802025,20.8699159 Z M26.6207127,39.7711811 C26.3798187,40.6848709 26.2594849,41.6261866 26.2628809,42.5711253 C26.2631073,42.9501877 26.2830309,43.3290237 26.3226516,43.7060481 L21.734798,46.4188125 L21.734798,43.4768897 C21.734798,42.9766813 21.3293082,42.5711253 20.8291814,42.5711253 C20.3290547,42.5711253 19.9235649,42.9766813 19.9235649,43.4768897 L19.9235649,46.4188125 L1.81123322,35.7144887 L1.81123322,14.2687048 L6.4905541,17.0340036 L6.4905541,24.6686918 C6.4902145,24.9893324 6.65922519,25.2863099 6.93521184,25.4494607 L13.4248603,29.285373 C13.5645516,29.3675711 13.7237137,29.4110478 13.8858191,29.4112742 C14.3859459,29.4112742 14.7914357,29.0057182 14.7914357,28.5055098 L14.7914357,21.9396236 L19.9235649,24.9730286 L19.9235649,39.8538321 C19.9235649,40.3540405 20.3290547,40.7595965 20.8291814,40.7595965 C21.3293082,40.7595965 21.734798,40.3540405 21.734798,39.8538321 L21.734798,24.9730286 L38.148193,15.2722918 C38.5788137,15.0176588 38.7215615,14.4620856 38.46697,14.0313946 C38.2123785,13.6007036 37.656896,13.4579325 37.2262753,13.7125655 L20.8291814,23.4042447 L15.6671669,20.3527244 L33.8102895,9.62937955 L39.8471297,13.1971856 L39.8471297,32.0642582 C34.0669186,30.539517 28.145205,33.9899133 26.6207127,39.7711811 Z M37.1302799,51.6287694 C32.1286727,51.6287694 28.0741141,47.5735489 28.0741141,42.5711253 C28.0741141,37.5687017 32.1286727,33.5134812 37.1302799,33.5134812 C42.1318871,33.5134812 46.1864458,37.5687017 46.1864458,42.5711253 C46.1810121,47.5712845 42.1296231,51.6232216 37.1302799,51.6287694 Z" id="Shape"></path>
                            <path d="M40.7880509,40.3394767 C40.4274129,39.9968067 39.855511,39.9968067 39.494873,40.3394767 L35.9648092,43.8112554 L35.2267811,43.0854129 C34.8570691,42.7341619 34.2679495,42.7442304 33.9108016,43.1078381 C33.5623788,43.4625215 33.5623788,44.0249808 33.9108016,44.3796642 L35.3068195,45.7526323 C35.6702495,46.1099473 36.259369,46.1099473 36.622799,45.7526323 L40.8108525,41.633728 C41.1680004,41.2701203 41.1577629,40.6906133 40.7880509,40.3394767 Z" id="Shape"></path>
                        </g>
                    </g>
                </g>
            </g>
        </g>
    </g>
</svg>