<?xml version="1.0" encoding="UTF-8" standalone="no"?>
<svg width="22px" height="22px" viewBox="0 0 22 22" version="1.1" xmlns="http://www.w3.org/2000/svg" xmlns:xlink="http://www.w3.org/1999/xlink">
    <!-- Generator: Sketch 49.3 (51167) - http://www.bohemiancoding.com/sketch -->
    <title>Shape</title>
    <desc>Created with Sketch.</desc>
    <defs></defs>
    <g id="Page-1" stroke="none" stroke-width="1" fill="none" fill-rule="evenodd">
        <g id="1.1-speed-dial" transform="translate(-409.000000, -131.000000)" fill="#1870D4">
            <g id="Group-9" transform="translate(390.000000, 112.000000)">
                <path d="M26,29.5 C26,28.67 25.33,28 24.5,28 C23.67,28 23,28.67 23,29.5 C23,30.33 23.67,31 24.5,31 C25.33,31 26,30.33 26,29.5 L26,29.5 Z M33,24.5 C33,23.67 32.33,23 31.5,23 L28.5,23 C27.67,23 27,23.67 27,24.5 C27,25.33 27.67,26 28.5,26 L31.5,26 C32.33,26 33,25.33 33,24.5 L33,24.5 Z M26.5,33 C25.67,33 25,33.67 25,34.5 C25,35.33 25.67,36 26.5,36 C27.33,36 28,35.33 28,34.5 C28,33.67 27.33,33 26.5,33 L26.5,33 Z M30,19 C23.93,19 19,23.93 19,30 C19,36.07 23.93,41 30,41 C36.07,41 41,36.07 41,30 C41,23.93 36.07,19 30,19 L30,19 Z M30,39 C25.04,39 21,34.96 21,30 C21,25.04 25.04,21 30,21 C34.96,21 39,25.04 39,30 C39,34.96 34.96,39 30,39 L30,39 Z M35.5,28 C34.67,28 34,28.67 34,29.5 C34,30.33 34.67,31 35.5,31 C36.33,31 37,30.33 37,29.5 C37,28.67 36.33,28 35.5,28 L35.5,28 Z M33.5,33 C32.67,33 32,33.67 32,34.5 C32,35.33 32.67,36 33.5,36 C34.33,36 35,35.33 35,34.5 C35,33.67 34.33,33 33.5,33 L33.5,33 Z" id="Shape"></path>
            </g>
        </g>
    </g>
</svg>